<svg width="845" height="277" viewBox="0 0 845 277" xmlns="http://www.w3.org/2000/svg"><title>Group 32</title><g fill="#2980B9" fill-rule="evenodd"><path d="M707.01 90.075c-15.03-26.107-47.087-37.024-74.925-25.514-27.839 11.51-42.828 41.877-35.032 70.975 7.796 29.098 35.96 47.904 65.823 43.955 29.864-3.95 52.17-29.432 52.133-59.556a60.25 60.25 0 0 0-8-29.86zm-52 59.86c-16.57 0-30-13.431-30-30v-.81c.444-16.455 14.066-29.48 30.525-29.185 16.459.294 29.606 13.797 29.462 30.258-.144 16.461-13.526 29.731-29.988 29.737zM785 60c-33.137 0-60 26.863-60 60s26.863 60 60 60a60.47 60.47 0 0 0 8.41-.6c31.166-4.44 53.6-32.213 51.388-63.616C842.586 84.382 816.48 60.028 785 60zm8.45 88.78a30 30 0 1 1 21.53-29.59v.81a30 30 0 0 1-21.53 28.78zM585 15v105h-30V15c0-8.284 6.716-15 15-15 8.284 0 15 6.716 15 15z" fill-rule="nonzero"/><path d="M525 60c-33.137 0-60 26.863-60 60s26.863 60 60 60 60-26.863 60-60-26.863-60-60-60zm0 90c-16.569 0-30-13.431-30-30 0-16.569 13.431-30 30-30 16.569 0 30 13.431 30 30 0 16.569-13.431 30-30 30zm-175-30h30v45h-30z" fill-rule="nonzero"/><circle fill-rule="nonzero" cx="365" cy="165" r="15"/><path d="M320 60c-33.137 0-60 26.863-60 60s26.863 60 60 60 60-26.863 60-60-26.863-60-60-60zm0 90c-16.569 0-30-13.431-30-30 0-16.569 13.431-30 30-30 16.569 0 30 13.431 30 30 0 16.569-13.431 30-30 30zm-70-75v45h-30V75c0-8.284 6.716-15 15-15 8.284 0 15 6.716 15 15zm-90 0v45h-30V75c0-8.284 6.716-15 15-15 8.284 0 15 6.716 15 15zm60 45h30c0 33.137-26.863 60-60 60s-60-26.863-60-60h30c0 16.569 13.431 30 30 30 16.569 0 30-13.431 30-30zm170 46h.05c0-.33-.05-.66-.05-1v1zm-290.67-.999C76.669 145 42.661 145 20 165.001c22.661 20.002 56.669 20.002 79.33 0z" fill-rule="nonzero"/><path d="M59.775 150.018h.45c16.464-.122 29.773-13.506 29.773-30 0-16.568-13.432-30-30-30-16.569 0-30 13.432-30 30a30 30 0 0 0 29.777 30zm-.9.01a59.76 59.76 0 0 0-38.537 14.99C1.61 148.519-4.946 122.15 3.873 98.8 12.692 75.451 35.043 60 60.003 60c24.959 0 47.31 15.451 56.13 38.8 8.818 23.349 2.262 49.719-16.465 66.219a59.76 59.76 0 0 0-38.537-14.99c13.789.257 27.507 5.254 38.537 14.99-22.661 20.001-56.67 20.001-79.33 0 11.03-9.736 24.747-14.733 38.537-14.99z" fill-rule="nonzero"/><g transform="translate(0 202)"><path d="M90 15c0 16.569-13.431 30-30 30-16.569 0-30-13.431-30-30H0c0 33.137 26.863 60 60 60s60-26.863 60-60H90z" fill-rule="nonzero"/><circle cx="15" cy="15" r="15"/><circle cx="105" cy="16" r="15"/></g><path d="M390 165c0 8.284 6.716 15 15 15 8.284 0 15-6.716 15-15v-45h-30v45z"/><path d="M390 128.552h29.814c.124 0 .186-2.197.186-6.59 0-8.284-6.716-15-15-15-8.284 0-15 6.716-15 15v6.59h30v-13.026c.76-9.53 7.107-18.155 17.344-22.932 2.002-.935 6.76-1.957 13.781-2.67 8.242-.835 14.246-8.194 13.41-16.436-.835-8.242-8.194-14.246-16.436-13.41-10.085 1.022-17.734 2.666-23.443 5.33-20.048 9.357-33.313 27.656-34.627 48.656a15 15 0 0 0-.029.937v13.55z" fill-rule="nonzero"/></g></svg>