<?xml version="1.0" encoding="UTF-8"?>
<svg width="82px" height="76px" viewBox="0 0 82 76" version="1.1" xmlns="http://www.w3.org/2000/svg" xmlns:xlink="http://www.w3.org/1999/xlink">
    <!-- Generator: Sketch 47.1 (45422) - http://www.bohemiancoding.com/sketch -->
    <title>2 copy</title>
    <desc>Created with Sketch.</desc>
    <defs></defs>
    <g id="Page-1" stroke="none" stroke-width="1" fill="none" fill-rule="evenodd">
        <g id="2-copy" transform="translate(-1.000000, 2.000000)">
            <path d="M80.8,38.4 C80.8,17.1922656 63.6077344,0 42.4,0 C21.1922656,0 4,17.1922656 4,38.4" id="Oval-27-Copy" stroke="#FAFAFA" stroke-width="4" stroke-linecap="round" stroke-linejoin="round"></path>
            <path d="M41.9697802,10.4 L41.9697802,2" id="Path-64-Copy-4" stroke="#FAFAFA" stroke-width="4" stroke-linecap="round" stroke-linejoin="round"></path>
            <path d="M4,39 L12.4,39" id="Path-64-Copy-6" stroke="#FAFAFA" stroke-width="4" stroke-linecap="round" stroke-linejoin="round"></path>
            <path d="M14.8,13.2 L21.1395605,18.7108958" id="Path-64-Copy-7" stroke="#FAFAFA" stroke-width="4" stroke-linecap="round" stroke-linejoin="round"></path>
            <path d="M62.8,13.2 L69.1395605,18.7108958" id="Path-64-Copy-8" stroke="#FAFAFA" stroke-width="4" stroke-linecap="round" stroke-linejoin="round" transform="translate(65.969780, 15.955448) scale(-1, 1) translate(-65.969780, -15.955448) "></path>
            <path d="M72.4,39 L80.8,39" id="Path-64-Copy-9" stroke="#FAFAFA" stroke-width="4" stroke-linecap="round" stroke-linejoin="round"></path>
            <path d="" id="Path-67-Copy" stroke="#979797" stroke-width="1.2"></path>
            <path d="M15.3585,62.843 L14.5755,62.843 L14.5755,59.653 C14.5755,58.551 13.7055,57.681 12.6035,57.681 C11.4725,57.681 10.6605,58.551 10.6605,59.653 L10.6605,62.843 L5.9915,62.843 L10.3415,52.78 C10.4285,52.548 10.4865,52.316 10.4865,52.084 C10.4865,51.011 9.5875,50.112 8.5145,50.112 C7.7025,50.112 7.0065,50.663 6.6875,51.388 L1.3225,63.684 C1.2065,63.974 1.1485,64.235 1.1485,64.525 C1.1485,65.598 2.0185,66.468 3.0915,66.468 L10.6605,66.468 L10.6605,67.947 C10.6605,69.078 11.5015,69.948 12.6035,69.948 C13.7055,69.948 14.5755,69.078 14.5755,67.947 L14.5755,66.468 L15.3585,66.468 C16.5185,66.468 17.2145,65.569 17.2145,64.67 C17.2145,63.742 16.5185,62.843 15.3585,62.843 Z M26.6395,50.112 C31.3665,50.112 34.2085,53.766 34.2085,59.885 C34.2085,66.091 31.3085,69.948 26.6395,69.948 C21.9415,69.948 19.0415,66.091 19.0415,59.885 C19.0415,53.766 21.8835,50.112 26.6395,50.112 Z M26.6395,53.737 C24.2325,53.737 23.0725,55.738 23.0725,59.914 C23.0725,64.148 24.2905,66.323 26.6395,66.323 C28.9885,66.323 30.1775,64.148 30.1775,59.914 C30.1775,55.738 29.0175,53.737 26.6395,53.737 Z M43.2615,69.828 C45.5225,69.828 47.8215,68.726 48.9425,67.092 C49.2845,66.579 49.4175,66.104 49.4175,65.42 L49.4175,64.052 C49.4175,63.102 48.7145,62.399 47.7645,62.399 L44.4965,62.399 C43.6605,62.399 43.0335,63.007 43.0335,63.805 C43.0335,64.603 43.6605,65.211 44.4965,65.211 L46.1495,65.211 L46.1495,65.8 C45.5225,66.522 44.5535,66.921 43.3945,66.921 C41.2095,66.921 39.7845,65.515 39.7845,63.33 C39.7845,61.202 41.1335,59.834 43.2045,59.834 C44.2115,59.834 45.0095,60.176 45.6935,60.879 C46.1685,61.373 46.5295,61.563 47.0425,61.563 C47.8405,61.563 48.5245,60.898 48.5245,60.1 C48.5245,59.492 48.1825,58.941 47.3655,58.2 C46.3585,57.345 44.8005,56.832 43.2615,56.832 C39.4045,56.832 36.4405,59.644 36.4405,63.33 C36.4405,67.016 39.4045,69.828 43.2615,69.828 Z M56.7895,59.872 C59.4495,59.872 61.3495,61.962 61.3495,64.869 C61.3495,67.776 59.4495,69.828 56.7895,69.828 C55.6495,69.828 54.7755,69.448 54.1675,68.745 C53.9585,69.391 53.4075,69.828 52.6855,69.828 C51.7735,69.828 51.0895,69.125 51.0895,68.175 L51.0895,56.775 C51.0895,55.825 51.7925,55.122 52.7235,55.122 C53.6545,55.122 54.3575,55.825 54.3575,56.775 L54.3575,60.746 C54.9465,60.176 55.7635,59.872 56.7895,59.872 Z M56.1435,66.864 C57.2455,66.864 58.0055,66.047 58.0055,64.85 C58.0055,63.672 57.2265,62.836 56.1435,62.836 C55.0605,62.836 54.3005,63.672 54.3005,64.869 C54.3005,66.047 55.0415,66.864 56.1435,66.864 Z M68.7025,59.872 C71.3625,59.872 73.2625,61.924 73.2625,64.831 C73.2625,67.738 71.3625,69.828 68.7025,69.828 C67.6765,69.828 66.8595,69.524 66.2705,68.954 L66.2705,71.595 C66.2705,72.545 65.5675,73.248 64.6365,73.248 C63.7055,73.248 63.0025,72.545 63.0025,71.595 L63.0025,61.468 C63.0025,60.556 63.6865,59.872 64.5985,59.872 C65.3205,59.872 65.8905,60.309 66.0995,60.936 C66.6885,60.233 67.5815,59.872 68.7025,59.872 Z M68.0565,66.864 C69.1395,66.864 69.9185,66.028 69.9185,64.85 C69.9185,63.653 69.1585,62.836 68.0565,62.836 C66.9545,62.836 66.2135,63.653 66.2135,64.831 C66.2135,66.028 66.9735,66.864 68.0565,66.864 Z M78.1455,69.828 C80.4065,69.828 82.0785,68.669 82.0785,66.674 C82.0785,65.078 80.9955,64.375 79.3045,63.691 L78.3545,63.311 C77.9175,63.14 77.7085,63.045 77.7085,62.798 C77.7085,62.532 77.9555,62.437 78.3735,62.437 C78.9055,62.437 79.3995,62.608 79.8935,62.893 C80.1215,63.026 80.3875,63.14 80.6535,63.14 C81.3755,63.14 81.9645,62.551 81.9645,61.81 C81.9645,61.373 81.7365,60.955 81.3375,60.689 C80.5205,60.138 79.3995,59.853 78.3545,59.853 C76.1695,59.853 74.6685,60.955 74.6685,62.855 C74.6685,64.432 75.6945,65.211 77.4235,65.914 L78.4875,66.351 C78.8485,66.503 79.0385,66.598 79.0385,66.826 C79.0385,67.149 78.6585,67.244 78.2025,67.244 C77.5185,67.244 76.8535,66.959 76.3595,66.617 C76.0175,66.37 75.7515,66.294 75.4855,66.294 C74.7445,66.294 74.1555,66.883 74.1555,67.605 C74.1555,68.004 74.3265,68.365 74.6495,68.631 C75.5425,69.391 76.7775,69.828 78.1455,69.828 Z" id="40Gbps" fill="#FAFAFA"></path>
            <g id="Group-16" transform="translate(47.710073, 31.953118) rotate(42.000000) translate(-47.710073, -31.953118) translate(26.210073, 10.953118)" fill="#FAFAFA">
                <g id="Group-48" transform="translate(21.506326, 21.026205) rotate(-46.000000) translate(-21.506326, -21.026205) translate(7.506326, 5.526205)">
                    <g id="Group-49" transform="translate(13.992315, 15.334470) rotate(-5.000000) translate(-13.992315, -15.334470) translate(1.492315, 1.334470)">
                        <g id="Group-50" transform="translate(12.285985, 14.113467) rotate(27.000000) translate(-12.285985, -14.113467) translate(4.785985, 2.613467)">
                            <ellipse id="Oval-28-Copy" cx="3.93655707" cy="18.4640683" rx="3.9" ry="3.73333333"></ellipse>
                            <path d="M13.8336851,0.815698929 L1.03145017,15.9975644 L7.53499806,19.9264381 L14.749837,1.35939797 L14.749837,1.35939797 C14.8578569,1.08141401 14.7200738,0.768496061 14.4420899,0.660476177 C14.2269559,0.576878731 13.9824742,0.639253518 13.8336851,0.815698929 Z" id="Path-68"></path>
                        </g>
                    </g>
                </g>
            </g>
        </g>
    </g>
</svg>