<?xml version="1.0" encoding="UTF-8"?>
<svg width="1165px" height="262px" viewBox="0 0 1165 262" version="1.1" xmlns="http://www.w3.org/2000/svg" xmlns:xlink="http://www.w3.org/1999/xlink">
    <!-- Generator: Sketch 47.1 (45422) - http://www.bohemiancoding.com/sketch -->
    <title>graphic 16</title>
    <desc>Created with Sketch.</desc>
    <defs></defs>
    <g id="Page-1" stroke="none" stroke-width="1" fill="none" fill-rule="evenodd">
        <g id="features-page-icons" transform="translate(-119.000000, -167.000000)">
            <g id="graphic-16" transform="translate(122.000000, 167.000000)">
                <g id="Group-6" transform="translate(974.000000, 125.000000)">
                    <path d="M11.2941176,-2.5 L106.705882,-2.5 C114.324163,-2.5 120.5,3.67583683 120.5,11.2941176 C120.5,18.9123985 114.324163,25.0882353 106.705882,25.0882353 L11.2941176,25.0882353 C3.67583683,25.0882353 -2.5,18.9123985 -2.5,11.2941176 C-2.5,3.67583683 3.67583683,-2.5 11.2941176,-2.5 Z" id="Rectangle-16" stroke="#236EA0" stroke-width="5"></path>
                    <g id="Group" transform="translate(74.317308, 8.470588)" fill="#236EA0">
                        <ellipse id="Oval-6" cx="26.7285624" cy="2.90420168" rx="2.90163934" ry="2.90420168"></ellipse>
                        <ellipse id="Oval-6-Copy-2" cx="14.8151009" cy="2.90420168" rx="2.90163934" ry="2.90420168"></ellipse>
                        <ellipse id="Oval-6-Copy-4" cx="2.90163934" cy="2.90420168" rx="2.90163934" ry="2.90420168"></ellipse>
                    </g>
                    <rect id="Rectangle-16" stroke="#236EA0" stroke-width="5" x="-2.5" y="35.2058824" width="123" height="27.5882353" rx="13.7941176"></rect>
                    <g id="Group-4" transform="translate(74.317308, 45.611765)" fill="#236EA0">
                        <ellipse id="Oval-6" cx="26.6901031" cy="3.38823529" rx="2.89138865" ry="2.90420168"></ellipse>
                        <ellipse id="Oval-6-Copy-2" cx="15.1245484" cy="3.38823529" rx="2.89138865" ry="2.90420168"></ellipse>
                        <ellipse id="Oval-6-Copy-4" cx="2.91646303" cy="3.38823529" rx="2.89138865" ry="2.90420168"></ellipse>
                    </g>
                    <rect id="Rectangle-16" stroke="#236EA0" stroke-width="5" x="-2.5" y="72.9117647" width="123" height="27.5882353" rx="13.7941176"></rect>
                    <g id="Group-5" transform="translate(74.317308, 83.317647)" fill="#236EA0">
                        <ellipse id="Oval-6" cx="27.1749946" cy="3.38823529" rx="2.91143583" ry="2.90420168"></ellipse>
                        <ellipse id="Oval-6-Copy-2" cx="15.5292513" cy="3.38823529" rx="2.91143583" ry="2.90420168"></ellipse>
                        <ellipse id="Oval-6-Copy-4" cx="3.23652226" cy="3.38823529" rx="2.91143583" ry="2.90420168"></ellipse>
                    </g>
                </g>
                <path d="M973.653361,213.68425 C947.919662,214.788569 931.931209,212.314328 925.688003,206.261528 C899.665736,181.03289 917.764507,145.977288 943.226109,144.255892 C922.779236,106.935864 974.711095,77.2925138 1000.88208,103.652371 C1010.26392,61.2490372 1072.47543,57.078906 1103.14653,79.1030306 C1123.59393,93.7857803 1131.12949,115.519113 1125.7532,144.303028 C1147.7339,146.548016 1158.81529,157.43568 1158.99738,176.966019 C1159.27053,206.261528 1138.14753,215.949575 1095.36554,213.68425" id="Path-17" stroke="#236EA0" stroke-width="5"></path>
                <path d="M240.166789,97.8859749 C228.640602,98.3786415 221.479335,97.2748151 218.682987,94.5744957 C207.02755,83.3193117 215.134034,67.6800508 226.538348,66.9120892 C217.380144,50.262606 240.64055,37.0378986 252.362598,48.7977501 C256.564748,29.8804658 284.429434,28.0200565 298.167095,37.8456196 C307.325536,44.395995 310.700731,54.0918278 308.292681,66.9331181 C318.681246,68.1406653 323.916309,73.1009475 323.99787,81.8139648 C324.120211,94.8834908 319.01983,97.8859749 296.432303,97.8859749 C276.840376,97.8859749 258.085205,97.8859749 240.166789,97.8859749 Z" id="Path-17-Copy" stroke="#236EA0" stroke-width="5"></path>
                <path d="M21.2928886,216.910162 C12.2588501,217.298324 6.64596503,216.428642 4.45423337,214.301118 C-4.6811092,205.433397 1.67262142,193.111555 10.6111377,192.506495 C3.43308555,179.38872 21.6642151,168.969253 30.851766,178.234591 C34.1453429,163.330064 55.9852321,161.864287 66.7525883,169.60564 C73.9308257,174.766541 76.5762489,182.405683 74.6888579,192.523063 C82.831247,193.474464 86.9344045,197.382565 86.9983305,204.247366 C87.0942195,214.544569 83.0966234,216.910162 65.3928864,216.910162 C50.0370518,216.910162 35.3370526,216.910162 21.2928886,216.910162 Z" id="Path-17-Copy-2" stroke="#236EA0" stroke-width="5"></path>
                <path d="M743,259.5 L935,259.5" id="Path-18" stroke="#2473A7" stroke-width="5" stroke-linecap="round" stroke-linejoin="round"></path>
                <path d="M168.485131,161.5 L303,161.5" id="Path-18-Copy-3" stroke="#2473A7" stroke-width="5" stroke-linecap="round" stroke-linejoin="round"></path>
                <path d="M810.5,64.5 L870.594497,64.5" id="Path-18-Copy" stroke="#2473A7" stroke-width="5" stroke-linecap="round" stroke-linejoin="round"></path>
                <path d="M75.5,66.5 L135.594497,66.5" id="Path-18-Copy-4" stroke="#2473A7" stroke-width="5" stroke-linecap="round" stroke-linejoin="round"></path>
                <path d="M564,2.5 L756,2.5" id="Path-18-Copy-2" stroke="#2473A7" stroke-width="5" stroke-linecap="round" stroke-linejoin="round"></path>
            </g>
        </g>
    </g>
</svg>