<?xml version="1.0" encoding="UTF-8"?>
<svg width="52px" height="70px" viewBox="0 0 52 70" version="1.1" xmlns="http://www.w3.org/2000/svg" xmlns:xlink="http://www.w3.org/1999/xlink">
    <!-- Generator: Sketch 47.1 (45422) - http://www.bohemiancoding.com/sketch -->
    <title>1</title>
    <desc>Created with Sketch.</desc>
    <defs></defs>
    <g id="Page-1" stroke="none" stroke-width="1" fill="none" fill-rule="evenodd" stroke-linecap="round" stroke-linejoin="round">
        <g id="features-page-icons" transform="translate(-143.000000, -173.000000)" stroke="#3378A7" stroke-width="3.7536">
            <g id="1" transform="translate(145.000000, 175.000000)">
                <polygon id="Path-54" points="0 45.9596782 0 66 48 66 48 45.9596782 40 42 32 45.9596782 24 42 16 45.9596782 8 42"></polygon>
                <polygon id="Path-54-Copy" transform="translate(24.000000, 18.500000) rotate(-180.000000) translate(-24.000000, -18.500000) " points="0 0 0 37 38.8022551 37 48 27.8632521 48 0 40.0834846 4.02062255 32 0 24 4.02062255 16 0 8.16488396 4.02062255"></polygon>
                <polygon id="Path-54-Copy-2" transform="translate(24.000000, 18.500000) rotate(-180.000000) translate(-24.000000, -18.500000) " points="0 0 0 37 35.9515774 37 35.9515774 26.718469 48 26.718469 48 0 40.0834846 4.02062255 32 0 24 4.02062255 16 0 8.16488396 4.02062255"></polygon>
                <path d="M15,55 L34,55" id="Path-55"></path>
                <path d="M15,24 L34,24" id="Path-55-Copy"></path>
                <path d="M15,17 L34,17" id="Path-55-Copy-2"></path>
            </g>
        </g>
    </g>
</svg>