<?xml version="1.0" encoding="UTF-8"?>
<svg width="69px" height="71px" viewBox="0 0 69 71" version="1.1" xmlns="http://www.w3.org/2000/svg" xmlns:xlink="http://www.w3.org/1999/xlink">
    <!-- Generator: Sketch 47.1 (45422) - http://www.bohemiancoding.com/sketch -->
    <title>12 copy</title>
    <desc>Created with Sketch.</desc>
    <defs></defs>
    <g id="Page-1" stroke="none" stroke-width="1" fill="none" fill-rule="evenodd">
        <g id="12-copy" transform="translate(1.000000, 2.000000)">
            <path d="M24.6414821,38.722 L21.0374821,34.693 L24.3524821,30.902 C24.8454821,30.341 24.7774821,29.474 24.2164821,28.998 C23.6554821,28.488 22.8054821,28.556 22.2954821,29.117 L19.5074821,32.313 L19.5074821,29.763 C19.5074821,29.032 18.8954821,28.42 18.1644821,28.42 C17.4164821,28.42 16.8044821,29.032 16.8044821,29.763 L16.8044821,39.657 C16.8044821,40.388 17.4164821,41 18.1644821,41 C18.8954821,41 19.5074821,40.388 19.5074821,39.657 L19.5074821,37.056 L22.6014821,40.541 C23.1284821,41.119 23.9274821,41.136 24.5054821,40.643 C25.0834821,40.15 25.1174821,39.283 24.6414821,38.722 Z M35.590494,28.522 C34.893494,28.25 34.111494,28.59 33.822494,29.287 L31.170494,35.985 L28.518494,29.287 C28.246494,28.59 27.464494,28.25 26.767494,28.522 C26.053494,28.811 25.713494,29.593 26.002494,30.29 L29.912494,40.133 C30.116494,40.66 30.609494,41 31.170494,41 C31.731494,41 32.224494,40.66 32.445494,40.133 L36.355494,30.29 C36.627494,29.593 36.287494,28.811 35.590494,28.522 Z M48.834506,28.42 C48.120506,28.42 47.712506,28.913 47.440506,29.474 C47.338506,29.695 45.230506,33.979 43.921506,36.682 C42.595506,33.979 40.504506,29.678 40.402506,29.474 C40.113506,28.913 39.705506,28.42 38.991506,28.42 C38.260506,28.42 37.648506,29.032 37.648506,29.78 L37.648506,39.64 C37.648506,40.388 38.260506,41 38.991506,41 C39.756506,41 40.368506,40.388 40.368506,39.64 L40.368506,34.829 L42.850506,39.878 C43.054506,40.303 43.479506,40.558 43.921506,40.558 C44.346506,40.558 44.771506,40.32 44.992506,39.878 L47.457506,34.829 L47.457506,39.64 C47.457506,40.388 48.069506,41 48.834506,41 C49.582506,41 50.194506,40.388 50.194506,39.64 L50.194506,29.78 C50.194506,29.032 49.582506,28.42 48.834506,28.42 Z" id="KVM" fill="#FAFAFA"></path>
            <rect id="Rectangle-28" stroke="#FAFAFA" stroke-width="3.5" stroke-linecap="round" stroke-linejoin="round" x="6" y="6" width="55" height="55" rx="5"></rect>
            <g id="Group-35" transform="translate(13.000000, 0.000000)" stroke="#FAFAFA" stroke-width="3.5" stroke-linecap="round" stroke-linejoin="round">
                <path d="M1,5.30993993 L1,0.474081978" id="Path-31"></path>
                <path d="M10.75,5.30993993 L10.75,0.474081978" id="Path-31-Copy-9"></path>
                <path d="M20.5,5.30993993 L20.5,0.474081978" id="Path-31-Copy-10"></path>
                <path d="M30.25,5.30993993 L30.25,0.474081978" id="Path-31-Copy-11"></path>
                <path d="M40,5.30993993 L40,0.474081978" id="Path-31-Copy-8"></path>
            </g>
            <g id="Group-35-Copy" transform="translate(13.000000, 61.000000)" stroke="#FAFAFA" stroke-width="3.5" stroke-linecap="round" stroke-linejoin="round">
                <path d="M1,5.30993993 L1,0.474081978" id="Path-31"></path>
                <path d="M10.75,5.30993993 L10.75,0.474081978" id="Path-31-Copy-9"></path>
                <path d="M20.5,5.30993993 L20.5,0.474081978" id="Path-31-Copy-10"></path>
                <path d="M30.25,5.30993993 L30.25,0.474081978" id="Path-31-Copy-11"></path>
                <path d="M40,5.30993993 L40,0.474081978" id="Path-31-Copy-8"></path>
            </g>
            <g id="Group-35-Copy-2" transform="translate(3.500000, 34.000000) rotate(-270.000000) translate(-3.500000, -34.000000) translate(-17.000000, 31.000000)" stroke="#FAFAFA" stroke-width="3.5" stroke-linecap="round" stroke-linejoin="round">
                <path d="M1,5.30993993 L1,0.474081978" id="Path-31"></path>
                <path d="M10.75,5.30993993 L10.75,0.474081978" id="Path-31-Copy-9"></path>
                <path d="M20.5,5.30993993 L20.5,0.474081978" id="Path-31-Copy-10"></path>
                <path d="M30.25,5.30993993 L30.25,0.474081978" id="Path-31-Copy-11"></path>
                <path d="M40,5.30993993 L40,0.474081978" id="Path-31-Copy-8"></path>
            </g>
            <g id="Group-35-Copy-2" transform="translate(63.500000, 34.000000) rotate(-270.000000) translate(-63.500000, -34.000000) translate(43.000000, 31.000000)" stroke="#FAFAFA" stroke-width="3.5" stroke-linecap="round" stroke-linejoin="round">
                <path d="M1,5.30993993 L1,0.474081978" id="Path-31"></path>
                <path d="M10.75,5.30993993 L10.75,0.474081978" id="Path-31-Copy-9"></path>
                <path d="M20.5,5.30993993 L20.5,0.474081978" id="Path-31-Copy-10"></path>
                <path d="M30.25,5.30993993 L30.25,0.474081978" id="Path-31-Copy-11"></path>
                <path d="M40,5.30993993 L40,0.474081978" id="Path-31-Copy-8"></path>
            </g>
            <circle id="Oval-37" fill="#FAFAFA" cx="14.5" cy="14.5" r="2.5"></circle>
            <circle id="Oval-37-Copy-2" fill="#FAFAFA" cx="14.5" cy="52.5" r="2.5"></circle>
            <circle id="Oval-37-Copy" fill="#FAFAFA" cx="52.5" cy="14.5" r="2.5"></circle>
            <circle id="Oval-37-Copy-3" fill="#FAFAFA" cx="52.5" cy="52.5" r="2.5"></circle>
        </g>
    </g>
</svg>