<svg width="81" height="75" viewBox="0 0 81 75" xmlns="http://www.w3.org/2000/svg"><title>1</title><g transform="translate(2 2)" stroke="#2980B9" stroke-width="4" fill="none" fill-rule="evenodd"><path d="M24.509 22.294a7.25 7.25 0 0 0-5.485-2.494c-4.003 0-7.248 3.224-7.248 7.2s3.245 7.2 7.248 7.2a7.252 7.252 0 0 0 5.904-3.025"/><path d="M29.194 10.458A18.793 18.793 0 0 0 18.57 7.2C8.314 7.2 0 15.32 0 25.335 0 32.013 6.19 42.167 18.57 55.8c5.562-6.431 9.307-11.015 11.234-13.751" stroke-linecap="round" stroke-linejoin="round"/><path d="M50.73 69.3C68.242 49.86 77 35.38 77 25.86 77 11.578 65.238 0 50.73 0 36.22 0 24.458 11.578 24.458 25.86c0 9.52 8.757 24 26.27 43.44z" stroke-linecap="round" stroke-linejoin="round"/><ellipse cx="50.729" cy="27" rx="9.059" ry="9"/><path d="M37.141 71h27.177M9.965 57h18.117" stroke-linecap="round" stroke-linejoin="round"/></g></svg>