<?xml version="1.0" encoding="UTF-8"?>
<svg width="57px" height="54px" viewBox="0 0 57 54" version="1.1" xmlns="http://www.w3.org/2000/svg" xmlns:xlink="http://www.w3.org/1999/xlink">
    <!-- Generator: Sketch 47.1 (45422) - http://www.bohemiancoding.com/sketch -->
    <title>5</title>
    <desc>Created with Sketch.</desc>
    <defs></defs>
    <g id="Page-1" stroke="none" stroke-width="1" fill="none" fill-rule="evenodd" stroke-linecap="round" stroke-linejoin="round">
        <g id="features-page-icons" transform="translate(-678.000000, -1023.000000)" stroke="#2980B9" stroke-width="3.5">
            <g id="5" transform="translate(675.000000, 1020.000000)">
                <g id="Group-2-Copy-2" transform="translate(10.487656, 10.032718) rotate(-45.000000) translate(-10.487656, -10.032718) translate(4.987656, 2.032718)">
                    <polyline id="Path-25" points="0.618650079 6.00738303 5.61113386 0.965884687 10.1048111 5.50367939"></polyline>
                    <path d="M5.4619677,4.02818837 L6.60052873,15.761111" id="Path-26"></path>
                </g>
                <polyline id="Path-25" transform="translate(7.348491, 52.728026) scale(1, -1) rotate(-45.000000) translate(-7.348491, -52.728026) " points="2.7068901 55.1469751 7.49775231 50.3090777 11.9900917 54.8455214"></polyline>
                <path d="M11.4933916,42.4575865 L12.6319527,54.1905091" id="Path-26" transform="translate(12.062672, 48.324048) scale(1, -1) rotate(-45.000000) translate(-12.062672, -48.324048) "></path>
                <g id="Group-2-Copy-3" transform="translate(52.581258, 9.605666) scale(-1, 1) rotate(-45.000000) translate(-52.581258, -9.605666) translate(47.581258, 1.605666)">
                    <polyline id="Path-25" points="0.139363082 5.48155784 4.61113386 0.965884687 9.12149178 5.52052382"></polyline>
                    <path d="M4.8125,4.11899314 L5.02522762,15.5209882" id="Path-26"></path>
                </g>
                <g id="Group-2-Copy-3" transform="translate(52.934811, 49.697143) scale(-1, -1) rotate(-45.000000) translate(-52.934811, -49.697143) translate(47.434811, 41.697143)">
                    <polyline id="Path-25" points="0.981738525 5.6407299 5.61113386 0.965884687 10.1203769 5.51939795"></polyline>
                    <path d="M5.8125,4.11899314 L6.02522762,15.5209882" id="Path-26"></path>
                </g>
                <rect id="Rectangle-19-Copy-3" x="21.6666667" y="19.5652174" width="19.375" height="19.5652174"></rect>
            </g>
        </g>
    </g>
</svg>