<svg width="73" height="73" viewBox="0 0 73 73" xmlns="http://www.w3.org/2000/svg"><title>2</title><g transform="translate(2 2)" fill="none" fill-rule="evenodd"><circle fill="#2980B9" cx="41" cy="40" r="2"/><circle fill="#2980B9" transform="rotate(-90 60.5 40)" cx="60.5" cy="40" r="2"/><circle fill="#2980B9" transform="rotate(-90 67 40)" cx="67" cy="40" r="2"/><circle fill="#2980B9" transform="rotate(-90 54 40)" cx="54" cy="40" r="2"/><circle fill="#2980B9" transform="rotate(-90 47.5 40)" cx="47.5" cy="40" r="2"/><circle fill="#2980B9" cx="41" cy="61" r="2"/><circle fill="#2980B9" cx="41" cy="54" r="2"/><circle fill="#2980B9" cx="67" cy="54" r="2"/><circle fill="#2980B9" cx="41" cy="47" r="2"/><circle fill="#2980B9" cx="67" cy="47" r="2"/><circle fill="#2980B9" cx="41" cy="68" r="2"/><circle fill="#2980B9" transform="rotate(-90 54 68)" cx="54" cy="68" r="2"/><circle fill="#2980B9" transform="rotate(-90 47.5 68)" cx="47.5" cy="68" r="2"/><path d="M60.276 66.069l.32-5.253 4.96-.267m-3.141 1.866l6.96 6.96" stroke-linecap="round" stroke-width="3" stroke="#2980B9" stroke-linejoin="round"/><path stroke="#2980B9" stroke-width="4" stroke-linecap="round" stroke-linejoin="round" d="M0 40h28v28H0zM0 0h28v28H0zm40 0h28v28H40z"/></g></svg>