<svg width="73" height="73" viewBox="0 0 73 73" xmlns="http://www.w3.org/2000/svg"><title>3</title><g fill="none" fill-rule="evenodd"><path stroke="#2980B9" stroke-width="4" stroke-linecap="round" stroke-linejoin="round" d="M2 33h38v38H2z"/><circle fill="#2980B9" cx="2" cy="26" r="2"/><circle fill="#2980B9" cx="2" cy="20" r="2"/><circle fill="#2980B9" cx="2" cy="14" r="2"/><circle fill="#2980B9" cx="2" cy="8" r="2"/><circle fill="#2980B9" cx="2" cy="2" r="2"/><circle fill="#2980B9" cx="71" cy="64.727" r="2"/><circle fill="#2980B9" cx="71" cy="58.455" r="2"/><circle fill="#2980B9" cx="71" cy="52.182" r="2"/><circle fill="#2980B9" cx="71" cy="45.909" r="2"/><circle fill="#2980B9" cx="71" cy="39.636" r="2"/><circle fill="#2980B9" cx="71" cy="33.364" r="2"/><circle fill="#2980B9" cx="71" cy="27.091" r="2"/><circle fill="#2980B9" cx="71" cy="20.818" r="2"/><circle fill="#2980B9" cx="71" cy="14.545" r="2"/><circle fill="#2980B9" cx="71" cy="8.273" r="2"/><circle fill="#2980B9" cx="71" cy="2" r="2"/><circle fill="#2980B9" transform="rotate(-90 33.364 2)" cx="33.364" cy="2" r="2"/><circle fill="#2980B9" transform="rotate(-90 27.09 2)" cx="27.091" cy="2" r="2"/><circle fill="#2980B9" transform="rotate(-90 20.818 2)" cx="20.818" cy="2" r="2"/><circle fill="#2980B9" transform="rotate(-90 14.545 2)" cx="14.545" cy="2" r="2"/><circle fill="#2980B9" transform="rotate(-90 8.273 2)" cx="8.273" cy="2" r="2"/><circle fill="#2980B9" transform="rotate(-90 71 71)" cx="71" cy="71" r="2"/><circle fill="#2980B9" transform="rotate(-90 65 71)" cx="65" cy="71" r="2"/><circle fill="#2980B9" transform="rotate(-90 59 71)" cx="59" cy="71" r="2"/><circle fill="#2980B9" transform="rotate(-90 53 71)" cx="53" cy="71" r="2"/><circle fill="#2980B9" transform="rotate(-90 47 71)" cx="47" cy="71" r="2"/><circle fill="#2980B9" transform="rotate(-90 64.727 2)" cx="64.727" cy="2" r="2"/><circle fill="#2980B9" transform="rotate(-90 58.455 2)" cx="58.455" cy="2" r="2"/><circle fill="#2980B9" transform="rotate(-90 52.182 2)" cx="52.182" cy="2" r="2"/><circle fill="#2980B9" transform="rotate(-90 45.91 2)" cx="45.909" cy="2" r="2"/><circle fill="#2980B9" transform="rotate(-90 39.636 2)" cx="39.636" cy="2" r="2"/><path d="M16.617 16.495l4.357-3.861 4.357 3.861m-4.301-3.127V24.51m35.975 23.607l3.861 4.357-3.861 4.357m3.127-4.301H48.99" stroke-linecap="round" stroke-width="3" stroke="#2980B9" stroke-linejoin="round"/></g></svg>