<?xml version="1.0" encoding="UTF-8"?>
<svg width="78px" height="52px" viewBox="0 0 78 52" version="1.1" xmlns="http://www.w3.org/2000/svg" xmlns:xlink="http://www.w3.org/1999/xlink">
    <!-- Generator: Sketch 47.1 (45422) - http://www.bohemiancoding.com/sketch -->
    <title>18</title>
    <desc>Created with Sketch.</desc>
    <defs></defs>
    <g id="Page-1" stroke="none" stroke-width="1" fill="none" fill-rule="evenodd">
        <g id="apps" transform="translate(-664.000000, -1585.000000)" fill-rule="nonzero" fill="#FAFAFA">
            <g id="18" transform="translate(664.000000, 1585.000000)">
                <path d="M20.2467522,12.4210526 L34.9470588,12.4210526 L32.6705236,20.97061 C32.322726,22.1621671 31.6721562,23.1193786 30.7192734,23.8417939 C29.7650124,24.5660119 28.6591354,24.9269942 27.4021021,24.9269942 L20.5720371,24.9269942 C19.0108531,24.9269942 17.633446,25.3731521 16.4416534,26.2668199 C15.248023,27.1600371 14.4141358,28.3718741 13.937235,29.9036829 C13.6335438,31.0519762 13.6009234,32.1367258 13.8398333,33.1574811 C14.0778242,34.1782363 14.5005109,35.0827201 15.1078932,35.8686791 C15.7148161,36.6564407 16.4954081,37.2837658 17.4501286,37.7515556 C18.4030114,38.2202467 19.444107,38.4527897 20.5720371,38.4527897 L24.7345817,38.4527897 C25.5156332,38.4527897 26.154717,38.7619455 26.653671,39.378004 C27.1517062,39.9954144 27.2932143,40.6858325 27.0763577,41.4515116 L24.474997,50.8947368 L19.9219267,50.8947368 C16.7995587,50.8947368 13.9262084,50.2245986 11.3027945,48.8847729 C8.67892114,47.5449472 6.49978767,45.7697795 4.76585351,43.5570165 C3.03100046,41.3460561 1.84885616,38.8259399 1.22079893,35.9971185 C0.591822812,33.168297 0.668090186,30.2651159 1.44868217,27.2871245 L1.70872635,26.3303636 C2.25845504,24.3167943 3.14881593,22.4080053 4.34270741,20.6835367 C5.53541888,18.9610967 6.94452753,17.4937329 8.57095226,16.2814453 C10.1969175,15.0691576 12.0075785,14.122762 14.0024757,13.4422585 C15.9964541,12.7622057 18.0777264,12.4210526 20.2467522,12.4210526 Z M39.9815511,4.32706757 C40.3228038,3.13045122 40.9636708,2.16890068 41.9041523,1.44151012 C42.8428234,0.714572474 43.9317543,0.350877193 45.1718501,0.350877193 L58.5639803,0.350877193 C61.6393275,0.350877193 64.4684659,1.0243702 67.0536584,2.37090329 C69.6374932,3.71743638 71.7841263,5.50284957 73.4931051,7.72487828 C75.2011788,9.94826574 76.3765543,12.480998 77.0174214,15.323528 C77.6582884,18.1669638 77.5718438,21.0846787 76.760803,24.0762195 L76.5050898,25.038223 C75.9493096,27.0899535 75.0952728,28.9818031 73.9420741,30.7133187 C72.7879703,32.4443815 71.4107398,33.9304141 69.8090247,35.169605 C68.2068571,36.4097017 66.4227484,37.3717052 64.4585089,38.0547095 C62.4933643,38.7395256 60.4426802,39.0810277 58.3073619,39.0810277 L46.7097501,39.0810277 L49.0161473,30.4243554 C49.3578526,29.2703135 49.998267,28.3305032 50.9387485,27.6026597 C51.8778722,26.8766279 52.9668031,26.5129326 54.2064463,26.5129326 L57.9231132,26.5129326 C59.4605605,26.5129326 60.8382437,26.042801 62.0552575,25.1020848 C63.2731764,24.1622745 64.0738077,22.9439179 64.4585089,21.4470152 C64.7572181,20.3790283 64.7888994,19.3309699 64.5549105,18.3051046 C64.3195639,17.2792394 63.9031813,16.3711335 63.3048577,15.5798811 C62.7065341,14.7895346 61.9375841,14.1486518 60.9984604,13.6563271 C60.0584316,13.1653611 59.0333158,12.9189723 57.9231132,12.9189723 L50.7459453,12.9189723 L41.3909155,47.7377001 C41.0483051,48.8917419 40.4074381,49.8324581 39.4683144,50.5589428 C38.5287381,51.2863334 37.4601737,51.6491228 36.2644317,51.6491228 L27.3588235,51.6491228 L39.9815511,4.32706757 Z" id="Shape"></path>
            </g>
        </g>
    </g>
</svg>