<?xml version="1.0" encoding="UTF-8"?>
<svg width="87px" height="56px" viewBox="0 0 87 56" version="1.1" xmlns="http://www.w3.org/2000/svg" xmlns:xlink="http://www.w3.org/1999/xlink">
    <!-- Generator: Sketch 47.1 (45422) - http://www.bohemiancoding.com/sketch -->
    <title>14</title>
    <desc>Created with Sketch.</desc>
    <defs>
        <path d="M15.8424,0 L15.8424,17.7477517 L7.3416,17.7477517 L7.3416,26.6216276 L0.224396777,26.6216276 C0.194188025,26.8784661 0.169726973,27.135876 0.1449,27.393269 C-0.299908997,32.2279738 0.545373461,36.6867426 2.48745,40.4991155 L3.1395,41.6686345 C3.53030612,42.3695858 3.98619552,43.0278692 4.46775,43.6700793 C4.94871174,44.3114985 5.11911066,44.6665075 5.421675,45.0927931 C10.5564136,50.8553453 18.2108284,53.6290759 27.048,53.6290759 C46.6185263,53.6290759 63.2277873,44.9720351 70.578375,25.52445 C75.7935269,26.0588001 80.7961164,24.7235279 83.076,20.2797 C79.4443694,18.1871378 74.7767578,18.857845 72.08775,20.2073586 L79.212,0 L51.3912,17.7477517 L42.504,17.7477517 L42.504,0 L15.8424,0 Z" id="path-1"></path>
    </defs>
    <g id="Page-1" stroke="none" stroke-width="1" fill="none" fill-rule="evenodd">
        <g id="apps" transform="translate(-667.000000, -1338.000000)">
            <g id="14" transform="translate(667.000000, 1338.000000)">
                <path d="M45.0108086,17.6443518 L53.846231,17.6443518 L53.846231,26.6628062 L58.313699,26.6628062 C60.3767079,26.6628062 62.498693,26.2958252 64.4524358,25.6348102 C65.4124388,25.3097794 66.4899887,24.8574625 67.4369585,24.2886046 C66.1897172,22.6626173 65.5529532,20.6095188 65.3654642,18.5857658 C65.1109271,15.8332207 65.6669798,12.2504281 67.5327702,10.096084 L68.461529,9.02345739 L69.5682558,9.91176824 C72.3547331,12.147113 74.6981486,15.270563 75.1112025,18.8312443 C78.4663601,17.8458158 82.4055033,18.0788939 85.3629161,19.7831989 L86.5762199,20.4822366 L85.9375934,21.7267784 C83.4364687,26.6009954 78.2076575,28.1108553 73.0955623,27.8436803 C65.4459436,46.8678769 48.7918486,55.8745523 28.5988396,55.8745523 C18.166465,55.8745523 8.59497148,51.9805721 3.14452629,42.7385423 C2.82496654,42.1644488 2.55131226,41.5641427 2.26108992,40.9745238 C0.418682947,36.9063521 -0.193245209,32.4497142 0.221880926,27.9967955 L0.34646015,26.6629856 L7.90171501,26.6629856 L7.90171501,17.6445312 L16.7371374,17.6445312 L16.7371374,8.8223553 L34.4079822,8.8223553 L34.4079822,0.000179406621 L45.0106707,0.000179406621 L45.0106707,17.6445312" id="path14" fill="#2473A7" fill-rule="nonzero"></path>
                <g id="g16-Clipped" transform="translate(1.545600, 0.771641)">
                    <mask id="mask-2" fill="white">
                        <use xlink:href="#path-1"></use>
                    </mask>
                    <g id="path10"></g>
                    <g id="g16" mask="url(#mask-2)">
                        <g transform="translate(-1.545600, -9.629876)">
                            <g id="g18" transform="translate(35.548800, 0.000000)">
                                <g id="g20" transform="translate(0.000000, 1.193521)" fill-rule="nonzero">
                                    <polygon id="path22" fill="#00ACD3" points="0.331921464 0.312931213 7.98940733 0.312931213 7.98940733 7.95872848 0.331921464 7.95872848"></polygon>
                                    <polygon id="path24" fill="#FAFAFA" points="0.331921464 9.13487777 7.98940733 9.13487777 7.98940733 16.7810888 0.331921464 16.7810888"></polygon>
                                </g>
                                <g id="use30" transform="translate(13.335422, 9.338872) scale(-1, 1) rotate(-180.000000) translate(-13.335422, -9.338872) translate(8.835422, 0.338872)" fill-rule="nonzero">
                                    <g id="g20" transform="translate(0.000000, 0.051700)">
                                        <polygon id="path22" fill="#00ACD3" points="0.331921464 0.312931213 7.98940733 0.312931213 7.98940733 7.95872848 0.331921464 7.95872848"></polygon>
                                        <polygon id="path24" fill="#20C2EF" points="0.331921464 9.13487777 7.98940733 9.13487777 7.98940733 16.7810888 0.331921464 16.7810888"></polygon>
                                        <path d="M1.27216404,7.32168219 L1.27216404,0.949564442 M2.42048688,7.32168219 L2.42048688,0.949564442 M3.58039786,7.32168219 L3.58039786,0.949564442 M4.74092707,7.32168219 L4.74092707,0.949564442 M5.90125536,7.32168219 L5.90125536,0.949564442 M7.04936954,7.32168219 L7.04936954,0.949564442" id="path26" stroke="#394D54" stroke-width="0.6014736" fill="#000000"></path>
                                    </g>
                                </g>
                            </g>
                            <g id="use32" transform="translate(0.207110, 17.644352)">
                                <g id="g18" transform="translate(0.000000, -0.000000)" fill-rule="nonzero">
                                    <g id="g20" transform="translate(0.000000, 1.193521)">
                                        <polygon id="path22" fill="#00ACD3" points="0.331921464 0.312931213 7.98940733 0.312931213 7.98940733 7.95872848 0.331921464 7.95872848"></polygon>
                                        <polygon id="path24" fill="#20C2EF" points="0.331921464 9.13487777 7.98940733 9.13487777 7.98940733 16.7810888 0.331921464 16.7810888"></polygon>
                                        <path d="M1.27216404,7.32168219 L1.27216404,0.949564442 M2.42048688,7.32168219 L2.42048688,0.949564442 M3.58039786,7.32168219 L3.58039786,0.949564442 M4.74092707,7.32168219 L4.74092707,0.949564442 M5.90125536,7.32168219 L5.90125536,0.949564442 M7.04936954,7.32168219 L7.04936954,0.949564442" id="path26" stroke="#394D54" stroke-width="0.6014736" fill="#000000"></path>
                                        <g id="use28" transform="translate(1.159200, 9.593817)" stroke="#394D54" stroke-width="0.6014736" fill="#000000">
                                            <path d="M0.11296404,6.55004081 L0.11296404,0.177923063 M1.26128688,6.55004081 L1.26128688,0.177923063 M2.42119786,6.55004081 L2.42119786,0.177923063 M3.58172707,6.55004081 L3.58172707,0.177923063 M4.74205536,6.55004081 L4.74205536,0.177923063 M5.89016954,6.55004081 L5.89016954,0.177923063" id="path26"></path>
                                        </g>
                                    </g>
                                    <g id="use30" transform="translate(13.335422, 9.338872) scale(-1, 1) rotate(-180.000000) translate(-13.335422, -9.338872) translate(8.835422, 0.338872)">
                                        <g id="g20" transform="translate(0.000000, 0.051700)">
                                            <polygon id="path22" fill="#FAFAFA" points="0.331921464 0.312931213 7.98940733 0.312931213 7.98940733 7.95872848 0.331921464 7.95872848"></polygon>
                                            <polygon id="path24" fill="#20C2EF" points="0.331921464 9.13487777 7.98940733 9.13487777 7.98940733 16.7810888 0.331921464 16.7810888"></polygon>
                                            <g id="use28" transform="translate(1.159200, 9.593817)" stroke="#394D54" stroke-width="0.6014736" fill="#000000">
                                                <path d="M0.11296404,6.55004081 L0.11296404,0.177923063 M1.26128688,6.55004081 L1.26128688,0.177923063 M2.42119786,6.55004081 L2.42119786,0.177923063 M3.58172707,6.55004081 L3.58172707,0.177923063 M4.74205536,6.55004081 L4.74205536,0.177923063 M5.89016954,6.55004081 L5.89016954,0.177923063" id="path26"></path>
                                            </g>
                                        </g>
                                    </g>
                                </g>
                            </g>
                            <g id="use34" transform="translate(17.877955, 17.644352)">
                                <g id="g18" transform="translate(0.000000, -0.000000)" fill-rule="nonzero" fill="#FAFAFA">
                                    <g id="g20" transform="translate(0.000000, 1.193521)">
                                        <polygon id="path22" points="0.331921464 0.312931213 7.98940733 0.312931213 7.98940733 7.95872848 0.331921464 7.95872848"></polygon>
                                        <polygon id="path24" points="0.331921464 9.13487777 7.98940733 9.13487777 7.98940733 16.7810888 0.331921464 16.7810888"></polygon>
                                    </g>
                                    <g id="use30" transform="translate(12.835422, 9.338872) scale(-1, 1) rotate(-180.000000) translate(-12.835422, -9.338872) translate(8.835422, 0.338872)">
                                        <g id="g20" transform="translate(0.000000, 0.051700)">
                                            <polygon id="path22" points="0.331921464 0.312931213 7.98940733 0.312931213 7.98940733 7.95872848 0.331921464 7.95872848"></polygon>
                                            <polygon id="path24" points="0.331921464 9.13487777 7.98940733 9.13487777 7.98940733 16.7810888 0.331921464 16.7810888"></polygon>
                                        </g>
                                    </g>
                                </g>
                            </g>
                            <g id="use36" transform="translate(35.548800, 17.644352)">
                                <g id="g18" transform="translate(0.000000, -0.000000)" fill-rule="nonzero">
                                    <g id="g20" transform="translate(0.000000, 1.193521)" fill="#FAFAFA">
                                        <polygon id="path22" points="0.331921464 0.312931213 7.98940733 0.312931213 7.98940733 7.95872848 0.331921464 7.95872848"></polygon>
                                        <polygon id="path24" points="0.331921464 9.13487777 7.98940733 9.13487777 7.98940733 16.7810888 0.331921464 16.7810888"></polygon>
                                    </g>
                                    <g id="use30" transform="translate(13.335422, 9.338872) scale(-1, 1) rotate(-180.000000) translate(-13.335422, -9.338872) translate(8.835422, 0.338872)">
                                        <g id="g20" transform="translate(0.000000, 0.051700)">
                                            <polygon id="path22" fill="#FAFAFA" points="0.331921464 0.312931213 7.98940733 0.312931213 7.98940733 7.95872848 0.331921464 7.95872848"></polygon>
                                            <polygon id="path24" fill="#20C2EF" points="0.331921464 9.13487777 7.98940733 9.13487777 7.98940733 16.7810888 0.331921464 16.7810888"></polygon>
                                            <g id="use28" transform="translate(1.159200, 9.593817)" stroke="#394D54" stroke-width="0.6014736" fill="#000000">
                                                <path d="M0.11296404,6.55004081 L0.11296404,0.177923063 M1.26128688,6.55004081 L1.26128688,0.177923063 M2.42119786,6.55004081 L2.42119786,0.177923063 M3.58172707,6.55004081 L3.58172707,0.177923063 M4.74205536,6.55004081 L4.74205536,0.177923063 M5.89016954,6.55004081 L5.89016954,0.177923063" id="path26"></path>
                                            </g>
                                        </g>
                                    </g>
                                </g>
                            </g>
                        </g>
                    </g>
                </g>
                <path d="M4.37671582,45.2426133 L4.72223145,45.2426133 C10.1956466,45.5417439 16.9658387,45.505845 22.061025,43.9112172" id="path46" stroke="#FAFAFA" stroke-width="1.310904" stroke-linecap="round"></path>
                <path d="M27.5001807,41.2670955 C27.5001807,42.4318804 26.5544555,43.3761881 25.387922,43.3761881 C24.2211818,43.3761881 23.2752487,42.4318804 23.2752487,41.2670955 C23.2752487,40.1023144 24.2211818,39.15759 25.387922,39.15759 C26.5544555,39.15759 27.5001807,40.1023144 27.5001807,41.2670955 Z" id="path48" fill="#FAFAFA" fill-rule="nonzero"></path>
                <path d="M25.9356981,39.8582789 C25.7513127,39.964696 25.6265267,40.1640958 25.6265267,40.3922162 C25.6265267,40.7327454 25.9030014,41.008395 26.2440422,41.008395 C26.4776802,41.008395 26.680692,40.8788364 26.7856112,40.6874925 C26.8596957,40.8658188 26.9008782,41.0617038 26.9008782,41.2670955 C26.9008782,42.1012707 26.2235549,42.7775757 25.387922,42.7775757 C24.5524963,42.7775757 23.8747603,42.1012707 23.8747603,41.2670955 C23.8747603,40.4325113 24.5524963,39.7559979 25.387922,39.7559979 C25.5812063,39.7559979 25.7655917,39.7923808 25.9356981,39.8582789 L25.9356981,39.8582789 Z" id="path50" fill="#2473A7" fill-rule="nonzero"></path>
            </g>
        </g>
    </g>
</svg>