<?xml version="1.0" encoding="UTF-8"?>
<svg width="57px" height="65px" viewBox="0 0 57 65" version="1.1" xmlns="http://www.w3.org/2000/svg" xmlns:xlink="http://www.w3.org/1999/xlink">
    <!-- Generator: Sketch 47.1 (45422) - http://www.bohemiancoding.com/sketch -->
    <title>15</title>
    <desc>Created with Sketch.</desc>
    <defs></defs>
    <g id="Page-1" stroke="none" stroke-width="1" fill="none" fill-rule="evenodd">
        <g id="apps" transform="translate(-959.000000, -1329.000000)" fill-rule="nonzero" fill="#FAFAFA">
            <g id="15" transform="translate(959.000000, 1329.000000)">
                <path d="M26.7343434,40.1319396 C21.1494949,40.1319396 16.620202,44.6963433 16.620202,50.3244852 C16.620202,55.952627 21.1494949,60.5170308 26.7343434,60.5170308 C32.3191919,60.5170308 36.8484848,55.952627 36.8484848,50.3244852 C36.8484848,44.6963433 32.3191919,40.1319396 26.7343434,40.1319396 Z" id="Shape"></path>
                <path d="M39.3242424,38.1785295 C42.3181818,41.3310626 44.1606061,45.6053559 44.1606061,50.3244852 C44.1606061,56.3007595 41.2050505,61.5614282 36.6949495,64.733302 C45.0434343,62.141649 51.9525253,55.8172422 55.0424242,48.1583275 C59.3222222,37.5596273 55.330303,29.5912615 48.6515152,22.357842 C48.8626263,23.2861953 48.9777778,24.2725707 48.9777778,25.258946 C48.9585859,31.4092867 44.889899,36.5732519 39.3242424,38.1785295 Z" id="Shape"></path>
                <path d="M27.8858586,25.2782867 C27.8858586,29.5912615 31.359596,33.0725863 35.620202,33.0725863 C39.8808081,33.0725863 43.3737374,29.5719208 43.3737374,25.2782867 C43.3737374,20.965312 39.9,17.4839872 35.6393939,17.4839872 C31.3787879,17.4839872 27.8858586,20.965312 27.8858586,25.2782867 Z" id="Shape"></path>
                <path d="M13.3959596,61.638791 C10.8434343,58.5829614 9.30808081,54.6374599 9.30808081,50.3244852 C9.30808081,41.3310626 16.0060606,33.9235769 24.6616162,32.8985201 C23.1838384,30.7323624 22.3010101,28.102028 22.3010101,25.2782867 C22.3010101,17.8514603 28.269697,11.8558453 35.6393939,11.8558453 C36.2535354,11.8558453 36.8484848,11.8945267 37.4242424,11.9718894 C33.0676768,8.18111346 28.7111111,4.3323154 25.2757576,0.135384856 C27.0222222,18.5477253 8.63636364,11.8558453 1.82323232,28.8369744 C-2.72525253,40.2093023 1.38181818,54.2699867 13.3959596,61.638791 Z" id="Shape"></path>
            </g>
        </g>
    </g>
</svg>