<?xml version="1.0" encoding="UTF-8"?>
<svg width="58px" height="57px" viewBox="0 0 58 57" version="1.1" xmlns="http://www.w3.org/2000/svg" xmlns:xlink="http://www.w3.org/1999/xlink">
    <!-- Generator: Sketch 47.1 (45422) - http://www.bohemiancoding.com/sketch -->
    <title>11</title>
    <desc>Created with Sketch.</desc>
    <defs></defs>
    <g id="Page-1" stroke="none" stroke-width="1" fill="none" fill-rule="evenodd">
        <g id="apps" transform="translate(-987.000000, -1103.000000)" fill-rule="nonzero" fill="#2473A7">
            <g id="11" transform="translate(987.000000, 1103.000000)">
                <path d="M10.5987011,28.7109131 L9.50809868,27.6221753 C6.12645123,24.2395442 5.07947875,19.4081965 6.36043277,15.124639 C2.97976038,14.3606579 0.45495615,11.3380057 0.45495615,7.7254986 C0.45588845,3.53683036 3.85094734,0.140505595 8.03893988,0.140505595 C11.8097155,0.14246428 14.9360583,2.89317583 15.5239544,6.4968731 C19.6157833,5.53725454 24.0940033,6.65338825 27.2849056,9.84429062 L27.7202126,10.279589 L22.1229251,15.8739427 L21.6886018,15.4376607 C19.8730552,13.6230892 16.9286563,13.6230892 15.1111595,15.4396194 C13.2877868,17.2629922 13.2916956,20.2161924 15.1013747,22.0258629 L16.1959885,23.1185181 L21.794251,28.7109131 L27.7143365,34.6280734 L22.1229251,40.2243772 L16.1959885,34.3052668 L10.5987011,28.7109131" id="path174"></path>
                <path d="M16.8592042,22.4553023 L22.7841907,16.5342247 L28.3824532,10.9428133 L29.4741248,9.85309188 C32.8430622,6.4851381 37.6440887,5.42476275 41.9110188,6.67784187 C42.4216368,2.98512281 45.5910193,0.140505595 49.4246011,0.140505595 C53.6132694,0.140505595 57.0105777,3.53487167 57.0095941,7.7254986 C57.0095941,11.5747328 54.1405233,14.7558503 50.4233506,15.2449569 C51.645125,19.4962347 50.5808408,24.2630228 47.2344069,27.6123904 L46.7981249,28.0496475 L41.2047548,22.451385 L41.6371195,22.0180453 C43.4546248,20.2015151 43.4546248,17.255166 41.6390782,15.4396194 C39.8284154,13.6309154 36.8908762,13.6270065 35.0675034,15.4494043 L33.9758233,16.5401007 L28.3775608,22.1344459 L22.4564917,28.0496475 L16.8592042,22.4553023" id="path176"></path>
                <path d="M42.0616579,50.6939993 C37.7575642,52.0180016 32.8812095,50.976794 29.4741248,47.5702995 L29.0456775,47.1423312 L34.6380725,41.5439746 L35.0675034,41.9743891 C36.8850001,43.7909108 39.8313577,43.7909108 41.6469043,41.9763393 C43.4565749,40.16471 43.4604923,37.2281373 41.6371195,35.4037894 L40.5434893,34.3091756 L34.9501192,28.7109131 L29.03981,22.7957115 L34.6380725,17.2033164 L40.5434893,23.1146092 L46.1349006,28.7109131 L47.2344069,29.8113944 C50.451713,33.0287091 51.5629543,37.5548613 50.5622547,41.6721188 C54.2461725,42.1905714 57.0800298,45.3560366 57.0800298,49.1827673 C57.0800298,53.3726159 53.6827214,56.7658102 49.4960119,56.7658102 C45.823829,56.7658102 42.7620544,54.1597761 42.0616579,50.6939993" id="path184"></path>
                <path d="M39.880265,34.9723998 L33.9758233,40.8836841 L28.3824532,46.4809715 L27.2849056,47.577929 C24.0538973,50.8106052 19.497424,51.9091279 15.3615804,50.8831877 C14.5887981,54.253391 11.5720133,56.7638429 7.96821341,56.7658102 C3.77836482,56.7658102 0.382356525,53.3707598 0.383314484,49.1827673 C0.383314484,45.5966725 2.87274265,42.5896727 6.21722642,41.8002629 C5.15871566,37.6448495 6.25537372,33.0541378 9.50809868,29.8016095 L9.93606697,29.3751124 L15.5337393,34.9684825 L15.1013747,35.3979219 C13.2858281,37.2154187 13.2858281,40.1568838 15.1033334,41.9763393 C16.9257225,43.798737 19.8789227,43.7948196 21.6886018,41.9841654 L22.7841907,40.8866178 L28.3775608,35.2912976 L34.28787,29.3751124 L39.880265,34.9723998" id="path186"></path>
            </g>
        </g>
    </g>
</svg>