<?xml version="1.0" encoding="UTF-8"?>
<svg width="58px" height="56px" viewBox="0 0 58 56" version="1.1" xmlns="http://www.w3.org/2000/svg" xmlns:xlink="http://www.w3.org/1999/xlink">
    <!-- Generator: Sketch 47.1 (45422) - http://www.bohemiancoding.com/sketch -->
    <title>16</title>
    <desc>Created with Sketch.</desc>
    <defs></defs>
    <g id="Page-1" stroke="none" stroke-width="1" fill="none" fill-rule="evenodd">
        <g id="apps" transform="translate(-105.000000, -1583.000000)">
            <g id="16" transform="translate(105.000000, 1583.000000)">
                <path d="M3.79041704,34.0645543 C3.18453812,36.1113349 5.24535874,37.8016813 7.03243498,38.0053764 C6.36413453,38.6972933 5.35940807,38.6573303 4.5680852,39.1187806 C5.88452915,42.1949007 9.79289686,42.8744018 12.6650673,41.9749099 C10.2124215,44.1732656 8.12897309,46.9974503 7.59279821,50.2654965 C7.72986547,50.4478522 8.20387892,50.3743926 8.47333184,50.4247021 C11.4386143,50.4521201 14.2343184,49.0363418 16.4783722,47.1607945 C17.3847848,49.3844988 14.8243318,50.4247021 13.0598834,50.6873718 C15.0342242,53.4550393 18.7232063,51.6729977 20.0408206,49.1910208 C19.7972466,50.9841848 19.5593946,52.7854965 19.1505336,54.5508545 C22.2909865,54.5622356 25.0351928,52.4672148 26.0447309,49.5202956 L26.0447309,49.5093025 C26.50613,51.2402587 26.2400583,53.1471039 25.4704529,54.7233811 C26.5612691,55.4938014 28.9518834,54.965358 29.7671345,54.0072794 C30.65313,52.9657829 31.3405471,51.4954273 31.8081883,50.2259215 C32.6988655,52.023612 33.7315516,53.8721293 33.8740807,55.8939492 C37.2544664,55.2722587 38.2272018,51.3252286 38.0201704,48.4831963 C39.8175202,51.156194 42.34,53.6866697 45.5115336,54.5399908 C46.5319955,51.1885266 45.1104753,47.4942079 43.088148,44.7590023 C44.2015919,44.8236674 45.6450897,44.7394734 46.4906413,45.6475012 C47.2296861,46.4414596 47.2436009,47.7228637 47.3966637,48.7299584 C50.6953812,47.0216351 48.7980269,42.8863002 46.4176861,41.2696721 C48.2180269,41.8490716 50.0723363,42.3429838 51.8367848,42.9904111 C52.1495426,40.5033903 50.9669148,37.7579677 48.896991,36.2664018 C50.2960135,36.4349192 51.9029776,37.3196674 52.8917085,38.3204249 L52.8917085,38.3204249 C54.1869552,37.2471132 53.0835247,34.1015427 52.6045695,33.4085912 C52.0750269,32.6419215 51.1283004,31.6688406 50.1801435,30.9198891 C52.2068924,30.5806559 54.1366278,29.9420231 56.2241076,30.4024388 C56.1507623,27.6625774 54.6079103,26.3837598 52.7818206,25.3868822 C51.8176682,25.142836 50.9777085,24.7225127 49.9800045,24.5907252 C52.9455471,23.4186051 56.399278,21.8623741 57.9050673,18.858679 C54.7937444,17.3535335 51.0385695,17.3809515 47.8076054,18.6772286 C48.229861,15.2927852 50.3913363,15.7403972 52.6313587,15.9299954 C51.6159686,12.9025035 47.8687265,13.1566374 45.7772152,14.5994457 C46.7401973,13.2906236 47.4194215,11.2172009 48.5789013,10.1411732 C45.6290942,9.12696536 42.0705471,9.98313164 39.9886592,12.517746 C40.3543453,10.6167206 41.1898834,8.52907159 42.766417,7.27521478 C40.4198879,4.81121478 36.867843,7.12557968 35.1300538,9.18568129 C35.0944215,7.15105774 34.6890717,5.04155196 35.3469686,3.07935335 C31.7354933,2.62023095 29.6499641,5.55913164 28.8853004,8.5513164 C28.2108879,5.44428637 26.6109462,2.10472055 24.0831345,0.0303926097 C22.1168565,2.67648961 21.732574,6.14344573 22.4020448,9.26534873 C19.8912691,8.91292379 20.4287444,6.21005081 20.9365695,4.51892841 C17.518991,4.96511778 17.3872556,8.95909469 18.7995426,11.3352794 C17.39987,10.2117875 15.9652152,9.06113626 14.5751659,7.93544573 C13.9339148,9.27466051 13.5035964,10.709321 13.5963184,12.2109746 C13.0552018,11.8652748 12.9926502,11.0264388 12.5567399,10.6362494 C9.5673991,12.2442125 10.6657578,16.1437783 12.1554215,18.4205081 C10.1683363,17.9255612 8.06095964,17.5678337 6.32967265,16.3741155 C4.84169955,19.2381339 7.13621076,22.804157 9.70940807,24.2911963 C6.21224215,23.9020416 3.13239013,24.5176536 0.0276995516,26.1029838 C1.01799103,27.692194 3.26035426,29.3280924 5.0497713,30.1225681 C4.45117489,30.392739 2.44042152,29.5400647 1.82036771,29.7561755 C1.90554709,29.9182263 4.86978924,34.3692564 8.633287,34.0242032 C7.59526906,35.8710393 4.89852915,35.2863372 3.79041704,34.0645543" id="Tournesol_1_" fill="#2473A7" fill-rule="nonzero"></path>
                <g id="Inline_stripes" transform="translate(5.461883, 7.889145)" stroke="#FFFFFF" stroke-width="0.525" stroke-linecap="round">
                    <path d="M16.6674574,0.92665127 C17.4654126,4.08036952 19.3367578,8.29795843 21.544139,10.766485" id="Shape"></path>
                    <path d="M23.191287,10.4216905 C22.8767085,7.74972748 22.7496547,2.95972286 23.4513767,0.0860046189" id="Shape"></path>
                    <path d="M3.81460538,16.2846189 C6.25138565,17.6151686 10.4933184,18.7941432 13.1345291,19.4748083" id="Shape"></path>
                    <path d="M12.9611794,21.0267714 C8.2145426,23.3763141 1.36547085,22.6865958 0.0434349776,22.384739" id="Shape"></path>
                    <path d="M1.92895516,26.3400462 C5.11856502,26.4166097 10.0321794,25.0392425 13.1345291,24.6048222" id="Shape"></path>
                    <path d="M0.227578475,30.1445543 C4.29759193,30.5860878 10.2373901,28.0805727 14.044843,27.062097" id="Shape"></path>
                    <path d="M10.7179058,39.8119908 C12.9836771,37.5330624 15.5575247,33.4082032 16.6891749,30.3816166" id="Shape"></path>
                    <path d="M14.250704,42.1722679 C14.8507309,39.1130901 16.8601839,34.3797321 19.1598969,32.0629099" id="Shape"></path>
                    <path d="M20.514574,42.3015982 C21.341009,39.7083972 22.4483408,35.9381617 22.9311973,33.2699492" id="Shape"></path>
                    <path d="M26.3340807,42.8405173 C27.2187758,40.0495704 27.4285381,35.8857829 27.0060224,32.9682217" id="Shape"></path>
                    <path d="M32.8580404,41.3748176 C32.4386457,38.7002679 30.6128161,34.5214781 29.4768744,32.0629099" id="Shape"></path>
                    <path d="M38.103139,37.1499861 C36.4814798,35.0221155 33.5213991,32.4311132 31.2107623,31.0713349" id="Shape"></path>
                    <path d="M41.7226771,33.7873995 C39.2044888,32.858291 35.4030179,30.8102171 33.5948744,28.7003233" id="Shape"></path>
                    <path d="M44.1285067,28.7004527 C41.6449103,27.1085266 38.1218655,25.6813672 35.4155022,24.5186882" id="Shape"></path>
                    <path d="M35.7524484,19.7665774 C38.9153991,20.172545 42.3924081,21.476582 45.1255605,23.1229561" id="Shape"></path>
                    <path d="M35.2720628,17.5375704 C38.2902735,16.896739 42.2020224,16.3498014 45.3043722,16.6565727" id="Shape"></path>
                    <path d="M34.5516143,16.1044619 C36.6596413,13.6517136 39.4855157,11.7452564 42.4758969,10.5617552" id="Shape"></path>
                    <path d="M40.7528027,6.3908545 C38.8871794,9.32393533 35.519278,12.4567021 32.1643812,13.6980139" id="Shape"></path>
                    <path d="M34.7625471,4.07105774 C32.7992601,6.18573672 30.7989103,8.81191686 29.0279596,11.0890346" id="Shape"></path>
                    <path d="M12.8825022,2.88277136 C15.28313,4.87859584 18.2962691,8.45587067 19.1165919,11.5424665" id="Shape"></path>
                    <path d="M7.94079821,3.82856351 C9.10964126,5.23567667 11.0910045,6.53221247 12.4710404,7.67484527 C14.0903587,9.01561201 15.0285022,12.2646467 15.691991,14.1722679" id="Shape"></path>
                    <path d="M6.24215247,10.1575982 C7.86784305,12.6064665 11.2929641,15.7881201 13.8280583,17.2329977" id="Shape"></path>
                    <path d="M29.9022511,0.78930254 C27.8752422,3.30180139 26.3598296,7.43364434 25.4887892,10.5079538" id="Shape"></path>
                    <path d="M6.06880269,34.5632517 C8.7643722,33.5192979 13.305278,31.1525543 15.6053812,29.3469746" id="Shape"></path>
                </g>
                <ellipse id="Oval" stroke="#FFFFFF" stroke-width="0.525" fill="#2473A7" fill-rule="nonzero" cx="29.7152466" cy="29.6917691" rx="11.4872511" ry="11.4241293"></ellipse>
            </g>
        </g>
    </g>
</svg>