<?xml version="1.0" encoding="UTF-8"?>
<svg width="156px" height="71px" viewBox="0 0 156 71" version="1.1" xmlns="http://www.w3.org/2000/svg" xmlns:xlink="http://www.w3.org/1999/xlink">
    <!-- Generator: Sketch 47.1 (45422) - http://www.bohemiancoding.com/sketch -->
    <title>4</title>
    <desc>Created with Sketch.</desc>
    <defs></defs>
    <g id="Page-1" stroke="none" stroke-width="1" fill="none" fill-rule="evenodd">
        <g id="apps" transform="translate(-755.000000, -138.000000)" fill-rule="nonzero" fill="#2473A7">
            <g id="4" transform="translate(755.000000, 138.000000)">
                <path d="M78.1188785,0 C61.9490098,0 48.2437028,10.9592533 43.9959731,25.8078107 C40.3042531,17.9319094 32.3041659,12.4141734 23.0894535,12.4141734 C10.4170513,12.4141734 0,22.8285164 0,35.4976241 C0,48.1667181 10.4170513,58.5858128 23.0894535,58.5858128 C32.3041659,58.5858128 40.3042531,53.0647081 43.9959731,45.1874375 C48.2437028,60.0371041 61.9490098,71 78.1188785,71 C94.1691709,71 107.804595,60.2024409 112.160957,45.520261 C115.920903,53.2187066 123.821971,58.5858128 132.905794,58.5858128 C145.578196,58.5858128 156,48.1667181 156,35.4976241 C156,22.8285164 145.578196,12.4141734 132.905794,12.4141734 C123.821971,12.4141734 115.920903,17.7779109 112.160957,25.4749872 C107.804595,10.7939438 94.1691709,0 78.1188785,0 Z M78.1188785,13.550525 C90.3253026,13.550525 100.076465,23.2944145 100.076465,35.4976241 C100.076465,47.7008336 90.3253026,57.4494748 78.1188785,57.4494748 C65.912523,57.4494748 56.1660996,47.7008336 56.1660996,35.4976241 C56.1660996,23.2944145 65.912523,13.550525 78.1188785,13.550525 Z M23.0894535,25.9647122 C28.4373412,25.9647122 32.6295973,30.1510994 32.6295973,35.4976241 C32.6295973,40.8441351 28.4373412,45.0352876 23.0894535,45.0352876 C17.7415385,45.0352876 13.5540489,40.8441351 13.5540489,35.4976241 C13.5540489,30.1510994 17.7415385,25.9647122 23.0894535,25.9647122 Z M132.905794,25.9647122 C138.253722,25.9647122 142.445937,30.1510994 142.445937,35.4976241 C142.445937,40.8441351 138.253695,45.0352876 132.905794,45.0352876 C127.557906,45.0352876 123.370416,40.8441351 123.370416,35.4976241 C123.370416,30.1510994 127.557933,25.9647122 132.905794,25.9647122 Z" id="XMLID_107_"></path>
            </g>
        </g>
    </g>
</svg>