<?xml version="1.0" encoding="UTF-8"?>
<svg width="58px" height="58px" viewBox="0 0 58 58" version="1.1" xmlns="http://www.w3.org/2000/svg" xmlns:xlink="http://www.w3.org/1999/xlink">
    <!-- Generator: Sketch 47.1 (45422) - http://www.bohemiancoding.com/sketch -->
    <title>9</title>
    <desc>Created with Sketch.</desc>
    <defs></defs>
    <g id="Page-1" stroke="none" stroke-width="1" fill="none" fill-rule="evenodd">
        <g id="apps" transform="translate(-348.000000, -1103.000000)" fill="#FAFAFA">
            <g id="9" transform="translate(348.000000, 1103.000000)">
                <path d="M0.155286486,27.9515676 C0.155286486,30.7467243 -1.55431223e-15,32.2995892 0.776432432,35.2500324 C1.24229189,37.4240432 2.01872432,40.2192 3.10572973,42.2379243 C3.26101622,42.5484973 3.26101622,42.7037838 3.4163027,43.0143568 C3.57158919,43.3249297 3.72687568,43.4802162 3.88216216,43.7907892 L5.7456,46.7412324 C6.98789189,48.4493838 8.69604324,50.3128216 10.2489081,51.5551135 C10.7147676,51.8656865 11.0253405,52.3315459 11.4912,52.6421189 L14.2863568,54.5055568 C14.2863568,53.1079784 15.3733622,46.8965189 15.6839351,44.8777946 C16.1497946,40.2192 16.4603676,43.1696432 14.2863568,39.5980541 C13.1993514,37.7346162 12.5782054,36.6476108 11.9570595,34.4736 C10.8700541,29.9702919 11.3359135,26.0881297 13.5099243,22.0506811 L14.5969297,20.1872432 C15.3733622,19.1002378 17.547373,16.926227 18.6343784,16.1497946 C20.0319568,15.2180757 19.2555243,15.5286486 21.1189622,14.5969297 C24.5352649,12.8887784 26.3987027,12.8887784 29.8150054,12.8887784 C31.3678703,12.8887784 34.163027,13.6652108 35.7158919,14.2863568 C36.9581838,14.7522162 38.0451892,15.5286486 38.9769081,16.1497946 C39.7533405,16.6156541 41.6167784,18.3238054 42.2379243,19.2555243 C42.8590703,20.1872432 43.1696432,20.3425297 43.9460757,21.7401081 C45.654227,24.6905514 46.4306595,28.5727135 45.9648,31.9890162 C45.654227,34.6288865 44.8777946,36.9581838 43.4802162,39.2874811 L41.9273514,41.4614919 C41.1509189,42.2379243 41.4614919,41.9273514 41.7720649,44.4119351 L43.1696432,54.5055568 C44.2566486,54.0396973 47.5176649,51.399827 48.4493838,50.4681081 C51.7104,47.2070919 54.1949838,43.6355027 55.7478486,39.1321946 C57.766573,32.9207351 57.9218595,27.9515676 56.3689946,21.4295351 C56.0584216,20.1872432 55.1267027,17.3920865 54.5055568,16.3050811 L52.6421189,13.0440649 C52.3315459,12.5782054 52.1762595,12.4229189 51.8656865,11.9570595 C51.399827,11.180627 49.3811027,9.00661622 48.6046703,8.23018378 C46.5859459,6.36674595 44.8777946,5.12445405 42.5484973,3.72687568 C42.2379243,3.57158919 41.7720649,3.26101622 41.4614919,3.10572973 C40.529773,2.63987027 38.6663351,1.86343784 37.7346162,1.55286486 C35.2500324,0.621145946 31.5231568,0 28.728,0 C25.6222703,0 22.671827,0.621145946 19.8766703,1.55286486 C18.9449514,1.86343784 18.3238054,2.17401081 17.3920865,2.63987027 C16.6156541,2.95044324 15.8392216,3.4163027 15.0627892,3.88216216 C12.8887784,5.12445405 12.8887784,5.12445405 10.8700541,6.83260541 C9.78304865,7.76432432 9.1619027,8.38547027 8.23018378,9.31718919 C6.67731892,10.8700541 3.88216216,14.9075027 3.10572973,16.6156541 L2.01872432,18.9449514 C1.08700541,21.2742486 0.155286486,25.1564108 0.155286486,27.7962811 L0.155286486,27.9515676 Z" id="_2_O"></path>
                <path d="M19.7213838,28.8832865 C19.7213838,30.5914378 19.7213838,31.5231568 20.3425297,33.2313081 C20.8083892,34.3183135 20.8083892,34.3183135 21.5848216,35.4053189 C22.671827,36.8028973 23.7588324,37.4240432 25.4669838,38.2004757 L21.8953946,57.456 L35.5606054,57.456 L31.9890162,38.0451892 C32.4548757,37.7346162 33.3865946,37.4240432 34.3183135,36.8028973 C37.1134703,34.6288865 38.3557622,31.5231568 37.7346162,27.7962811 C37.5793297,27.1751351 37.4240432,26.8645622 37.1134703,26.2434162 C36.0264649,23.4482595 32.6101622,20.9636757 29.1938595,20.9636757 C26.3987027,20.9636757 24.8458378,21.2742486 22.5165405,23.1376865 C22.0506811,23.6035459 20.8083892,25.0011243 20.6531027,25.6222703 C20.1872432,26.5539892 19.5660973,27.6409946 19.5660973,29.038573 L19.7213838,28.8832865 Z" id="_1_Sleutelgat"></path>
            </g>
        </g>
    </g>
</svg>