<?xml version="1.0" encoding="UTF-8"?>
<svg width="57px" height="63px" viewBox="0 0 57 63" version="1.1" xmlns="http://www.w3.org/2000/svg" xmlns:xlink="http://www.w3.org/1999/xlink">
    <!-- Generator: Sketch 47.1 (45422) - http://www.bohemiancoding.com/sketch -->
    <title>13</title>
    <desc>Created with Sketch.</desc>
    <defs></defs>
    <g id="Page-1" stroke="none" stroke-width="1" fill="none" fill-rule="evenodd">
        <g id="apps" transform="translate(-348.000000, -1338.000000)" fill-rule="nonzero" fill="#2473A7">
            <path d="M400.070045,1365.71805 C398.082382,1364.06219 396.503798,1362.70989 394.409995,1360.97783 C393.925487,1358.22226 393.452526,1355.51494 392.981777,1352.86724 C392.1845,1348.34077 388.293938,1343.57778 384.185936,1342.26234 C382.304412,1341.65744 380.552861,1341.84572 378.879685,1342.84918 C376.850745,1340.6854 374.729425,1339.22944 372.417445,1338.48501 C366.930364,1336.71707 362.431218,1339.91722 362.935627,1345.89074 C363.223581,1349.21731 363.507603,1352.82741 363.743714,1355.69183 C360.638144,1356.9897 357.43921,1358.3561 354.810285,1359.47684 C351.537889,1360.88233 349.277996,1363.70049 348.407257,1367.04784 C347.520548,1370.46471 348.052475,1374.42092 350.291729,1377.92389 C352.282341,1381.06169 355.129933,1383.1896 358.773819,1384.34298 C358.472107,1388.47955 359.209188,1392.05278 361.050418,1394.98153 C363.131445,1398.31131 366.209007,1400.30661 369.349712,1400.84817 C372.437346,1401.38182 375.554219,1400.50874 377.936958,1398.22819 C380.491683,1395.74575 382.907836,1393.40384 385.210971,1391.18267 C387.938664,1392.83358 390.569309,1394.42636 393.127965,1395.97831 C397.31164,1398.49043 401.583519,1395.75862 402.592093,1390.42735 C403.013703,1388.20518 402.827959,1385.72176 402.041738,1382.91374 C403.530889,1381.99019 404.455926,1380.54808 404.832329,1378.52879 C405.62764,1374.24081 403.520078,1368.60078 400.069799,1365.71756 L400.070045,1365.71805 Z M400.767078,1375.34398 C400.540058,1376.3754 399.878404,1376.99217 399.050907,1376.89395 C398.370581,1376.81181 397.801554,1376.53373 396.641633,1375.67451 C394.72866,1374.23141 392.774657,1372.75269 390.752596,1371.25293 C390.573731,1371.12725 390.375211,1370.98772 390.193397,1370.85412 C388.512605,1369.60598 387.043847,1369.84447 386.482683,1371.55204 C385.900634,1373.29994 386.718549,1375.35387 388.449708,1376.57629 C388.634469,1376.70395 388.846749,1376.85536 389.02758,1376.98895 C391.137107,1378.47757 393.21322,1379.92958 395.23307,1381.34521 C396.089313,1381.94689 396.727134,1382.51023 397.148008,1383.01988 C398.078942,1384.09286 398.521191,1385.85857 398.200806,1387.33259 C397.854869,1388.88752 396.859072,1389.69825 395.650012,1389.42116 C395.03848,1389.29053 394.578541,1389.04016 393.480535,1388.32443 C391.351352,1386.93477 389.16222,1385.49365 386.90331,1384.02878 C386.695945,1383.89519 386.488579,1383.75664 386.286864,1383.61117 C385.574107,1383.17376 384.888129,1382.9746 384.282494,1382.99835 L384.279545,1382.99835 C383.60315,1382.95357 382.894569,1383.20023 382.215225,1383.74872 C382.026533,1383.90508 381.835874,1384.05451 381.659957,1384.22275 C379.552395,1385.96891 377.367194,1387.8316 375.051284,1389.79053 C373.799965,1390.84372 373.236589,1391.25441 372.40123,1391.55055 C370.718472,1392.19776 368.85857,1391.47138 367.694718,1389.60746 C366.598677,1387.79301 366.64585,1385.43823 367.781202,1383.95357 C368.263745,1383.29326 369.079694,1382.53819 370.204235,1381.73536 C372.654786,1379.9704 374.976593,1378.3086 377.181449,1376.71508 C377.381936,1376.57752 377.57456,1376.44195 377.775292,1376.2992 C379.447238,1375.1035 379.767869,1372.9892 378.588293,1371.01864 C377.439182,1369.05279 375.538986,1368.45605 373.735347,1369.55279 C373.531913,1369.67649 373.329461,1369.80019 373.126763,1369.93576 C370.793163,1371.37589 368.345561,1372.89742 365.765284,1374.49984 C364.101199,1375.51048 363.222352,1375.83705 361.979878,1375.89445 C360.444537,1375.9746 358.837208,1375.02235 357.901606,1373.52285 C356.841928,1371.85214 356.806548,1369.77644 357.823966,1368.48871 C358.395942,1367.73141 359.008456,1367.27223 360.76615,1366.36451 C363.48893,1364.94517 366.099919,1363.61093 368.577004,1362.35882 C368.788301,1362.22919 369.001563,1362.14012 369.220968,1362.03225 C369.372315,1361.95704 369.51187,1361.86798 369.634716,1361.77792 C370.743533,1361.2851 371.283077,1360.05279 371.110108,1358.38381 C371.080625,1358.10375 371.060969,1357.83359 371.014779,1357.56615 C370.713067,1354.60351 370.413075,1351.70049 370.099569,1348.86279 C369.917756,1347.12874 369.935446,1346.5189 370.153622,1345.83087 C370.501524,1344.7381 371.73024,1344.2621 373.108582,1344.63617 C374.322555,1344.96571 375.484442,1345.9239 376.117595,1347.08495 C376.634535,1348.05106 376.872612,1348.84695 377.081944,1350.49292 C377.424932,1353.19505 377.777994,1355.93799 378.133759,1358.74502 C378.169139,1359.00133 378.204519,1359.25368 378.235968,1359.51122 C378.535714,1361.84522 379.913811,1363.52384 381.700006,1363.76159 C383.421091,1363.99217 384.334335,1362.63418 384.02083,1360.45259 C383.992329,1360.21311 383.955967,1359.96075 383.923535,1359.72597 C383.534356,1357.04067 383.149845,1354.40954 382.774425,1351.83409 C382.610301,1350.72053 382.5533,1349.86724 382.642733,1349.31702 C382.77639,1348.09559 383.742704,1347.45903 384.978299,1347.79475 C386.225687,1348.13914 387.394452,1349.29723 387.934242,1350.67699 C388.210402,1351.37491 388.336197,1351.91524 388.549705,1353.20692 C388.95854,1355.67748 389.31455,1358.15695 389.733212,1360.72152 L389.879646,1361.43527 C390.009372,1362.06689 390.061459,1362.19257 390.174479,1362.53497 L390.146961,1362.42216 L390.140082,1362.40435 L390.131237,1362.38653 L390.127305,1362.35289 L390.127305,1362.34769 L390.139099,1362.34472 C390.355309,1363.31677 390.991411,1364.27594 391.972466,1365.05081 C392.143469,1365.18836 392.334128,1365.32196 392.506113,1365.4704 C394.409258,1366.97584 396.265967,1368.46174 398.089507,1369.89791 C399.18653,1370.76605 399.581606,1371.16882 400.015255,1371.78064 C400.718185,1372.77644 401.013018,1374.22943 400.768307,1375.34398 L400.767078,1375.34398 Z" id="13"></path>
        </g>
    </g>
</svg>