<?xml version="1.0" encoding="UTF-8"?>
<svg width="95px" height="105px" viewBox="0 0 95 105" version="1.1" xmlns="http://www.w3.org/2000/svg" xmlns:xlink="http://www.w3.org/1999/xlink">
    <!-- Generator: Sketch 47.1 (45422) - http://www.bohemiancoding.com/sketch -->
    <title>7</title>
    <desc>Created with Sketch.</desc>
    <defs></defs>
    <g id="Page-1" stroke="none" stroke-width="1" fill="none" fill-rule="evenodd">
        <g id="apps" transform="translate(-1299.000000, -456.000000)" fill-rule="nonzero" fill="#2473A7">
            <path d="M1385.76764,501.869425 C1382.45547,499.129207 1379.82498,496.891343 1376.33594,494.025026 C1375.52857,489.464957 1374.74045,484.984725 1373.95601,480.603161 C1372.62745,473.112497 1366.14436,465.230432 1359.29894,463.053571 C1356.16363,462.05255 1353.24491,462.364115 1350.45679,464.024704 C1347.07584,460.443957 1343.54095,458.034548 1339.68835,456.802617 C1330.54487,453.876934 1323.04766,459.172722 1323.88819,469.058057 C1324.36802,474.563056 1324.84131,480.537245 1325.23476,485.277457 C1320.05975,487.42525 1314.72916,489.686451 1310.34841,491.541103 C1304.89541,493.866992 1301.12961,498.530642 1299.67864,504.070033 C1298.20106,509.724469 1299.08744,516.27143 1302.81885,522.068342 C1306.13594,527.260958 1310.88106,530.78234 1316.9531,532.691034 C1316.45034,539.536459 1317.67859,545.449646 1320.74675,550.296305 C1324.21449,555.806627 1329.34283,559.108562 1334.57639,560.004772 C1339.72151,560.887881 1344.91535,559.443054 1348.88586,555.669063 C1353.14297,551.560989 1357.16916,547.685463 1361.00702,544.009732 C1365.55235,546.741761 1369.93596,549.377577 1374.19961,551.94584 C1381.17113,556.103043 1388.28964,551.582279 1389.97029,542.759787 C1390.67285,539.082418 1390.36333,534.972706 1389.0532,530.325841 C1391.53467,528.797493 1393.07611,526.411011 1393.70334,523.069363 C1395.02862,515.973376 1391.51665,506.639933 1385.76723,501.868606 L1385.76764,501.869425 Z M1386.92915,517.798959 C1386.55085,519.505811 1385.4483,520.526484 1384.06939,520.363946 C1382.93571,520.22802 1381.98751,519.767837 1380.05466,518.345938 C1376.86695,515.957818 1373.61087,513.510742 1370.24138,511.028866 C1369.94333,510.820883 1369.61252,510.589972 1369.30955,510.368888 C1366.50874,508.303388 1364.06126,508.698064 1363.12615,511.523849 C1362.15625,514.416369 1363.51919,517.815335 1366.40393,519.838257 C1366.71181,520.049515 1367.06555,520.300077 1367.36688,520.521162 C1370.88212,522.984614 1374.34168,525.387473 1377.70748,527.730148 C1379.13429,528.725846 1380.19713,529.658085 1380.89846,530.50148 C1382.44974,532.277115 1383.18669,535.199113 1382.65281,537.63841 C1382.07635,540.211585 1380.41699,541.553239 1378.40226,541.094694 C1377.38322,540.878523 1376.6168,540.464194 1374.78712,539.279756 C1371.23913,536.980069 1367.59123,534.595225 1363.82707,532.171076 C1363.48152,531.949992 1363.13598,531.720719 1362.79985,531.479983 C1361.61213,530.756137 1360.46904,530.426558 1359.45984,530.465861 L1359.45492,530.465861 C1358.3278,530.391757 1357.14705,530.799944 1356.01501,531.707618 C1355.70058,531.966369 1355.38288,532.213656 1355.08974,532.492058 C1351.57777,535.381712 1347.93643,538.4642 1344.07728,541.705951 C1341.99213,543.448833 1341.05334,544.128462 1339.66133,544.618532 C1336.85724,545.689563 1333.75797,544.48752 1331.81857,541.402984 C1329.99216,538.400331 1330.07077,534.503516 1331.96268,532.046614 C1332.76677,530.953884 1334.12644,529.704349 1336.00033,528.375796 C1340.08384,525.455026 1343.95282,522.704983 1347.62691,520.067939 C1347.961,519.840304 1348.28198,519.615944 1348.61647,519.379711 C1351.40254,517.401007 1351.93683,513.902143 1349.97122,510.64115 C1348.05639,507.387935 1344.88997,506.400425 1341.88445,508.215363 C1341.54546,508.420071 1341.2081,508.624779 1340.87033,508.849138 C1336.9817,511.232345 1332.90311,513.75025 1328.60343,516.402033 C1325.83046,518.074495 1324.36598,518.614923 1322.29556,518.709908 C1319.73713,518.842558 1317.05873,517.266719 1315.49968,514.785252 C1313.73387,512.02047 1313.67491,508.585475 1315.3703,506.454468 C1316.32342,505.201247 1317.34409,504.441372 1320.27305,502.939227 C1324.81019,500.590411 1329.16105,498.382434 1333.28878,496.310383 C1333.64087,496.095849 1333.99625,495.94846 1334.36185,495.769954 C1334.61405,495.645492 1334.8466,495.498103 1335.05131,495.349075 C1336.899,494.53352 1337.79808,492.494222 1337.50985,489.732306 C1337.46072,489.268847 1337.42797,488.821766 1337.351,488.379188 C1336.84823,483.476439 1336.34834,478.672358 1335.82592,473.976364 C1335.52296,471.106771 1335.55243,470.097562 1335.91599,468.958978 C1336.49573,467.150591 1338.54321,466.362875 1340.84003,466.981911 C1342.86295,467.527253 1344.79908,469.112919 1345.85414,471.034305 C1346.71555,472.633072 1347.11228,473.950161 1347.4611,476.674002 C1348.03264,481.145637 1348.62097,485.684825 1349.21381,490.330052 C1349.27276,490.754206 1349.33172,491.17181 1349.38412,491.598012 C1349.88361,495.460436 1352.18002,498.23832 1355.15647,498.631768 C1358.02443,499.013343 1359.54622,496.766062 1359.02381,493.155837 C1358.97632,492.759523 1358.91572,492.341919 1358.86168,491.953384 C1358.21317,487.50959 1357.57243,483.155457 1356.94684,478.893443 C1356.67335,477.050664 1356.57837,475.63859 1356.7274,474.728051 C1356.95012,472.706767 1358.56035,471.653341 1360.6193,472.208918 C1362.6979,472.778824 1364.64549,474.695297 1365.54498,476.978607 C1366.00516,478.133568 1366.21478,479.027731 1366.57056,481.165289 C1367.25183,485.253711 1367.84507,489.356872 1368.54272,493.600871 L1368.78673,494.782035 C1369.0029,495.827272 1369.0897,496.035256 1369.27803,496.601886 L1369.23217,496.415193 L1369.22071,496.385715 L1369.20597,496.356237 L1369.19942,496.300557 L1369.19942,496.291959 L1369.21907,496.287046 C1369.57936,497.895639 1370.63933,499.482942 1372.27413,500.765231 C1372.55908,500.992866 1372.87679,501.213951 1373.16338,501.4596 C1376.33471,503.950893 1379.42866,506.409841 1382.46734,508.786498 C1384.29538,510.223136 1384.95372,510.889665 1385.67634,511.902149 C1386.84768,513.550046 1387.33898,515.954542 1386.9312,517.798959 L1386.92915,517.798959 Z" id="7" transform="translate(1346.491370, 508.128011) scale(-1, 1) translate(-1346.491370, -508.128011) "></path>
        </g>
    </g>
</svg>