<?xml version="1.0" encoding="UTF-8"?>
<svg width="57px" height="57px" viewBox="0 0 57 57" version="1.1" xmlns="http://www.w3.org/2000/svg" xmlns:xlink="http://www.w3.org/1999/xlink">
    <!-- Generator: Sketch 47.1 (45422) - http://www.bohemiancoding.com/sketch -->
    <title>12</title>
    <desc>Created with Sketch.</desc>
    <defs>
        <polygon id="path-1" points="0 0 56.7784878 0 56.7784878 56.7789512 0 56.7789512"></polygon>
    </defs>
    <g id="Page-1" stroke="none" stroke-width="1" fill="none" fill-rule="evenodd">
        <g id="apps" transform="translate(-64.000000, -1329.000000)">
            <g id="12" transform="translate(64.000000, 1329.000000)">
                <mask id="mask-2" fill="white">
                    <use xlink:href="#path-1"></use>
                </mask>
                <g id="a"></g>
                <g id="Group" mask="url(#mask-2)" fill-rule="nonzero" fill="#FAFAFA">
                    <g id="Shape">
                        <path d="M4.03541463,28.3887805 C4.03541463,38.0291951 9.63763415,46.3595366 17.7612927,50.3078293 L6.14395122,18.4772683 C4.7512949,21.5958622 4.03277961,24.9733578 4.03541463,28.3887805 Z M44.8307317,27.1598049 C44.8307317,24.1499268 43.7495854,22.0654878 42.8222927,20.4430732 C41.5877561,18.4369512 40.4310732,16.7380732 40.4310732,14.7319512 C40.4310732,12.4931951 42.128561,10.4092195 44.5202439,10.4092195 C44.6282195,10.4092195 44.7306341,10.4226585 44.8362927,10.4286829 C40.5029024,6.45907317 34.7301463,4.03541463 28.3897073,4.03541463 C19.8814146,4.03541463 12.395878,8.40078049 8.04117073,15.0127805 C8.61256098,15.0299268 9.1515122,15.0415122 9.60843902,15.0415122 C12.1558293,15.0415122 16.0990244,14.7324146 16.0990244,14.7324146 C17.411878,14.6550244 17.5666585,16.5832927 16.2556585,16.7385366 C16.2556585,16.7385366 14.9358537,16.8937805 13.4677561,16.9707073 L22.3365854,43.3505854 L27.6667805,27.3660244 L23.871878,16.9702439 C22.5604146,16.8933171 21.318,16.7380732 21.318,16.7380732 C20.0056098,16.6611463 20.1594634,14.654561 21.4718537,14.7319512 C21.4718537,14.7319512 25.4938293,15.0410488 27.8869024,15.0410488 C30.4338293,15.0410488 34.3774878,14.7319512 34.3774878,14.7319512 C35.6912683,14.654561 35.8455854,16.5828293 34.5336585,16.7380732 C34.5336585,16.7380732 33.2115366,16.8933171 31.7462195,16.9702439 L40.5473902,43.1503902 L42.9761463,35.0327561 C44.0294878,31.6641951 44.8307317,29.2447073 44.8307317,27.1598049 L44.8307317,27.1598049 Z"></path>
                        <path d="M28.8169756,30.5190976 L21.5098537,51.7518293 C23.7438281,52.4101963 26.06074,52.7444833 28.3897073,52.7444634 C31.2258049,52.7444634 33.9455854,52.2537073 36.4772195,51.3639512 C36.4093095,51.2576487 36.3512941,51.1453408 36.3039024,51.028439 L28.8169756,30.5190976 Z M49.7596098,16.7042439 C49.8643415,17.48 49.9236585,18.3132195 49.9236585,19.2085366 C49.9236585,21.6799268 49.4620976,24.4580976 48.0718537,27.9318537 L40.6326585,49.4403171 C47.8730488,45.2181463 52.7430732,37.3739268 52.7430732,28.3887805 C52.7495682,24.3046967 51.7232728,20.2852787 49.7596098,16.7042439 L49.7596098,16.7042439 Z"></path>
                        <path d="M28.3897073,0 C12.7360244,0 0,12.7350976 0,28.3887805 C0,44.0443171 12.735561,56.7794146 28.3897073,56.7794146 C44.0429268,56.7794146 56.7808049,44.0447805 56.7808049,28.3887805 C56.7803415,12.7350976 44.0429268,0 28.3897073,0 Z M28.3897073,55.4776829 C13.4538537,55.4776829 1.30173171,43.325561 1.30173171,28.3887805 C1.30173171,13.4533902 13.4533902,1.30219512 28.3897073,1.30219512 C43.3250976,1.30219512 55.4762927,13.4533902 55.4762927,28.3887805 C55.4762927,43.325561 43.3246341,55.4776829 28.3897073,55.4776829 Z"></path>
                    </g>
                </g>
            </g>
        </g>
    </g>
</svg>