<?xml version="1.0" encoding="UTF-8"?>
<svg width="116px" height="53px" viewBox="0 0 116 53" version="1.1" xmlns="http://www.w3.org/2000/svg" xmlns:xlink="http://www.w3.org/1999/xlink">
    <!-- Generator: Sketch 47.1 (45422) - http://www.bohemiancoding.com/sketch -->
    <title>6</title>
    <desc>Created with Sketch.</desc>
    <defs></defs>
    <g id="Page-1" stroke="none" stroke-width="1" fill="none" fill-rule="evenodd">
        <g id="main-page-icons" transform="translate(-509.000000, -541.000000)" stroke="#3378A7">
            <g id="6" transform="translate(509.666667, 541.000000)">
                <rect id="Rectangle-13" stroke-width="4" x="2" y="2" width="111" height="49" rx="9.3636"></rect>
                <g id="Group-45" transform="translate(3.000000, 13.000000)" stroke-width="4">
                    <g id="Group-8">
                        <polyline id="Path-48" stroke-linecap="round" stroke-linejoin="round" points="1 0 12.8181818 0 12.8181818 27 1 27"></polyline>
                        <path d="M0,9 L13,9" id="Path-49"></path>
                        <path d="M0,18 L13,18" id="Path-49-Copy"></path>
                    </g>
                </g>
                <polyline id="Path-50" stroke-width="3.6" stroke-linecap="round" stroke-linejoin="round" points="33 34 33 20 44 34 44 20"></polyline>
                <polyline id="Path-51" stroke-width="3.6" stroke-linecap="round" stroke-linejoin="round" points="50 20 56.0228787 34 62 20"></polyline>
                <polyline id="Path-52" stroke-width="3.6" stroke-linecap="round" stroke-linejoin="round" points="68 34 68 20 74.5 30.022076 81 20 81 34"></polyline>
                <path d="M88.0923242,28.1977768 L98,28.1977768 C97.7512663,24.0490917 95.9382242,21.9832004 92.5608735,22.0001029 C86.3074175,22.0313993 84.5112137,31.7661885 91.4559654,33.7888556 C92.856787,34.1968466 95.0871885,34.1005316 96.6226395,32.7177337" id="Path-53" stroke-width="3.6" stroke-linecap="round" stroke-linejoin="round"></path>
            </g>
        </g>
    </g>
</svg>