<?xml version="1.0" encoding="UTF-8"?>
<svg width="102px" height="74px" viewBox="0 0 102 74" version="1.1" xmlns="http://www.w3.org/2000/svg" xmlns:xlink="http://www.w3.org/1999/xlink">
    <!-- Generator: Sketch 47.1 (45422) - http://www.bohemiancoding.com/sketch -->
    <title>3</title>
    <desc>Created with Sketch.</desc>
    <defs></defs>
    <g id="Page-1" stroke="none" stroke-width="1" fill="none" fill-rule="evenodd">
        <g id="main-page-icons" transform="translate(-784.000000, -290.000000)" stroke-width="4" stroke="#3378A7">
            <g id="3" transform="translate(786.666667, 292.000000)">
                <g id="Group-55">
                    <polyline id="Path-71" stroke-linecap="round" stroke-linejoin="round" points="90.4492939 0 65.2884615 16.8998104 83.0903759 42.94024 96.6623848 34.1793783"></polyline>
                    <polyline id="Path-72" stroke-linecap="round" stroke-linejoin="round" points="3.34882687 0.615303319 28.5266614 16.6315165 12.5160507 42.1614967 0 34.8301337"></polyline>
                    <path d="M22.0970905,51.2214089 L27.2330577,45.7712585 C28.6382791,44.2800752 30.9990326,44.1984965 32.5059481,45.5890474 C34.0128636,46.9795983 34.0953029,49.3157054 32.6900814,50.8068887 L27.5541143,56.2570392 C26.1488929,57.7482224 23.7881394,57.8298011 22.2812239,56.4392502 C20.7743084,55.0486993 20.6918691,52.7125922 22.0970905,51.2214089 Z" id="Rectangle-15"></path>
                    <path d="M27.6932444,56.6154149 L35.5929383,48.2324717 C36.9981597,46.7412885 39.3589132,46.6597098 40.8658287,48.0502607 C42.3727442,49.4408116 42.4551835,51.7769187 41.0499621,53.268102 L33.1502681,61.6510451 C31.7450467,63.1422284 29.3842933,63.223807 27.8773778,61.8332561 C26.3704623,60.4427052 26.2880229,58.1065981 27.6932444,56.6154149 Z" id="Rectangle-15-Copy"></path>
                    <path d="M34.2963758,60.9225381 L42.1960697,52.539595 C43.6012911,51.0484117 45.9620446,50.966833 47.4689601,52.3573839 C48.9758756,53.7479348 49.0583149,56.0840419 47.6530935,57.5752252 L39.7533995,65.9581683 C38.3481781,67.4493516 35.9874247,67.5309303 34.4805091,66.1403794 C32.9735936,64.7498285 32.8911543,62.4137214 34.2963758,60.9225381 Z" id="Rectangle-15-Copy-2"></path>
                    <g id="Group-52" transform="translate(24.250000, 3.451702)" stroke-linecap="round">
                        <path d="M30.0260992,12.3786107 C22.3151075,16.6797073 17.6216128,19.6551499 15.9456152,21.3049384 C13.4316187,23.7796213 11.6687071,29.2248709 7.44750507,39.4588065 C3.226303,49.692742 11.8821986,51.9099458 14.9702375,47.1138128 C17.0289301,43.9163908 19.5407182,38.4254491 22.5056018,30.6409877 L43.1408573,29.6175453 L44.05493,29.6175453 L54.7240141,29.6175453 C56.784461,29.6175453 58.4547833,31.2704294 58.4547833,33.3093652 C58.5968163,35.6197256 56.075393,37.4145161 54.0149461,37.4145161" id="Rectangle-15-Copy-4" stroke-linejoin="round" transform="translate(32.385009, 30.956812) rotate(-325.000000) translate(-32.385009, -30.956812) "></path>
                        <path d="M32.9267345,45.3814613 L33.8408072,45.3814613 L44.5098913,45.3814613 C46.5703382,45.3814613 48.2406605,47.0343454 48.2406605,49.0732812 C48.2406605,51.112217 46.4501208,53.1406075 44.3896739,53.1406075" id="Rectangle-15-Copy-5" transform="translate(40.583697, 49.261034) rotate(-325.000000) translate(-40.583697, -49.261034) "></path>
                        <path d="M29.9775625,52.2066579 C32.2548531,52.2066579 35.6707891,52.2066579 40.2253704,52.2066579 C41.877165,52.1744737 43.6584868,53.7338371 43.6584868,55.772773 C43.6584868,57.8117088 41.9483392,59.3369721 40.2253704,59.5902977 C37.0082854,59.4713318 34.5954717,59.3821073 32.9869292,59.3226243" id="Rectangle-15-Copy-6" transform="translate(36.818025, 55.898233) rotate(-325.000000) translate(-36.818025, -55.898233) "></path>
                        <path d="M29.1436389,57.6104004 C30.333177,57.6104004 31.4157045,57.6636657 32.3912214,57.7701962 C34.4516684,57.7701962 36.1219907,59.4230803 36.1219907,61.4620161 C36.1219907,63.5009519 34.4516684,65.153836 32.3912214,65.153836 C30.5433777,65.1256336 29.2040586,65.0961713 28.3732641,65.065449" id="Rectangle-15-Copy-7" transform="translate(32.247627, 61.382118) rotate(-325.000000) translate(-32.247627, -61.382118) "></path>
                        <path d="M4.20683093,14.3920947 C13.6156277,13.5580703 18.9350403,13.8389326 20.1650688,15.2346817" id="Path-73" stroke-linejoin="round"></path>
                    </g>
                    <path d="M42.9610452,63.286519 L45.6552727,60.4274771 C47.0604941,58.9362938 49.4212476,58.8547152 50.9281631,60.2452661 C52.4350786,61.635817 52.5175179,63.9719241 51.1122965,65.4631073 L48.4180689,68.3221493 C47.0128475,69.8133325 44.6520941,69.8949112 43.1451786,68.5043603 C41.638263,67.1138094 41.5558237,64.7777023 42.9610452,63.286519 Z" id="Rectangle-15-Copy-3"></path>
                    <path d="M76.9870402,46.199575 C79.6805738,44.2856652 81.2545427,43.1637681 81.7089468,42.8338838 C82.1633509,42.5039996 80.5893821,43.6258966 76.9870402,46.199575 Z" id="Path-74" stroke-linecap="round" stroke-linejoin="round"></path>
                    <path d="M13.6849522,41.9788286 C16.7854254,46.8686072 19.2961854,50.0443695 21.2172319,51.5061154" id="Path-75" stroke-linecap="round" stroke-linejoin="round"></path>
                </g>
            </g>
        </g>
    </g>
</svg>