<?xml version="1.0" encoding="UTF-8"?>
<svg width="105px" height="61px" viewBox="0 0 105 61" version="1.1" xmlns="http://www.w3.org/2000/svg" xmlns:xlink="http://www.w3.org/1999/xlink">
    <!-- Generator: Sketch 47.1 (45422) - http://www.bohemiancoding.com/sketch -->
    <title>4 copy</title>
    <desc>Created with Sketch.</desc>
    <defs></defs>
    <g id="Page-1" stroke="none" stroke-width="1" fill="none" fill-rule="evenodd">
        <g id="4-copy" transform="translate(2.000000, 2.000000)">
            <path d="M56.1,51.0765146 C60.6348113,54.243083 66.1489806,56.1 72.0961427,56.1 L72.0961427,56.1 C87.562246,56.1 100.1,43.5415872 100.1,28.05 C100.1,12.5584128 87.562246,0 72.0961427,0 C66.3533743,0 61.0143477,1.73147225 56.5710091,4.70165991" id="Oval-20-Copy" stroke="#3378A7" stroke-width="4" stroke-linecap="round"></path>
            <circle id="Oval-20" stroke="#3378A7" stroke-width="4" cx="28.05" cy="28.05" r="28.05"></circle>
            <path d="M79.8094355,31.9490676 C79.8094355,33.5040472 79.3038206,34.8430373 78.2925757,35.9660781 C77.2813308,37.0891189 75.9677485,37.7827514 74.3517894,38.0469963 L74.3517894,40.71484 C74.3517894,40.8571257 74.3060554,40.9740015 74.214586,41.0654709 C74.1231166,41.1569403 74.0062408,41.2026743 73.8639551,41.2026743 L71.8059042,41.2026743 C71.6737817,41.2026743 71.5594467,41.1543995 71.4628957,41.0578485 C71.3663447,40.9612975 71.3180699,40.8469625 71.3180699,40.71484 L71.3180699,38.0469963 C70.6472944,37.9555269 69.9993959,37.7979986 69.3743551,37.5744068 C68.7493143,37.350815 68.2335363,37.1246857 67.8270057,36.8960122 C67.4204751,36.6673388 67.04444,36.4234241 66.6988889,36.1642608 C66.3533379,35.9050975 66.1170456,35.7145392 65.9900047,35.59258 C65.8629639,35.4706208 65.7740367,35.3791528 65.7232204,35.3181732 C65.5504449,35.1047446 65.5402817,34.8964008 65.6927307,34.6931355 L67.2629473,32.6350846 C67.3340902,32.533452 67.450966,32.4724733 67.6135782,32.4521467 C67.7660272,32.4318202 67.8879846,32.4775542 67.979454,32.5893501 L68.0099436,32.6198398 C69.1583926,33.626003 70.3932108,34.2611976 71.7144352,34.5254425 C72.090476,34.6067486 72.4665112,34.6474011 72.842552,34.6474011 C73.6657765,34.6474011 74.3898983,34.4288941 75.0149391,33.9918737 C75.6399799,33.5548533 75.9524956,32.9349034 75.9524956,32.1320055 C75.9524956,31.8474341 75.8762723,31.5781116 75.7238233,31.32403 C75.5713743,31.0699483 75.4011422,30.856523 75.2131218,30.6837474 C75.0251014,30.5109719 74.7278303,30.3204136 74.3212997,30.1120666 C73.9147691,29.9037197 73.5793864,29.7411099 73.3151415,29.6242324 C73.0508966,29.5073548 72.6443721,29.3422042 72.0955558,29.1287757 C71.6991884,28.9661634 71.3866727,28.8391245 71.1579992,28.7476551 C70.9293258,28.6561857 70.6168101,28.5215245 70.2204427,28.3436673 C69.8240754,28.1658102 69.5064781,28.008282 69.2676414,27.8710779 C69.0288046,27.7338738 68.7416967,27.5534785 68.406309,27.3298867 C68.0709212,27.1062949 67.7990579,26.8903287 67.590711,26.6819818 C67.3823641,26.4736349 67.1613164,26.2246386 66.9275613,25.9349855 C66.6938062,25.6453325 66.5134109,25.3506022 66.3863701,25.0507859 C66.2593293,24.7509696 66.1526166,24.4130461 66.0662288,24.0370053 C65.9798411,23.6609644 65.9366479,23.264603 65.9366479,22.8479092 C65.9366479,21.4453786 66.4346404,20.2156419 67.4306404,19.1586624 C68.4266404,18.1016828 69.7224372,17.4207542 71.3180699,17.1158563 L71.3180699,14.3717884 C71.3180699,14.2396659 71.3663447,14.1253309 71.4628957,14.0287799 C71.5594467,13.9322289 71.6737817,13.8839541 71.8059042,13.8839541 L73.8639551,13.8839541 C74.0062408,13.8839541 74.1231166,13.9296881 74.214586,14.0211575 C74.3060554,14.1126269 74.3517894,14.2295027 74.3517894,14.3717884 L74.3517894,17.054877 C74.9310955,17.1158566 75.4926075,17.2327324 76.0363421,17.4055079 C76.5800768,17.5782834 77.0221722,17.7485155 77.3626416,17.9162094 C77.703111,18.0839033 78.0257898,18.2744616 78.3306878,18.4878902 C78.6355857,18.7013188 78.8337664,18.8486839 78.9252358,18.92999 C79.0167052,19.0112962 79.0929286,19.0824379 79.1539081,19.1434175 C79.3266837,19.3263563 79.3520914,19.5194555 79.2301323,19.7227208 L77.9953017,21.9484647 C77.9139956,22.1009137 77.7971198,22.1822186 77.6446708,22.1923818 C77.5023851,22.2228716 77.3651831,22.1873007 77.2330606,22.0856681 C77.2025708,22.0551783 77.1288883,21.9941996 77.0120107,21.9027302 C76.8951332,21.8112608 76.6969525,21.6765996 76.4174627,21.4987425 C76.1379729,21.3208853 75.8407018,21.1582755 75.5256406,21.0109082 C75.2105794,20.8635408 74.8320034,20.7314204 74.3899014,20.6145428 C73.9477994,20.4976653 73.5133263,20.4392274 73.0864692,20.4392274 C72.120959,20.4392274 71.3333177,20.6577343 70.7235218,21.0947547 C70.1137259,21.5317751 69.8088325,22.0958279 69.8088325,22.7869299 C69.8088325,23.0511748 69.8520258,23.2950895 69.9384135,23.5186813 C70.0248013,23.7422732 70.1747072,23.9531577 70.3881358,24.1513414 C70.6015643,24.3495251 70.8022858,24.5172164 70.9903062,24.6544205 C71.1783266,24.7916246 71.4628938,24.9491529 71.8440162,25.12701 C72.2251387,25.3048671 72.5325728,25.4420692 72.7663279,25.5386202 C73.000083,25.6351712 73.355792,25.774914 73.8334654,25.9578528 C74.3721185,26.1611181 74.7837245,26.3211871 75.068296,26.4380646 C75.3528674,26.5549422 75.7390657,26.7327967 76.2269024,26.9716334 C76.7147391,27.2104701 77.0983966,27.4264363 77.3778864,27.6195383 C77.6573762,27.8126404 77.9724327,28.0667182 78.3230654,28.3817794 C78.673698,28.6968406 78.9430205,29.0195194 79.1310409,29.3498256 C79.3190613,29.6801317 79.4791303,30.0688707 79.6112528,30.5160544 C79.7433752,30.9632381 79.8094355,31.4409044 79.8094355,31.9490676 Z" id="dollar" fill="#3378A7"></path>
            <polyline id="Path-41" stroke="#3378A7" stroke-width="4" stroke-linecap="round" stroke-linejoin="round" points="27.5 13.2 27.5 30.4943695 39.8186035 38.0891113"></polyline>
        </g>
    </g>
</svg>