<svg width="1021" height="471" viewBox="0 0 1021 471" xmlns="http://www.w3.org/2000/svg"><title>map</title><defs><linearGradient x1="-123.08%" y1="731.55%" x2="18978.48%" y2="-37471.58%" id="a"><stop stop-color="#EBEBEB" offset="0%"/><stop stop-color="#FFF" offset="100%"/></linearGradient><linearGradient x1="153.84%" y1="31574.05%" x2="38356.96%" y2="-6629.08%" id="b"><stop stop-color="#EBEBEB" offset="0%"/><stop stop-color="#FFF" offset="100%"/></linearGradient><linearGradient x1="6947.173%" y1="17176.21%" x2="45150.293%" y2="-21026.921%" id="c"><stop stop-color="#EBEBEB" offset="0%"/><stop stop-color="#FFF" offset="100%"/></linearGradient><linearGradient x1="8669.643%" y1="16163.269%" x2="35716.563%" y2="-7217.356%" id="d"><stop stop-color="#EBEBEB" offset="0%"/><stop stop-color="#FFF" offset="100%"/></linearGradient><linearGradient x1="12585.134%" y1="28229.866%" x2="50788.254%" y2="-9973.264%" id="e"><stop stop-color="#EBEBEB" offset="0%"/><stop stop-color="#FFF" offset="100%"/></linearGradient></defs><g fill="none" fill-rule="evenodd"><ellipse fill="#2980B9" cx="166" cy="78.5" rx="6" ry="7.5"/><circle fill="#2980B9" cx="525.5" cy="292.5" r="34.5"/><path d="M1017.269 407.944c1.194-.15 2.835-1.197 3.731-.15-.746 1.646-1.94 3.442-3.731 4.19-.896.3-1.94.3-2.836.6-1.642.748-2.537 2.394-3.88 3.591-1.344 1.048-3.135 2.096-4.628 2.994-1.343.898-3.283 2.694-4.925 1.347.15-2.395 2.537-2.245 3.134-4.191 0-1.347-1.194-1.497-1.194-2.993 2.687-2.395 7.015-4.19 7.761-9.13.299-2.245-1.492-6.884 1.195-7.184 3.134-.299 1.343 3.143 1.641 4.94.15.748.747 1.197 1.194 2.244.597 1.796.597 3.293 2.538 3.742zM999 419.667c-1.04 3.193-5.938 4.935-9.056 6.967-1.04.58-1.781 2.032-2.969 2.467-1.485.58-3.266.435-4.9 1.161-2.671 1.161-4.601 3.483-6.828 5.08-2.227 1.451-5.642 3.483-8.314 3.629-2.969.29-8.313-1.597-4.75-4.21 1.484-1.16 4.899-2.467 6.532-3.338 5.641-2.757 13.51-4.644 18.111-7.837 2.673-1.887 5.048-3.774 7.423-5.37 1.336-.871 3.415 1.16 4.751 1.45zm-34.041-131.636c.595-.154.595.309 1.041.463-.298 2.93-1.934 4.781-5.504 4.473-1.636-.155-4.463-1.389-4.463-2.314-.595-2.776 6.992-1.08 8.926-2.622zm-9.99 13.738c1.477.449 7.681 4.941 5.613 6.888-1.034 1.048-2.511-.599-4.284-1.048-2.363-.6-4.284.15-5.908-1.198-1.92-1.498-2.364-4.642-4.284-6.589-1.034-.898-3.693-2.246-5.466-1.947-3.102.3-3.102 3.894-5.909 5.541-2.659-.3-4.284.45-6.204-.15-2.068-.748-3.25-3.444-5.17-3.743-1.92-.3-6.647 3.294-7.386.15-.59-2.546 3.25-3.295 3.545-4.942.296-1.797-1.477-4.343-2.363-5.241-.887-.749-1.92-.749-2.955-1.348-1.034-.599-1.772-1.797-2.954-2.396-4.136-2.246-10.34-1.348-11.965-4.792-.296-.599.148-1.347-.148-2.246-.443-1.048-2.068-1.497-2.511-2.396-1.33-2.396-.443-5.99 1.92-6.289 2.216-.3 6.352 2.396 6.795 4.043.296.899-.147 1.797 0 2.845.296 1.198 1.92 4.043 3.546 4.193 2.068.15 3.25-2.995 5.022-4.193 1.33-.748 3.398-1.797 5.17-1.647 1.625.15 2.807 1.497 4.727 2.246 1.33.45 3.102.749 4.727 1.198 1.477.45 2.66 1.198 4.136 1.797 4.727 1.647 10.193 2.695 12.704 5.69.739.899.739 2.097 1.625 2.995.886.899 5.318 1.647 5.466 3.594.147 1.498-1.92 1.498-1.92 2.995-.296 2.845 3.692 2.695 4.43 5.99zM913 419.081c-.597 2.555-2.538 5.26-4.926 6.914-1.792 1.202-7.464 3.757-8.061.15-.15-1.052 1.045-5.56 1.642-6.613 1.343-2.855 2.836-.901 5.225-.6 2.09.6 4.18-1.203 6.12.15zm-14.924-285.896c.74 2.34 1.332 4.68 1.924 6.726-2.22 2.633-6.511 1.609-9.619 3.071-1.48.732-1.924 3.071-3.403 3.51-1.184.292-2.072-1.024-3.108-1.024-2.812 0-4.144 4.68-7.695 3.51-1.924 1.17.148 5.703-2.368 5.995-1.776.293-2.664-1.9-3.7-3.363-1.331-1.608-3.107-2.486-3.107-3.948 0-1.316 2.812-3.656 3.7-4.68 1.183-1.17 3.255-3.363 4.735-3.656 2.664-.584 5.327.293 7.251-.584 1.776-.732 1.776-3.364 2.812-4.095.74-.585 1.628-.439 2.367-.731 1.776-1.024 3.848-4.387 2.812-7.75-.592-2.194-4.291-4.534-1.924-7.166 3.404.439 7.991 3.802 8.583 7.165.296 1.317-.592 2.633-.444 4.095.148 1.024.888 1.901 1.184 2.925zm.924-21.303c-.457 1.02-1.371.729-2.286 1.311-.762.583-1.828 2.33-2.895 2.476-1.676.292-3.505-1.456-5.029-1.165-1.828.437-.761 1.748-1.371 3.496-1.676-.291-4.419-2.04-4.419-3.933 0-1.165 1.524-1.748 1.829-3.059.61-2.185-.915-3.35-1.829-5.39 0-.29.152-.29.152-.582 1.981-.437 5.79 3.205 10.362 3.933 3.048.437 5.334.146 5.486 2.913zm-8.006 199.873c.15 1.656-2.695 1.505-2.994.451.15-1.355 2.695-1.656 2.994-.451zM877.164 96c2.06.946 7.13 3.108 3.644 5-2.218-.676-4.436-2.973-3.644-5zm-8.55 206.754c2.17-1.132 4.627-3.68 8.386-2.406-.867 2.406-3.759 2.265-5.494 3.397-1.88 1.132-3.47 2.972-5.783 3.255a1.724 1.724 0 0 0-.723-.708c0-2.264 2.169-2.689 3.614-3.538zm-4.862-36.788c2.438 0 4.572-.805 6.248.162-.305 5.315-8.076 1.288-13.41 2.094-1.066.16-1.371 1.127-2.59.644 0-1.772 1.981-3.705 3.81-3.866 1.523 0 3.657.966 5.942.966zm1.232 6.471c.298 2.62-3.583 2.91-4.628 5.093 1.642 2.474 2.24 5.822 4.18 8.15-.15 1.456.298 3.348-.597 4.075-4.03.728-6.12-6.258-7.763-8.732-2.986.582-.299 10.042-4.33 8.878-1.94-.582 0-3.347-.447-5.385-.299-1.892-2.24-2.183-2.389-3.638-.149-1.165 1.344-2.474 1.792-3.639.597-1.746.298-5.093 2.388-5.239 1.045 0 2.538 2.183 3.135 2.329 2.538.29 5.374-2.62 8.659-1.892zM858 301.294c-.735 1.282-4.706.64-5-.513.588-1.282 4.706-.898 5 .513zm-4 4.967c-.276.296-.414.591-.69.739-1.379-.443-2.896-.887-3.31-2.364.966-1.478 3.862-.148 4 1.625zm-5-4.606c-1.014 1.494-4.348-.15-5.507 1.345-2.03 0-4.058-.15-4.493-1.794.58-1.494 2.464-.448 3.913-.598 2.174-.149 5.362-1.793 6.087 1.047zm-27.678 74.963c0-1.776-1.035-3.257-1.33-5.033-.148-.592.147-1.48 0-2.369-.148-1.184-.74-2.22-.592-2.96.296-1.333 1.774-1.481 2.218-2.517.59-1.777-.74-2.073-.74-4.293 0-1.48 1.183-2.37 1.922-4.294.296-.888.444-2.664.74-3.405.443-.888 2.66-1.48 3.547-1.924 2.957-1.48 5.47-4.293 8.427-4.737.739-.148 1.774.148 2.365 0 1.774-.296 3.991-1.777 6.505-2.369 2.365-.592 4.434-.296 6.208-1.332 1.922-1.185 4.731-4.146 5.47-5.922.887-2.22.591-3.997 2.365-4.737.887-.296 1.627 0 2.514-.148.887-.296 2.808-1.185 3.548-1.777 1.33-1.184 1.626-3.257 3.104-4.59 1.035-.887 3.104-2.22 4.583-2.96.887-.444 2.365-.888 3.104-.74 2.809.296 3.992 4.145 7.096 3.405 1.035-.296 2.218-2.517 3.105-3.997 1.478-2.073 2.513-4.738 4.878-5.33 1.922-.444 4.14.74 5.322-1.036.296-1.184-.887-1.925 0-2.813 2.217.148 6.209 3.257 9.609 3.405 1.922 0 5.322-2.072 5.617.74.148 1.185-1.33 2.221-1.774 3.553-.295.889.444 1.333-.147 2.369-1.627.592-3.253.888-3.4 2.813 0 2.22 3.104 3.257 5.026 4.589 1.33.888 2.365 2.073 3.104 2.517.592.296 1.626.592 1.922.74 1.33.888 2.217 2.665 3.991 2.813 1.922 0 3.992-2.517 5.027-4.886 1.33-2.812 1.33-6.217 1.921-9.178.148-1.036.887-1.925 1.183-2.961.74-2.665 1.774-6.366 4.14-7.254 2.365 2.517 3.104 7.254 2.808 11.4 1.626 1.183 4.287.74 4.73 3.552.149.888-.443 2.22-.443 3.109.148 1.628 1.33 3.109 1.626 4.59.444 2.664-.443 4.737.74 6.661 1.478 2.369 4.582 2.369 6.504 4.885 0 1.629.591 2.221 1.035 3.553.148.593 0 1.629.148 1.925.591 1.332 2.365 1.48 2.956 2.517.296.592.148 1.628.592 2.516.591 1.48 1.774 2.517 2.809 3.997.887 1.333 2.365 2.813 2.513 3.997.443 1.925-1.035 3.257-1.33 4.886-.444 1.924 0 4.441-.74 6.514-.887 2.368-3.104 4.737-4.878 7.698-1.479 2.516-3.4 5.181-5.47 6.81-1.183 1.036-2.661 1.628-3.992 2.516-1.921 1.48-3.4 3.553-5.026 5.33-1.774 1.924-3.843 3.257-5.322 4.885-2.07 2.369-2.956 6.07-6.504 6.514-2.07.296-3.844 0-5.618.74-2.956 1.184-4.878 3.257-6.209 3.405-1.478 0-2.956-1.776-4.287-1.925-1.626-.148-2.809 1.185-5.026 1.185-.887 0-1.478-.592-2.809-1.036-2.809-.889-5.913-.889-6.209-3.998-.295-1.628 1.035-2.368 1.035-3.997-.148-1.48-1.478-1.924-2.217-3.109.443-1.332.443-3.108-1.035-3.997 0-1.184.295-2.072.739-2.812-1.183.444-2.661.74-3.992 1.628-1.478.888-2.513 2.813-4.139 2.517-1.478-.592-.295-2.073-.591-3.405-.148-.888-2.365-5.034-3.4-5.626-1.183-.74-5.322-2.368-6.653-2.516-6.06-.889-9.904 2.368-14.783 2.812-1.182.148-2.513-.148-3.695 0-3.992.74-8.279 3.85-10.792 5.922-3.992.444-8.13-.888-12.418.444-4.14 1.184-6.505 4.737-13.01 3.701-1.33-1.036-3.547-1.628-3.547-3.553 0-1.48 2.217-2.517 2.957-3.553.739-1.184 2.07-3.849 2.217-5.477 0-1.333-.887-2.813-.74-4.442.149-1.48.888-2.812.888-4.145zm-3.065-82.494c1.044-.149 1.938-.894 2.982-1.044 2.237-.149 4.622 1.64 7.306 1.342.596.597.15 1.193.15 2.237 2.385 1.192 6.112 1.043 7.305 3.429-1.79 1.789-4.324.447-6.56.149-1.939-.298-4.175-.15-6.263-.448-2.833-.298-5.218-1.789-7.902-2.236-1.64-.149-3.28.298-4.771 0-1.79-.298-8.35-2.833-8.499-4.473-.149-1.789 2.982-2.385 5.666-1.938 3.727.448 6.113 3.578 10.586 2.982zm4.789-13.097c-1.466-.444-2.786-.148-3.519-.592-1.32-.888-1.173-3.108-1.613-4.588-.44-1.332-2.053-2.072-2.933-3.996-1.32-2.664-1.76-8.732 1.613-9.176 1.32-.296 2.786.888 3.666.592 1.906-.444 1.613-2.96 3.08-3.996.88-.592 2.492-.296 3.665-.74 1.32-.444 2.2-1.628 3.08-2.812.88-1.036 1.466-2.664 2.492-3.404 1.173-.74 2.346-.888 3.373-1.628 2.492-1.924 2.64-4.736 4.692-7.104 1.76-2.072 4.399 1.924 4.692 3.552 1.027 1.184 2.933 1.628 3.666 2.96-1.173 3.404-4.399 3.7-3.666 8.584.147.74.587 2.22 1.173 3.404.587 1.184 2.2 2.368 2.2 3.108-.147 1.48-3.08 1.332-3.666 2.96-.587 1.48 0 1.48-.147 3.7-.88 1.628-3.079 1.924-3.665 3.996-.88 2.368.146 5.328-1.76 7.104-1.32 0-2.64 1.184-4.252 1.036-1.76-.148-3.373-2.516-6.012-2.516-1.027 0-2.2.74-3.373.592-.88.148-1.613-.592-2.786-1.036zm-19.858-5.833c.592.146 2.812 3.075 2.812 3.954 0 1.318-2.072 1.318-2.812 3.075-.888 2.782.444 6.004-1.184 7.321-.888.586-2.517.44-3.997.44-3.552-2.49-6.364-5.418-9.473-8.786-1.036-1.172-2.516-2.197-3.108-3.515-1.036-1.903-1.332-3.953-2.516-5.564-1.036-1.465-2.96-2.636-3.997-4.247-.888-1.318-.888-3.221-1.776-4.54-.74-1.17-2.22-1.756-3.108-2.781-.592-.586-1.036-1.611-1.628-2.343-2.517-2.93-7.253-4.393-7.401-8.786 1.036-1.172 2.072.439 3.996.732 1.185.293 2.665-.147 3.553.146 1.776.586 2.96 3.368 4.884 4.832 1.036.88 2.516 1.465 3.553 2.343 1.184 1.025 2.072 2.343 2.96 2.93 1.332.731 3.108 1.317 4.736 2.342 2.22 1.464 6.365 2.929 6.809 5.857.148.733-.296 1.904-.148 2.49.296 1.025 1.628 1.464 2.368 2.343 1.036 1.025 1.184 2.636 2.516 2.928 1.333.586 1.333-1.318 2.96-1.171zM710.646 234c1.736.614 7.89 7.67 5.996 11.66-.473 1.073-2.524 2.607-4.576 2.3-4.102-.613-3.313-9.665-2.051-13.193.158-.46.316-.614.631-.767zm-131.074 99.247c.148-1.639 1.333-4.171 2.518-5.214 1.777-1.341 4.296-1.192 6.073-2.235 1.482-.745 3.555-2.086 4.74-3.575.89-1.192 1.037-2.682 1.778-3.576.593-.596 1.778-.745 2.37-1.639.593-.745.445-1.936 1.333-2.83 2.667-1.192 3.556 3.873 4 7.3.148 1.043.74 2.234.592 2.83-.296 1.64-2.073 1.937-2.518 2.98-.148 4.32-1.777 8.045-3.407 11.62-1.333 3.129-2.074 6.406-3.11 9.088-.445.894-1.186 1.788-1.63 2.533-1.481 3.426-1.926 8.64-4.592 10.13-.889.447-4.444 1.341-5.481 1.341-2.37 0-4.444-1.788-5.036-4.022-.297-1.192 0-2.235-.149-3.576-.296-1.639-1.185-2.98-1.036-4.767.444-4.023 4.295-5.96 4.592-9.237.148-2.086-1.334-4.618-1.037-7.15z" fill="#2980B9" fill-rule="nonzero"/><path d="M484.991 54.208c.297 3.255-5.04 2.811-5.632 5.622-.297 1.332.593 2.96.444 4.143-.444 2.071-2.371 1.48-4.891 2.515-1.334.592-2.52 2.663-4.002 2.81-1.334.149-2.075-.739-2.965-.59-1.334.295-.89 1.774-2.816 2.218-1.482.296-4.15-1.331-4.299.592-.148 1.184 2.372 1.923 4.002 1.775 1.186-.148 2.076-1.035 3.41-1.035 2.371 0 3.854 1.775 5.336 1.775 3.41.148 6.67-3.107 10.228-2.81 1.63.147 2.52 1.33 3.705 1.183 1.927-.148 3.558-2.367 4.892-3.107-.593-3.255 0-7.693 3.113-7.841 2.075-.148 5.336 3.698 5.632 0 .148-1.628-1.63-2.96-2.964-2.96-1.186 0-2.668 2.22-3.558.445 0-1.776 2.075-1.332 3.113-1.776.89-.296 1.482-1.183 2.372-1.627 4.743-1.628 11.117 1.627 13.044-2.367-4.15-3.551-11.266 1.331-15.86 1.035-2.076-.148-4.596-1.627-5.337-3.55-.148-.592 0-1.48-.148-2.515-.148-1.184-.89-2.516-.741-3.403.148-3.551 9.042-4.143 9.042-8.581-1.63-1.628-6.67-1.332-8.301.444-.593.591-.593 1.923-1.334 3.107-1.779 2.663-7.412 2.959-9.19 6.213-.445.74-1.038 2.663-.741 3.995.148 1.923 4.298 2.367 4.446 4.29zm-46.84 192.035c-5.632-.888-11.413 1.48-15.267 3.107-2.223 1.035-4.447 2.515-6.522 2.515-1.927.148-3.706-1.036-5.484-1.184-2.372-.296-5.337 0-7.708.444-2.224.444-4.299 2.071-6.226 2.22-3.854.295-7.411-3.404-9.783-5.327-1.482-1.184-2.964-2.071-4.298-3.107-1.483-1.183-3.41-1.775-4.596-2.959-1.482-1.48-1.482-4.142-2.371-6.066-.89-2.367-3.854-3.994-6.078-6.213-1.63-1.628-5.484-4.143-5.929-6.214-.148-1.036.445-2.367.445-3.55-.148-1.776-1.334-2.664-1.334-3.995 0-1.776 2.075-3.107 2.52-4.587.296-.74.148-1.775.445-2.81.592-1.924 1.927-3.108 1.63-6.066-.148-1.184-1.186-2.22-1.186-3.7 0-1.035.741-1.627.593-2.514-.148-1.628-2.371-2.071-2.52-3.995-.296-1.923 1.927-3.698 3.113-5.918.593-1.035.89-2.515 1.334-3.402 1.038-1.628 2.965-2.515 3.706-4.143.593-1.183.74-2.959 1.334-3.994.741-1.184 2.223-1.776 3.557-3.403 1.186-1.184 1.63-2.811 2.372-3.403 1.038-.74 2.52-.888 3.557-1.331 3.706-1.628 6.374-3.847 8.005-7.25-.593-3.107.296-4.438 1.63-6.657 1.186-2.072 2.075-3.995 4.15-5.179 2.52-1.331 4.744-1.479 6.523-4.142.889-1.332 2.223-3.55 2.223-4.882 0-1.924-1.927-4.439-3.706-4.735-1.778-.295-4.446 1.332-5.484-.591-.297-.592.148-2.072 0-2.811-.297-1.332-1.334-2.22-1.334-3.107-.148-1.776 1.779-3.699 2.372-5.918.74-2.959 0-5.178-.149-8.433 2.817-4.29 8.894-2.22 14.971-1.775.89 0 1.927-.148 2.965-.148 3.557.148 6.522 1.183 7.708-1.924.444-1.183.89-5.622.593-6.657-.297-1.332-2.965-4.734-4.15-5.474-1.928-1.184-4.744-.74-5.93-2.96.89-3.846 5.188-.59 7.856-1.627 1.334-.443 1.186-2.81 2.372-3.106.741-.296 1.779.74 2.964.74.89 0 4.447-1.776 5.337-2.368 1.185-.887 1.63-2.663 2.816-3.403.741-.443 1.779-.443 2.52-.74 1.63-.739 3.854-2.218 4.891-3.55 1.63-1.923 2.372-4.29 4.299-4.734 2.668-.444 8.597.591 9.042-2.367.444-2.811-2.372-4.883-1.334-7.842.89-2.367 2.964-1.923 5.929-3.402 1.482 1.035 1.037 3.994 1.186 5.622 1.778 0 5.484-.592 5.929-2.22.444-2.07-2.668-4.142-3.41-5.326-.74-1.331-.889-3.698-2.371-3.994-2.965-.592-5.93 4.142-9.635 4.142-2.52 0-5.04-1.923-5.633-3.698-.296-1.036 0-2.072-.148-3.107-.296-1.628-1.186-3.255-.74-5.474 1.481-2.515 5.039-2.96 7.41-4.29.89-.445 1.631-1.628 2.817-1.924 1.779-.592 4.298 0 6.077-1.036 1.038-.591.741-1.627 1.63-2.959.445-.74 1.631-1.183 2.372-2.219.445-.592.445-1.627 1.038-2.219 1.779-2.071 4.891-2.959 6.077-5.03.593-1.036-1.037-1.332-.593-2.811.593-1.332 3.113-.296 4.447-.592 1.927-.296 3.706-2.663 5.93-3.107 2.223-.444 4.594-.148 6.67-1.035 1.185-.444 2.371-1.628 3.557-1.776.445 0 1.63.296 2.223.148.742 0 1.63-.444 2.52-.592 1.483-.148 3.261.296 5.188.444 3.113 0 6.078-.887 8.597.148 1.334.592 1.186 2.071 2.965 2.811.89.296 2.075-.148 3.41 0 1.926.148 4.001 1.48 6.521 1.776.89.147 1.779-.148 2.817 0 2.816.295 5.929 1.775 8.597 2.81 2.371.74 7.115 1.776 7.263 3.995.148 2.515-4.299 3.403-6.077 3.403-3.113 0-7.264-1.776-10.376-.74 0 4.438 4.891 7.841 9.19 7.25.444-2.072-2.52-.888-2.224-2.96 1.927-1.479 4.299 1.036 7.115.592 1.038-.296.89-1.923 1.186-2.959 2.372-1.48 5.336-3.55 8.894-1.923 1.037-2.959-1.63-3.994-.297-6.066.741-1.331 4.299-.887 4.892.148.296 1.332-.89 1.184-.741 2.367.74 1.628 2.371 1.776 3.112 1.776 1.927-.148 2.372-1.776 4.15-2.811.742-.444 1.78-.444 2.817-.74 1.186-.444 2.075-1.331 2.965-1.627.593-.148 1.63 0 2.52-.148 1.185-.296 2.371-1.184 3.409-1.184 1.186 0 2.075 1.332 3.557 1.628.89.147 1.78-.444 2.965-.592 1.037-.148 1.927.148 2.816 0 1.927-.296 3.113-1.332 4.744-1.184 1.037 0 2.964 1.48 3.705.74 1.334-1.332-1.63-2.22-.74-3.403 2.964.296 6.225.148 9.19.592 4.446.592 8.745 2.81 12.747 2.959-.445-2.663-3.558-1.923-4.892-3.107-.444-.296-2.223-3.255-2.223-4.143 0-.443 2.223-4.29 2.816-4.734 1.779-1.627 7.412-1.627 9.042.592 1.186 1.48.741 3.847 2.372 3.699 1.334 0 2.075-3.403 3.705-3.551 1.334 0 2.076 2.22 3.41 2.22 1.63 0 2.816-3.108 4.891-3.108 1.186 0 1.482.592 3.41.74 1.185-.74-.445-1.775.148-2.959 2.223-1.627 7.263-.444 10.08-1.331.74-.888-1.038-1.628-.15-2.516 2.373-1.627 6.523-1.775 10.673-2.515 2.52-.443 4.892-2.219 6.819-2.367 2.075-.148 4.002 1.184 5.929 1.184 1.186 0 2.52-.296 3.557-.74 1.038-.444 1.927-1.48 2.965-1.775 1.779-.444 3.854.148 5.929 0s4.002-1.036 5.484-.74c1.483.296 2.52 1.775 4.003 1.923 4.15.592 8.449-.592 12.154.444.741.148 1.334.888 2.224 1.184 2.52.887 4.298.591 4.743 3.698 1.927.74 3.113 2.515 5.484 3.107 1.63.444 3.113-.148 4.892-.148 2.372 0 5.336.148 7.263.444 1.186.148 2.075 1.036 3.113 1.184.741.148 1.779-.148 2.816 0 1.186.148 2.372.591 3.41.591 2.075 0 3.557-1.923 5.336-2.219.889-.148 2.075.296 2.964.444 3.261.296 7.115-.444 9.783.148 1.482.296 3.854 1.923 5.485 3.107 1.185.888 1.927 2.22 2.964 2.959 1.038.592 3.706 1.775 4.743 1.627 1.186-.148 1.335-1.627 2.52-2.219 3.854-.888 10.82 1.184 13.934-.148 1.186-.592 1.037-1.775 1.927-2.515 5.929-.296 11.71.296 17.342.444 1.927 0 4.002-.444 5.781-.148 1.927.296 3.41 2.22 5.336 2.959 1.334.444 3.558.148 5.485.592 1.334.296 2.371 1.035 3.41 1.183 2.074.296 4.15-.296 6.076-.444 4.447-.296 10.376-.591 14.823 1.184 2.372.888 3.41 2.81 5.93 3.107 3.705.444 9.19-.296 13.043 0 .89.148 1.78.444 2.372.444 1.186-.148 2.075-1.184 3.557-1.184 1.927 0 5.04 2.959 7.857 2.515 1.185-.888-1.038-1.923.148-2.81 1.037-.888 2.668 0 4.298 0 .89 0 2.076-.445 2.965-.445 2.223.148 4.15 2.072 6.818 2.811 2.076.444 5.04.74 7.708.444 1.927-.148 3.558-.888 5.336-.592.89.148 1.63.74 2.52 1.036.89.148 1.63 0 2.372.148.593.148 1.334.74 1.927 1.036 3.706 1.035 8.449 1.627 12.451 2.81 2.223.74 4.595 2.072 6.522 2.22.89 0 1.779-.444 2.965-.444 5.929 0 12.895 2.515 12.45 7.989-6.966 1.48-12.747-4.734-20.01-2.959-1.186.296-2.52 1.627-2.372 2.811.297 3.403 8.894 3.107 9.635 6.51-1.482 1.035-2.964 0-4.15.148-1.779.148-4.743 2.07-5.93 3.107-1.333 1.183-2.52 4.438-4.001 4.734-1.78.296-4.447-1.776-7.115-1.184-1.038.148-1.927 1.48-2.817 1.628-2.223.443-4.891-1.184-6.225 1.331.74 1.776.296 4.29 1.778 5.326.89.592 2.224.148 3.41.592 1.334.444 2.075 2.22 3.409 3.107 1.038.74 2.075.74 2.52 1.775.148 1.48-.593 1.628-.445 2.515.297 1.628 2.816 2.072 2.965 3.107.148 1.48-1.63 1.184-1.927 2.515-.149.888 1.037 1.184 1.186 2.367.148.74-.593 1.628-.593 2.516.148 1.331 1.185 2.219 1.037 3.402-.148 1.036-1.037 1.776-1.779 2.22-3.705-2.368-7.114-5.77-11.265-8.877-4.15-3.107-10.672-7.102-11.413-13.76 0-1.035 2.223-1.775 2.52-3.402.148-.592-.297-1.48-.149-2.367.148-2.367 2.075-4.587 1.927-5.918-.148-1.48-2.964-4.29-4.298-4.734-1.186.591 0 1.775-.149 2.81-.296 1.184-1.63 2.664-2.964 2.812-3.706.296-4.15-4.735-10.08-3.403-1.482.444-3.705 2.663-3.112 5.474.148.888 2.52 1.775 2.371 2.959-.148 1.183-5.336 1.48-6.522 1.331-3.113-.296-4.743-2.663-7.708-2.515-1.334 0-2.668 1.184-3.705 1.332-6.226 1.183-15.416-3.107-17.491 2.367-.297.74-.148 1.775-.445 2.515-.445 1.184-1.334 2.071-1.63 2.81-.297.593-.149 1.776-.593 2.812-.297.888-4.15 4.142-.741 5.178.74.148 1.185-.296 2.223-.148 1.63.296 4.447 2.959 6.522 2.959 1.186 0 2.816-1.331 3.706-1.331 1.778-.148 3.112 1.035 4.595 1.775 1.334.592 3.409 2.071 4.298 1.923 1.927-.148 1.038-1.331 2.817-1.923 3.409 1.035 5.04 4.586 8.3 7.397 1.186 1.036 2.965 1.923 4.595 3.403.89.74 3.558 2.959 3.706 3.994.148.888-.741 1.332-1.037 2.22-.297 1.183.444 2.07-.445 2.959-3.113-1.184-3.854-4.29-6.077-6.806-.89-1.036-1.63-2.071-2.965-3.55-.593-.592-2.668-2.812-4.002-2.368-2.52.888 1.334 4.735 1.927 5.474 1.334 1.776 3.113 3.995 3.113 5.918 0 1.184-.742 3.255-.742 5.326 0 1.332.297 2.515.149 3.699-.149 1.183-1.038 2.515-1.334 3.698-.445 1.48-.593 3.107-1.038 4.143-.741 1.775-3.41 3.847-5.188 3.995-1.63 0-2.372-1.184-4.002-1.184-2.372.148-2.816 2.367-4.299 4.142.149 1.924.741 2.663.445 3.995-.593 2.071-3.41 2.515-3.41 4.586.149 1.924 2.669 2.22 4.003 3.107 1.779 1.184 4.891 3.699 6.522 5.918 1.038 1.332 2.668 3.995 2.52 5.474-.148 1.923-5.781 4.586-8.004 3.995-2.224-.74-1.483-2.811-1.927-4.735-.445-1.48-1.631-2.07-2.224-3.402-.296-.592-.148-1.628-.593-2.368-1.186-2.07-3.26-.887-5.78-2.219-1.631-.887-1.186-2.515-1.78-4.142-.889-2.071-4.446-3.107-7.263-2.515-2.075.444-2.816 2.219-4.743 2.515-2.816-1.776.593-5.918-2.964-6.214-2.668-.296-4.447 3.847-6.078 5.178-1.037.888-2.964 1.036-3.113 2.22-.296 2.219 2.224 1.775 4.3 2.514 1.778.74 2.074 2.811 3.705 2.96 1.334.147 2.371-1.48 3.705-1.628 2.372-.148 4.447.888 5.93 1.775-1.038 2.367-6.226 4.143-6.226 7.25 0 1.775 2.075 2.07 3.706 3.402 1.334 1.036 3.112 3.847 5.04 5.918.889.888 2.223 1.48 2.52 1.924.889 1.331.74 2.81 1.778 3.698.148 1.036-.445 1.332-.445 2.367.445 1.48 2.668 1.184 3.113 2.515-.445 3.403 1.038 6.51-1.779 7.842-1.334 6.065-2.668 10.8-6.818 14.202-3.706 2.96-8.745 3.847-13.192 5.327-1.186.443-2.076 1.627-3.113 1.923-2.668.888-7.263.296-7.411 3.55-.149 1.628 1.926 2.516 2.223 4.143.296 2.515-1.927 4.882-3.558 5.178-1.185.148-3.557-.74-3.705-2.81-.148-2.368 2.964-3.256 3.113-4.735.444-2.515-2.224-4.882-5.04-4.734-2.668.148-8.45 5.326-8.597 8.285-.149 2.07 4.15 6.51 5.632 7.84 5.485 4.883 11.414 7.842 10.376 19.678-1.334 2.959-4.891 3.698-7.708 5.326-2.075 1.331-3.112 5.178-6.67 5.474-1.482-.444-.593-2.663-1.037-3.699-.593-1.48-3.41-2.071-5.04-3.55-1.483-1.184-2.075-3.108-3.113-4.143-1.334-1.332-3.41-1.628-5.188-2.515-1.038-.592-1.927-2.663-2.965-2.515-1.778 0-1.185 1.775-1.63 4.438-.445 2.663-2.372 4.882-1.779 7.99.297 1.33 1.927 2.366 2.817 3.698 1.334 2.219 1.482 4.882 2.964 6.066.89.887 2.52 1.035 3.558 1.775 2.075 1.48 5.78 4.734 6.522 6.51.889 2.07 0 4.438.592 6.657.593 2.515 4.003 4.29 1.927 6.806-1.927-.296-3.557-1.628-5.188-2.515-2.668-1.628-4.002-3.107-5.632-5.918-.445-.74-1.334-1.628-1.63-2.367-.742-1.776-.594-3.699-1.186-5.918-.593-1.776-2.669-4.734-4.3-6.214-1.333-1.331-3.853-2.071-4.001-3.994-.148-2.664.89-5.77.74-8.877 0-.74-.444-1.332-.592-2.22-.148-1.479.148-3.402-.148-4.734-.297-1.183-1.186-2.367-1.779-3.55-.593-1.184-1.038-2.22-1.63-3.7-.742-2.218-1.631-6.657-3.558-6.805-1.927-.296-3.854 3.699-6.522 3.699-1.334 0-3.113-1.036-3.41-2.367-.296-1.184.594-2.367.594-3.699 0-2.663-1.927-3.698-3.41-5.474-.592-.74-.74-1.775-1.185-2.367-.89-1.036-2.668-1.627-3.706-2.81-1.038-1.037-2.223-2.516-2.816-3.552-.742-1.48-1.038-3.55-2.224-3.698-1.037-.148-2.371 1.331-3.557 1.775-1.186.444-4.15.888-5.336 1.036-4.003.296-7.115-.74-6.67 3.994-.594 2.071-2.817 2.071-4.3 3.107-1.926 1.332-3.26 3.847-5.336 5.918-1.037 1.036-2.371 1.627-3.409 2.515-.74.74-1.037 2.071-1.778 2.811-2.076 1.923-5.188 2.22-6.67 4.882-.149 3.255 1.482 5.77 1.185 8.877-.148 1.48-1.186 2.663-1.334 4.143-.148 1.183.445 2.663.148 3.994-.148.74-1.037 1.036-1.63 1.923-.593.74-.741 1.776-1.186 2.368-.593.887-1.779 1.479-2.372 2.219-1.037 1.183-1.186 2.071-2.223 2.219-4.299.592-5.336-7.545-7.263-10.948-.89-1.628-2.668-2.959-3.558-4.882-1.037-2.22-1.334-5.03-2.816-7.398-1.186-2.07-2.965-4.29-3.706-6.51-.74-1.923-1.334-4.142-1.927-6.213-.74-2.22-1.482-4.882-1.63-6.658-.148-2.515.444-4.142-1.63-5.178-1.928.444-2.669 2.367-4.892 2.367-2.075 0-7.708-3.698-6.078-6.805-1.334-1.923-4.891-2.96-7.411-5.326-1.482-1.332-2.816-4.439-5.484-4.734-.742-.148-1.63.295-2.372.443-1.63.148-4.595-.148-6.522 0-2.372.148-5.336.74-8.3.444-1.928-.148-4.3-.592-6.226-.74-2.52-.295-5.93-.887-7.264-2.219-.889-.74-1.185-3.402-2.816-3.698-1.779-.444-2.816 1.035-4.447 1.331-3.557.888-6.67-.74-9.042-2.367-1.778-1.184-3.26-1.775-4.595-2.515-2.964-2.071-3.557-7.99-8.004-7.99-1.63 0-4.15 1.036-4.299 2.812-.148 1.183 1.483 3.55 2.224 4.586 2.223 3.107 6.225 4.29 7.411 8.433.741.296 2.52-.74 3.41.148.74 1.775 0 5.178 1.778 5.918 8.153 1.331 10.524-3.107 14.23-6.214 2.075 1.332 1.482 2.663 2.223 4.143.742 1.627 1.927 2.81 3.41 3.402 1.037.444 2.223 0 3.705.592.89.296 4.744 3.995 4.892 5.326.148 1.184-2.52 5.03-3.41 6.066-.74 1.036-1.926 1.48-2.371 2.367-.296.74-.148 2.071-.445 2.515-.296.74-2.075 1.776-3.112 2.811-1.038 1.036-2.372 1.776-3.41 2.515-1.185.888-2.075 2.22-3.409 2.811-2.668 1.036-5.04.592-7.263 1.924-1.482.887-1.482 2.959-3.113 4.142-1.779 1.184-4.891 1.184-7.411 2.367-1.63.74-2.668 2.22-4.15 2.811-.594.148-1.335 0-1.928.148-1.334.296-2.52 1.332-3.705 1.628-1.038.295-1.927.148-2.965.443-2.964.888-5.78 3.995-8.893 2.22-1.483-3.255-1.631-7.398-3.41-10.357-.89-1.48-2.52-1.923-3.113-3.55-.148-1.332 1.483-.888 1.631-1.924-.445-2.07-2.52-3.107-3.706-4.882-.593-.888-.89-2.071-1.63-3.107-2.372-3.403-6.967-5.178-7.856-9.468-.297-1.184 0-2.072-.148-2.96-.445-1.479-1.335-2.958-2.372-4.142-.741-.887-2.224-1.48-3.113-2.81-.593-.888-.741-2.072-1.186-2.96-1.927-3.698-4.743-6.805-7.856-9.468-1.63.296-3.26.296-4.15 1.331.74 2.515 2.075 4.735 3.409 6.806 1.186 1.923 2.965 4.142 3.706 6.214.296.887.296 1.923.593 2.81 1.185 3.107 5.188 4.143 5.929 7.694.593 2.367-.148 4.142.593 6.51.74 2.367 4.15 3.698 5.484 5.917 1.186 1.776 1.186 4.439 1.927 6.066 1.186 2.515 4.447 3.55 6.819 5.326 2.223 1.48 3.705 3.847 5.484 5.474 1.038.888 2.52 1.184 2.816 2.22.297 1.33-.593 1.775-.74 2.958 1.481 1.628 2.964 4.439 5.484 4.735 1.037.148 2.371-.888 4.002-1.184.74-.148 1.63.148 2.371 0 1.038-.148 1.927-1.184 3.113-1.332 2.075-.443 4.299-.295 6.819-.591 2.371-.296 4.002-2.367 5.929-1.776 2.075 2.22.593 4.735 0 6.806-.148.74-.148 1.48-.445 2.22-1.038 3.55-3.854 6.065-5.188 9.172-.445 1.035-.296 2.071-.741 3.107-1.482 3.106-4.447 6.213-6.819 8.876-1.334 1.48-2.52 2.811-4.002 3.995-1.482 1.184-3.112 1.775-4.743 2.959-3.113 2.367-6.374 5.622-8.597 8.58-.89 1.184-1.334 2.516-2.224 3.551-1.334 1.48-3.26 2.072-4.298 3.551-.89 1.036-1.334 3.107-2.372 5.03-1.037 2.22-3.41 3.699-2.964 6.806.148 1.183 1.185 1.923 1.63 3.107.593 2.071.148 3.846-.148 6.066 1.186 2.663 1.927 5.622 4.002 7.397.296 3.994-.296 7.841 0 11.244.148 2.071 1.038 3.698.148 5.622-.74 1.775-3.557 4.734-5.336 5.918-1.927 1.183-4.743 1.48-6.67 2.959-1.334 1.035-2.52 2.81-4.002 3.994-2.372 1.923-5.485 3.699-5.633 5.622-.148 1.184.89 2.811 1.186 3.995.741 2.959 1.482 7.101.148 10.208-1.482 3.403-8.597 2.663-9.487 6.214-.296 1.035.445 1.923.445 3.107 0 1.035-1.334 4.586-1.927 5.621-.89 1.628-2.816 2.368-4.15 3.7-1.63 1.774-2.372 4.29-4.15 6.065-2.372 2.515-5.485 5.178-8.45 7.25-2.668 1.923-7.263 3.846-11.413 4.142-2.372.148-4.892-.592-7.411-.148-.89.148-1.927 1.035-3.113 1.183-.741.148-1.483-.148-2.224 0-1.185.148-2.371 1.184-3.557 1.184-2.52 0-5.781-3.107-5.93-6.066 0-1.183 1.038-2.219 1.038-3.403 0-1.183-1.63-2.81-2.816-5.178-1.186-2.219-1.63-4.734-2.816-6.51-1.186-1.923-2.817-2.81-3.706-4.29-1.779-2.959-1.927-6.657-2.52-10.208-.148-1.184-1.037-2.515-1.186-3.995-.148-1.775.149-3.846-.148-5.326-.296-1.183-1.63-2.367-2.372-3.698-1.334-2.515-2.371-5.918-3.557-7.842-1.038-1.923-3.41-3.846-3.557-5.917-.149-1.48.148-4.143.444-5.474.148-1.332 1.186-2.515 1.63-3.995.297-1.036 0-2.071.149-3.107 1.038-4.438 5.929-6.066 5.336-11.54-.296-2.367-1.927-3.402-2.223-6.065-.149-1.184.593-2.368.593-3.551 0-1.628-1.483-4.143-2.224-5.622-1.927-4.29-3.26-8.285-6.077-11.54-1.63-1.775-3.558-3.107-4.892-4.734-1.037-1.332-2.371-3.847-2.371-4.882 0-1.184.89-1.776 1.186-2.96.444-1.479.444-4.142 1.037-6.509.297-1.036 1.334-3.55 1.186-5.326-.148-1.627-2.668-4.734-4.743-5.326-2.817-.74-5.633.888-9.042.592-4.002-2.811-3.706-7.694-8.005-8.285zm108.651 70.274c.89-1.48 2.076-5.474 0-6.51h-.444c-.741 1.628-1.63 5.623.444 6.51zm-2.668-41.129c.593-1.331 2.224-2.81 1.927-4.438-.593-3.847-7.708-1.924-8.449.74-.593 1.775.297 3.254-.444 5.178.74 1.479 2.668 1.775 5.188 1.627 1.334-.74 1.185-1.775 1.778-3.107zm-12.006 20.269c.741-1.48-1.186-2.367-1.63-3.995-.445-1.775.444-3.994-1.186-4.882h-.593c-1.334 3.255.593 8.58 3.409 8.877zM666.274 100.81c-.741-1.479-2.816.444-1.927 1.776 1.334 0 1.779-.74 1.927-1.776zm-45.802 7.99c3.26-.592 0-5.77-2.372-5.179-3.113.888.148 5.622 2.372 5.179zm-14.527 25.298c1.038-6.805-4.298-7.249-5.336-12.131.445 0 .148-.592.593-.592 1.334-.592 3.261 1.036 3.854-.592 0-2.367-2.965-3.994-5.93-2.959-.889-.592-1.037-1.923-1.185-3.107-2.223-1.331-7.708-4.29-7.708-6.805 0-2.22 2.816-3.403 6.077-3.403 1.335-1.036.445-4.142-.74-4.882-5.04-1.184-7.857-.296-10.97 1.923-1.482 1.184-3.26 1.923-4.15 2.515-.741.592-1.927 2.367-1.779 3.107.149 1.184 1.927 1.923 2.52 3.55.297.889.297 1.924.593 2.516.89 1.923 3.113 3.107 4.743 4.734 1.186 1.184 4.447 3.55 4.596 4.882 0 1.184-1.038 1.332-1.335 2.516-.444 1.183-.74 3.846-.592 4.882.444 2.219 2.668 2.219 4.743 3.107 2.075.887 4.002 2.515 6.077 2.515 2.224.296 4.595-.444 5.93-1.776zm-46.247-14.055c5.336-.887 2.965-5.474.148-7.101-2.075-1.184-4.446-2.22-6.818-3.699-1.334-.887-6.67-2.367-6.67-4.142 0-1.775 3.854-2.515 2.371-5.622-2.668-.592-9.042.444-8.597 3.403.297 1.775 2.224.74 2.816 2.515-1.926.74-4.298 2.515-6.225 2.219-2.372-.444-2.965-3.403-4.299-5.178-1.927 0-3.112-1.776-5.336-1.628-2.372.296-3.557 3.551-4.743 5.326-.593.888-1.63 1.332-1.927 2.22-.148.444 0 1.331-.148 1.923-.741 2.22-2.52 2.959-2.372 4.882.148 1.628 2.075 2.515 2.223 3.995-.148 1.48-2.52.74-2.371 2.515 3.557 2.959 3.705-1.332 5.484-1.923 1.482-.444 4.299.443 6.078 0 1.482-.296 2.668-1.776 4.298-2.368 1.038-.443 2.372-.74 3.706-.74 6.225-.295 10.228 3.847 15.712 3.995 1.482-.148 4.743-.296 6.67-.592zm-12.6 23.08c.15-2.071-.74-3.699-1.037-6.658-3.557-2.219-6.374 2.072-10.08 1.628-2.223-.296-3.853-2.959-6.225-2.515-1.334.148-1.927 1.923-3.409 2.219-2.816.444-4.15-2.22-7.115-1.184-4.15-3.254-6.077-8.433-7.115-14.35-2.223-2.96-5.78-.592-7.411 1.331-1.038 0-2.372-.592-2.52.592-.741 3.699 5.188 3.994 5.04 6.51 0 1.627-2.372 1.479-3.41 2.515-1.037 1.183-.296 2.219-1.778 2.959-3.854.443-5.188-1.628-5.188-5.03-1.63-2.516-3.854-4.439-5.337-6.51-.592-.74-1.334-1.924-1.63-3.107-.148-.888.445-2.071.148-3.107-.444-1.923-3.854-3.255-6.077-4.29-2.372-1.036-5.188-2.22-6.819-3.551-1.185-1.036-1.778-2.663-2.816-3.403-.89-.592-1.927-.444-2.816-1.036-1.038-.74-.89-2.07-2.372-2.367-.741-.296-1.927.74-2.372 1.332-.889 4.29 2.52 4.586 4.15 6.51 1.038 1.331 1.631 3.254 2.817 4.142 1.186.888 2.816.74 4.299 1.332 1.037.443 1.778 1.775 2.816 2.367 1.927 1.183 4.892 1.331 5.188 3.55-1.186.74-3.854-1.183-4.743.74-.297 1.332 1.037 1.923 1.037 3.107 0 1.923-2.223 3.995-4.15 3.699-.148-1.184 1.038-2.072 1.038-3.403-.149-2.515-5.188-6.362-7.708-7.397-1.186-.592-2.668-.592-3.706-1.184-1.927-1.036-5.336-3.699-6.522-5.326-1.334-1.923-2.668-5.326-5.633-5.178-1.334.148-2.371 1.183-3.409 1.775-.89.444-1.927.888-2.964 1.628-1.186.74-2.076 1.479-3.113 1.627-2.52.148-4.595-1.775-6.67-1.332-.742.148-1.335.74-2.224 1.628 0 1.183.297 1.923.148 3.107-.593 1.035-2.52 1.035-4.002 1.775-2.075 1.036-3.854 3.255-5.484 4.882-1.038 1.036-2.075 1.924-2.224 2.811-.148.592.593 1.924.445 2.811-.148.888-1.927 2.96-3.113 3.699-.74.444-1.63.592-2.371 1.036-1.483.887-2.224 2.07-3.558 2.367-3.41.591-9.635-.74-9.635 2.959 0 2.367 3.261 2.367 5.337 2.367 2.816-.148 5.187.592 6.67.148 1.037-.296 2.223-1.48 3.409-1.924.741-.295 1.482-.295 1.927-.591 1.186-.592 1.779-1.48 2.816-1.924 1.779-.887 5.188-1.48 7.115-1.627 2.668-.148 5.485.296 8.894 0 1.186-.148 2.372-.888 3.706-1.036 2.075-.148 4.891.888 6.67.74 1.186 0 2.52-1.184 4.002-1.184 1.63 0 3.261 1.184 3.557 2.22.149.591-.296 1.48-.148 2.367.297 1.48 1.483 2.071 1.334 2.959-.148 1.183-3.113 2.81-2.816 4.29.296.888 2.52 1.923 3.557 2.515 1.186.74 2.965 1.628 4.299 1.776 1.186.148 2.075-.296 3.113-.148 1.63.148 4.447 1.183 5.484 1.923 1.779 1.331 1.63 3.403 3.706 4.142.89.296 2.52.148 3.706.444 2.816.592 5.04 2.96 7.115 2.811 3.26-.444 1.778-3.55 2.223-5.622.89-5.03 10.672-4.734 12.6-1.331 1.482.444 2.667 0 4.298.592.89.295 1.63 1.331 2.52 1.627.74.148 1.63-.148 2.52 0 3.705.444 7.115 3.255 10.376 2.811 2.075-.296 3.557-2.22 5.484-2.367 3.706-.296 6.226 2.81 10.228 1.331 2.964-1.035 2.371-4.142 3.409-7.249 1.038-2.663 2.372-4.143 2.52-5.77zm211.967-66.872c.74-2.515-.445-5.03-1.927-6.657-2.224.444-.593 2.81-.742 4.142-.296 1.924-2.223 3.255-2.223 5.326-.741.888-2.075 1.184-2.223 2.811 1.185.888 1.778-.74 2.816-1.627 1.482-1.48 3.854-2.367 4.299-3.995zM707.48 8.05c-2.223 0-2.964.888-4.298 1.627-.741.444-2.224.592-1.779 1.776 1.927-.296 5.633-1.036 6.077-3.403zm-82.859 24.263c4.595 1.036 6.818-4.142 3.706-7.101-.741-.74-3.113-.888-4.15-2.515-1.187-1.924-1.038-4.439-4.003-3.995 0 .296 0 .592-.148.592-.297 4.29 5.929 5.326 5.929 8.877 0 1.775-1.927 1.923-1.334 4.142z" fill="#2980B9" fill-rule="nonzero"/><ellipse fill="#2980B9" cx="703.5" cy="10.5" rx="5.5" ry="4.5"/><circle fill="#2980B9" cx="278.5" cy="31.5" r="2.5"/><ellipse fill="#2980B9" cx="666" cy="101.5" rx="4" ry="5.5"/><path d="M536 142.887c.133-1.935 3.467-2.638 4-.88-.133 1.76-3.333 2.99-4 .88zm-81.85-22.495c2.718-2.811 5.585-1.332 4.68 4.142-.604 1.627-3.472 3.846-4.83 1.331.302-1.923.15-3.402.15-5.473zm3.773-5.933c.342 1.398-.512 2.033-1.537 2.541-2.904-.381-.683-4.32 1.537-2.541zM404.642 69.75c2.645-1.602 7.2-.437 7.348 1.602.147 1.456-1.323 1.602-1.91 3.35-.442 1.456.146 3.204-.589 4.223-.587.874-2.204.874-3.38 1.165-2.498.728-7.2 3.64-9.111.437.294-1.748 1.91-2.039 2.498-3.495 0-1.165-1.175-1.748-1.028-2.913.293-1.456 1.322-1.02 2.939-1.602 1.175-.437 1.616-1.893 3.233-2.767zM270.974 27.024c.459 1.952-5.349 4.393-5.96 1.952-.306-1.952 4.585-4.393 5.96-1.952z" fill="#2980B9" fill-rule="nonzero"/><path d="M595.508 141C606.275 141 627 118.569 627 102s-20.725-21-31.492-21-83.479 10-84.479 26c-.25 3.997.977 12.065 7.998 16 21.09 11.817 68.404 18 76.481 18z" fill="#2980B9"/><ellipse fill="#2980B9" cx="204.5" cy="234.5" rx="2.5" ry="3.5"/><path d="M264 470.392h-3c.45-.523 2.4-.523 3 0z" fill="url(#a)" fill-rule="nonzero"/><path d="M255 13.213c.25-.284.75-.284 1 0-.125.426-.25.995-1 .71v-.71z" fill="url(#b)" fill-rule="nonzero"/><path d="M238 45.213c0 1.09-3.586 2.957-4 .778 0-.311 0-1.09.69-1.712.965-.623 3.31-.156 3.31.934z" fill="#2980B9" fill-rule="nonzero"/><path d="M156 227.485c-.107.206-.214.31-.321.515-1.5 0-.108-1.853.321-.515z" fill="url(#c)" fill-rule="nonzero"/><path d="M77.026 90.137c1.274-.612 2.548.979 1.699 1.836-1.416.245-1.84-1.224-1.7-1.836z" fill="url(#d)" fill-rule="nonzero"/><path d="M290.144 96.578c-.888-.296-2.22-.148-3.403-.444-1.036-.148-2.22-.444-3.107-.592-2.367-.297-5.03.444-6.51-1.037 2.367-3.111 5.474-6.222 8.434-8.888.887-.74 2.81-1.333 2.367-2.962-1.628-1.482-3.7.148-5.327 1.037-1.627.888-3.698 2.221-5.474 2.518-3.255.444-7.546-.89-10.209.74-.296 1.482 2.96.89 2.515 3.11-1.331.149-2.515.297-3.55-.592-.888-.888-.444-2.073-1.036-2.518-1.036-.888-4.735-1.037-6.51-.74-2.072.296-3.847 1.63-4.143 3.407 2.515 1.185 6.51-1.185 7.398 1.777-1.332 2.518-4.587 3.851-4.143 7.11.148 1.333 1.628 2.962 2.811 3.11 1.036.149 1.628-.888 2.811-.74 1.184.148.888 1.333 2.22 1.185 1.923-.74 2.959-3.407 5.03-3.407 2.663 3.11-2.367 4.74-5.03 5.629-3.107 1.185-7.25 1.777-9.617 2.814-1.184.593-6.067 5.185-6.658 1.63-.444-2.519 2.367-1.778 2.959-4-3.107-.592-5.919 1.333-8.582 2.37-3.995 1.481-10.653 2.37-11.54 6.814-.148.889.444 2.518-.148 3.11-.444.445-3.255.593-4.587 1.037-1.923.593-3.55 2.074-4.734 2.37-.888.297-2.22.149-2.812.445-1.627.592-2.07 2.666-3.994 4.147-.74.593-2.368 1.037-2.96 1.63-1.035 1.037-1.183 3.555-2.959 3.999-1.183.148-2.07-.889-3.107-.148-.148 2.518.888 5.925-.148 8.443-2.367 1.926-4.882 3.259-7.841 4.888-1.628.889-3.107 1.185-5.179 2.222-1.48.74-2.663 2.37-4.29 3.407-3.7 2.222-8.286 4.888-8.286 10.369 0 1.185.592 2.518.74 3.999.148.889-.148 1.63 0 2.518.296 2.074 1.775 4.74 0 6.073-2.663-1.037-6.066-1.481-7.842-3.407-.444-1.925 1.036-3.555.74-5.332-.148-1.482-2.22-4-3.403-4.148-1.184-.148-2.367 1.037-3.55 1.037-1.48-.148-2.812-2.074-4.735-2.37-2.812-.296-4.735.593-7.842.148-2.96 1.63-3.847 4.444-7.398 4.148-1.331-.148-2.515-1.037-3.995-1.333-1.627-.297-3.994-.89-5.622-.741-3.403.296-5.77 2.666-8.581 4.147-2.516 1.334-6.066 2.963-6.806 5.63-.444 1.48 0 3.554-.592 4.887-.296.89-1.036 1.63-1.628 2.518-2.219 4-3.994 9.332-2.367 15.11.296.888 2.367 5.628 3.403 6.665s3.995 2.666 5.622 2.814c1.48 0 3.107-.74 4.587-1.037 1.628-.296 3.699-.296 5.178-.74 4.291-1.334 3.403-7.11 7.694-9.036 1.924-.889 3.995-1.037 7.25-1.185 1.036.889 1.48 2.37 1.332 3.703-.148 1.037-1.036 1.926-1.628 3.407-.444 1.185-.592 2.666-1.036 3.703-.591 1.333-1.923 2.222-2.367 3.555-.296.74-.148 1.778-.444 2.518-.444 1.333-2.22 2.222-1.331 3.555 4.142 1.63 9.32-.444 13.02.148 1.48.297 4.734 2.074 4.734 4.592 0 1.778-1.331 2.963-1.627 4.888-.296 2.518-1.332 5.48-1.332 7.406-.148 3.26 4.735 8.888 8.286 8.888 3.699 0 5.918-3.703 10.356-1.778 1.48.593 3.108 3.111 4.735 2.963 1.332-.148 3.403-2.518 4.29-4.148 1.036-2.073 1.184-3.703 3.108-4.74 2.071-1.036 3.847-.592 6.51-1.629 1.184-.444 2.22-1.185 3.403-1.926.888-.592 1.923-2.37 3.107-1.185 1.627 1.63-1.924 2.519-.592 4.148 2.663 1.481 4.143-2.666 6.066-2.814.592 0 2.811 1.185 3.995 1.925 1.48 1.037 2.071 2.37 3.699 2.815 1.036.148 2.811-.445 4.29-.149 2.072.297 3.256 2.074 4.735 1.926 1.924 0 2.663-2.074 4.29-2.37 3.404-.592 4.735.444 6.215 2.518 1.775.296 1.775-1.925 3.403-1.185-.888 1.778.296 2.518 1.036 4 .444.888.444 1.629.74 1.925.887.889 2.81.889 4.142 1.778 1.48.888 2.22 2.666 3.995 4.592 1.775 1.925 4.587 3.999 6.806 4.147 2.22.148 3.847-.592 5.77-.444 3.995.444 6.51 2.518 9.47 4.74 1.627 1.185 2.958 2.073 3.55 3.555.296 1.036.148 2.37.592 3.555.888 2.518 4.439 3.555 3.107 7.85.592 1.185 1.924 1.63 3.403 2.518 1.184.74 2.072 2.222 3.403 2.37.74.148 1.628-.296 2.367-.148 2.22.148 3.7 1.037 5.623 1.778 1.183.444 2.663.592 3.55 1.185 1.036.74 1.184 2.962 2.368 3.555.74.444 2.515-.148 3.995 0 2.071.296 5.03 1.48 6.806 1.629 1.183 0 2.071-.444 3.107-.444 4.734.444 7.545 6.073 12.132 7.85 1.48.593 3.699.148 4.735.593 1.775.74 3.255 6.073 3.403 8.443.443 7.11-5.03 9.48-8.286 14.22-.592 1.037-1.036 2.518-1.923 4-1.924 2.813-3.995 3.406-3.7 8.442 0 1.333.74 2.815.74 4.296 0 1.925-.147 4.444-.591 6.073-.296 1.333-1.332 2.37-1.628 3.555-.148 1.185.296 2.074.148 3.11-.148 1.186-1.331 2.667-2.22 4.296-1.775 3.407-2.218 7.258-5.917 8.591-2.22.741-5.03.297-7.398 1.185-.888.297-2.22 1.185-3.403 1.778-3.403 1.63-8.286 3.703-9.173 7.258-.888 3.11 1.183 5.629.591 9.184-.591 1.037-1.48 2.073-2.367 3.407-.888 1.185-1.331 2.37-2.22 3.554-1.183 1.482-2.958 2.074-3.698 4.148-.296.74-.148 1.481-.444 2.518-.148.444-.888 1.037-1.184 1.778-.295.74-.295 1.629-.591 2.221-.888 1.778-3.551 5.925-5.475 6.518-4.142 1.185-8.433-1.778-11.244-1.185.444 1.926 1.775 1.777 2.81 3.11.593.741.889 1.926 1.628 2.815.888 1.037 1.628 1.333 1.776 2.518.296 2.37-1.628 4.888-2.96 5.629-1.183.74-3.55 1.185-5.622 1.63-1.48.295-5.178.295-5.918 1.184-1.035 1.333.592 4.74-.148 6.073-1.48 2.815-5.474-.148-7.398.74-.147 1.482.444 3.111 1.628 3.704 1.184.74 3.107-.148 3.995 1.185-.444 1.926-2.515 2.222-2.96 4.147 0 1.926.593 2.37.445 3.555-.444 2.519-4.44 2.37-4.291 5.185.148 4 7.694 2.37 7.841 6.221.148 2.37-2.219 2.37-2.959 4.74-.443 1.185.296 1.481 0 2.518-.296 1.333-1.923 1.778-1.923 3.407 0 1.926 2.811 4 4.143 5.48 1.331 1.482 3.107 3.704 4.882 4.74 2.811 1.482 6.806 1.186 7.99 4-.444 1.63-1.924 2.074-3.551 2.518h-.444c-.592-.296-2.367-.296-2.96 0h-2.81c-2.663-1.185-5.77-1.926-9.026-3.11-1.183-.445-2.515-1.334-3.698-1.926-.888-.445-2.072-.593-2.812-1.037-1.627-.889-3.55-3.703-5.326-4.888-1.036-.74-2.663-1.037-3.403-1.778-.592-.74-1.036-2.073-1.627-2.962-.592-.889-1.776-1.63-2.516-2.518-1.627-2.222-3.699-5.037-3.699-6.666 0-1.63 1.48-2.666 1.036-4.147-.444-1.334-3.55-1.037-3.995-2.815-.296-1.037.888-2.666.74-4.147 0-.889-1.627-1.926-1.036-3.11.74-1.334 2.072.147 3.108-.593-.888-2.815 0-7.407-2.812-8.295-1.48 1.185 1.48 4-1.035 4.74-2.368-1.037-1.776-4.148-2.368-6.518-.296-1.481-1.035-2.814-1.183-4.592 0-.888.296-1.925.148-2.814-.444-2.666-3.403-4.888-3.551-7.406-.148-1.333.74-2.37 1.035-3.703.148-.89-.147-1.926 0-2.963.148-1.185.888-2.37 1.036-3.555.296-2.222 0-5.925-.444-7.702-.444-2.222-2.219-4.148-2.515-6.666-.148-.889.296-2.37.148-3.555-.148-1.037-.74-2.074-.74-3.407-.148-1.185.296-2.222.444-3.555.148-2.518-.444-5.184-.444-7.702 0-.74.444-1.185.444-1.926 0-2.074-.74-4.147-.74-6.073-.148-3.703.444-6.37-.148-9.776-.444-2.666-1.035-6.666-1.923-8.295-1.036-1.778-5.179-4.888-7.25-6.073-1.331-.74-2.959-1.037-4.586-1.778-3.256-1.629-9.322-4.888-10.801-7.998-.444-.89-.296-2.074-.74-3.111-.888-2.074-2.663-3.703-3.995-5.629-2.367-3.703-4.438-8.295-6.806-12.146-1.331-1.926-2.367-4.147-3.699-5.629-.74-.888-3.403-1.777-3.699-3.11-.443-1.778-1.775-4.296-1.627-5.629.296-1.926 3.995-3.407 3.995-5.036 0-1.481-1.924-2.37-2.368-3.555-1.035-2.963.592-4.74 1.776-7.258.444-.89.74-2.074 1.184-2.815.74-1.037 2.219-1.333 3.107-2.518.591-.592.887-2.074 1.627-2.962 1.48-1.926 3.847-2.667 4.587-4.592.444-1.481.74-8.74.148-11.258-.296-1.48-1.628-2.518-2.22-3.999-.887-2.37-1.035-5.036-3.55-4.888-1.48 0-2.516 1.63-3.551 2.814-.296 1.333-.148 2.963-1.628 3.407-2.22.593-3.107-2.37-5.622-3.11-1.036-.297-2.663-.297-3.403-.593-1.924-.889-2.515-3.703-4.587-4.74-1.627-.889-3.107-.592-4.143-1.926-.443-.888-.148-2.666-.148-3.999-2.219-1.333-3.994-5.925-6.51-7.11-1.627-.74-4.142-.74-6.214-1.333-1.035-.296-1.775-.74-2.81-1.037-1.332-.296-2.516-.296-3.552-.74-3.847-1.926-5.918-8.147-10.8-8-2.072 0-3.995 1.926-5.919 1.926-1.775 0-4.882-1.48-7.25-2.518-2.367-1.185-5.03-1.777-7.101-2.814-1.628-.889-2.664-2.37-4.143-2.963-1.036-.444-2.663-.592-3.551-1.036-1.184-.593-2.515-1.926-4.143-2.963-1.48-1.037-3.107-2.666-3.107-4 0-1.48 1.48-2.814 1.628-4.295.443-4.74-2.96-7.999-5.179-10.813-1.627-2.074-3.55-3.851-5.03-5.629.148-1.333.148-1.48 0-2.814-1.184-1.185-2.22-2.963-3.551-4.74-1.184-1.63-3.403-3.259-3.7-5.036-.295-2.222.889-4.148 0-6.221-1.33-3.555-6.361-1.926-5.77 2.814.149 1.333 2.072 3.11 2.516 4.295.592 1.334.444 2.963 1.036 4.592.443 1.482 2.07 2.815 2.515 4.592.888 2.666.74 5.629 1.627 7.258.74 1.482 3.107 2.963 1.776 4.74-1.924.445-2.515-1.481-3.7-2.518-.59-.592-2.958-1.777-3.402-3.11-.296-1.185.74-2.667.444-4.148-.74-2.814-6.214-2.814-6.214-5.629 0-1.777 2.367-2.073 2.367-3.703 0-1.925-2.515-3.555-3.107-5.036-.444-1.481-.592-3.851-.74-5.925-.148-1.926 0-4.147-.444-5.629-.444-1.333-2.367-3.258-3.699-4-1.775-.888-3.107-.592-3.994-1.925-.74-1.185-1.184-3.85-1.332-5.036-.296-2.37 0-4.888-.148-7.406s-.444-4.888 0-7.703c1.036-1.925 2.811-2.814 3.699-4.74.74-1.333.74-2.962 1.627-4.295 1.48-2.518 4.587-4.888 6.658-7.406 2.22-2.667 4.291-5.333 5.623-8.443.444-1.037 1.775-3.555 1.627-4.889-.296-1.925-3.847-3.406-3.55-5.628.147-1.333 2.219-1.333 2.81-2.815.296-.74.592-2.666.592-3.555 0-1.925-1.035-3.85-.592-5.925.296-1.777 2.96-2.37 1.628-4.295-1.332-1.926-3.699 1.037-5.179-.148-1.331-1.185.296-2.518.444-4.592 0-.889-.444-1.778-.444-2.37.148-.889 1.776-2.37 1.332-2.963-1.036-1.333-2.22-4.74-4.587-5.925-2.81-1.48-6.066-.444-10.06-1.185-2.516-.444-3.551-2.666-5.919-2.518-1.331.148-2.219 1.778-4.142 2.518-1.924.89-4.44.593-6.215 1.037-1.923.445-2.81 1.778-4.734 1.63-1.628-.149-1.628-1.63-3.551-1.778-.74-.148-2.22.444-3.403.593-3.107.296-8.581.444-11.54-.149-2.812-.592-4.587-1.48-7.694-2.962-2.368-1.037-6.658-2.37-6.51-4.148.148-1.036 4.142-2.221 5.622-2.814 2.515-.74 4.143-2.074 6.066-2.222.74 0 1.776.445 2.811.445 1.036-.149 2.22-1.037 3.551-1.185 2.811-.445 6.658.148 6.214-2.519-2.071-1.629-10.504 1.185-10.8-2.37-.148-2.221 3.255-2.814 5.622-3.406 2.22-.445 5.622-1.333 7.694-1.185 2.219.148 5.178 2.666 6.51-.148.591-2.074-.74-3.704-1.184-5.333 1.628-2.37 4.735-2.074 7.102-2.37 2.663-.444 4.882-.889 7.398-1.926 2.367-1.036 4.734-1.629 7.397-1.925 2.664-.296 5.327-1.333 7.694-1.63 1.924-.148 3.847 0 5.622-.444 1.628-.296 3.403-1.333 5.327-1.185 1.183 0 2.22.889 3.55 1.185 1.184.148 2.516 0 3.7.148.887.148 1.775.889 2.81 1.037 1.48.296 3.108-.148 4.587 0 1.332.148 2.368 1.037 3.7 1.185 2.958.444 6.51-.148 9.468.444 1.184.149 2.072.741 3.403 1.037 1.184.148 2.368 0 3.551.148 1.628.297 2.811 1.778 4.587 1.926 3.107.296 6.51-1.333 9.617-1.63 2.367-.147 4.587.149 7.102-.444 2.22-.444 4.29-1.333 6.214-1.333 1.036 0 1.923.296 2.96.148 1.035-.148 2.218-1.333 3.402-1.185 1.48.297 1.184 2.074 2.811 2.518 1.776-.888 3.403 0 5.327 0 1.775 0 3.403-.888 5.474-.592 3.55.592 8.581 4 11.393 2.222.74-.445.591-1.333 1.183-2.518.888-1.63 2.515-3.703 2.22-6.073-3.995 0-7.694 1.925-12.133 2.221-4.586-2.814 1.184-4.591 4.587-5.925 2.663-1.036 4.882-3.406 8.285-3.999 2.811-.444 5.77.593 9.026 1.037 1.923.148 3.846-.148 4.882.148 1.923.593 2.96 2.518 4.587 2.963.74.148 1.775.148 2.81.444 1.776.444 3.404 1.333 5.18 0 1.33.296 1.479 1.777 2.958 1.926 1.332-.741 2.368-2.519 4.291-2.963.888-.148 1.776.148 2.811 0 1.628-.296 3.7-2.37 4.735-.444-.444 1.481-2.515 1.63-3.7 2.814-1.035 1.037-2.662 3.259-2.514 4.296.296 1.925 3.107 1.185 3.107 3.555-.444 1.333-2.072.74-3.403 1.333-1.184.592-1.628 1.777-2.96 1.925-3.55.741-6.51-.888-9.616-.74-.148 1.333 1.48 2.074 2.367 2.518 2.811 1.481 5.03 1.333 9.025 1.185 2.071 0 4.29.592 6.066-.593 1.036-.74 1.036-2.37 1.924-3.406 1.183-1.037 3.699-2.222 5.326-1.926.888.148 2.22 1.185 2.22 1.926 0 1.777-2.516 1.185-2.516 3.11 1.628 1.037 6.066-1.037 6.214-2.814.148-1.185-1.48-1.926-1.331-3.11.148-2.075 2.959-2.075 2.515-4.148-1.332-1.037-2.811.296-4.143 0-1.923-.297-3.699-2.667-4.586-4.148.887-1.037 2.663-.296 3.994-.148 1.48-2.074 4.143-2.814 7.842-3.11 1.332-.149 3.107-.593 3.699.592.296 1.926-2.811 2.962-2.22 5.184 2.664.593 3.552-2.962 5.623-4.295 1.036-.593 2.367-1.037 3.699-1.63C239.543 9.185 240.875 8 241.91 8c1.036 0 1.332.889 2.368 1.333 1.036.444 2.22-.296 2.515 1.037-2.22 4-10.8 1.63-13.02 5.629.444 2.666-1.331 5.332.148 7.11 1.036 1.333 3.551.444 4.143 1.777.74 1.778-2.367 1.778-1.628 4 2.072 1.185 4.587-1.185 6.51-2.222 2.072-1.037 4.735-2.222 4.883-4.74-1.036-1.926-4.883-.445-5.474-2.518-.296-1.185 1.183-3.704 1.627-4.148 2.071-2.37 9.173-5.629 14.352-5.184 1.035.148 1.923.74 2.959.74 3.403.297 7.398-1.48 10.06 0 2.072-1.185 4.735.148 7.694-.148 2.22 1.333 1.628 4.296 5.179 5.48.888.297 2.071.149 3.403.445.888.148 1.923 1.333 2.959 1.778 1.48.74 2.663.592 2.96 1.63.295 1.036-1.037 1.628-1.037 2.813.888.741.148 1.778.592 2.815.888 1.777 2.96 1.63 5.03 2.518 1.48.592 4.587 2.518 4.587 4-.148 1.036-2.959 2.666-3.994 3.11-.74.296-3.995 1.926-5.031 1.777-1.923-.296-2.515-3.999-5.178-3.999-1.036 0-2.072.74-2.22 2.222 0 2.518 2.96 2.666 2.96 4.888.147 2.666-1.48 2.814-3.7 4.444-1.627-.593-2.959-1.63-5.178-1.778-1.184 1.481 2.071 2.074 1.036 4-3.107.74-5.623-.89-8.434-1.778-.887-.296-2.219-.148-2.959-.592-1.183-.593-1.48-2.519-2.367-3.555-1.036-1.185-3.107-2.815-4.883-2.815-2.367 0-5.918 2.963-7.841.148 1.331-4.443 7.693-1.185 11.836-2.814 1.48-.592 2.072-2.222 3.403-2.962 2.515-1.482 6.658-1.63 6.214-4.592-.148-1.482-2.22-1.482-3.403-2.222-1.48-1.037-2.663-4.592-4.882-4.74-1.184-.148-1.924.889-3.107 1.037-2.516.296-5.327-1.037-7.694 0-1.036.592-.296 1.63-1.184 2.814-.74.889-2.367 1.185-2.959 2.222-.74 1.037-.592 2.518-1.627 3.407-1.628 1.481-5.03 1.63-7.102 2.37-.888.296-2.071 1.333-2.96 1.333-1.627 0-2.366-2.222-4.142-1.333-.148 2.074 2.22 2.962 3.699 4 1.627 1.036 3.403 2.073 3.995 3.998-1.628 3.407-4.143-.148-6.658-.148-2.811 0-6.806 5.333-9.173 1.037.591-2.222 3.107-2.666 3.698-4.888-2.81.445-5.178 2.814-8.433 3.555-1.332.296-2.663.296-3.995.593-2.367.74-3.995 2.37-6.51 3.406-1.036.297-2.071.297-3.107.593-2.367.74-5.178 2.222-7.694 3.555-2.515 1.333-5.326 2.814-6.806 4.147-.887.741-2.959 3.26-2.959 4.148.148 1.185 2.368 1.63 2.368 2.814 0 .74-1.332 2.222-.444 3.407.74.889 2.367.148 4.143.445 2.959.444 5.03 2.814 7.25 4.147 1.775.889 4.29 2.074 6.213 2.37 2.664.296 5.77-.74 6.067 1.333.296 2.074-2.516 2.814-2.812 4.148 1.48 1.925-1.035 2.814-1.035 4.591 0 1.334 1.627 3.407 3.107 3.555 1.923.149 4.882-1.925 5.622-3.999 1.036-2.37.592-5.48 2.367-7.258 9.174.296 16.867-4.147 16.276-13.627 0-.89-.592-2.074-.444-3.111.296-1.481 2.959-2.814 2.515-4.74 2.515-.74 2.515-4.888 5.178-5.48 2.22-.445 4.735 1.629 7.694 1.332.888 0 2.22-.888 3.107-.74 1.923.296 3.107 2.666 4.587 3.703 1.331 1.037 2.663.592 2.959 1.926-.444 2.221-1.924 2.221-1.776 4.295.148 1.778 2.072 3.11 2.96 3.407 1.479.296 3.55-.444 4.882-1.185 2.663-1.185 4.882-5.036 7.102-4.592 1.775.445 3.107 5.925 3.403 7.85.296 2.075-.296 3.704-.148 5.63.296 3.258 4.438 2.962 6.51 4.74.592.592.888 1.925 1.331 2.518 1.036 1.333 2.22 1.333 2.368 2.814.296 3.407-3.107 3.703-2.811 7.406-.74 1.481-2.516 1.333-2.368 3.407.296 3.11 4.735.74 5.919 3.11.591 1.334-.148 2.223-.592 4.148 1.48 1.778 1.48 4.74-1.184 4.74-1.332-1.037-1.923-2.814-3.55-3.259zM77.976 91.542c.888-.889-.444-2.962-1.775-2.222-.148.74.296 2.518 1.775 2.222zm137.007 17.775c-.888-.74-3.551-.592-5.327-.444-1.331.148-2.81.444-2.959 1.333 2.072 1.037 7.694 1.777 8.286-.889zm-10.21-3.259c1.48-1.185.889-3.703-.739-4.147-.592-.148-1.48.444-2.515.444-1.184-.148-2.22-1.037-3.107-1.185-1.628-.148-3.107.593-3.7 1.333 0 1.185.889 1.333.74 2.518-1.923 1.334-.887 5.925 1.036 6.074 1.924.148 2.96-5.037 5.623-5.481.887-.148 1.48.592 2.663.444zm-2.662 7.85c-2.811-1.036-5.327.742-7.694 1.038-1.332.148-3.847-.296-3.55 1.777.295 1.63 2.81 1.037 4.29.593 3.107-1.037 5.03-1.926 6.954-3.407zm-8.73-14.96c3.847-1.629-.74-6.813-2.515-7.258-3.255-.888-7.694 2.37-11.392 3.407-2.072.593-3.995.593-4.587 2.37 1.923 3.11 5.474-.74 8.285-.148 1.332.296 2.22 2.074 3.551 2.37.888 0 6.362-.592 6.658-.74zm-2.663 3.111c-.74-.889-5.178.148-6.51 1.037-.888.592-1.48 2.074-2.367 3.11-.888 1.185-1.924 1.926-2.811 2.963-.74.889-4.735 6.666-1.628 7.258 1.332.296 3.995-2.518 4.29-3.555.889-3.555 2.516-6.221 5.327-7.85 1.776-.89 3.403-.89 3.7-2.963zm-24.56-21.922c2.219-.149 3.698-6.518 0-5.63-2.516.445-3.108 5.63 0 5.63zM155.505 227.52c.148-.296.296-.444.444-.74-.592-2.074-2.516.592-.444.74zM72.502 62.954c0-.444-.296-.444-.148-.74-.592 0-1.332-.149-1.184.592.296.593 1.036.593 1.332.148zm206.25-30.81c1.035.148 1.48-.148 1.331-1.185-.74-.592-2.071.148-1.331 1.185zm-22.49-19.256c-.296-.296-.887-.296-1.183 0v.74c.74.149 1.035-.296 1.183-.74zm-74.57 15.109c.593-.445 1.628-1.037 1.185-1.926-2.22-1.037-5.77-.296-9.026-.592-1.775-2.518-4.882-2.963-5.178 1.185 3.699 2.962 9.173-1.482 13.02 1.333zM146.48 48.29c1.183-.445 2.663-.148 2.959-1.333-.888-.74-1.924-1.778-2.96-1.778-1.48 0-2.07 1.185-3.55 1.926-1.628.889-3.995 1.037-4.143 2.518 3.107.592 5.77-.74 7.694-1.333zm-1.036-14.22c1.183-.148 2.515.296 3.403-.74-.888-4.296-6.954-1.63-10.357-1.334-.74 1.185-1.776 2.222-1.924 4 2.664.592 5.919-1.334 8.878-1.926zm59.034 200.857c1.48-.297 1.036-3.852-.74-2.963-1.48.74-.74 3.259.74 2.963z" fill="#2980B9" fill-rule="nonzero"/><path d="M72.864 62.012c0 .29.213.435.106.725-.212.435-.744.29-.956-.145-.107-.725.425-.58.85-.58z" fill="url(#e)" fill-rule="nonzero"/><ellipse fill="#2980B9" cx="142.5" cy="41" rx="9.5" ry="15"/><path d="M628 38c5.523 0 10-4.477 10-10s-4.477-10-10-10-14 .477-14 6 8.477 14 14 14z" fill="#2980B9"/><path d="M419.966 74.907c.291-1.204-.584-2.559-1.752-3.16-.584-.301-1.605-.15-2.335-.602-1.898-1.054-2.627-3.31-3.65-3.762.147-2.257-.583-3.762 0-5.267.293-.903 2.92-3.31 4.234-3.762 1.751-.602 3.503 0 4.524-1.354.438 0 .73 0 1.022.15 0 1.204-1.022 1.505-1.168 2.559.292 1.805 3.357.752 3.65 2.407-.293 1.806-1.898 2.257-1.898 3.612 0 1.203 2.335 3.46 3.503 4.965.875 1.204 2.335 1.956 3.065 3.16.73 1.054.875 2.257 1.313 2.86 1.022 1.053 3.357 1.203 3.503 2.557.292 1.957-2.335 2.709-1.897 4.816-2.627 2.106-7.152 1.053-11.385 1.655-1.897.3-4.086 2.257-6.13.602-.438-1.355 1.752-1.505 1.898-2.86-.146-1.203-1.606-1.053-1.898-1.956.584-1.504 2.336-1.805 2.19-4.213.875-1.204 2.919-.752 3.21-2.407z" fill="#2980B9" fill-rule="nonzero"/><ellipse cx="1.5" cy="2.625" rx="1.5" ry="2" transform="translate(135 241)" fill="#2980B9"/><ellipse fill="#2980B9" cx="192" cy="105.5" rx="26" ry="20.5"/><ellipse fill="#2980B9" cx="757.5" cy="81" rx="9.5" ry="14"/><ellipse fill="#2980B9" cx="78" cy="90.5" rx="3" ry="3.5"/><ellipse fill="#2980B9" cx="73.5" cy="62.5" rx="2.5" ry="3.5"/><ellipse fill="#2980B9" cx="256" cy="13.5" rx="2" ry="1.5"/><ellipse fill="#2980B9" cx="155.5" cy="227" rx="1.5" ry="2"/></g></svg>