<svg width="25" height="27" viewBox="0 0 25 27" xmlns="http://www.w3.org/2000/svg"><title>Group 5</title><g fill="#FFF" fill-rule="evenodd"><path d="M3.27 8.618c.132 4.295.84 6.873 2.623 9.267 1.933 2.594 4.134 4.497 6.607 5.727 3.01-1.53 5.215-3.416 6.638-5.651 2.049-3.221 2.612-5.49 2.612-9.305V5.543c-2.588-.107-4.898-.537-6.915-1.197a17.282 17.282 0 0 1-2.338-.937c-2.667 1.257-5.75 1.962-9.24 2.124a81.6 81.6 0 0 0 .014 3.085zM2.01 3.067c3.902-.04 7.214-.77 9.948-2.178a1.25 1.25 0 0 1 1.236.052c.077.048.264.152.56.294.517.248 1.138.5 1.86.735 2.09.684 4.558 1.097 7.387 1.097.69 0 1.25.56 1.25 1.25v4.34c0 4.26-.678 6.991-3.003 10.646-1.772 2.786-4.514 5.058-8.196 6.824a1.25 1.25 0 0 1-1.055.012c-3.09-1.396-5.794-3.656-8.107-6.76C1.757 16.519.918 13.459.772 8.694c-.03-.946-.03-2.408 0-4.395a1.25 1.25 0 0 1 1.237-1.232z" fill-rule="nonzero"/><path d="M13.233 2.573c1.994 1.162 5.25 1.744 9.767 1.744v4.34c0 3.373-.35 6.111-2.808 9.975-1.638 2.575-3.913 4.36-6.826 5.356l-.133-21.415z" stroke="#FFF" stroke-width="2.5" stroke-linecap="round" stroke-linejoin="round"/></g></svg>