<?xml version="1.0" encoding="UTF-8"?>
<svg width="1317px" height="327px" viewBox="0 0 1317 327" version="1.1" xmlns="http://www.w3.org/2000/svg" xmlns:xlink="http://www.w3.org/1999/xlink">
    <!-- Generator: Sketch 47.1 (45422) - http://www.bohemiancoding.com/sketch -->
    <title>graphic 1</title>
    <desc>Created with Sketch.</desc>
    <defs>
        <rect id="path-1" x="0" y="0" width="38" height="52" rx="4.8"></rect>
        <rect id="path-2" x="1.13686838e-12" y="9.09494702e-13" width="47.8571429" height="65" rx="6"></rect>
        <rect id="path-3" x="19.6508178" y="12.0253353" width="68.5652174" height="93.7142857" rx="8.64"></rect>
        <rect id="path-4" x="50.4720367" y="34.1622877" width="86.3509317" height="117.142857" rx="10.8"></rect>
        <rect id="path-5" x="0" y="0" width="38" height="52" rx="4.8"></rect>
        <rect id="path-6" x="0" y="0" width="38" height="52" rx="4.8"></rect>
        <rect id="path-7" x="0" y="0" width="38" height="52" rx="4.8"></rect>
        <rect id="path-8" x="0" y="0" width="38" height="52" rx="4.8"></rect>
        <rect id="path-9" x="0" y="0" width="38" height="52" rx="4.8"></rect>
    </defs>
    <g id="Page-1" stroke="none" stroke-width="1" fill="none" fill-rule="evenodd">
        <g id="legal" transform="translate(0.000000, -152.000000)">
            <g id="graphic-1" transform="translate(0.000000, 156.000000)">
                <g id="balance" transform="translate(1095.500000, 157.000000) rotate(-360.000000) translate(-1095.500000, -157.000000) translate(1001.000000, 80.000000)" fill-rule="nonzero" fill="#236EA0">
                    <g id="Group" transform="translate(11.000000, 10.000000)">
                        <path d="M101.435056,16.3165818 C100.076654,16.3165818 98.8767317,15.3408581 98.6446712,13.9590529 C98.3899708,12.419327 99.4314126,10.9754816 100.970935,10.7160406 L162.183944,0.53580203 C163.729127,0.293281111 165.183749,1.31412498 165.44411,2.85385081 C165.69881,4.38793662 164.657368,5.83742211 163.117845,6.09686309 L101.904837,16.2771017 C101.752017,16.3053018 101.593536,16.3165818 101.435056,16.3165818 Z" id="Shape"></path>
                        <path d="M3.48090617,32.2722022 C2.12250376,32.2722022 0.922581635,31.2964785 0.690521224,29.9146733 C0.435820772,28.3805875 1.47726262,26.931102 3.01678535,26.671661 L64.7052347,16.4124622 C66.2673974,16.1361011 67.70504,17.1964251 67.9654004,18.7305109 C68.2201009,20.2645968 67.178659,21.7140823 65.6391363,21.9735232 L3.950687,32.2327221 C3.79220672,32.2609222 3.63938645,32.2722022 3.48090617,32.2722022 Z" id="Shape"></path>
                    </g>
                    <g id="Group" transform="translate(0.000000, 16.000000)">
                        <g transform="translate(117.311101, 0.000000)" id="Shape">
                            <path d="M35.4137891,99.2539016 C16.116795,99.2539016 0.414561675,83.5705944 0.414561675,64.3038274 C0.414561675,62.7388987 1.68664134,61.4688116 3.25402521,61.4688116 L67.579232,61.4688116 C69.1466159,61.4688116 70.4186955,62.7388987 70.4186955,64.3038274 C70.4186955,83.5762645 54.7164622,99.2539016 35.4137891,99.2539016 Z M6.22978298,67.1388431 C7.6608726,81.9603055 20.2056225,93.5838701 35.4137891,93.5838701 C50.6276347,93.5838701 63.1667057,81.9603055 64.6034742,67.1388431 L6.22978298,67.1388431 Z"></path>
                            <path d="M3.25402521,67.1388431 C2.81106889,67.1388431 2.36243366,67.0311125 1.94219305,66.8156513 C0.550855925,66.0898873 0.0170367812,64.3775378 0.738260518,62.9883801 L32.8980245,1.46286813 C33.8804788,-0.408242269 36.9527784,-0.408242269 37.9352328,1.46286813 L70.1006756,62.9883801 C70.8218994,64.3775378 70.2880802,66.0898873 68.8967431,66.8156513 C67.5110849,67.5357453 65.79037,66.9970923 65.0634673,65.6136047 L35.4194681,8.9076195 L5.77546882,65.6136047 C5.26436538,66.58318 4.27623208,67.1388431 3.25402521,67.1388431 Z"></path>
                        </g>
                        <g transform="translate(0.000000, 18.144101)" id="Shape">
                            <path d="M35.3301099,99.4523527 C16.0274368,99.4523527 0.325203515,83.7690456 0.325203515,64.5022785 C0.325203515,62.9373498 1.59728318,61.6672627 3.16466705,61.6672627 L67.4898739,61.6672627 C69.0572577,61.6672627 70.3293374,62.9373498 70.3293374,64.5022785 C70.3293374,83.7690456 54.6271041,99.4523527 35.3301099,99.4523527 Z M6.14042482,67.3372942 C7.57151444,82.1587566 20.1162643,93.7823212 35.3301099,93.7823212 C50.5382766,93.7823212 63.0830265,82.1587566 64.5141161,67.3372942 L6.14042482,67.3372942 L6.14042482,67.3372942 Z"></path>
                            <path d="M67.4898739,67.3372942 C66.467667,67.3372942 65.4795337,66.7816311 64.9684302,65.8120558 L35.324431,9.10607061 L5.68043173,65.8120558 C4.95352907,67.2012135 3.2384931,67.7285264 1.84715597,67.0141024 C0.455818838,66.2883384 -0.0780003059,64.5759889 0.643223431,63.1868312 L32.8086663,1.66131923 C33.7911207,-0.209791166 36.8634202,-0.209791166 37.8458746,1.66131923 L70.0056385,63.1868312 C70.7268623,64.5759889 70.1930431,66.2883384 68.801706,67.0141024 C68.3814654,67.2295636 67.9328302,67.3372942 67.4898739,67.3372942 Z"></path>
                        </g>
                    </g>
                    <path d="M94.5,48 C83.1964235,48 74,38.8022814 74,27.4971131 C74,16.1977186 83.1964235,7 94.5,7 C105.803576,7 115,16.1977186 115,27.4971131 C115,38.8080552 105.803576,48 94.5,48 Z M94.5,12.7796085 C86.3773585,12.7796085 79.7730217,19.3848754 79.7730217,27.5028869 C79.7730217,35.6208985 86.3773585,42.2319392 94.5,42.2319392 C102.622642,42.2319392 109.226978,35.6208985 109.226978,27.5028869 C109.226978,19.3848754 102.622642,12.7796085 94.5,12.7796085 Z" id="Shape"></path>
                    <path d="M94.5,154 C92.568,154 91,152.733185 91,151.172288 L91,44.8277116 C91,43.2668148 92.568,42 94.5,42 C96.432,42 98,43.2668148 98,44.8277116 L98,151.172288 C98,152.733185 96.432,154 94.5,154 Z" id="Shape"></path>
                    <path d="M94.5,12 C92.568,12 91,10.7859079 91,9.2899729 L91,2.7100271 C91,1.21409214 92.568,0 94.5,0 C96.432,0 98,1.21409214 98,2.7100271 L98,9.2899729 C98,10.7859079 96.432,12 94.5,12 Z" id="Shape"></path>
                    <path d="M131.181511,154 L56.8184893,154 C55.2626832,154 54,152.432 54,150.5 C54,148.568 55.2626832,147 56.8184893,147 L131.181511,147 C132.737317,147 134,148.568 134,150.5 C134,152.432 132.742954,154 131.181511,154 Z" id="Shape"></path>
                </g>
                <g id="Group-7" transform="translate(1237.000000, 29.000000)" stroke-linecap="round" stroke-linejoin="round">
                    <g id="Group-6-Copy-2" transform="translate(29.890815, 32.117717) rotate(-328.000000) translate(-29.890815, -32.117717) translate(10.890815, 6.117717)">
                        <g id="Rectangle-39-Copy-2">
                            <use fill="#2980B9" fill-rule="evenodd" xlink:href="#path-1"></use>
                            <rect stroke="#236EA0" stroke-width="5" x="-2.5" y="-2.5" width="43" height="57" rx="4.8"></rect>
                        </g>
                        <path d="M9,21.5 L31,21.5" id="Path-90-Copy-3" stroke="#236EA0" stroke-width="5"></path>
                        <path d="M9,30.5 L31,30.5" id="Path-90-Copy-6" stroke="#236EA0" stroke-width="5"></path>
                        <path d="M9,39.5 L31,39.5" id="Path-90-Copy-7" stroke="#236EA0" stroke-width="5"></path>
                        <path d="M9,12.5 L31,12.5" id="Path-90-Copy-8" stroke="#236EA0" stroke-width="5"></path>
                    </g>
                    <g id="Group-5" transform="translate(51.951533, 50.951533) rotate(-315.000000) translate(-51.951533, -50.951533) translate(27.951533, 18.451533)">
                        <g id="Rectangle-39">
                            <use fill="#2980B9" fill-rule="evenodd" xlink:href="#path-2"></use>
                            <rect stroke="#236EA0" stroke-width="5" x="-2.5" y="-2.5" width="52.8571429" height="70" rx="6"></rect>
                        </g>
                        <path d="M11,27.5 L37.9600954,27.5" id="Path-90" stroke="#236EA0" stroke-width="5"></path>
                        <path d="M11,38.5 L37.9600954,38.5" id="Path-90" stroke="#236EA0" stroke-width="5"></path>
                        <path d="M11,49.5 L37.9600954,49.5" id="Path-90" stroke="#236EA0" stroke-width="5"></path>
                        <path d="M11,17.5 L37.9600954,17.5" id="Path-90" stroke="#236EA0" stroke-width="5"></path>
                    </g>
                </g>
                <g id="Group-8" transform="translate(149.000000, 80.000000)" stroke-linecap="round" stroke-linejoin="round">
                    <g id="Rectangle-39-Copy-2" transform="translate(53.933427, 58.882478) rotate(-328.000000) translate(-53.933427, -58.882478) ">
                        <use fill="#2980B9" fill-rule="evenodd" xlink:href="#path-3"></use>
                        <rect stroke="#236EA0" stroke-width="6" x="16.6508178" y="9.02533527" width="74.5652174" height="99.7142857" rx="8.64"></rect>
                    </g>
                    <path d="M39.9184882,52.9599206 L79.6141404,52.9599206" id="Path-90-Copy-3" stroke="#236EA0" stroke-width="6" transform="translate(59.766314, 52.959921) rotate(-328.000000) translate(-59.766314, -52.959921) "></path>
                    <path d="M31.3130601,66.7150743 L71.0087123,66.7150743" id="Path-90-Copy-6" stroke="#236EA0" stroke-width="6" transform="translate(51.160886, 66.715074) rotate(-328.000000) translate(-51.160886, -66.715074) "></path>
                    <path d="M22.7076321,80.4702281 L62.4032843,80.4702281" id="Path-90-Copy-7" stroke="#236EA0" stroke-width="6" transform="translate(42.555458, 80.470228) rotate(-328.000000) translate(-42.555458, -80.470228) "></path>
                    <path d="M48.5239162,39.2047669 L88.2195684,39.2047669" id="Path-90-Copy-8" stroke="#236EA0" stroke-width="6" transform="translate(68.371742, 39.204767) rotate(-328.000000) translate(-68.371742, -39.204767) "></path>
                    <g id="Rectangle-39" transform="translate(93.647503, 92.733716) rotate(-315.000000) translate(-93.647503, -92.733716) ">
                        <use fill="#2980B9" fill-rule="evenodd" xlink:href="#path-4"></use>
                        <rect stroke="#236EA0" stroke-width="6" x="47.4720367" y="31.1622877" width="92.3509317" height="123.142857" rx="10.8"></rect>
                    </g>
                    <path d="M76.4077508,87.0647566 L125.05314,87.0647566" id="Path-90" stroke="#236EA0" stroke-width="6" transform="translate(100.730446, 87.064757) rotate(-315.000000) translate(-100.730446, -87.064757) "></path>
                    <path d="M62.3732184,101.082566 L111.018608,101.082566" id="Path-90" stroke="#236EA0" stroke-width="6" transform="translate(86.695913, 101.082566) rotate(-315.000000) translate(-86.695913, -101.082566) "></path>
                    <path d="M48.338686,115.100375 L96.9840756,115.100375" id="Path-90" stroke="#236EA0" stroke-width="6" transform="translate(72.661381, 115.100375) rotate(-315.000000) translate(-72.661381, -115.100375) "></path>
                    <path d="M89.1664167,74.3212937 L137.811806,74.3212937" id="Path-90" stroke="#236EA0" stroke-width="6" transform="translate(113.489111, 74.321294) rotate(-315.000000) translate(-113.489111, -74.321294) "></path>
                </g>
                <g id="Group-6" transform="translate(968.454483, 32.016660) rotate(-30.000000) translate(-968.454483, -32.016660) translate(949.454483, 6.016660)" stroke-linecap="round" stroke-linejoin="round">
                    <g id="Rectangle-39-Copy-2">
                        <use fill="#2980B9" fill-rule="evenodd" xlink:href="#path-5"></use>
                        <rect stroke="#236EA0" stroke-width="5" x="-2.5" y="-2.5" width="43" height="57" rx="4.8"></rect>
                    </g>
                    <path d="M9,21.5 L31,21.5" id="Path-90-Copy-3" stroke="#236EA0" stroke-width="5"></path>
                    <path d="M9,30.5 L31,30.5" id="Path-90-Copy-6" stroke="#236EA0" stroke-width="5"></path>
                    <path d="M9,39.5 L31,39.5" id="Path-90-Copy-7" stroke="#236EA0" stroke-width="5"></path>
                    <path d="M9,12.5 L31,12.5" id="Path-90-Copy-8" stroke="#236EA0" stroke-width="5"></path>
                </g>
                <g id="Group-6-Copy-4" transform="translate(142.454483, 287.016660) rotate(-30.000000) translate(-142.454483, -287.016660) translate(123.454483, 261.016660)" stroke-linecap="round" stroke-linejoin="round">
                    <g id="Rectangle-39-Copy-2">
                        <use fill="#2980B9" fill-rule="evenodd" xlink:href="#path-6"></use>
                        <rect stroke="#236EA0" stroke-width="5" x="-2.5" y="-2.5" width="43" height="57" rx="4.8"></rect>
                    </g>
                    <path d="M9,21.5 L31,21.5" id="Path-90-Copy-3" stroke="#236EA0" stroke-width="5"></path>
                    <path d="M9,30.5 L31,30.5" id="Path-90-Copy-6" stroke="#236EA0" stroke-width="5"></path>
                    <path d="M9,39.5 L31,39.5" id="Path-90-Copy-7" stroke="#236EA0" stroke-width="5"></path>
                    <path d="M9,12.5 L31,12.5" id="Path-90-Copy-8" stroke="#236EA0" stroke-width="5"></path>
                </g>
                <g id="Group-6-Copy-3" transform="translate(410.454483, 55.016660) rotate(24.000000) translate(-410.454483, -55.016660) translate(391.454483, 29.016660)" stroke-linecap="round" stroke-linejoin="round">
                    <g id="Rectangle-39-Copy-2">
                        <use fill="#2980B9" fill-rule="evenodd" xlink:href="#path-7"></use>
                        <rect stroke="#236EA0" stroke-width="5" x="-2.5" y="-2.5" width="43" height="57" rx="4.8"></rect>
                    </g>
                    <path d="M9,21.5 L31,21.5" id="Path-90-Copy-3" stroke="#236EA0" stroke-width="5"></path>
                    <path d="M9,30.5 L31,30.5" id="Path-90-Copy-6" stroke="#236EA0" stroke-width="5"></path>
                    <path d="M9,39.5 L31,39.5" id="Path-90-Copy-7" stroke="#236EA0" stroke-width="5"></path>
                    <path d="M9,12.5 L31,12.5" id="Path-90-Copy-8" stroke="#236EA0" stroke-width="5"></path>
                </g>
                <g id="Group-6-Copy-5" transform="translate(29.454483, 41.016660) rotate(-30.000000) translate(-29.454483, -41.016660) translate(10.454483, 15.016660)" stroke-linecap="round" stroke-linejoin="round">
                    <g id="Rectangle-39-Copy-2">
                        <use fill="#2980B9" fill-rule="evenodd" xlink:href="#path-8"></use>
                        <rect stroke="#236EA0" stroke-width="5" x="-2.5" y="-2.5" width="43" height="57" rx="4.8"></rect>
                    </g>
                    <path d="M9,21.5 L31,21.5" id="Path-90-Copy-3" stroke="#236EA0" stroke-width="5"></path>
                    <path d="M9,30.5 L31,30.5" id="Path-90-Copy-6" stroke="#236EA0" stroke-width="5"></path>
                    <path d="M9,39.5 L31,39.5" id="Path-90-Copy-7" stroke="#236EA0" stroke-width="5"></path>
                    <path d="M9,12.5 L31,12.5" id="Path-90-Copy-8" stroke="#236EA0" stroke-width="5"></path>
                </g>
                <g id="Group-6-Copy" transform="translate(1228.454483, 287.016660) rotate(-330.000000) translate(-1228.454483, -287.016660) translate(1209.454483, 261.016660)" stroke-linecap="round" stroke-linejoin="round">
                    <g id="Rectangle-39-Copy-2">
                        <use fill="#2980B9" fill-rule="evenodd" xlink:href="#path-9"></use>
                        <rect stroke="#236EA0" stroke-width="5" x="-2.5" y="-2.5" width="43" height="57" rx="4.8"></rect>
                    </g>
                    <path d="M9,21.5 L31,21.5" id="Path-90-Copy-3" stroke="#236EA0" stroke-width="5"></path>
                    <path d="M9,30.5 L31,30.5" id="Path-90-Copy-6" stroke="#236EA0" stroke-width="5"></path>
                    <path d="M9,39.5 L31,39.5" id="Path-90-Copy-7" stroke="#236EA0" stroke-width="5"></path>
                    <path d="M9,12.5 L31,12.5" id="Path-90-Copy-8" stroke="#236EA0" stroke-width="5"></path>
                </g>
            </g>
        </g>
    </g>
</svg>