<svg width="110" height="117" viewBox="0 0 110 117" xmlns="http://www.w3.org/2000/svg"><title>3</title><g transform="translate(2 2)" stroke="#3378A7" stroke-width="3" fill="none" fill-rule="evenodd"><g transform="translate(30.823 35.407)"><ellipse cx="21.05" cy="21.093" rx="21.05" ry="21.093"/><path d="M41.348 21.093H0M21.801.753c7.142 5.889 10.65 12.586 10.522 20.092-.15 8.776-3.268 13.876-10.522 20.588M20.298.753C13.35 5.783 9.842 12.477 9.774 20.833c-.072 8.898 3.264 13.884 10.524 20.6"/><path d="M4.51 8.287c5.064 3.191 10.758 4.693 17.083 4.504 6.325-.19 11.657-1.69 15.996-4.504m0 25.613c-5.063-3.192-10.757-4.693-17.083-4.504-6.325.189-11.657 1.69-15.995 4.504M21.05 0v41.433"/></g><path stroke-linecap="round" stroke-linejoin="round" d="M52.248 7.533l43.979 24.295v48.59l-43.979 24.295L8.27 80.418v-48.59z"/><ellipse fill="#FFF" cx="51.872" cy="8.287" rx="8.27" ry="8.287"/><ellipse fill="#FFF" cx="96.227" cy="32.393" rx="8.27" ry="8.287"/><ellipse fill="#FFF" cx="9.773" cy="32.393" rx="8.27" ry="8.287"/><ellipse fill="#FFF" cx="8.27" cy="79.1" rx="8.27" ry="8.287"/><ellipse fill="#FFF" cx="97.73" cy="79.1" rx="8.27" ry="8.287"/><ellipse fill="#FFF" cx="51.872" cy="104.713" rx="8.27" ry="8.287"/><path d="M51.872 17.327v10.546M17.29 36.16l9.022 4.52m-9.022 33.9l9.022-4.52m61.645-33.9l-9.02 4.52m9.773 33.9l-9.022-4.52M51.872 86.633v8.287" stroke-linecap="round"/></g></svg>