<svg width="258" height="183" viewBox="0 0 258 183" xmlns="http://www.w3.org/2000/svg"><title>graphic 4</title><g transform="translate(0 3)" fill="none" fill-rule="evenodd"><rect fill="#D1E0EA" x="73" y="17" width="170" height="118" rx="6.3"/><circle stroke="#3378A7" stroke-width="4.5" cx="237" cy="172" r="5"/><circle stroke="#3378A7" stroke-width="4.5" cx="54.5" cy="11.5" r="3.5"/><circle stroke="#3378A7" stroke-width="4.5" cx="251.5" cy="3.5" r="3.5"/><path d="M9 82.5h35.31m127.248 74.203L39.921 62.5H10A3.5 3.5 0 0 0 6.5 66v106a3.5 3.5 0 0 0 3.5 3.5h158c1.933 0 3.5-1.567 3.5-3.51l.058-15.287z" stroke="#D1E0EA" stroke-width="5"/><path d="M46 41.5a3.5 3.5 0 0 0-3.5 3.5v106a3.5 3.5 0 0 0 3.5 3.5h158a3.5 3.5 0 0 0 3.5-3.5V45a3.5 3.5 0 0 0-3.5-3.5H46z" stroke="#3378A7" stroke-width="5"/><circle fill="#236EA0" cx="79.5" cy="51.5" r="2.5"/><circle fill="#236EA0" cx="207.5" cy="118.5" r="2.5"/><g transform="translate(0 119)" fill="#236EA0"><circle cx="2.5" cy="2.5" r="2.5"/><circle cx="10.5" cy="2.5" r="2.5"/></g><circle fill="#236EA0" cx="57.5" cy="51.5" r="2.5"/><circle fill="#D1E0EA" cx="20.5" cy="73.5" r="2.5"/><circle fill="#236EA0" cx="68.5" cy="51.5" r="2.5"/><circle fill="#D1E0EA" cx="32.5" cy="73.5" r="2.5"/><circle stroke="#3378A7" stroke-width="5" cx="68.5" cy="130.5" r="7"/><circle stroke="#3378A7" stroke-width="5" cx="104.5" cy="107.5" r="7"/><circle stroke="#3378A7" stroke-width="5" cx="140.5" cy="130.5" r="7"/><circle stroke="#3378A7" stroke-width="5" cx="181.5" cy="86.5" r="7"/><path d="M75 126l23-15m13-1l24 15m12 1l31-35M45 61.5h162" stroke="#3378A7" stroke-width="5"/></g></svg>