<svg width="251" height="169" viewBox="0 0 251 169" xmlns="http://www.w3.org/2000/svg"><title>graphic 3</title><g transform="translate(3)" fill="none" fill-rule="evenodd"><rect fill="#D1E0EA" x="52" width="170" height="118" rx="6.3"/><g transform="rotate(5 -1226.246 821.383)" fill="#236EA0"><circle cx="54.5" cy="2.5" r="2.5"/><circle cx="48" cy="7.5" r="2.5"/><circle cx="41.5" cy="12.5" r="2.5"/><circle cx="35" cy="17.5" r="2.5"/><circle cx="28.5" cy="22.5" r="2.5"/><circle cx="22" cy="27.5" r="2.5"/><circle cx="15.5" cy="32.5" r="2.5"/><circle cx="9" cy="37.5" r="2.5"/><circle cx="2.5" cy="42.5" r="2.5"/></g><g transform="rotate(5 -711.911 775.98)" fill="#236EA0"><circle cx="54.5" cy="2.5" r="2.5"/><circle cx="48" cy="7.5" r="2.5"/><circle cx="41.5" cy="12.5" r="2.5"/><circle cx="35" cy="17.5" r="2.5"/><circle cx="28.5" cy="22.5" r="2.5"/><circle cx="22" cy="27.5" r="2.5"/><circle cx="15.5" cy="32.5" r="2.5"/><circle cx="9" cy="37.5" r="2.5"/><circle cx="2.5" cy="42.5" r="2.5"/></g><g transform="rotate(5 -737.411 191.933)" fill="#236EA0"><circle cx="54.5" cy="2.5" r="2.5"/><circle cx="48" cy="7.5" r="2.5"/><circle cx="41.5" cy="12.5" r="2.5"/><circle cx="35" cy="17.5" r="2.5"/><circle cx="28.5" cy="22.5" r="2.5"/><circle cx="22" cy="27.5" r="2.5"/><circle cx="15.5" cy="32.5" r="2.5"/><circle cx="9" cy="37.5" r="2.5"/><circle cx="2.5" cy="42.5" r="2.5"/></g><circle stroke="#3378A7" stroke-width="4.5" cx="240" cy="135" r="5"/><circle stroke="#3378A7" stroke-width="4.5" cx="202.5" cy="14.5" r="3.5"/><circle stroke="#3378A7" stroke-width="4.5" cx="3.5" cy="84.5" r="3.5"/><g transform="matrix(-1 0 0 1 194 25)"><path d="M2.5 6.305v105.39a3.8 3.8 0 0 0 3.796 3.805h157.408a3.8 3.8 0 0 0 3.796-3.805V6.305a3.8 3.8 0 0 0-3.796-3.805H6.296A3.8 3.8 0 0 0 2.5 6.305z" stroke="#3378A7" stroke-width="5"/><circle fill="#3378A7" cx="2.5" cy="76.5" r="2.5"/><circle fill="#3378A7" cx="2.5" cy="90.5" r="2.5"/><circle fill="#3378A7" cx="2.5" cy="83.5" r="2.5"/></g><path stroke="#3378A7" stroke-width="5" stroke-linecap="round" stroke-linejoin="round" d="M83 59h49v48H83z"/><path stroke="#3378A7" stroke-width="5" fill="#FAFAFA" stroke-linecap="round" stroke-linejoin="round" d="M4 118h48v48H4z"/></g></svg>