<?xml version="1.0" encoding="UTF-8"?>
<svg width="791px" height="835px" viewBox="0 0 791 835" version="1.1" xmlns="http://www.w3.org/2000/svg" xmlns:xlink="http://www.w3.org/1999/xlink">
    <!-- Generator: Sketch 48.2 (47327) - http://www.bohemiancoding.com/sketch -->
    <title>Group 9</title>
    <desc>Created with Sketch.</desc>
    <defs></defs>
    <g id="Artboard-2" stroke="none" stroke-width="1" fill="none" fill-rule="evenodd" transform="translate(-335.000000, -859.000000)">
        <g id="Group-9" transform="translate(335.000000, 862.000000)">
            <g id="Group-6" transform="translate(286.000000, 632.000000)">
                <path d="M18.8493976,-2.5 L180.150602,-2.5 C191.941549,-2.5 201.5,7.05845088 201.5,18.8493976 C201.5,30.6403443 191.941549,40.1987952 180.150602,40.1987952 L18.8493976,40.1987952 C7.05845088,40.1987952 -2.5,30.6403443 -2.5,18.8493976 C-2.5,7.05845088 7.05845088,-2.5 18.8493976,-2.5 Z" id="Rectangle-16" stroke="#236EA0" stroke-width="5"></path>
                <g id="Group" transform="translate(126.063348, 14.361446)" fill="#236EA0">
                    <ellipse id="Oval-6" cx="45.728821" cy="4.77910297" rx="4.9642979" ry="4.77910297"></ellipse>
                    <ellipse id="Oval-6-Copy-2" cx="25.3465595" cy="4.77910297" rx="4.9642979" ry="4.77910297"></ellipse>
                    <ellipse id="Oval-6-Copy-4" cx="4.9642979" cy="4.77910297" rx="4.9642979" ry="4.77910297"></ellipse>
                </g>
                <rect id="Rectangle-16" stroke="#236EA0" stroke-width="5" x="-2.5" y="53.1506024" width="204" height="42.6987952" rx="21.3493976"></rect>
                <g id="Group-4" transform="translate(126.063348, 70.909639)" fill="#236EA0">
                    <ellipse id="Oval-6" cx="45.6630225" cy="5.18710913" rx="4.94676041" ry="5.15627493"></ellipse>
                    <ellipse id="Oval-6-Copy-2" cx="25.8759809" cy="5.18710913" rx="4.94676041" ry="5.15627493"></ellipse>
                    <ellipse id="Oval-6-Copy-4" cx="4.98965914" cy="5.18710913" rx="4.94676041" ry="5.15627493"></ellipse>
                </g>
                <rect id="Rectangle-16" stroke="#236EA0" stroke-width="5" x="-2.5" y="108.801205" width="204" height="42.6987952" rx="21.3493976"></rect>
                <g id="Group-5" transform="translate(126.063348, 124.765060)" fill="#236EA0">
                    <ellipse id="Oval-6" cx="46.4975373" cy="5.18710913" rx="4.98158686" ry="5.15627493"></ellipse>
                    <ellipse id="Oval-6-Copy-2" cx="26.5711899" cy="5.18710913" rx="4.98158686" ry="5.15627493"></ellipse>
                    <ellipse id="Oval-6-Copy-4" cx="5.53782316" cy="5.18710913" rx="4.98158686" ry="5.15627493"></ellipse>
                </g>
            </g>
            <g id="Group-13" transform="translate(336.000000, 0.000000)">
                <circle id="Oval-17-Copy-2" stroke="#236EA0" stroke-width="5" cx="50" cy="29" r="29"></circle>
                <path d="M98,118 C90.9174415,85.3333333 74.5841081,69 49,69 C23.4158919,69 7.08255854,85.3333333 0,118 L98,118 Z" id="Oval-17-Copy-3" stroke="#236EA0" stroke-width="5" stroke-linecap="round" stroke-linejoin="round"></path>
                <path d="M21.6842776,162 L21.6842776,142.831055 L30.9259768,142.831055 C31.5939489,142.831055 32.1959936,142.973876 32.7321291,143.259521 C33.2682646,143.545167 33.7252913,143.918699 34.1032229,144.380127 C34.4811544,144.841555 34.7733879,145.364499 34.9799319,145.948975 C35.1864759,146.53345 35.2897463,147.124509 35.2897463,147.722168 C35.2897463,148.697759 35.0480495,149.583248 34.5646487,150.378662 C34.0812478,151.174076 33.4088912,151.773924 32.5475588,152.178223 C33.6461971,152.50342 34.5141084,153.105464 35.1513186,153.984375 C35.7885288,154.863286 36.1071291,155.887201 36.1071291,157.056152 C36.1071291,157.776859 35.962111,158.438229 35.6720705,159.040283 C35.38203,159.642337 34.9953151,160.165281 34.5119143,160.609131 C34.0285134,161.052981 33.4616246,161.395751 32.8112307,161.637451 C32.1608368,161.879152 31.4665078,162 30.7282229,162 L21.6842776,162 Z M23.5827151,160.352051 L30.7282229,160.352051 C31.2116237,160.352051 31.6664532,160.253175 32.0927248,160.05542 C32.5189965,159.857665 32.8903307,159.591799 33.2067385,159.257812 C33.5231463,158.923826 33.7714349,158.537112 33.9516115,158.097656 C34.1317882,157.658201 34.2218752,157.205569 34.2218752,156.739746 C34.2218752,156.273923 34.1405772,155.819094 33.9779787,155.375244 C33.8153803,154.931394 33.5846697,154.542482 33.2858401,154.208496 C32.9870104,153.87451 32.6354515,153.604249 32.2311526,153.397705 C31.8268537,153.191161 31.3917994,153.087891 30.9259768,153.087891 L23.5827151,153.087891 L23.5827151,160.352051 Z M23.5827151,151.54541 L30.1613283,151.54541 C30.627151,151.54541 31.0644025,151.446534 31.4730959,151.248779 C31.8817894,151.051024 32.2289539,150.79175 32.5145998,150.470947 C32.8002458,150.150145 33.0243646,149.776613 33.1869631,149.350342 C33.3495616,148.92407 33.4308596,148.47803 33.4308596,148.012207 C33.4308596,147.528806 33.3539561,147.071779 33.2001467,146.641113 C33.0463373,146.210447 32.8310075,145.836916 32.5541506,145.520508 C32.2772938,145.2041 31.9499044,144.951417 31.5719729,144.762451 C31.1940413,144.573485 30.7809595,144.479004 30.3327151,144.479004 L23.5827151,144.479004 L23.5827151,151.54541 Z M39.6587892,155.012695 C39.6587892,154.019526 39.8345687,153.081303 40.1861329,152.197998 C40.5376972,151.314693 41.023288,150.541263 41.64292,149.877686 C42.262552,149.214108 42.9964314,148.684572 43.8445802,148.289062 C44.692729,147.893553 45.6177685,147.695801 46.6197267,147.695801 C47.6304739,147.695801 48.5643025,147.893553 49.4212403,148.289062 C50.2781782,148.684572 51.0164521,149.214108 51.6360841,149.877686 C52.2557161,150.541263 52.7413069,151.314693 53.0928712,152.197998 C53.4444355,153.081303 53.620215,154.019526 53.620215,155.012695 C53.620215,155.988286 53.4488299,156.915523 53.1060548,157.794434 C52.7632796,158.673344 52.2820833,159.444577 51.6624513,160.108154 C51.0428193,160.771732 50.3045454,161.296873 49.4476075,161.683594 C48.5906697,162.070314 47.6480521,162.263672 46.6197267,162.263672 C45.5914012,162.263672 44.6553754,162.070314 43.8116212,161.683594 C42.967867,161.296873 42.2361848,160.771732 41.6165528,160.108154 C40.9969208,159.444577 40.5157245,158.671147 40.1729493,157.787842 C39.8301742,156.904537 39.6587892,155.979497 39.6587892,155.012695 Z M41.5176759,155.039062 C41.5176759,155.830082 41.653905,156.561764 41.9263673,157.234131 C42.1988296,157.906498 42.563572,158.499753 43.0206056,159.013916 C43.4776391,159.528079 44.0159638,159.930174 44.6355958,160.220215 C45.2552278,160.510255 45.9165982,160.655273 46.6197267,160.655273 C47.3228552,160.655273 47.9842255,160.505861 48.6038575,160.207031 C49.2234895,159.908202 49.768406,159.501712 50.2386232,158.987549 C50.7088403,158.473386 51.0779773,157.875736 51.346045,157.19458 C51.6141128,156.513424 51.7481446,155.777348 51.7481446,154.986328 C51.7481446,154.212887 51.6141128,153.479007 51.346045,152.784668 C51.0779773,152.090329 50.7088403,151.486087 50.2386232,150.971924 C49.768406,150.457761 49.2234895,150.051271 48.6038575,149.752441 C47.9842255,149.453612 47.3228552,149.304199 46.6197267,149.304199 C45.9165982,149.304199 45.2596223,149.453612 44.6487794,149.752441 C44.0379365,150.051271 43.4996118,150.462156 43.0337892,150.985107 C42.5679665,151.508059 42.1988296,152.116696 41.9263673,152.811035 C41.653905,153.505375 41.5176759,154.248043 41.5176759,155.039062 Z M56.4995117,149.396484 L56.4995117,147.933105 L58.4506836,147.933105 L58.4506836,143.187012 L60.2832031,143.187012 L60.2832031,147.933105 L63.5263672,147.933105 L63.5263672,149.396484 L60.2832031,149.396484 L60.2832031,158.95459 C60.3183596,159.473147 60.502928,159.85327 60.8369141,160.094971 C61.1709001,160.336671 61.5532205,160.45752 61.9838867,160.45752 C62.502444,160.45752 62.9594707,160.371827 63.3549805,160.200439 C63.7504903,160.029052 64.0053705,159.908203 64.1196289,159.837891 L64.6074219,161.327637 C64.5019526,161.380371 64.3437511,161.450683 64.1328125,161.538574 C63.9218739,161.626465 63.6823744,161.716552 63.4143066,161.808838 C63.1462389,161.901124 62.840822,161.982422 62.4980469,162.052734 C62.1552717,162.123047 61.7949238,162.158203 61.4169922,162.158203 C61.0214824,162.158203 60.6435565,162.105469 60.2832031,162 C59.9228498,161.894531 59.6086439,161.729737 59.3405762,161.505615 C59.0725084,161.281493 58.8571785,160.998049 58.6945801,160.655273 C58.5319816,160.312498 58.4506836,159.9126 58.4506836,159.455566 L58.4506836,149.396484 L56.4995117,149.396484 Z M66.9989257,160.16748 L67.8426757,158.928223 C68.6336953,159.578617 69.4378864,160.064207 70.2552733,160.38501 C71.0726602,160.705812 71.9515577,160.866211 72.8919921,160.866211 C74.0257868,160.866211 74.928854,160.637698 75.6012206,160.180664 C76.2735872,159.723631 76.6097655,159.068852 76.6097655,158.216309 C76.6097655,157.820799 76.5218758,157.493409 76.3460936,157.234131 C76.1703115,156.974852 75.9066423,156.746339 75.555078,156.548584 C75.2035138,156.350829 74.7618678,156.17505 74.2301268,156.02124 C73.6983859,155.867431 73.0809604,155.711427 72.3778319,155.553223 C71.5692341,155.351073 70.8683134,155.151124 70.2750487,154.953369 C69.681784,154.755614 69.1917987,154.531495 68.805078,154.281006 C68.4183573,154.030516 68.1305184,153.720705 67.9415526,153.351562 C67.7525868,152.98242 67.6581054,152.516604 67.6581054,151.954102 C67.6581054,151.250973 67.7965317,150.629153 68.0733886,150.088623 C68.3502454,149.548093 68.7281713,149.10425 69.2071776,148.75708 C69.6861839,148.40991 70.2442838,148.146241 70.881494,147.966064 C71.5187043,147.785888 72.1976525,147.695801 72.9183593,147.695801 C73.9994194,147.695801 74.97939,147.869383 75.8583007,148.216553 C76.7372113,148.563722 77.4491183,149.027341 77.9940429,149.607422 L77.0975585,150.688477 C76.5790012,150.152341 75.946195,149.748048 75.199121,149.475586 C74.4520469,149.203124 73.6742227,149.066895 72.8656249,149.066895 C72.382224,149.066895 71.9317891,149.117431 71.5143065,149.218506 C71.096824,149.319581 70.7320815,149.477782 70.4200683,149.693115 C70.108055,149.908448 69.8619637,150.180907 69.681787,150.510498 C69.5016103,150.84009 69.4115233,151.233396 69.4115233,151.69043 C69.4115233,152.068361 69.4730462,152.373778 69.5960936,152.606689 C69.7191411,152.839601 69.925682,153.041747 70.2157225,153.213135 C70.5057631,153.384522 70.8705055,153.538329 71.3099608,153.674561 C71.7494162,153.810792 72.2855436,153.949218 72.9183593,154.089844 C73.8148481,154.309571 74.6058558,154.527099 75.2914061,154.742432 C75.9769564,154.957765 76.5482398,155.208251 77.0052733,155.493896 C77.4623069,155.779542 77.8094714,156.128904 78.0467772,156.541992 C78.2840831,156.95508 78.4027343,157.460446 78.4027343,158.058105 C78.4027343,159.350104 77.9061572,160.37402 76.9129882,161.129883 C75.9198191,161.885746 74.5882895,162.263672 72.9183593,162.263672 C71.819721,162.263672 70.7474661,162.085695 69.7015624,161.729736 C68.6556587,161.373778 67.7547888,160.853031 66.9989257,160.16748 Z" id="Bots" fill="#4A4A4A"></path>
            </g>
            <path d="M333.496973,544 L333.496973,524.831055 L346.087305,524.831055 L346.087305,526.505371 L335.395411,526.505371 L335.395411,533.54541 L344.412989,533.54541 L344.412989,535.114258 L335.395411,535.114258 L335.395411,544 L333.496973,544 Z M350.377246,544 L350.377246,529.933105 L352.209766,529.933105 L352.209766,544 L350.377246,544 Z M350.377246,526.993164 L350.377246,524.290527 L352.209766,524.290527 L352.209766,526.993164 L350.377246,526.993164 Z M357.607129,544 L357.607129,529.933105 L359.33418,529.933105 L359.33418,533.308105 C359.852737,532.227045 360.553658,531.381107 361.436963,530.770264 C362.320268,530.159421 363.262886,529.854004 364.264844,529.854004 C364.40547,529.854004 364.524121,529.862793 364.620801,529.880371 L364.620801,531.554688 C363.381537,531.589844 362.30269,531.930417 361.384229,532.576416 C360.465767,533.222415 359.81758,534.112299 359.439649,535.246094 L359.439649,544 L357.607129,544 Z M366.748633,536.92041 C366.748633,535.927241 366.924412,534.99561 367.275977,534.125488 C367.627541,533.255367 368.113132,532.492923 368.732764,531.838135 C369.352396,531.183346 370.095064,530.6626 370.960791,530.275879 C371.826518,529.889158 372.760347,529.695801 373.762305,529.695801 C374.79063,529.695801 375.733248,529.889158 376.590186,530.275879 C377.447124,530.6626 378.181003,531.187741 378.791846,531.851318 C379.402689,532.514896 379.879491,533.279537 380.222266,534.145264 C380.565041,535.010991 380.736426,535.927241 380.736426,536.894043 L380.736426,537.329102 C380.736426,537.478516 380.727637,537.57959 380.710059,537.632324 L368.660254,537.632324 C368.712989,538.388187 368.888768,539.084714 369.187598,539.721924 C369.486427,540.359134 369.870945,540.912839 370.341162,541.383057 C370.811379,541.853274 371.347507,542.218016 371.949561,542.477295 C372.551614,542.736574 373.195407,542.866211 373.880957,542.866211 C374.329202,542.866211 374.777439,542.802491 375.225684,542.675049 C375.673928,542.547607 376.08701,542.376222 376.464942,542.160889 C376.842873,541.945556 377.185643,541.679689 377.493262,541.363281 C377.800881,541.046873 378.033788,540.699709 378.191992,540.321777 L379.787207,540.756836 C379.567479,541.275393 379.259865,541.747801 378.864356,542.174072 C378.468846,542.600344 378.011819,542.971678 377.493262,543.288086 C376.974705,543.604494 376.399027,543.846191 375.766211,544.013184 C375.133395,544.180177 374.474222,544.263672 373.788672,544.263672 C372.760347,544.263672 371.819926,544.070314 370.967383,543.683594 C370.11484,543.296873 369.374368,542.767337 368.745947,542.094971 C368.117526,541.422604 367.627541,540.64478 367.275977,539.761475 C366.924412,538.878169 366.748633,537.931157 366.748633,536.92041 Z M368.633887,536.22168 L378.983008,536.22168 C378.930273,535.465817 378.754494,534.778079 378.455664,534.158447 C378.156835,533.538815 377.776711,533.002688 377.315283,532.550049 C376.853855,532.09741 376.322122,531.745851 375.720068,531.495361 C375.118015,531.244872 374.474222,531.119629 373.788672,531.119629 C373.103122,531.119629 372.454935,531.244872 371.844092,531.495361 C371.233249,531.745851 370.699319,532.09741 370.242285,532.550049 C369.785252,533.002688 369.416115,533.54321 369.134863,534.171631 C368.853612,534.800052 368.686621,535.483395 368.633887,536.22168 Z M382.916992,529.933105 L384.696777,529.933105 L389.825195,542.114746 L392.501465,535.681152 L390.088867,529.959473 L391.631348,529.959473 L393.463867,534.547363 L395.30957,529.959473 L396.878418,529.959473 L394.46582,535.681152 L397.14209,542.114746 L402.244141,529.933105 L404.050293,529.933105 L398.012207,544 L396.496094,544 L393.463867,536.814941 L390.471191,544 L388.955078,544 L382.916992,529.933105 Z M406.349512,539.899902 C406.349512,539.284665 406.492332,538.715579 406.777978,538.192627 C407.063624,537.669675 407.467917,537.21924 407.990869,536.841309 C408.513821,536.463377 409.135641,536.171144 409.856348,535.9646 C410.577054,535.758056 411.368062,535.654785 412.229394,535.654785 C412.950101,535.654785 413.679586,535.718505 414.417871,535.845947 C415.156156,535.973389 415.810935,536.151366 416.382226,536.379883 L416.382226,535.114258 C416.382226,533.874994 416.032865,532.890629 415.334131,532.161133 C414.635397,531.431637 413.662018,531.066895 412.413965,531.066895 C411.693258,531.066895 410.954984,531.211913 410.199121,531.501953 C409.443258,531.791994 408.678617,532.205075 407.905176,532.741211 L407.25918,531.52832 C409.078525,530.306635 410.845109,529.695801 412.558984,529.695801 C414.325595,529.695801 415.712055,530.190181 416.718408,531.178955 C417.724761,532.16773 418.22793,533.532218 418.22793,535.272461 L418.22793,541.626953 C418.22793,542.127932 418.452048,542.378418 418.900293,542.378418 L418.900293,544 C418.592674,544.052735 418.359766,544.079102 418.201562,544.079102 C417.73574,544.079102 417.370997,543.962648 417.107324,543.729736 C416.843651,543.496825 416.703027,543.17383 416.685449,542.760742 L416.632715,541.65332 C415.982321,542.497075 415.167143,543.143064 414.187158,543.591309 C413.207173,544.039553 412.150299,544.263672 411.016504,544.263672 C410.348532,544.263672 409.731106,544.151612 409.164209,543.92749 C408.597312,543.703368 408.102932,543.393557 407.681055,542.998047 C407.259177,542.602537 406.931788,542.138919 406.698877,541.607178 C406.465966,541.075437 406.349512,540.506351 406.349512,539.899902 Z M408.10293,539.754883 C408.10293,540.185549 408.188622,540.592039 408.36001,540.974365 C408.531397,541.356691 408.764305,541.686278 409.05874,541.963135 C409.353175,542.239992 409.709129,542.459716 410.126611,542.622314 C410.544094,542.784913 410.98574,542.866211 411.451562,542.866211 C412.409575,542.866211 413.286275,542.686037 414.081689,542.325684 C414.877103,541.96533 415.48574,541.486331 415.907617,540.888672 C416.065821,540.730468 416.184472,540.556886 416.263574,540.36792 C416.342676,540.178954 416.382226,540.005372 416.382226,539.847168 L416.382226,537.553223 C415.766989,537.315917 415.131986,537.133546 414.477197,537.006104 C413.822409,536.878661 413.152249,536.814941 412.466699,536.814941 C411.1747,536.814941 410.124418,537.085202 409.31582,537.625732 C408.507222,538.166262 408.10293,538.875972 408.10293,539.754883 Z M423.625293,541.429199 L423.625293,524.290527 L425.457812,524.290527 L425.457812,540.80957 C425.457812,541.328128 425.60283,541.736815 425.892871,542.035645 C426.182911,542.334474 426.587204,542.483887 427.105762,542.483887 C427.307911,542.483887 427.543016,542.45752 427.811084,542.404785 C428.079152,542.352051 428.331835,542.281739 428.56914,542.193848 L428.885547,543.67041 C428.542772,543.811036 428.125295,543.92749 427.633105,544.019775 C427.140915,544.112061 426.71465,544.158203 426.354297,544.158203 C425.510542,544.158203 424.844778,543.920901 424.356982,543.446289 C423.869187,542.971677 423.625293,542.299321 423.625293,541.429199 Z M432.318554,541.429199 L432.318554,524.290527 L434.151074,524.290527 L434.151074,540.80957 C434.151074,541.328128 434.296092,541.736815 434.586132,542.035645 C434.876173,542.334474 435.280466,542.483887 435.799023,542.483887 C436.001173,542.483887 436.236278,542.45752 436.504345,542.404785 C436.772413,542.352051 437.025096,542.281739 437.262402,542.193848 L437.578808,543.67041 C437.236033,543.811036 436.818557,543.92749 436.326367,544.019775 C435.834177,544.112061 435.407912,544.158203 435.047558,544.158203 C434.203804,544.158203 433.538039,543.920901 433.050244,543.446289 C432.562448,542.971677 432.318554,542.299321 432.318554,541.429199 Z" id="Firewall" fill="#4A4A4A"></path>
            <path d="M307.748096,811.831055 L309.817921,811.831055 L316.093311,822.140625 L322.408253,811.831055 L324.45171,811.831055 L317.029346,823.867676 L317.029346,831 L315.144092,831 L315.144092,823.814941 L307.748096,811.831055 Z M324.786573,824.012695 C324.786573,823.019526 324.962352,822.081303 325.313916,821.197998 C325.665481,820.314693 326.151072,819.541263 326.770704,818.877686 C327.390336,818.214108 328.124215,817.684572 328.972364,817.289062 C329.820513,816.893553 330.745552,816.695801 331.74751,816.695801 C332.758257,816.695801 333.692086,816.893553 334.549024,817.289062 C335.405962,817.684572 336.144236,818.214108 336.763868,818.877686 C337.3835,819.541263 337.869091,820.314693 338.220655,821.197998 C338.572219,822.081303 338.747999,823.019526 338.747999,824.012695 C338.747999,824.988286 338.576614,825.915523 338.233838,826.794434 C337.891063,827.673344 337.409867,828.444577 336.790235,829.108154 C336.170603,829.771732 335.432329,830.296873 334.575391,830.683594 C333.718453,831.070314 332.775836,831.263672 331.74751,831.263672 C330.719185,831.263672 329.783159,831.070314 328.939405,830.683594 C328.095651,830.296873 327.363968,829.771732 326.744336,829.108154 C326.124704,828.444577 325.643508,827.671147 325.300733,826.787842 C324.957958,825.904537 324.786573,824.979497 324.786573,824.012695 Z M326.645459,824.039062 C326.645459,824.830082 326.781689,825.561764 327.054151,826.234131 C327.326613,826.906498 327.691356,827.499753 328.148389,828.013916 C328.605423,828.528079 329.143747,828.930174 329.763379,829.220215 C330.383011,829.510255 331.044382,829.655273 331.74751,829.655273 C332.450639,829.655273 333.112009,829.505861 333.731641,829.207031 C334.351273,828.908202 334.89619,828.501712 335.366407,827.987549 C335.836624,827.473386 336.205761,826.875736 336.473829,826.19458 C336.741896,825.513424 336.875928,824.777348 336.875928,823.986328 C336.875928,823.212887 336.741896,822.479007 336.473829,821.784668 C336.205761,821.090329 335.836624,820.486087 335.366407,819.971924 C334.89619,819.457761 334.351273,819.051271 333.731641,818.752441 C333.112009,818.453612 332.450639,818.304199 331.74751,818.304199 C331.044382,818.304199 330.387406,818.453612 329.776563,818.752441 C329.16572,819.051271 328.627395,819.462156 328.161573,819.985107 C327.69575,820.508059 327.326613,821.116696 327.054151,821.811035 C326.781689,822.505375 326.645459,823.248043 326.645459,824.039062 Z M343.024756,825.199219 L343.024756,816.933105 L344.870459,816.933105 L344.870459,824.869629 C344.870459,828.051285 345.955898,829.646484 348.126807,829.655273 C348.662943,829.655273 349.194675,829.565186 349.722022,829.38501 C350.249368,829.204833 350.732762,828.943361 351.172217,828.600586 C351.611672,828.257811 352.007176,827.851321 352.358741,827.381104 C352.710305,826.910886 352.991552,826.381351 353.202491,825.79248 L353.202491,816.933105 L355.048194,816.933105 L355.048194,828.626953 C355.048194,829.127932 355.263524,829.378418 355.69419,829.378418 L355.69419,831 C355.474462,831.035156 355.298683,831.052734 355.166846,831.052734 L354.876807,831.052734 C354.446141,831.035156 354.096779,830.883546 353.828711,830.5979 C353.560644,830.312254 353.426612,829.923342 353.426612,829.431152 L353.426612,827.80957 C352.811374,828.908209 351.976422,829.758542 350.921729,830.360596 C349.867036,830.962649 348.746442,831.263672 347.559912,831.263672 C346.030608,831.263672 344.892436,830.756109 344.145362,829.740967 C343.398288,828.725825 343.024756,827.211924 343.024756,825.199219 Z M360.551026,831 L360.551026,816.933105 L362.278076,816.933105 L362.278076,820.308105 C362.796634,819.227045 363.497554,818.381107 364.38086,817.770264 C365.264165,817.159421 366.206782,816.854004 367.208741,816.854004 C367.349366,816.854004 367.468017,816.862793 367.564698,816.880371 L367.564698,818.554688 C366.325434,818.589844 365.246587,818.930417 364.328125,819.576416 C363.409664,820.222415 362.761477,821.112299 362.383545,822.246094 L362.383545,831 L360.551026,831 Z M377.700244,829.16748 L378.543994,827.928223 C379.335014,828.578617 380.139205,829.064207 380.956592,829.38501 C381.773979,829.705812 382.652876,829.866211 383.593311,829.866211 C384.727105,829.866211 385.630172,829.637698 386.302539,829.180664 C386.974906,828.723631 387.311084,828.068852 387.311084,827.216309 C387.311084,826.820799 387.223194,826.493409 387.047412,826.234131 C386.87163,825.974852 386.607961,825.746339 386.256397,825.548584 C385.904832,825.350829 385.463186,825.17505 384.931445,825.02124 C384.399704,824.867431 383.782279,824.711427 383.07915,824.553223 C382.270553,824.351073 381.569632,824.151124 380.976367,823.953369 C380.383103,823.755614 379.893117,823.531495 379.506397,823.281006 C379.119676,823.030516 378.831837,822.720705 378.642871,822.351562 C378.453905,821.98242 378.359424,821.516604 378.359424,820.954102 C378.359424,820.250973 378.49785,819.629153 378.774707,819.088623 C379.051564,818.548093 379.42949,818.10425 379.908496,817.75708 C380.387502,817.40991 380.945602,817.146241 381.582813,816.966064 C382.220023,816.785888 382.898971,816.695801 383.619678,816.695801 C384.700738,816.695801 385.680709,816.869383 386.559619,817.216553 C387.43853,817.563722 388.150437,818.027341 388.695361,818.607422 L387.798877,819.688477 C387.28032,819.152341 386.647514,818.748048 385.90044,818.475586 C385.153365,818.203124 384.375541,818.066895 383.566943,818.066895 C383.083543,818.066895 382.633108,818.117431 382.215625,818.218506 C381.798142,818.319581 381.4334,818.477782 381.121387,818.693115 C380.809373,818.908448 380.563282,819.180907 380.383106,819.510498 C380.202929,819.84009 380.112842,820.233396 380.112842,820.69043 C380.112842,821.068361 380.174365,821.373778 380.297412,821.606689 C380.42046,821.839601 380.627001,822.041747 380.917041,822.213135 C381.207082,822.384522 381.571824,822.538329 382.011279,822.674561 C382.450735,822.810792 382.986862,822.949218 383.619678,823.089844 C384.516167,823.309571 385.307174,823.527099 385.992725,823.742432 C386.678275,823.957765 387.249558,824.208251 387.706592,824.493896 C388.163625,824.779542 388.51079,825.128904 388.748096,825.541992 C388.985402,825.95508 389.104053,826.460446 389.104053,827.058105 C389.104053,828.350104 388.607476,829.37402 387.614307,830.129883 C386.621138,830.885746 385.289608,831.263672 383.619678,831.263672 C382.521039,831.263672 381.448785,831.085695 380.402881,830.729736 C379.356977,830.373778 378.456107,829.853031 377.700244,829.16748 Z M392.471143,823.92041 C392.471143,822.927241 392.646922,821.99561 392.998486,821.125488 C393.350051,820.255367 393.835641,819.492923 394.455273,818.838135 C395.074905,818.183346 395.817574,817.6626 396.683301,817.275879 C397.549028,816.889158 398.482856,816.695801 399.484814,816.695801 C400.51314,816.695801 401.455757,816.889158 402.312695,817.275879 C403.169633,817.6626 403.903513,818.187741 404.514355,818.851318 C405.125198,819.514896 405.602,820.279537 405.944775,821.145264 C406.28755,822.010991 406.458935,822.927241 406.458935,823.894043 L406.458935,824.329102 C406.458935,824.478516 406.450147,824.57959 406.432568,824.632324 L394.382764,824.632324 C394.435498,825.388187 394.611278,826.084714 394.910107,826.721924 C395.208937,827.359134 395.593455,827.912839 396.063672,828.383057 C396.533889,828.853274 397.070016,829.218016 397.67207,829.477295 C398.274124,829.736574 398.917916,829.866211 399.603467,829.866211 C400.051711,829.866211 400.499949,829.802491 400.948193,829.675049 C401.396438,829.547607 401.80952,829.376222 402.187451,829.160889 C402.565383,828.945556 402.908153,828.679689 403.215771,828.363281 C403.52339,828.046873 403.756298,827.699709 403.914502,827.321777 L405.509717,827.756836 C405.289989,828.275393 404.982375,828.747801 404.586865,829.174072 C404.191355,829.600344 403.734329,829.971678 403.215771,830.288086 C402.697214,830.604494 402.121536,830.846191 401.488721,831.013184 C400.855905,831.180177 400.196732,831.263672 399.511182,831.263672 C398.482856,831.263672 397.542436,831.070314 396.689893,830.683594 C395.837349,830.296873 395.096878,829.767337 394.468457,829.094971 C393.840036,828.422604 393.350051,827.64478 392.998486,826.761475 C392.646922,825.878169 392.471143,824.931157 392.471143,823.92041 Z M394.356396,823.22168 L404.705518,823.22168 C404.652783,822.465817 404.477003,821.778079 404.178174,821.158447 C403.879344,820.538815 403.499221,820.002688 403.037793,819.550049 C402.576365,819.09741 402.044632,818.745851 401.442578,818.495361 C400.840524,818.244872 400.196732,818.119629 399.511182,818.119629 C398.825631,818.119629 398.177444,818.244872 397.566602,818.495361 C396.955759,818.745851 396.421828,819.09741 395.964795,819.550049 C395.507761,820.002688 395.138624,820.54321 394.857373,821.171631 C394.576122,821.800052 394.409131,822.483395 394.356396,823.22168 Z M410.643408,831 L410.643408,816.933105 L412.370459,816.933105 L412.370459,820.308105 C412.889016,819.227045 413.589937,818.381107 414.473242,817.770264 C415.356547,817.159421 416.299165,816.854004 417.301123,816.854004 C417.441749,816.854004 417.5604,816.862793 417.65708,816.880371 L417.65708,818.554688 C416.417816,818.589844 415.338969,818.930417 414.420508,819.576416 C413.502046,820.222415 412.853859,821.112299 412.475928,822.246094 L412.475928,831 L410.643408,831 Z M419.943115,816.933105 L421.828369,816.933105 L426.666748,829.299316 L431.531494,816.933105 L433.311279,816.933105 L427.576416,831 L425.664795,831 L419.943115,816.933105 Z M435.72915,823.92041 C435.72915,822.927241 435.90493,821.99561 436.256494,821.125488 C436.608058,820.255367 437.093649,819.492923 437.713281,818.838135 C438.332913,818.183346 439.075581,817.6626 439.941308,817.275879 C440.807035,816.889158 441.740864,816.695801 442.742822,816.695801 C443.771147,816.695801 444.713765,816.889158 445.570703,817.275879 C446.427641,817.6626 447.16152,818.187741 447.772363,818.851318 C448.383206,819.514896 448.860008,820.279537 449.202783,821.145264 C449.545558,822.010991 449.716943,822.927241 449.716943,823.894043 L449.716943,824.329102 C449.716943,824.478516 449.708154,824.57959 449.690576,824.632324 L437.640771,824.632324 C437.693506,825.388187 437.869285,826.084714 438.168115,826.721924 C438.466944,827.359134 438.851462,827.912839 439.321679,828.383057 C439.791897,828.853274 440.328024,829.218016 440.930078,829.477295 C441.532132,829.736574 442.175924,829.866211 442.861474,829.866211 C443.309719,829.866211 443.757956,829.802491 444.206201,829.675049 C444.654445,829.547607 445.067527,829.376222 445.445459,829.160889 C445.82339,828.945556 446.16616,828.679689 446.473779,828.363281 C446.781398,828.046873 447.014305,827.699709 447.172509,827.321777 L448.767724,827.756836 C448.547997,828.275393 448.240382,828.747801 447.844873,829.174072 C447.449363,829.600344 446.992336,829.971678 446.473779,830.288086 C445.955222,830.604494 445.379544,830.846191 444.746728,831.013184 C444.113912,831.180177 443.454739,831.263672 442.769189,831.263672 C441.740864,831.263672 440.800443,831.070314 439.9479,830.683594 C439.095357,830.296873 438.354886,829.767337 437.726464,829.094971 C437.098043,828.422604 436.608058,827.64478 436.256494,826.761475 C435.90493,825.878169 435.72915,824.931157 435.72915,823.92041 Z M437.614404,823.22168 L447.963525,823.22168 C447.91079,822.465817 447.735011,821.778079 447.436181,821.158447 C447.137352,820.538815 446.757228,820.002688 446.2958,819.550049 C445.834372,819.09741 445.302639,818.745851 444.700586,818.495361 C444.098532,818.244872 443.454739,818.119629 442.769189,818.119629 C442.083639,818.119629 441.435452,818.244872 440.824609,818.495361 C440.213766,818.745851 439.679836,819.09741 439.222802,819.550049 C438.765769,820.002688 438.396632,820.54321 438.11538,821.171631 C437.834129,821.800052 437.667139,822.483395 437.614404,823.22168 Z M453.901416,831 L453.901416,816.933105 L455.628466,816.933105 L455.628466,820.308105 C456.147024,819.227045 456.847944,818.381107 457.73125,817.770264 C458.614555,817.159421 459.557172,816.854004 460.55913,816.854004 C460.699756,816.854004 460.818407,816.862793 460.915087,816.880371 L460.915087,818.554688 C459.675823,818.589844 458.596977,818.930417 457.678515,819.576416 C456.760054,820.222415 456.111867,821.112299 455.733935,822.246094 L455.733935,831 L453.901416,831 Z" id="Your-server" fill="#4A4A4A"></path>
            <g id="Group-8" transform="translate(663.000000, 76.000000)">
                <circle id="Oval-17-Copy-4" stroke="#236EA0" stroke-width="5" cx="65" cy="29" r="29"></circle>
                <path d="M114,118 C106.917441,85.3333333 90.5841081,69 65,69 C39.4158919,69 23.0825585,85.3333333 16,118 L114,118 Z" id="Oval-17-Copy-5" stroke="#236EA0" stroke-width="5" stroke-linecap="round" stroke-linejoin="round"></path>
                <g id="Group-10" transform="translate(0.000000, 138.000000)" fill="#4A4A4A">
                    <path d="M0.52168017,25 L8.53730517,5.83105469 L10.13252,5.83105469 L18.0954106,25 L16.0915044,25 L13.6129888,19.0014648 L5.00410205,19.0014648 L2.53877001,25 L0.52168017,25 Z M5.39960986,17.5249023 L13.1779302,17.5249023 L9.3151372,8.04589844 L5.39960986,17.5249023 Z M20.0254887,12.3964844 L20.0254887,10.9331055 L21.9766605,10.9331055 L21.9766605,6.18701172 L23.8091801,6.18701172 L23.8091801,10.9331055 L27.0523441,10.9331055 L27.0523441,12.3964844 L23.8091801,12.3964844 L23.8091801,21.9545898 C23.8443365,22.4731471 24.028905,22.8532703 24.362891,23.0949707 C24.696877,23.3366711 25.0791974,23.4575195 25.5098637,23.4575195 C26.0284209,23.4575195 26.4854476,23.371827 26.8809574,23.2004395 C27.2764672,23.0290519 27.5313475,22.9082035 27.6456058,22.8378906 L28.1333988,24.3276367 C28.0279295,24.3803714 27.869728,24.4506832 27.6587894,24.5385742 C27.4478509,24.6264653 27.2083513,24.7165523 26.9402836,24.8088379 C26.6722158,24.9011235 26.366799,24.9824215 26.0240238,25.0527344 C25.6812487,25.1230472 25.3209007,25.1582031 24.9429691,25.1582031 C24.5474593,25.1582031 24.1695334,25.1054693 23.8091801,25 C23.4488267,24.8945307 23.1346209,24.7297374 22.8665531,24.5056152 C22.5984854,24.281493 22.3831555,23.9980486 22.220557,23.6552734 C22.0579585,23.3124983 21.9766605,22.9125999 21.9766605,22.4555664 L21.9766605,12.3964844 L20.0254887,12.3964844 Z M30.4194339,12.3964844 L30.4194339,10.9331055 L32.3706057,10.9331055 L32.3706057,6.18701172 L34.2031253,6.18701172 L34.2031253,10.9331055 L37.4462893,10.9331055 L37.4462893,12.3964844 L34.2031253,12.3964844 L34.2031253,21.9545898 C34.2382817,22.4731471 34.4228502,22.8532703 34.7568362,23.0949707 C35.0908223,23.3366711 35.4731426,23.4575195 35.9038089,23.4575195 C36.4223661,23.4575195 36.8793928,23.371827 37.2749026,23.2004395 C37.6704124,23.0290519 37.9252927,22.9082035 38.039551,22.8378906 L38.527344,24.3276367 C38.4218747,24.3803714 38.2636732,24.4506832 38.0527346,24.5385742 C37.8417961,24.6264653 37.6022965,24.7165523 37.3342288,24.8088379 C37.066161,24.9011235 36.7607442,24.9824215 36.417969,25.0527344 C36.0751939,25.1230472 35.7148459,25.1582031 35.3369143,25.1582031 C34.9414045,25.1582031 34.5634786,25.1054693 34.2031253,25 C33.8427719,24.8945307 33.5285661,24.7297374 33.2604983,24.5056152 C32.9924306,24.281493 32.7771007,23.9980486 32.6145022,23.6552734 C32.4519038,23.3124983 32.3706057,22.9125999 32.3706057,22.4555664 L32.3706057,12.3964844 L30.4194339,12.3964844 Z M41.0375002,20.8999023 C41.0375002,20.2846649 41.180321,19.7155788 41.465967,19.192627 C41.7516129,18.6696751 42.1559057,18.2192402 42.6788576,17.8413086 C43.2018094,17.463377 43.8236294,17.1711436 44.5443361,16.9645996 C45.2650428,16.7580556 46.0560505,16.6547852 46.917383,16.6547852 C47.6380897,16.6547852 48.3675746,16.7185052 49.1058595,16.8459473 C49.8441445,16.9733893 50.4989231,17.151366 51.070215,17.3798828 L51.070215,16.1142578 C51.070215,14.8749938 50.7208533,13.8906286 50.0221193,13.1611328 C49.3233853,12.431637 48.3500064,12.0668945 47.1019533,12.0668945 C46.3812466,12.0668945 45.6429727,12.2119126 44.8871095,12.5019531 C44.1312464,12.7919936 43.3666056,13.2050754 42.5931642,13.7412109 L41.9471681,12.5283203 C43.7665132,11.3066345 45.5330971,10.6958008 47.2469728,10.6958008 C49.0135832,10.6958008 50.400044,11.1901806 51.4063966,12.1789551 C52.4127493,13.1677296 52.9159181,14.5322179 52.9159181,16.2724609 L52.9159181,22.6269531 C52.9159181,23.1279322 53.140037,23.378418 53.5882814,23.378418 L53.5882814,25 C53.2806627,25.0527346 53.0477549,25.0791016 52.8895509,25.0791016 C52.4237283,25.0791016 52.0589859,24.9626476 51.7953127,24.7297363 C51.5316395,24.496825 51.3910159,24.1738302 51.3734377,23.7607422 L51.3207033,22.6533203 C50.6703094,23.4970745 49.855132,24.1430642 48.8751466,24.5913086 C47.8951613,25.039553 46.8382871,25.2636719 45.7044923,25.2636719 C45.0365203,25.2636719 44.4190948,25.1516124 43.8521974,24.9274902 C43.2853001,24.703368 42.7909202,24.3935567 42.3690431,23.9980469 C41.947166,23.6025371 41.6197767,23.1389187 41.3868654,22.6071777 C41.1539541,22.0754368 41.0375002,21.5063507 41.0375002,20.8999023 Z M42.7909181,20.7548828 C42.7909181,21.185549 42.8766106,21.5920391 43.0479982,21.9743652 C43.2193858,22.3566914 43.4522936,22.6862779 43.7467287,22.9631348 C44.0411637,23.2399916 44.3971172,23.459716 44.8145998,23.6223145 C45.2320823,23.7849129 45.6737283,23.8662109 46.1395509,23.8662109 C47.0975635,23.8662109 47.9742638,23.686037 48.7696779,23.3256836 C49.565092,22.9653302 50.1737285,22.4863311 50.5956056,21.8886719 C50.7538095,21.730468 50.8724607,21.5568857 50.9515627,21.3679199 C51.0306646,21.1789541 51.070215,21.0053719 51.070215,20.847168 L51.070215,18.5532227 C50.4549776,18.3159168 49.8199741,18.1335456 49.1651857,18.0061035 C48.5103973,17.8786615 47.840238,17.8149414 47.1546877,17.8149414 C45.862689,17.8149414 44.8124065,18.0852024 44.0038088,18.6257324 C43.195211,19.1662625 42.7909181,19.8759722 42.7909181,20.7548828 Z M57.2585938,17.9204102 C57.2585938,16.9272411 57.4299788,15.9912153 57.772754,15.1123047 C58.1155291,14.233394 58.5967255,13.466556 59.2163575,12.8117676 C59.8359895,12.1569791 60.5786578,11.6406269 61.4443848,11.2626953 C62.3101118,10.8847637 63.2615183,10.6958008 64.2986329,10.6958008 C65.634577,10.6958008 66.7969189,10.9968232 67.7856934,11.598877 C68.7744679,12.2009307 69.523728,13.0161081 70.0334961,14.0444336 L68.2405274,14.6113281 C67.8450176,13.8906214 67.2935095,13.3259298 66.5859864,12.9172363 C65.8784633,12.5085429 65.0896528,12.3041992 64.2195313,12.3041992 C63.4988246,12.3041992 62.8286653,12.4492173 62.2090333,12.7392578 C61.5894013,13.0292983 61.0510766,13.4226049 60.594043,13.9191895 C60.1370095,14.415774 59.7766615,15.0046353 59.5129883,15.685791 C59.2493151,16.3669468 59.1174805,17.1118124 59.1174805,17.9204102 C59.1174805,18.7114297 59.2537096,19.4584926 59.5261719,20.1616211 C59.7986342,20.8647496 60.1677712,21.4733861 60.6335938,21.9875488 C61.0994164,22.5017116 61.6421356,22.9082016 62.2617676,23.2070312 C62.8813996,23.5058609 63.54277,23.6552734 64.2458985,23.6552734 C64.6941429,23.6552734 65.1401834,23.5915534 65.5840333,23.4641113 C66.0278831,23.3366693 66.4387677,23.1608898 66.8166993,22.9367676 C67.1946308,22.7126454 67.5176257,22.4555679 67.7856934,22.1655273 C68.0537612,21.8754868 68.2449214,21.5678727 68.3591797,21.2426758 L70.1653321,21.7832031 C69.9631826,22.2841822 69.6731465,22.7478006 69.2952149,23.1740723 C68.9172833,23.6003439 68.4734401,23.9716781 67.9636719,24.2880859 C67.4539038,24.6044938 66.8870149,24.8461906 66.2629883,25.0131836 C65.6389618,25.1801766 64.9929721,25.2636719 64.3250001,25.2636719 C63.2966746,25.2636719 62.3518598,25.0703144 61.4905274,24.6835938 C60.629195,24.2968731 59.8843294,23.7673373 59.2559083,23.0949707 C58.6274871,22.4226041 58.1375018,21.6447798 57.7859376,20.7614746 C57.4343733,19.8781694 57.2585938,18.9311574 57.2585938,17.9204102 Z M74.402539,25 L74.402539,5.29052734 L76.2350585,5.29052734 L76.2350585,18.6850586 L84.1452148,10.9594727 L86.2282226,10.9594727 L80.4669921,16.7075195 L86.4391601,25 L84.4352539,25 L79.2541015,17.7885742 L76.2350585,20.5966797 L76.2350585,25 L74.402539,25 Z M88.3560545,17.9204102 C88.3560545,16.9272411 88.531834,15.9956098 88.8833983,15.1254883 C89.2349625,14.2553667 89.7205534,13.4929232 90.3401854,12.8381348 C90.9598174,12.1833463 91.7024857,11.6625996 92.5682127,11.2758789 C93.4339397,10.8891582 94.3677683,10.6958008 95.3697264,10.6958008 C96.3980519,10.6958008 97.3406694,10.8891582 98.1976073,11.2758789 C99.0545451,11.6625996 99.7884245,12.1877408 100.399267,12.8513184 C101.01011,13.5148959 101.486912,14.2795367 101.829687,15.1452637 C102.172462,16.0109907 102.343847,16.9272413 102.343847,17.894043 L102.343847,18.3291016 C102.343847,18.4785164 102.335059,18.5795896 102.31748,18.6323242 L90.2676756,18.6323242 C90.3204103,19.3881874 90.4961898,20.0847136 90.7950194,20.7219238 C91.093849,21.359134 91.4783666,21.9128394 91.9485838,22.3830566 C92.418801,22.8532738 92.9549285,23.2180163 93.5569823,23.4772949 C94.1590361,23.7365736 94.8028284,23.8662109 95.4883787,23.8662109 C95.9366232,23.8662109 96.3848609,23.8024909 96.8331053,23.6750488 C97.2813497,23.5476068 97.6944315,23.3762218 98.0723631,23.1608887 C98.4502947,22.9455556 98.7930647,22.6796891 99.1006834,22.3632812 C99.4083022,22.0468734 99.64121,21.6997089 99.7994139,21.3217773 L101.394629,21.7568359 C101.174901,22.2753932 100.867287,22.7478006 100.471777,23.1740723 C100.076267,23.6003439 99.6192407,23.9716781 99.1006834,24.2880859 C98.5821262,24.6044938 98.0064483,24.8461906 97.3736327,25.0131836 C96.740817,25.1801766 96.0816439,25.2636719 95.3960936,25.2636719 C94.3677681,25.2636719 93.4273479,25.0703144 92.5748045,24.6835938 C91.7222612,24.2968731 90.9817901,23.7673373 90.353369,23.0949707 C89.7249479,22.4226041 89.2349625,21.6447798 88.8833983,20.7614746 C88.531834,19.8781694 88.3560545,18.9311574 88.3560545,17.9204102 Z M90.2413084,17.2216797 L100.59043,17.2216797 C100.537695,16.4658165 100.361915,15.7780793 100.063086,15.1584473 C99.7642562,14.5388153 99.384133,14.0026878 98.9227049,13.5500488 C98.4612768,13.0974098 97.9295439,12.7458509 97.3274901,12.4953613 C96.7254363,12.2448718 96.0816439,12.1196289 95.3960936,12.1196289 C94.7105433,12.1196289 94.0623564,12.2448718 93.4515135,12.4953613 C92.8406706,12.7458509 92.3067404,13.0974098 91.8497069,13.5500488 C91.3926733,14.0026878 91.0235364,14.5432097 90.742285,15.1716309 C90.4610336,15.800052 90.2940431,16.4833947 90.2413084,17.2216797 Z M106.52832,25 L106.52832,10.9331055 L108.255371,10.9331055 L108.255371,14.3081055 C108.773928,13.2270454 109.474849,12.3811066 110.358154,11.7702637 C111.241459,11.1594208 112.184077,10.8540039 113.186035,10.8540039 C113.326661,10.8540039 113.445312,10.8627929 113.541992,10.8803711 L113.541992,12.5546875 C112.302728,12.5898439 111.223881,12.9304167 110.30542,13.576416 C109.386958,14.2224153 108.738771,15.112299 108.36084,16.2460938 L108.36084,25 L106.52832,25 Z M116.091699,23.1674805 L116.935449,21.9282227 C117.726468,22.5786165 118.53066,23.0642074 119.348046,23.3850098 C120.165433,23.7058122 121.044331,23.8662109 121.984765,23.8662109 C123.11856,23.8662109 124.021627,23.6376976 124.693994,23.1806641 C125.36636,22.7236305 125.702539,22.0688519 125.702539,21.2163086 C125.702539,20.8207988 125.614649,20.4934095 125.438867,20.2341309 C125.263085,19.9748522 124.999415,19.7463389 124.647851,19.548584 C124.296287,19.3508291 123.854641,19.1750496 123.3229,19.0212402 C122.791159,18.8674309 122.173734,18.7114266 121.470605,18.5532227 C120.662007,18.3510732 119.961087,18.151124 119.367822,17.9533691 C118.774557,17.7556142 118.284572,17.5314954 117.897851,17.2810059 C117.511131,17.0305163 117.223292,16.720705 117.034326,16.3515625 C116.84536,15.98242 116.750879,15.5166044 116.750879,14.9541016 C116.750879,14.250973 116.889305,13.6291531 117.166162,13.088623 C117.443019,12.548093 117.820944,12.1042498 118.299951,11.7570801 C118.778957,11.4099104 119.337057,11.1462411 119.974267,10.9660645 C120.611477,10.7858878 121.290426,10.6958008 122.011132,10.6958008 C123.092193,10.6958008 124.072163,10.869383 124.951074,11.2165527 C125.829984,11.5637224 126.541891,12.0273408 127.086816,12.6074219 L126.190332,13.6884766 C125.671774,13.1523411 125.038968,12.7480482 124.291894,12.4755859 C123.54482,12.2031236 122.766996,12.0668945 121.958398,12.0668945 C121.474997,12.0668945 121.024562,12.1174311 120.60708,12.2185059 C120.189597,12.3195806 119.824855,12.4777821 119.512841,12.6931152 C119.200828,12.9084483 118.954737,13.1809066 118.77456,13.510498 C118.594383,13.8400895 118.504296,14.2333962 118.504296,14.6904297 C118.504296,15.0683613 118.565819,15.3737781 118.688867,15.6066895 C118.811914,15.8396008 119.018455,16.0417472 119.308496,16.2131348 C119.598536,16.3845223 119.963279,16.5383294 120.402734,16.6745605 C120.842189,16.8107917 121.378317,16.949218 122.011132,17.0898438 C122.907621,17.3095714 123.698629,17.5270985 124.384179,17.7424316 C125.06973,17.9577647 125.641013,18.2082505 126.098046,18.4938965 C126.55508,18.7795424 126.902245,19.1289042 127.13955,19.5419922 C127.376856,19.9550802 127.495507,20.4604462 127.495507,21.0581055 C127.495507,22.3501041 126.99893,23.3740197 126.005761,24.1298828 C125.012592,24.885746 123.681063,25.2636719 122.011132,25.2636719 C120.912494,25.2636719 119.840239,25.0856951 118.794336,24.7297363 C117.748432,24.3737775 116.847562,23.8530308 116.091699,23.1674805 Z" id="Attackers"></path>
                </g>
            </g>
            <g id="Group-8-Copy" transform="translate(0.000000, 79.000000)">
                <circle id="Oval-17-Copy-4" stroke="#2ECC71" stroke-width="5" cx="65" cy="29" r="29"></circle>
                <path d="M114,118 C106.917441,85.3333333 90.5841081,69 65,69 C39.4158919,69 23.0825585,85.3333333 16,118 L114,118 Z" id="Oval-17-Copy-5" stroke="#2ECC71" stroke-width="5" stroke-linecap="round" stroke-linejoin="round"></path>
                <g id="Group-10" transform="translate(0.000000, 138.000000)" fill="#4A4A4A">
                    <path d="M0.52168017,25 L8.53730517,5.83105469 L10.13252,5.83105469 L18.0954106,25 L16.0915044,25 L13.6129888,19.0014648 L5.00410205,19.0014648 L2.53877001,25 L0.52168017,25 Z M5.39960986,17.5249023 L13.1779302,17.5249023 L9.3151372,8.04589844 L5.39960986,17.5249023 Z M20.0254887,12.3964844 L20.0254887,10.9331055 L21.9766605,10.9331055 L21.9766605,6.18701172 L23.8091801,6.18701172 L23.8091801,10.9331055 L27.0523441,10.9331055 L27.0523441,12.3964844 L23.8091801,12.3964844 L23.8091801,21.9545898 C23.8443365,22.4731471 24.028905,22.8532703 24.362891,23.0949707 C24.696877,23.3366711 25.0791974,23.4575195 25.5098637,23.4575195 C26.0284209,23.4575195 26.4854476,23.371827 26.8809574,23.2004395 C27.2764672,23.0290519 27.5313475,22.9082035 27.6456058,22.8378906 L28.1333988,24.3276367 C28.0279295,24.3803714 27.869728,24.4506832 27.6587894,24.5385742 C27.4478509,24.6264653 27.2083513,24.7165523 26.9402836,24.8088379 C26.6722158,24.9011235 26.366799,24.9824215 26.0240238,25.0527344 C25.6812487,25.1230472 25.3209007,25.1582031 24.9429691,25.1582031 C24.5474593,25.1582031 24.1695334,25.1054693 23.8091801,25 C23.4488267,24.8945307 23.1346209,24.7297374 22.8665531,24.5056152 C22.5984854,24.281493 22.3831555,23.9980486 22.220557,23.6552734 C22.0579585,23.3124983 21.9766605,22.9125999 21.9766605,22.4555664 L21.9766605,12.3964844 L20.0254887,12.3964844 Z M30.4194339,12.3964844 L30.4194339,10.9331055 L32.3706057,10.9331055 L32.3706057,6.18701172 L34.2031253,6.18701172 L34.2031253,10.9331055 L37.4462893,10.9331055 L37.4462893,12.3964844 L34.2031253,12.3964844 L34.2031253,21.9545898 C34.2382817,22.4731471 34.4228502,22.8532703 34.7568362,23.0949707 C35.0908223,23.3366711 35.4731426,23.4575195 35.9038089,23.4575195 C36.4223661,23.4575195 36.8793928,23.371827 37.2749026,23.2004395 C37.6704124,23.0290519 37.9252927,22.9082035 38.039551,22.8378906 L38.527344,24.3276367 C38.4218747,24.3803714 38.2636732,24.4506832 38.0527346,24.5385742 C37.8417961,24.6264653 37.6022965,24.7165523 37.3342288,24.8088379 C37.066161,24.9011235 36.7607442,24.9824215 36.417969,25.0527344 C36.0751939,25.1230472 35.7148459,25.1582031 35.3369143,25.1582031 C34.9414045,25.1582031 34.5634786,25.1054693 34.2031253,25 C33.8427719,24.8945307 33.5285661,24.7297374 33.2604983,24.5056152 C32.9924306,24.281493 32.7771007,23.9980486 32.6145022,23.6552734 C32.4519038,23.3124983 32.3706057,22.9125999 32.3706057,22.4555664 L32.3706057,12.3964844 L30.4194339,12.3964844 Z M41.0375002,20.8999023 C41.0375002,20.2846649 41.180321,19.7155788 41.465967,19.192627 C41.7516129,18.6696751 42.1559057,18.2192402 42.6788576,17.8413086 C43.2018094,17.463377 43.8236294,17.1711436 44.5443361,16.9645996 C45.2650428,16.7580556 46.0560505,16.6547852 46.917383,16.6547852 C47.6380897,16.6547852 48.3675746,16.7185052 49.1058595,16.8459473 C49.8441445,16.9733893 50.4989231,17.151366 51.070215,17.3798828 L51.070215,16.1142578 C51.070215,14.8749938 50.7208533,13.8906286 50.0221193,13.1611328 C49.3233853,12.431637 48.3500064,12.0668945 47.1019533,12.0668945 C46.3812466,12.0668945 45.6429727,12.2119126 44.8871095,12.5019531 C44.1312464,12.7919936 43.3666056,13.2050754 42.5931642,13.7412109 L41.9471681,12.5283203 C43.7665132,11.3066345 45.5330971,10.6958008 47.2469728,10.6958008 C49.0135832,10.6958008 50.400044,11.1901806 51.4063966,12.1789551 C52.4127493,13.1677296 52.9159181,14.5322179 52.9159181,16.2724609 L52.9159181,22.6269531 C52.9159181,23.1279322 53.140037,23.378418 53.5882814,23.378418 L53.5882814,25 C53.2806627,25.0527346 53.0477549,25.0791016 52.8895509,25.0791016 C52.4237283,25.0791016 52.0589859,24.9626476 51.7953127,24.7297363 C51.5316395,24.496825 51.3910159,24.1738302 51.3734377,23.7607422 L51.3207033,22.6533203 C50.6703094,23.4970745 49.855132,24.1430642 48.8751466,24.5913086 C47.8951613,25.039553 46.8382871,25.2636719 45.7044923,25.2636719 C45.0365203,25.2636719 44.4190948,25.1516124 43.8521974,24.9274902 C43.2853001,24.703368 42.7909202,24.3935567 42.3690431,23.9980469 C41.947166,23.6025371 41.6197767,23.1389187 41.3868654,22.6071777 C41.1539541,22.0754368 41.0375002,21.5063507 41.0375002,20.8999023 Z M42.7909181,20.7548828 C42.7909181,21.185549 42.8766106,21.5920391 43.0479982,21.9743652 C43.2193858,22.3566914 43.4522936,22.6862779 43.7467287,22.9631348 C44.0411637,23.2399916 44.3971172,23.459716 44.8145998,23.6223145 C45.2320823,23.7849129 45.6737283,23.8662109 46.1395509,23.8662109 C47.0975635,23.8662109 47.9742638,23.686037 48.7696779,23.3256836 C49.565092,22.9653302 50.1737285,22.4863311 50.5956056,21.8886719 C50.7538095,21.730468 50.8724607,21.5568857 50.9515627,21.3679199 C51.0306646,21.1789541 51.070215,21.0053719 51.070215,20.847168 L51.070215,18.5532227 C50.4549776,18.3159168 49.8199741,18.1335456 49.1651857,18.0061035 C48.5103973,17.8786615 47.840238,17.8149414 47.1546877,17.8149414 C45.862689,17.8149414 44.8124065,18.0852024 44.0038088,18.6257324 C43.195211,19.1662625 42.7909181,19.8759722 42.7909181,20.7548828 Z M57.2585938,17.9204102 C57.2585938,16.9272411 57.4299788,15.9912153 57.772754,15.1123047 C58.1155291,14.233394 58.5967255,13.466556 59.2163575,12.8117676 C59.8359895,12.1569791 60.5786578,11.6406269 61.4443848,11.2626953 C62.3101118,10.8847637 63.2615183,10.6958008 64.2986329,10.6958008 C65.634577,10.6958008 66.7969189,10.9968232 67.7856934,11.598877 C68.7744679,12.2009307 69.523728,13.0161081 70.0334961,14.0444336 L68.2405274,14.6113281 C67.8450176,13.8906214 67.2935095,13.3259298 66.5859864,12.9172363 C65.8784633,12.5085429 65.0896528,12.3041992 64.2195313,12.3041992 C63.4988246,12.3041992 62.8286653,12.4492173 62.2090333,12.7392578 C61.5894013,13.0292983 61.0510766,13.4226049 60.594043,13.9191895 C60.1370095,14.415774 59.7766615,15.0046353 59.5129883,15.685791 C59.2493151,16.3669468 59.1174805,17.1118124 59.1174805,17.9204102 C59.1174805,18.7114297 59.2537096,19.4584926 59.5261719,20.1616211 C59.7986342,20.8647496 60.1677712,21.4733861 60.6335938,21.9875488 C61.0994164,22.5017116 61.6421356,22.9082016 62.2617676,23.2070312 C62.8813996,23.5058609 63.54277,23.6552734 64.2458985,23.6552734 C64.6941429,23.6552734 65.1401834,23.5915534 65.5840333,23.4641113 C66.0278831,23.3366693 66.4387677,23.1608898 66.8166993,22.9367676 C67.1946308,22.7126454 67.5176257,22.4555679 67.7856934,22.1655273 C68.0537612,21.8754868 68.2449214,21.5678727 68.3591797,21.2426758 L70.1653321,21.7832031 C69.9631826,22.2841822 69.6731465,22.7478006 69.2952149,23.1740723 C68.9172833,23.6003439 68.4734401,23.9716781 67.9636719,24.2880859 C67.4539038,24.6044938 66.8870149,24.8461906 66.2629883,25.0131836 C65.6389618,25.1801766 64.9929721,25.2636719 64.3250001,25.2636719 C63.2966746,25.2636719 62.3518598,25.0703144 61.4905274,24.6835938 C60.629195,24.2968731 59.8843294,23.7673373 59.2559083,23.0949707 C58.6274871,22.4226041 58.1375018,21.6447798 57.7859376,20.7614746 C57.4343733,19.8781694 57.2585938,18.9311574 57.2585938,17.9204102 Z M74.402539,25 L74.402539,5.29052734 L76.2350585,5.29052734 L76.2350585,18.6850586 L84.1452148,10.9594727 L86.2282226,10.9594727 L80.4669921,16.7075195 L86.4391601,25 L84.4352539,25 L79.2541015,17.7885742 L76.2350585,20.5966797 L76.2350585,25 L74.402539,25 Z M88.3560545,17.9204102 C88.3560545,16.9272411 88.531834,15.9956098 88.8833983,15.1254883 C89.2349625,14.2553667 89.7205534,13.4929232 90.3401854,12.8381348 C90.9598174,12.1833463 91.7024857,11.6625996 92.5682127,11.2758789 C93.4339397,10.8891582 94.3677683,10.6958008 95.3697264,10.6958008 C96.3980519,10.6958008 97.3406694,10.8891582 98.1976073,11.2758789 C99.0545451,11.6625996 99.7884245,12.1877408 100.399267,12.8513184 C101.01011,13.5148959 101.486912,14.2795367 101.829687,15.1452637 C102.172462,16.0109907 102.343847,16.9272413 102.343847,17.894043 L102.343847,18.3291016 C102.343847,18.4785164 102.335059,18.5795896 102.31748,18.6323242 L90.2676756,18.6323242 C90.3204103,19.3881874 90.4961898,20.0847136 90.7950194,20.7219238 C91.093849,21.359134 91.4783666,21.9128394 91.9485838,22.3830566 C92.418801,22.8532738 92.9549285,23.2180163 93.5569823,23.4772949 C94.1590361,23.7365736 94.8028284,23.8662109 95.4883787,23.8662109 C95.9366232,23.8662109 96.3848609,23.8024909 96.8331053,23.6750488 C97.2813497,23.5476068 97.6944315,23.3762218 98.0723631,23.1608887 C98.4502947,22.9455556 98.7930647,22.6796891 99.1006834,22.3632812 C99.4083022,22.0468734 99.64121,21.6997089 99.7994139,21.3217773 L101.394629,21.7568359 C101.174901,22.2753932 100.867287,22.7478006 100.471777,23.1740723 C100.076267,23.6003439 99.6192407,23.9716781 99.1006834,24.2880859 C98.5821262,24.6044938 98.0064483,24.8461906 97.3736327,25.0131836 C96.740817,25.1801766 96.0816439,25.2636719 95.3960936,25.2636719 C94.3677681,25.2636719 93.4273479,25.0703144 92.5748045,24.6835938 C91.7222612,24.2968731 90.9817901,23.7673373 90.353369,23.0949707 C89.7249479,22.4226041 89.2349625,21.6447798 88.8833983,20.7614746 C88.531834,19.8781694 88.3560545,18.9311574 88.3560545,17.9204102 Z M90.2413084,17.2216797 L100.59043,17.2216797 C100.537695,16.4658165 100.361915,15.7780793 100.063086,15.1584473 C99.7642562,14.5388153 99.384133,14.0026878 98.9227049,13.5500488 C98.4612768,13.0974098 97.9295439,12.7458509 97.3274901,12.4953613 C96.7254363,12.2448718 96.0816439,12.1196289 95.3960936,12.1196289 C94.7105433,12.1196289 94.0623564,12.2448718 93.4515135,12.4953613 C92.8406706,12.7458509 92.3067404,13.0974098 91.8497069,13.5500488 C91.3926733,14.0026878 91.0235364,14.5432097 90.742285,15.1716309 C90.4610336,15.800052 90.2940431,16.4833947 90.2413084,17.2216797 Z M106.52832,25 L106.52832,10.9331055 L108.255371,10.9331055 L108.255371,14.3081055 C108.773928,13.2270454 109.474849,12.3811066 110.358154,11.7702637 C111.241459,11.1594208 112.184077,10.8540039 113.186035,10.8540039 C113.326661,10.8540039 113.445312,10.8627929 113.541992,10.8803711 L113.541992,12.5546875 C112.302728,12.5898439 111.223881,12.9304167 110.30542,13.576416 C109.386958,14.2224153 108.738771,15.112299 108.36084,16.2460938 L108.36084,25 L106.52832,25 Z M116.091699,23.1674805 L116.935449,21.9282227 C117.726468,22.5786165 118.53066,23.0642074 119.348046,23.3850098 C120.165433,23.7058122 121.044331,23.8662109 121.984765,23.8662109 C123.11856,23.8662109 124.021627,23.6376976 124.693994,23.1806641 C125.36636,22.7236305 125.702539,22.0688519 125.702539,21.2163086 C125.702539,20.8207988 125.614649,20.4934095 125.438867,20.2341309 C125.263085,19.9748522 124.999415,19.7463389 124.647851,19.548584 C124.296287,19.3508291 123.854641,19.1750496 123.3229,19.0212402 C122.791159,18.8674309 122.173734,18.7114266 121.470605,18.5532227 C120.662007,18.3510732 119.961087,18.151124 119.367822,17.9533691 C118.774557,17.7556142 118.284572,17.5314954 117.897851,17.2810059 C117.511131,17.0305163 117.223292,16.720705 117.034326,16.3515625 C116.84536,15.98242 116.750879,15.5166044 116.750879,14.9541016 C116.750879,14.250973 116.889305,13.6291531 117.166162,13.088623 C117.443019,12.548093 117.820944,12.1042498 118.299951,11.7570801 C118.778957,11.4099104 119.337057,11.1462411 119.974267,10.9660645 C120.611477,10.7858878 121.290426,10.6958008 122.011132,10.6958008 C123.092193,10.6958008 124.072163,10.869383 124.951074,11.2165527 C125.829984,11.5637224 126.541891,12.0273408 127.086816,12.6074219 L126.190332,13.6884766 C125.671774,13.1523411 125.038968,12.7480482 124.291894,12.4755859 C123.54482,12.2031236 122.766996,12.0668945 121.958398,12.0668945 C121.474997,12.0668945 121.024562,12.1174311 120.60708,12.2185059 C120.189597,12.3195806 119.824855,12.4777821 119.512841,12.6931152 C119.200828,12.9084483 118.954737,13.1809066 118.77456,13.510498 C118.594383,13.8400895 118.504296,14.2333962 118.504296,14.6904297 C118.504296,15.0683613 118.565819,15.3737781 118.688867,15.6066895 C118.811914,15.8396008 119.018455,16.0417472 119.308496,16.2131348 C119.598536,16.3845223 119.963279,16.5383294 120.402734,16.6745605 C120.842189,16.8107917 121.378317,16.949218 122.011132,17.0898438 C122.907621,17.3095714 123.698629,17.5270985 124.384179,17.7424316 C125.06973,17.9577647 125.641013,18.2082505 126.098046,18.4938965 C126.55508,18.7795424 126.902245,19.1289042 127.13955,19.5419922 C127.376856,19.9550802 127.495507,20.4604462 127.495507,21.0581055 C127.495507,22.3501041 126.99893,23.3740197 126.005761,24.1298828 C125.012592,24.885746 123.681063,25.2636719 122.011132,25.2636719 C120.912494,25.2636719 119.840239,25.0856951 118.794336,24.7297363 C117.748432,24.3737775 116.847562,23.8530308 116.091699,23.1674805 Z" id="Attackers"></path>
                </g>
            </g>
            <g id="Group-7" transform="translate(384.000000, 191.000000)" stroke="#236EA0" stroke-linecap="round" stroke-linejoin="round" stroke-width="5">
                <path d="M1,0 L1,15.171875" id="Path-23-Copy"></path>
                <path d="M1,27 L1,42.171875" id="Path-23-Copy-2"></path>
                <path d="M1,54 L1,69.171875" id="Path-23-Copy-3"></path>
                <path d="M1,81 L1,96.171875" id="Path-23-Copy-4"></path>
            </g>
            <g id="Group-7-Copy" transform="translate(385.000000, 568.000000)" stroke="#2ECC71" stroke-linecap="round" stroke-linejoin="round" stroke-width="5">
                <path d="M1,0 L1,15.171875" id="Path-23"></path>
                <path d="M1,27 L1,42.171875" id="Path-23-Copy"></path>
            </g>
            <path d="M730,268 L730,283.171875" id="Path-23-Copy" stroke="#236EA0" stroke-width="5" stroke-linecap="round" stroke-linejoin="round"></path>
            <path d="M65,271 L65,286.171875" id="Path-23-Copy-8" stroke="#2ECC71" stroke-width="5" stroke-linecap="round" stroke-linejoin="round"></path>
            <path d="M730,295 L730,310.171875" id="Path-23-Copy-2" stroke="#236EA0" stroke-width="5" stroke-linecap="round" stroke-linejoin="round"></path>
            <path d="M65,298 L65,313.171875" id="Path-23-Copy-9" stroke="#2ECC71" stroke-width="5" stroke-linecap="round" stroke-linejoin="round"></path>
            <path d="M730,322 L730,337.171875" id="Path-23-Copy-3" stroke="#236EA0" stroke-width="5" stroke-linecap="round" stroke-linejoin="round"></path>
            <path d="M65,325 L65,340.171875" id="Path-23-Copy-10" stroke="#2ECC71" stroke-width="5" stroke-linecap="round" stroke-linejoin="round"></path>
            <path d="M730,349 L730,364.171875" id="Path-23-Copy-4" stroke="#236EA0" stroke-width="5" stroke-linecap="round" stroke-linejoin="round"></path>
            <path d="M65,352 L65,367.171875" id="Path-23-Copy-11" stroke="#2ECC71" stroke-width="5" stroke-linecap="round" stroke-linejoin="round"></path>
            <g id="Group-7-Copy-6" transform="translate(729.000000, 375.000000)" stroke="#236EA0" stroke-linecap="round" stroke-linejoin="round" stroke-width="5">
                <path d="M1,0 L1,15.171875" id="Path-23"></path>
                <path d="M1,27 L1,42.171875" id="Path-23-Copy"></path>
                <path d="M1,54 L1,69.171875" id="Path-23-Copy-2"></path>
            </g>
            <g id="Group-7-Copy-9" transform="translate(64.000000, 378.000000)" stroke="#2ECC71" stroke-linecap="round" stroke-linejoin="round" stroke-width="5">
                <path d="M1,0 L1,15.171875" id="Path-23"></path>
                <path d="M1,27 L1,42.171875" id="Path-23-Copy"></path>
                <path d="M1,54 L1,69.171875" id="Path-23-Copy-2"></path>
            </g>
            <g id="Group-7-Copy-7" transform="translate(655.000000, 446.000000) rotate(-270.000000) translate(-655.000000, -446.000000) translate(654.000000, 384.000000)" stroke="#236EA0" stroke-linecap="round" stroke-linejoin="round" stroke-width="5">
                <path d="M1,0 L1,15.171875" id="Path-23"></path>
                <path d="M1,27 L1,42.171875" id="Path-23-Copy"></path>
                <path d="M1,54 L1,69.171875" id="Path-23-Copy-2"></path>
                <path d="M1,81 L1,96.171875" id="Path-23-Copy-3"></path>
                <path d="M1,108 L1,123.171875" id="Path-23-Copy-4"></path>
            </g>
            <g id="Group-7-Copy-10" transform="translate(222.000000, 448.000000) rotate(-270.000000) translate(-222.000000, -448.000000) translate(221.000000, 386.000000)" stroke="#2ECC71" stroke-linecap="round" stroke-linejoin="round" stroke-width="5">
                <path d="M1,27 L1,42.171875" id="Path-23-Copy"></path>
                <path d="M1,0 L1,15.171875" id="Path-23-Copy-5"></path>
                <path d="M1,54 L1,69.171875" id="Path-23-Copy-2"></path>
                <path d="M1,81 L1,96.171875" id="Path-23-Copy-3"></path>
                <path d="M1,108 L1,123.171875" id="Path-23-Copy-4"></path>
            </g>
            <g id="Group-7-Copy-8" transform="translate(561.000000, 446.500000) rotate(-270.000000) translate(-561.000000, -446.500000) translate(560.000000, 425.000000)" stroke="#236EA0" stroke-linecap="round" stroke-linejoin="round" stroke-width="5">
                <path d="M1,0 L1,15.171875" id="Path-23"></path>
                <path d="M1,27 L1,42.171875" id="Path-23-Copy"></path>
            </g>
            <g id="Group-7-Copy-11" transform="translate(114.000000, 448.000000) rotate(-270.000000) translate(-114.000000, -448.000000) translate(113.000000, 413.000000)" stroke="#2ECC71" stroke-linecap="round" stroke-linejoin="round" stroke-width="5">
                <path d="M1,0 L1,15.171875" id="Path-23"></path>
                <path d="M1,27 L1,42.171875" id="Path-23-Copy"></path>
                <path d="M1,54 L1,69.171875" id="Path-23-Copy-2"></path>
            </g>
            <path d="M372,315 L396.362571,339.362571" id="Path-39" stroke="#236EA0" stroke-width="5" stroke-linecap="round" stroke-linejoin="round"></path>
            <path d="M478,433 L502.362571,457.362571" id="Path-39-Copy-2" stroke="#236EA0" stroke-width="5" stroke-linecap="round" stroke-linejoin="round"></path>
            <path d="M372,315 L396.362571,339.362571" id="Path-39-Copy" stroke="#236EA0" stroke-width="5" stroke-linecap="round" stroke-linejoin="round" transform="translate(384.500000, 327.500000) scale(-1, 1) translate(-384.500000, -327.500000) "></path>
            <path d="M478,433 L502.362571,457.362571" id="Path-39-Copy-3" stroke="#236EA0" stroke-width="5" stroke-linecap="round" stroke-linejoin="round" transform="translate(490.500000, 445.500000) scale(-1, 1) translate(-490.500000, -445.500000) "></path>
            <g id="Group-11" transform="translate(327.000000, 367.000000)">
                <g id="Group-6" opacity="0.926630435" stroke="#236EA0" stroke-linecap="round" stroke-linejoin="round" stroke-width="5">
                    <g id="Group-4">
                        <path d="M0.676087869,18.6725302 C24.1604046,17.3163642 42.7586746,11.2988281 56.4708977,0.619921875 C58.0071391,0.619921875 75.7674946,18.6725302 116.009585,18.6725302 C115.516189,17.9408286 132.959346,105.366364 56.4708977,137.4 C56.4708977,137.4 18.0450454,120.988497 6.1378462,86.9740344 C1.87914181,74.8084917 0.0585556967,52.0413236 0.676087869,18.6725302 Z" id="Path-21"></path>
                    </g>
                </g>
                <ellipse id="Oval-17" stroke="#3378A7" stroke-width="6" cx="57.7959184" cy="54" rx="14.4489796" ry="14.4"></ellipse>
                <path d="M43.3469388,84 C43.3469388,91.9529004 49.8159673,98.4 57.7959184,98.4 C65.7758694,98.4 72.244898,91.9529004 72.244898,84" id="Oval-17-Copy" stroke="#3378A7" stroke-width="6" stroke-linecap="round" stroke-linejoin="round"></path>
            </g>
        </g>
    </g>
</svg>