<svg width="1293" height="231" viewBox="0 0 1293 231" xmlns="http://www.w3.org/2000/svg"><title>graphic 6</title><g stroke="#2473A7" fill="none" fill-rule="evenodd"><path d="M984.5 210.5H1124m-1088.5-22H100m732.5-152h60.094M151.5 92.5h84.094m801.906 21h86.5m-832.5 98H378" stroke-width="5" stroke-linecap="round" stroke-linejoin="round"/><g transform="translate(291 23)" stroke-width="5"><path d="M95 85.681V47.328C95 21.19 73.734 0 47.5 0S0 21.19 0 47.328v70.546a9.5 9.5 0 0 0 19 0v-10.912a9.5 9.5 0 0 1 19 0v7.538a9.5 9.5 0 0 0 19 0v-7.538a9.5 9.5 0 0 1 19 0v19.843a9.5 9.5 0 0 0 19 0V85.681z"/><ellipse cx="24.5" cy="48.48" rx="5.5" ry="5.48"/><ellipse cx="71.229" cy="48.199" rx="8.229" ry="8.199"/></g><g transform="translate(147 148)"><path d="M57 47.148V28.244C57 12.645 44.24 0 28.5 0S0 12.645 0 28.244v46.102a5.7 5.7 0 1 0 11.4 0V63.832a5.7 5.7 0 0 1 11.4 0V68.3a5.7 5.7 0 1 0 11.4 0v-4.468a5.7 5.7 0 0 1 11.4 0v3.812a5.7 5.7 0 0 0 11.4 0V47.148z" stroke-width="5"/><ellipse stroke-width="4" cx="15.324" cy="31.869" rx="3.924" ry="3.889"/><ellipse stroke-width="4" cx="41.449" cy="31.869" rx="3.924" ry="3.889"/></g><g transform="translate(948 3)"><path d="M57 47.148V28.244C57 12.645 44.24 0 28.5 0S0 12.645 0 28.244v46.102a5.7 5.7 0 1 0 11.4 0V63.832a5.7 5.7 0 0 1 11.4 0V68.3a5.7 5.7 0 1 0 11.4 0v-4.468a5.7 5.7 0 0 1 11.4 0v3.812a5.7 5.7 0 0 0 11.4 0V47.148z" stroke-width="5"/><ellipse stroke-width="4" cx="15.324" cy="31.869" rx="3.924" ry="3.889"/><ellipse stroke-width="4" cx="41.449" cy="31.869" rx="3.924" ry="3.889"/></g><g transform="translate(3 37)"><path d="M57 47.148V28.244C57 12.645 44.24 0 28.5 0S0 12.645 0 28.244v46.102a5.7 5.7 0 1 0 11.4 0V63.832a5.7 5.7 0 0 1 11.4 0V68.3a5.7 5.7 0 1 0 11.4 0v-4.468a5.7 5.7 0 0 1 11.4 0v3.812a5.7 5.7 0 0 0 11.4 0V47.148z" stroke-width="5"/><ellipse stroke-width="4" cx="15.324" cy="31.869" rx="3.924" ry="3.889"/><ellipse stroke-width="4" cx="41.449" cy="31.869" rx="3.924" ry="3.889"/></g><g transform="translate(868 147)"><path d="M57 47.148V28.244C57 12.645 44.24 0 28.5 0S0 12.645 0 28.244v46.102a5.7 5.7 0 1 0 11.4 0V63.832a5.7 5.7 0 0 1 11.4 0V68.3a5.7 5.7 0 1 0 11.4 0v-4.468a5.7 5.7 0 0 1 11.4 0v3.812a5.7 5.7 0 0 0 11.4 0V47.148z" stroke-width="5"/><ellipse stroke-width="4" cx="15.324" cy="31.869" rx="3.924" ry="3.889"/><ellipse stroke-width="4" cx="41.449" cy="31.869" rx="3.924" ry="3.889"/></g><g stroke-width="6"><g transform="translate(1170 36)"><path d="M120 108.47V59.923C120 26.829 93.137 0 60 0S0 26.829 0 59.924v76.687c0 6.627 5.373 12 12 12s12-5.373 12-12v-1.184c.008-6.62 5.378-11.984 12-11.984s11.992 5.364 12 11.984V145c0 6.627 5.373 12 12 12s12-5.373 12-12v-9.573c.008-6.62 5.378-11.984 12-11.984s11.992 5.364 12 11.984v25.153c0 6.628 5.373 12 12 12s12-5.372 12-12v-52.11z"/><ellipse cx="32" cy="64.989" rx="9" ry="8.989"/><ellipse cx="90" cy="63.985" rx="12" ry="11.985"/></g><path d="M1247 137c-1.68-10-6.68-15-15-15s-13.32 5-15 15h30z" stroke-linecap="round" stroke-linejoin="round"/><path d="M1243 137v10.354M1233 138v7.5" stroke-linecap="round"/></g></g></svg>