<svg width="108" height="102" viewBox="0 0 108 102" xmlns="http://www.w3.org/2000/svg"><title>4</title><g stroke="#3378A7" stroke-width="3.4" fill="none" fill-rule="evenodd"><g transform="translate(45.475 66.765)"><ellipse cx="8.098" cy="8.096" rx="8.098" ry="8.096"/><path d="M0 24.713c0 4.706 3.626 8.522 8.098 8.522 4.473 0 8.099-3.816 8.099-8.522" stroke-linecap="round" stroke-linejoin="round"/></g><path d="M37.836 5.691C44.141 5.625 49.544 4.395 54.046 2c0 0 5.698 3.691 16.15 3.691v6.913c0 5.376-.54 9.739-4.33 15.893-2.527 4.104-6.477 7.486-11.85 10.146-4.455-2.079-8.373-5.46-11.754-10.146-3.183-4.411-4.225-9.114-4.426-15.893-.044-1.47-.044-3.775 0-6.913zM2.025 36.363c4.812-.05 8.935-.995 12.37-2.833 0 0 4.35 2.833 12.326 2.833v5.306c0 4.125-.412 7.473-3.305 12.197-1.928 3.149-4.943 5.744-9.043 7.786-3.4-1.595-6.39-4.191-8.97-7.786-2.43-3.386-3.225-6.995-3.378-12.197-.033-1.13-.033-2.898 0-5.306zm79.279 0c4.811-.05 8.935-.995 12.37-2.833 0 0 4.35 2.833 12.326 2.833v5.306c0 4.125-.412 7.473-3.305 12.197-1.929 3.149-4.943 5.744-9.043 7.786-3.4-1.595-6.39-4.191-8.97-7.786-2.43-3.386-3.225-6.995-3.378-12.197-.034-1.13-.034-2.898 0-5.306z" stroke-linecap="round" stroke-linejoin="round"/><path d="M54 68.47V38.643M25.869 52.278l23.016 17.044m34.099-17.044L59.967 69.322"/></g></svg>