<svg width="224" height="186" viewBox="0 0 224 186" xmlns="http://www.w3.org/2000/svg"><title>graphic 2</title><g transform="translate(3 3)" fill="none" fill-rule="evenodd"><rect fill="#D1E0EA" x="79" y="34" width="128" height="118" rx="6.3"/><circle stroke="#3378A7" stroke-width="4.5" cx="3.5" cy="83.5" r="3.5"/><circle stroke="#3378A7" stroke-width="4.5" cx="214.5" cy="167.5" r="3.5"/><g transform="translate(200 40)" fill="#236EA0"><circle cx="2.5" cy="2.5" r="2.5"/><circle cx="10.5" cy="2.5" r="2.5"/></g><circle stroke="#3378A7" stroke-width="4.5" cx="147" cy="5" r="5"/><path stroke="#3378A7" stroke-width="5" stroke-linecap="round" stroke-linejoin="round" d="M53 51h48v48H53zm0 81h48v48H53zm82-81h48v48h-48zm0 81h48v48h-48z"/><g transform="translate(107 74)" fill="#236EA0"><circle cx="10.5" cy="2.5" r="2.5"/><circle cx="18.5" cy="2.5" r="2.5"/><circle cx="2.5" cy="2.5" r="2.5"/></g><g transform="rotate(90 6.5 72.5)"><circle fill="#236EA0" cx="49.5" cy="2.5" r="2.5"/><circle fill="#236EA0" cx="57.5" cy="2.5" r="2.5"/><circle fill="#D1E0EA" cx="2.5" cy="34.5" r="2.5"/><circle fill="#D1E0EA" cx="6.5" cy="41.5" r="2.5"/><circle fill="#D1E0EA" cx="11.5" cy="48.5" r="2.5"/><circle fill="#D1E0EA" cx="18.5" cy="55.5" r="2.5"/><circle fill="#D1E0EA" cx="26.5" cy="60.5" r="2.5"/><circle fill="#D1E0EA" cx="34.5" cy="63.5" r="2.5"/><circle fill="#D1E0EA" cx="43.5" cy="65.5" r="2.5"/><circle fill="#D1E0EA" cx="52.5" cy="65.5" r="2.5"/><circle fill="#D1E0EA" cx="60.5" cy="63.5" r="2.5"/><circle fill="#D1E0EA" cx="68.5" cy="60.5" r="2.5"/><circle fill="#D1E0EA" cx="76.5" cy="55.5" r="2.5"/><circle fill="#D1E0EA" cx="83.5" cy="48.5" r="2.5"/><circle fill="#D1E0EA" cx="88.5" cy="41.5" r="2.5"/><circle fill="#D1E0EA" cx="92.5" cy="34.5" r="2.5"/><circle fill="#236EA0" cx="41.5" cy="2.5" r="2.5"/></g><g transform="rotate(90 29 134)" fill="#236EA0"><circle cx="10.5" cy="2.5" r="2.5"/><circle cx="18.5" cy="2.5" r="2.5"/><circle cx="2.5" cy="2.5" r="2.5"/></g><g transform="translate(107 151)" fill="#236EA0"><circle cx="10.5" cy="2.5" r="2.5"/><circle cx="18.5" cy="2.5" r="2.5"/><circle cx="2.5" cy="2.5" r="2.5"/></g></g></svg>