<?xml version="1.0" encoding="UTF-8"?>
<svg width="104px" height="104px" viewBox="0 0 104 104" version="1.1" xmlns="http://www.w3.org/2000/svg" xmlns:xlink="http://www.w3.org/1999/xlink">
    <!-- Generator: Sketch 47.1 (45422) - http://www.bohemiancoding.com/sketch -->
    <title>2 copy</title>
    <desc>Created with Sketch.</desc>
    <defs></defs>
    <g id="Page-1" stroke="none" stroke-width="1" fill="none" fill-rule="evenodd">
        <g id="2-copy" transform="translate(2.000000, 2.000000)">
            <path d="M46.128,86.536 L42.456,86.536 L46.272,81.88 C48.408,79.288 47.976,75.832 45.48,73.744 C43.032,71.68 39.36,72.088 37.32,74.56 C36.696,75.304 36.816,76.456 37.584,77.104 C38.376,77.728 39.504,77.608 40.128,76.84 C40.896,75.928 42.264,75.784 43.152,76.528 C44.088,77.296 44.208,78.64 43.464,79.552 L37.128,87.328 C36.072,88.648 37.176,90.4 38.64,90.4 L46.128,90.4 C47.208,90.4 48.072,89.536 48.072,88.456 C48.072,87.4 47.208,86.536 46.128,86.536 Z M63.12,85.456 C63.12,86.44 62.328,87.232 61.344,87.232 L61.344,88.504 C61.344,89.56 60.48,90.4 59.448,90.4 C58.392,90.4 57.528,89.56 57.528,88.504 L57.528,87.232 L51.816,87.232 C50.952,87.208 50.4,86.632 50.208,86.056 C49.992,85.408 50.136,84.832 50.592,84.184 C50.736,83.992 57.432,74.08 57.696,73.696 C58.128,73.096 58.68,72.64 59.448,72.64 C60.48,72.64 61.344,73.48 61.344,74.536 L61.344,83.68 C62.328,83.68 63.12,84.472 63.12,85.456 Z M54.96,83.68 L57.528,83.68 L57.528,79.888 L54.96,83.68 Z" id="24" fill="#3378A7"></path>
            <path d="M50.6279462,60.8908829 C49.4899503,61.6862447 48.7456164,63.0061271 48.7456164,64.499858 C48.7456164,66.9299109 50.7155635,68.899858 53.1456164,68.899858 C54.806158,68.899858 56.2518544,67.979996 57.0009425,66.6220351 L57.001964,66.6229537 L68.9659694,47.29739 C69.1489593,47.0018049 69.1201087,46.6218742 68.894583,46.3573103 C68.6079573,46.0210701 68.1030247,45.9808495 67.7667844,46.2674752 L67.7667844,46.2674752 L50.6202257,60.8839401 L50.6279462,60.8908829 Z" id="Combined-Shape" fill="#3378A7" transform="translate(58.915694, 57.488067) rotate(87.000000) translate(-58.915694, -57.488067) "></path>
            <circle id="Oval-31" stroke="#3378A7" stroke-width="4" cx="50" cy="50" r="50"></circle>
            <path d="M76.8306008,72.41914 C81.8063403,66.45302 84.8,58.7761133 84.8,50.4 C84.8,31.4014046 69.3985954,16 50.4,16 C31.4014046,16 16,31.4014046 16,50.4 C16,58.8419589 19.0409117,66.5736749 24.0871107,72.5595234" id="Oval-31-Copy" stroke="#3378A7" stroke-width="4" stroke-linecap="round"></path>
            <path d="M51,16.8 L51,27.84375" id="Path-69" stroke="#3378A7" stroke-width="4" stroke-linecap="round"></path>
            <path d="M17.4140625,48.1617188 L28.4578125,48.1617188" id="Path-69-Copy" stroke="#3378A7" stroke-width="3.2" stroke-linecap="round"></path>
            <path d="M17.4140625,48 L28.4578125,48" id="Path-69-Copy-2" stroke="#3378A7" stroke-width="4" stroke-linecap="round"></path>
            <path d="M73.4140625,48 L84.4578125,48" id="Path-69-Copy-2" stroke="#3378A7" stroke-width="4" stroke-linecap="round"></path>
        </g>
    </g>
</svg>