<?xml version="1.0" encoding="UTF-8"?>
<svg width="112px" height="99px" viewBox="0 0 112 99" version="1.1" xmlns="http://www.w3.org/2000/svg" xmlns:xlink="http://www.w3.org/1999/xlink">
    <!-- Generator: Sketch 47.1 (45422) - http://www.bohemiancoding.com/sketch -->
    <title>1 copy</title>
    <desc>Created with Sketch.</desc>
    <defs></defs>
    <g id="Page-1" stroke="none" stroke-width="1" fill="none" fill-rule="evenodd">
        <g id="1-copy" transform="translate(2.000000, 2.000000)">
            <g id="Group-46">
                <g id="Group-17" transform="translate(29.040000, 24.640000)" stroke="#3378A7" stroke-width="4">
                    <ellipse id="Oval-17-Copy-8" cx="10.0843913" cy="10.0946441" rx="10.0843913" ry="10.0946441"></ellipse>
                    <path d="M0,30.8447458 C0,36.4198637 4.51493576,40.9393898 10.0843913,40.9393898 L10.0843913,40.9393898 C15.6538468,40.9393898 20.1687825,36.4198637 20.1687825,30.8447458" id="Oval-17-Copy-9" stroke-linecap="round" stroke-linejoin="round"></path>
                </g>
                <path d="M60.5990688,77.9522328 C56.9266917,81.6216647 50.0871315,86.4375871 40.0803883,92.4 C29.0661551,87.157133 19.3805297,78.6289993 11.023512,66.8155989 C3.15368199,55.6908822 0.577143844,43.8332191 0.0807765466,26.7401072 C-0.0269255155,23.031234 -0.0269255155,17.2204134 0.0807765466,9.30764562 L0.0807765466,9.30764562 C15.6679071,9.14177756 29.0247864,6.03922902 40.1514145,0 C40.1514145,0 54.2403267,9.30764562 80.08,9.30764562 C80.08,9.30764562 80.08,16.6338877 80.08,26.7401072 C80.08,33.5255315 79.7455296,39.6707548 78.2359673,46.0631561" id="Path-40" stroke="#3378A7" stroke-width="4" stroke-linecap="round" stroke-linejoin="round"></path>
                <path d="M98.8162798,52.1508792 C94.6943993,48.7102945 89.3889713,46.64 83.6,46.64 C70.4777143,46.64 59.84,57.2777143 59.84,70.4 C59.84,83.5222857 70.4777143,94.16 83.6,94.16 L83.6,94.16 C96.7222857,94.16 107.36,83.5222857 107.36,70.4" id="Oval-19" stroke="#3378A7" stroke-width="4" stroke-linecap="round" stroke-linejoin="round"></path>
                <path d="M80.3514974,75.8562193 L77.5159791,75.8562193 L80.4626942,72.2608562 C82.1121133,70.2593138 81.778523,67.5905907 79.8511118,65.9782371 C77.9607663,64.3844164 75.1252479,64.699474 73.54996,66.6083523 C73.0681072,67.1828691 73.1607712,68.0724435 73.7538208,68.5728291 C74.3654031,69.0546818 75.2364447,68.9620179 75.7182975,68.3689683 C76.3113471,67.6647219 77.3677167,67.5535251 78.0534303,68.1280419 C78.7762094,68.7210915 78.8688734,69.7589282 78.2943566,70.4631746 L73.4016976,76.4678017 C72.5862544,77.4871056 73.4387632,78.84 74.5692639,78.84 L80.3514974,78.84 C81.1854734,78.84 81.8526542,78.1728192 81.8526542,77.3388432 C81.8526542,76.5234001 81.1854734,75.8562193 80.3514974,75.8562193 Z M93.4727195,75.0222433 C93.4727195,75.7820881 92.8611371,76.3936705 92.1012923,76.3936705 L92.1012923,77.3759088 C92.1012923,78.191352 91.4341115,78.84 90.6372011,78.84 C89.821758,78.84 89.1545772,78.191352 89.1545772,77.3759088 L89.1545772,76.3936705 L84.7437709,76.3936705 C84.0765901,76.3751377 83.6503357,75.9303505 83.5020733,75.4855633 C83.3352781,74.9851777 83.4464749,74.5403905 83.7985981,74.0400049 C83.9097949,73.8917425 89.080446,66.2376963 89.2843068,65.9411715 C89.6178972,65.4778515 90.0441515,65.1257283 90.6372011,65.1257283 C91.4341115,65.1257283 92.1012923,65.7743763 92.1012923,66.5898195 L92.1012923,73.6508161 C92.8611371,73.6508161 93.4727195,74.2623985 93.4727195,75.0222433 Z M87.1715676,73.6508161 L89.1545772,73.6508161 L89.1545772,70.7226338 L87.1715676,73.6508161 Z" id="24" fill="#2980B9"></path>
                <path d="M102.31099,60.6336242 L95.5936871,51.5749552 L95.5936871,51.5749552 C95.4917878,51.4375382 95.5205806,51.243534 95.6579977,51.1416347 C95.7113709,51.1020567 95.7760562,51.0806903 95.8425026,51.0806903 L109.277109,51.0806903 L109.277109,51.0806903 C109.448184,51.0806903 109.586869,51.2193745 109.586869,51.3904503 C109.586869,51.4568966 109.565502,51.521582 109.525924,51.5749552 L102.808621,60.6336242 L102.808621,60.6336242 C102.706722,60.7710413 102.512718,60.7998341 102.375301,60.6979348 C102.350816,60.6797789 102.329146,60.6581085 102.31099,60.6336242 Z" id="Triangle-Copy" fill="#3378A7" transform="translate(102.559796, 55.919795) rotate(-45.000000) translate(-102.559796, -55.919795) "></path>
            </g>
        </g>
    </g>
</svg>