<svg width="230" height="165" viewBox="0 0 230 165" xmlns="http://www.w3.org/2000/svg"><title>graphic 1</title><g transform="translate(2 3)" fill="none" fill-rule="evenodd"><rect fill="#D1E0EA" x="19" y="25" width="170" height="118" rx="6.3"/><path d="M66.377 123.93c-7.373.305-11.953-.38-13.742-2.058-7.455-6.992-2.27-16.707 5.025-17.184-5.858-10.343 9.02-18.558 16.518-11.253 2.688-11.752 20.511-12.907 29.298-6.804 5.858 4.07 8.017 10.093 6.477 18.07 6.645.75 9.993 3.831 10.046 9.244.078 8.119-3.185 9.984-17.632 9.984h-35.99z" stroke="#236EA0" stroke-width="5"/><circle fill="#236EA0" cx="225.5" cy="21.5" r="2.5"/><circle fill="#236EA0" cx="225.5" cy="59.5" r="2.5"/><circle fill="#236EA0" cx="225.5" cy="98.5" r="2.5"/><circle fill="#236EA0" cx="225.5" cy="28.5" r="2.5"/><circle fill="#236EA0" cx="225.5" cy="67.5" r="2.5"/><circle fill="#236EA0" cx="225.5" cy="105.5" r="2.5"/><circle fill="#236EA0" cx="225.5" cy="36.5" r="2.5"/><circle fill="#236EA0" cx="225.5" cy="75.5" r="2.5"/><circle fill="#236EA0" cx="225.5" cy="113.5" r="2.5"/><circle fill="#236EA0" cx="225.5" cy="44.5" r="2.5"/><circle fill="#236EA0" cx="225.5" cy="82.5" r="2.5"/><circle fill="#236EA0" cx="225.5" cy="51.5" r="2.5"/><circle fill="#236EA0" cx="225.5" cy="90.5" r="2.5"/><circle fill="#236EA0" cx="60.5" cy="13.5" r="2.5"/><circle fill="#236EA0" cx="225.5" cy="121.5" r="2.5"/><circle fill="#236EA0" cx="67.5" cy="13.5" r="2.5"/><circle fill="#236EA0" cx="107.5" cy="13.5" r="2.5"/><circle fill="#236EA0" cx="146.5" cy="13.5" r="2.5"/><circle fill="#236EA0" cx="201.5" cy="13.5" r="2.5"/><circle fill="#236EA0" cx="75.5" cy="13.5" r="2.5"/><circle fill="#236EA0" cx="115.5" cy="13.5" r="2.5"/><circle fill="#236EA0" cx="154.5" cy="13.5" r="2.5"/><circle fill="#236EA0" cx="209.5" cy="13.5" r="2.5"/><circle fill="#236EA0" cx="83.5" cy="13.5" r="2.5"/><circle fill="#236EA0" cx="122.5" cy="13.5" r="2.5"/><circle fill="#236EA0" cx="177.5" cy="13.5" r="2.5"/><circle fill="#236EA0" cx="217.5" cy="13.5" r="2.5"/><circle fill="#236EA0" cx="91.5" cy="13.5" r="2.5"/><circle fill="#236EA0" cx="130.5" cy="13.5" r="2.5"/><circle fill="#236EA0" cx="185.5" cy="13.5" r="2.5"/><circle fill="#236EA0" cx="225.5" cy="13.5" r="2.5"/><circle fill="#236EA0" cx="52.5" cy="21.5" r="2.5"/><circle fill="#236EA0" cx="52.5" cy="28.5" r="2.5"/><circle fill="#236EA0" cx="52.5" cy="36.5" r="2.5"/><circle fill="#236EA0" cx="52.5" cy="13.5" r="2.5"/><circle fill="#236EA0" cx="99.5" cy="13.5" r="2.5"/><circle fill="#236EA0" cx="138.5" cy="13.5" r="2.5"/><circle fill="#236EA0" cx="193.5" cy="13.5" r="2.5"/><circle fill="#236EA0" cx="201.5" cy="121.5" r="2.5"/><circle fill="#236EA0" cx="209.5" cy="121.5" r="2.5"/><circle fill="#236EA0" cx="177.5" cy="121.5" r="2.5"/><circle fill="#236EA0" cx="217.5" cy="121.5" r="2.5"/><circle fill="#236EA0" cx="185.5" cy="121.5" r="2.5"/><circle fill="#236EA0" cx="193.5" cy="121.5" r="2.5"/><circle stroke="#3378A7" stroke-width="4.5" cx="6" cy="5" r="5"/><circle stroke="#3378A7" stroke-width="4.5" cx="209.5" cy="155.5" r="3.5"/><circle stroke="#3378A7" stroke-width="4.5" cx="166.5" cy="13.5" r="3.5"/><g transform="translate(0 44)"><path d="M2.5 6.305v105.39a3.8 3.8 0 0 0 3.796 3.805h157.408a3.8 3.8 0 0 0 3.796-3.805V6.305a3.8 3.8 0 0 0-3.796-3.805H6.296A3.8 3.8 0 0 0 2.5 6.305z" stroke="#3378A7" stroke-width="5"/><circle fill="#3378A7" cx="2.5" cy="76.5" r="2.5"/><circle fill="#3378A7" cx="2.5" cy="90.5" r="2.5"/><circle fill="#3378A7" cx="2.5" cy="83.5" r="2.5"/></g></g></svg>