<?xml version="1.0" encoding="utf-8"?>
<!-- Generator: Adobe Illustrator 16.0.0, SVG Export Plug-In . SVG Version: 6.00 Build 0)  -->
<!DOCTYPE svg PUBLIC "-//W3C//DTD SVG 1.1//EN" "http://www.w3.org/Graphics/SVG/1.1/DTD/svg11.dtd">
<svg version="1.1" id="svg2268" xmlns:svg="http://www.w3.org/2000/svg"
	 xmlns="http://www.w3.org/2000/svg" xmlns:xlink="http://www.w3.org/1999/xlink" x="0px" y="0px" width="600px" height="600px"
	 viewBox="0 0 600 600" enable-background="new 0 0 600 600" xml:space="preserve">
<g id="layer1" transform="translate(-194.8708,-324.33481)">
	<path id="path19359" fill="#005A5F" d="M293.017,448.888c-5.035,0-9.272,1.77-11.41,5.231c-2.204,3.571-1.869,8.173,0.481,12.829
		l56.559,97.909c0.096,0.187,0.096,0.306,0,0.476l-88.878,156.844c-2.316,4.615-2.206,9.254,0,12.832
		c2.133,3.44,5.896,5.7,10.935,5.7h83.647c12.506,0,18.541-8.438,22.815-16.153c0,0,86.923-153.729,90.305-159.695
		c-0.34-0.552-57.507-100.285-57.507-100.285c-4.171-7.414-10.456-15.687-23.285-15.687H293.017L293.017,448.888z"/>
	<path id="path19375" fill="#D4D600" d="M644.44,334.344c-12.495,0-17.91,7.87-22.396,15.933c0,0-180.211,319.581-186.147,330.069
		c0.306,0.572,118.855,218.057,118.855,218.057c4.151,7.42,10.558,15.933,23.369,15.933h83.554c5.038,0,8.979-1.897,11.103-5.344
		c2.23-3.571,2.167-8.284-0.174-12.929L554.677,680.606c-0.112-0.176-0.112-0.379,0-0.549l185.204-327.471
		c2.327-4.619,2.376-9.334,0.175-12.906c-2.132-3.446-6.083-5.347-11.124-5.347H644.43v0.006h0.01V334.344L644.44,334.344z"/>
</g>
</svg>
