<?xml version="1.0" encoding="UTF-8"?>
<svg width="105px" height="91px" viewBox="0 0 105 91" version="1.1" xmlns="http://www.w3.org/2000/svg" xmlns:xlink="http://www.w3.org/1999/xlink">
    <!-- Generator: Sketch 47.1 (45422) - http://www.bohemiancoding.com/sketch -->
    <title>5</title>
    <desc>Created with Sketch.</desc>
    <defs></defs>
    <g id="Page-1" stroke="none" stroke-width="1" fill="none" fill-rule="evenodd">
        <g id="operating-system" transform="translate(-1044.000000, -2212.000000)" fill-rule="nonzero" fill="#2980B9">
            <g id="5" transform="translate(1044.000000, 2212.000000)">
                <path d="M59.9159926,0 C59.0304527,2.06879024 59.2782929,4.48251994 58.6330764,6.6326539 C58.484347,7.12788733 57.9972306,8.62398758 57.2845809,8.52039892 C55.8275881,8.30861898 56.5824756,5.49498145 54.9009967,5.43877544 L55.428902,9.55102041 C52.9023905,9.86998424 53.2471047,5.90560885 52.2215418,4.2951476 C51.0381412,2.43686405 50.7532009,5.13815793 50.8322605,5.96938724 C50.8828029,6.50212197 50.9898355,7.02989568 51.0533172,7.56122456 C51.163776,8.48588326 51.1898951,9.29041001 51.073786,10.2142852 C48.6595872,10.1856212 49.5457915,6.99166522 47.7744491,6.50000095 L47.9064112,10.34694 C45.2299807,10.3243879 44.0101634,7.89604101 42.8350675,5.83673429 C42.3443857,4.97715617 41.6917725,3.31619467 40.5158888,3.84693844 C41.0659618,6.2366965 42.3674803,8.52415411 42.5002459,11.0102048 C42.5345652,11.6529758 41.9310487,13.2846739 41.0441801,12.9844396 C38.9948891,12.2905591 39.2699335,8.55345563 37.5623164,7.5701252 C37.217077,7.37129174 36.671759,7.54490831 36.2927413,7.56122456 C36.2940068,9.54367126 37.161517,11.9401021 37.8509456,13.7959183 C37.9992922,14.1950722 38.4157928,15.598409 37.550709,15.5722759 C36.004514,15.525582 35.619536,12.5124732 34.049177,12.8673477 C34.241337,13.680113 34.7217211,14.3397962 34.9896347,15.1224498 C35.1532744,15.6006635 35.4564151,16.0839191 35.5443234,16.5815006 C35.7361987,17.6696601 34.3648711,17.7578601 33.6532717,17.5470819 C31.9720554,17.0488364 30.7646333,15.6673891 29.5620863,14.4591831 C29.2288593,14.1243682 28.3495075,12.9455204 27.7946953,13.4806029 C27.177591,14.0756837 28.3893694,15.1212547 28.7330175,15.5204086 C29.7601718,16.713888 30.8715234,18.1117839 31.3622084,19.6326555 C31.5730877,20.2860968 31.6144018,21.2146814 30.9689227,21.6630436 C30.3285845,22.1078209 29.2869185,21.3005089 28.7702379,20.9587808 C27.188012,19.91228 25.6151569,18.0835263 23.6232798,18.0408236 L23.1567429,19.2346931 L24.4269983,20.959185 L27.7144494,24.6734711 L23.887223,23.0816392 C24.0417577,24.0872823 26.4388064,25.3059652 25.966866,26.3423774 C25.6872027,26.9567029 24.3004207,26.9669137 23.7552451,26.8887827 C21.8040176,26.609279 20.4233004,25.1488961 18.6082838,24.6254436 C17.0055892,24.1632863 17.3038485,25.4128804 18.212483,26.1346465 C18.5277753,26.3850998 18.8315804,26.6477467 19.1361733,26.9113284 C19.684655,27.3856986 20.2079255,27.8733196 20.7198513,28.3877569 C21.5204061,29.1921695 22.221847,30.0522882 22.9634124,30.9081554 L19.1361733,30.7755139 L19.1361733,31.040816 L22.8314313,32.7653081 L22.171564,35.4183671 C21.1045509,35.4155052 20.239464,35.1234885 19.2681512,34.6988493 C18.6061705,34.409402 17.9093422,33.9285479 17.1565648,33.9817419 C16.2579591,34.0451466 15.7235967,34.8698568 16.3256611,35.640562 C17.2282278,36.7958424 19.0362716,37.4539207 20.1912974,38.3539858 C20.6320853,38.6975588 21.2707088,39.28468 20.7721084,39.8711302 C19.7874546,41.0294665 17.1337359,39.5433551 15.83683,39.9285789 L15.83683,40.193881 C17.0404305,40.899989 19.5083354,41.3028552 20.2166319,42.6047116 C20.7705329,43.6228318 19.1954221,45.9307182 18.0803817,45.8403921 C17.0868855,45.7597299 16.1737617,44.6325856 15.440909,44.0409489 C13.6869825,42.6248851 11.8104488,40.9590182 9.76604561,39.9818937 C6.26047044,38.306363 2.77877132,40.974937 0,42.7142794 C0.355410554,43.8415637 1.75828601,42.6417197 2.63947273,42.8425644 C3.82549276,43.11277 4.72651555,44.2218841 5.48687939,45.1020364 C9.16099792,49.3551694 12.2361683,54.1774983 13.6100394,59.6938769 C13.9716475,61.1460393 14.5890208,62.8836583 13.5092139,64.1849868 C13.2196642,64.5337272 12.787937,64.5793657 12.4685477,64.8673534 C12.2297935,65.0826446 12.2421602,65.38775 12.5696674,65.4884268 C13.1742627,65.6744022 14.0557151,65.3917217 14.6490668,65.2480586 C16.5861781,64.7788717 18.7975238,63.7285228 19.677135,61.8163317 C20.2242911,60.6268225 20.4168497,58.3125571 21.7756429,57.8367432 C22.0762812,59.1116623 23.5026467,60.7983546 23.3638132,62.0816338 C23.2404151,63.2215201 22.0461949,64.5422145 21.3477753,65.3860265 C21.1004603,65.6848928 20.5034071,66.3401981 20.8606779,66.7693337 C21.216215,67.1963451 21.9499852,66.2767934 22.171564,66.0664088 C23.1731053,65.115805 25.362296,63.6143154 25.9566886,65.7959202 C26.4735084,67.6930003 24.8130108,70.7600648 23.983556,72.4285678 C23.7527426,72.8927304 22.6896967,74.3436781 23.1047484,74.8612954 C23.5832786,75.4579755 24.5844341,73.903276 24.7977114,73.6224558 C25.6295262,72.5274002 28.542452,69.2821766 30.0899726,70.4484564 C31.9773355,71.8709024 31.3265762,72.887687 30.6112691,74.8163247 C30.4097574,75.3595469 29.6655534,76.7216281 30.1715347,77.2383137 C30.6611661,77.7381488 31.304127,77.2803683 31.5543652,76.8036068 C32.0072826,75.940429 33.2259293,73.3755878 34.4451012,74.0302254 C35.2081731,74.4399952 36.3750879,75.1346999 36.8189161,75.900241 C37.512701,77.0969019 36.9093205,79.4851867 36.7244179,80.7857075 C36.6179295,81.534538 35.8169729,83.8710852 36.4818579,84.41218 C37.096058,84.9120151 37.5926843,83.4090691 37.7771693,83.0408229 C38.42728,81.7430782 39.1751759,80.4141574 40.142939,79.3265365 C40.4902949,78.9361294 40.9813627,78.2818988 41.5716804,78.3929263 C44.6370245,78.9696968 41.5052976,82.0388886 42.7631419,83.6056591 C43.0177144,83.9226988 43.708073,83.8998891 44.0791879,83.9693898 L45.6628658,79.8571407 C46.468299,80.1690129 47.6530283,80.2771212 48.2470348,80.946749 C48.7461636,81.5094769 48.8442272,82.4600648 48.9884611,83.1734644 C49.3923071,85.1710973 49.6133638,87.1134087 49.358127,89.1428663 C49.6090107,89.3242022 50.0046533,89.7452385 50.341449,89.5294035 C50.7674627,89.256142 50.8218363,88.1413358 50.9673989,87.6836762 C51.433012,86.2201105 52.1433016,84.8207573 52.8032892,83.4387856 C53.2380092,82.5283699 54.4231403,81.5588232 55.2784547,82.812529 C56.1558102,84.0983235 55.8045061,86.3474638 56.3527252,87.8163368 C57.7544206,87.121896 57.9072406,84.1889326 57.9364031,82.7755209 L59.7543365,83.0420186 L60.8464247,85.2959193 L62.8194338,91 C63.8405044,90.6073446 63.5171701,88.6336122 63.6317226,87.6836762 C63.7870577,86.3958783 64.084254,83.8087521 65.0236424,82.8503289 C65.4024165,82.4639125 66.1555925,82.4311369 66.6466603,82.2448976 C67.2067683,83.6174694 67.5139997,85.1741373 68.1919442,86.4878039 C68.4562891,86.99985 69.0586192,87.5518233 69.6676626,87.2378269 C70.2506059,86.9372371 70.2286977,86.2532709 70.1538552,85.693882 C69.9700188,84.3193259 69.6589563,82.9677194 69.5500888,81.5816329 C72.1664637,81.3959182 73.7013108,83.5222208 75.3451676,85.2959193 C75.9803649,85.981345 76.5334623,86.8892105 77.4684975,87.1530721 L76.1119442,83.1734644 L75.3569174,79.459178 C76.3063409,79.0597748 78.3155073,77.1079045 79.3161218,77.3921844 C80.8065069,77.815612 81.9451703,81.9899462 83.7954488,81.0087133 C84.5846398,80.5903132 84.176583,79.8811651 83.8060154,79.3265365 C83.2540885,78.5006307 81.5945337,76.5171995 81.7742795,75.4801174 C81.9074311,74.7115363 83.1882467,73.8162538 83.9352157,73.8266045 C85.6462399,73.8502315 88.6209328,75.1593731 89.610079,76.5408169 L90.7978327,76.4081563 C90.6198016,74.0332813 87.0788125,72.950036 86.5723062,70.5715581 C86.5217637,70.334637 86.5303309,70.0486494 86.5882826,69.8133087 C86.964415,68.2887296 87.8767384,68.9545255 88.8182432,69.3641554 C89.1118899,69.4918966 89.753541,69.8194237 89.996506,69.4542207 C90.2644163,69.0516185 89.7896951,68.5206073 89.6156344,68.1836772 C89.2602175,67.4960032 88.9342447,66.7018014 89.0821864,65.9285808 C90.3152214,66.2527722 91.0761768,66.9899323 92.1175802,67.6862334 C92.363848,67.8508428 92.9071919,68.2632678 93.2179887,68.0333743 C93.5448726,67.7915497 93.0622486,67.3036489 92.9067901,67.1224498 C92.4417181,66.5804233 91.0175924,65.271536 91.1581406,64.481325 C91.2530216,63.9479257 92.1484732,63.3764625 92.5135044,63.0102006 C93.7201419,61.7992173 95.0942472,60.5652812 96.0767845,59.1632727 L96.2087656,59.1632727 C98.5399535,61.8964502 105.847063,59.9797404 104.919023,55.846933 C104.33781,55.9305113 103.798035,56.3897513 103.203364,56.1837392 C100.604019,55.2830254 101.232205,51.0975678 98.3203488,51.0714351 C98.1057586,48.3431451 97.0151257,45.6160699 95.6990797,43.2449027 C95.0956993,42.1576666 93.8414204,41.1630429 93.4032773,40.056053 C93.1604356,39.4422585 93.2017465,38.4692489 93.1733718,37.8061241 C94.7001768,37.5670755 93.9476683,36.0135876 93.39179,35.1530651 C92.77243,34.1941139 92.1171974,33.056355 91.3134757,32.2470389 C90.3260442,31.2529241 88.8554667,30.6049135 88.9821486,28.918501 C89.100004,27.3477588 91.7926735,27.5473888 92.2495612,26.1326606 C91.4511229,26.167139 90.6617927,26.3659979 89.8740348,26.4978476 C87.9131741,26.8261697 87.5716235,26.1631676 88.4872529,24.4081687 C89.2872825,22.8748203 90.5605654,21.7113347 91.6839294,20.4285802 C92.0435381,20.0181407 93.1522513,19.0828079 92.5810767,18.4882543 C92.1091364,17.996908 91.3298413,18.7469316 90.9298264,19.0135696 C89.4729697,19.9843122 87.8465287,20.7017027 86.1787736,21.2210429 C85.6821631,21.375722 84.2175111,21.9515601 84.0516316,21.066768 C83.8276706,19.8723537 86.0772838,19.6493673 85.7828494,18.306126 C84.8829212,18.5210283 83.1144799,19.9486388 82.2497821,19.2868327 C81.2093057,18.4903807 82.7373003,16.4572051 82.9006806,15.5205403 C83.0661742,14.5718063 82.3070726,14.5369182 81.77284,15.1302749 C81.5857008,15.3381429 81.4159742,15.5655103 81.2434826,15.7857145 C80.9451,16.1666941 80.6976426,16.5362653 80.5039103,16.979593 C78.342449,15.7111638 82.4319039,14.2373886 81.6622421,13.0633555 C81.3880012,12.6449538 80.88202,13.0637371 80.6358914,13.2802968 C80.1227793,13.7317148 78.1939821,15.9657253 77.7744381,14.3258678 C77.3102771,12.5121816 78.2472864,10.3335404 78.7326913,8.62244976 C78.8593922,8.17558126 79.4317563,6.96985689 78.8764032,6.64882293 C78.0659524,6.18027966 77.7106937,7.76094714 77.5207736,8.22448932 C76.9359986,9.6517185 75.9695642,10.8925681 74.8290469,11.9157476 C74.4533163,12.2527926 73.8160215,12.9069436 73.2531484,12.7511697 C72.4362312,12.5251029 72.4331878,10.2474758 72.4588006,9.55102041 C72.4710756,9.21942842 72.6565002,8.6473353 72.3342162,8.40708698 C71.9138876,8.09372016 71.6942798,8.72239039 71.631725,9.02101852 C71.4274166,9.99770289 70.8244411,12.7877959 69.3840701,10.9584167 C68.08084,9.3029733 70.0963369,5.86911463 67.4385246,5.17346954 L65.9868119,9.81632632 C64.2471313,9.43464397 64.6331596,6.93445212 65.0630013,5.57142839 L64.2711528,5.30612249 C64.1465684,5.8473203 63.9693408,6.37457759 63.7839131,6.89795981 C63.0807575,8.88211827 62.1407048,9.26853681 61.4149797,7.03061276 C60.8610945,5.32257103 61.0574653,3.47978172 60.7819116,1.72448995 C60.671978,1.02449852 60.6067847,0.3144356 59.9160243,2.37245467e-14 L59.9159926,0 Z" id="Shape"></path>
            </g>
        </g>
    </g>
</svg>