<?xml version="1.0" encoding="UTF-8"?>
<svg width="90px" height="91px" viewBox="0 0 90 91" version="1.1" xmlns="http://www.w3.org/2000/svg" xmlns:xlink="http://www.w3.org/1999/xlink">
    <!-- Generator: Sketch 47.1 (45422) - http://www.bohemiancoding.com/sketch -->
    <title>8</title>
    <desc>Created with Sketch.</desc>
    <defs></defs>
    <g id="Page-1" stroke="none" stroke-width="1" fill="none" fill-rule="evenodd">
        <g id="operating-system" transform="translate(-1052.000000, -2530.000000)">
            <g id="8" transform="translate(1053.000000, 2532.000000)">
                <g id="Group-6">
                    <rect id="rect4182" stroke="#FFFFFF" stroke-width="1.96153625" fill="#2980B9" fill-rule="nonzero" transform="translate(43.913246, 19.736955) rotate(-135.000000) translate(-43.913246, -19.736955) " x="30.1942455" y="5.86205696" width="27.4380014" height="27.7497969"></rect>
                    <rect id="rect4186" stroke="#FFFFFF" stroke-width="1.96153625" fill="#2980B9" fill-rule="nonzero" transform="translate(67.389444, 43.485456) rotate(-135.000000) translate(-67.389444, -43.485456) " x="53.6704434" y="29.6105575" width="27.4380014" height="27.7497969"></rect>
                    <rect id="rect4188" fill="#FCE94F" fill-rule="nonzero" x="13.5206602" y="12.6204375" width="26.4123466" height="26.5898901"></rect>
                    <rect id="rect4190" fill="#2980B9" fill-rule="nonzero" x="47.7607517" y="47.2996261" width="26.2195048" height="26.7137316"></rect>
                    <rect id="rect4180" stroke="#FFFFFF" stroke-width="1.96163275" fill="#2980B9" fill-rule="nonzero" transform="translate(20.186631, 43.425027) rotate(135.000000) translate(-20.186631, -43.425027) " x="6.40649624" y="29.4883" width="27.5602686" height="27.8734535"></rect>
                    <rect id="rect4192" fill="#2980B9" fill-rule="nonzero" x="47.8664713" y="12.8050159" width="26.3078841" height="26.5791495"></rect>
                    <rect id="rect4184" stroke="#FFFFFF" stroke-width="1.96163275" fill="#2980B9" fill-rule="nonzero" transform="translate(43.663280, 67.173839) rotate(135.000000) translate(-43.663280, -67.173839) " x="29.8831452" y="53.2371123" width="27.5602686" height="27.8734535"></rect>
                    <rect id="rect4168" stroke="#FFFFFF" stroke-width="1.96151803" fill="#2980B9" fill-rule="nonzero" x="12.5423501" y="11.681233" width="27.3907193" height="27.5408604"></rect>
                    <rect id="rect4170" stroke="#FFFFFF" stroke-width="1.96151779" x="47.7607517" y="47.2996261" width="27.2228191" height="27.7031361"></rect>
                    <rect id="rect4172" stroke="#FFFFFF" stroke-width="1.96151803" x="47.8593745" y="11.8431716" width="27.2932167" height="27.5408604"></rect>
                    <rect id="rect4174" stroke="#FFFFFF" stroke-width="1.96151803" fill="#2980B9" fill-rule="nonzero" x="12.544618" y="47.3006148" width="27.389599" height="27.700796"></rect>
                    <rect id="rect4208" stroke="#FFFFFF" stroke-width="1.96163275" transform="translate(20.186631, 43.425027) rotate(135.000000) translate(-20.186631, -43.425027) " x="6.40649624" y="29.4883" width="27.5602686" height="27.8734535"></rect>
                    <rect id="rect4210" stroke="#FFFFFF" stroke-width="1.96153625" transform="translate(43.912902, 19.736605) rotate(-135.000000) translate(-43.912902, -19.736605) " x="30.1939009" y="5.86170636" width="27.4380014" height="27.7497969"></rect>
                    <rect id="rect4212" stroke="#FFFFFF" stroke-width="1.96163275" transform="translate(43.663280, 67.173839) rotate(135.000000) translate(-43.663280, -67.173839) " x="29.8831452" y="53.2371123" width="27.5602686" height="27.8734535"></rect>
                    <rect id="rect4214" stroke="#FFFFFF" stroke-width="1.96153625" transform="translate(67.389306, 43.485316) rotate(-135.000000) translate(-67.389306, -43.485316) " x="53.6703056" y="29.6104172" width="27.4380014" height="27.7497969"></rect>
                </g>
            </g>
        </g>
    </g>
</svg>