<?xml version="1.0" encoding="UTF-8"?>
<svg width="78px" height="78px" viewBox="0 0 78 78" version="1.1" xmlns="http://www.w3.org/2000/svg" xmlns:xlink="http://www.w3.org/1999/xlink">
    <!-- Generator: Sketch 47.1 (45422) - http://www.bohemiancoding.com/sketch -->
    <title>6</title>
    <desc>Created with Sketch.</desc>
    <defs></defs>
    <g id="Page-1" stroke="none" stroke-width="1" fill="none" fill-rule="evenodd">
        <g id="operating-system" transform="translate(-306.000000, -2542.000000)" fill-rule="nonzero">
            <g id="6" transform="translate(306.000000, 2542.000000)">
                <g id="coreos-seeklogo.com">
                    <g id="Group">
                        <g id="Group-35">
                            <path d="M38.8694684,0.190636522 C17.5711788,0.190636522 0.247587676,17.6308035 0.247587676,39.0678261 C0.247587676,60.5062957 17.5711788,77.9453776 38.8694684,77.9453776 C60.16129,77.9453776 77.4863183,60.5062957 77.4863183,39.0678261 C77.4863183,17.6308035 60.16129,0.190636522 38.8694684,0.190636522 L38.8694684,0.190636522 Z" id="Shape" fill="#2980B9"></path>
                            <path d="M38.8694684,3.75810782 C32.6589346,3.75810782 27.3916775,13.7583861 25.489313,27.6578504 C25.4285839,28.10496 25.3696516,28.5574957 25.3175468,29.0129252 C25.0577414,31.2003618 24.8816631,33.4749774 24.7936239,35.8165148 C24.7515807,36.8879861 24.7307388,37.971033 24.7307388,39.0678261 C24.7307388,40.1635339 24.7515807,41.2487513 24.7936239,42.3180522 C24.8816631,44.6592278 25.0577414,46.9352904 25.3175468,49.122727 C28.2296666,49.5021913 31.3433781,49.7597496 34.5911247,49.8820174 C35.9950798,49.9348313 37.4198768,49.9663026 38.8698278,49.9663026 C40.3154667,49.9663026 41.7445759,49.9344696 43.1442188,49.8820174 C46.3959182,49.7597496 49.5074737,49.5021913 52.4221088,49.122727 C52.7426433,49.0814887 53.0581466,49.0362713 53.3776031,48.989607 C65.5068841,47.2749635 73.9446286,43.4795965 73.9446286,39.0678261 C73.9442696,19.5657461 58.2391613,3.75810782 38.8694684,3.75810782 L38.8694684,3.75810782 Z" id="Shape" fill="#FAFAFA"></path>
                            <path d="M53.3772441,29.14496 C53.0254465,28.6283965 52.6481357,28.1335374 52.2460308,27.6582122 C49.0277501,23.8393322 44.2337483,21.4127861 38.8698278,21.4127861 C37.1309646,21.4127861 35.5825534,24.0921878 34.5911247,28.2529113 C34.1972842,29.911847 33.8914829,31.8048278 33.6945626,33.8591443 C33.5393263,35.5054191 33.4555992,37.2562365 33.4555992,39.0678261 C33.4555992,40.8794157 33.5393263,42.6305948 33.6945626,44.2754226 C35.331013,44.4316939 37.0677201,44.5156174 38.8698278,44.5156174 C40.6697794,44.5156174 42.4064866,44.4316939 44.0429369,44.2754226 C47.6403248,43.9317704 50.7457714,43.2354226 52.9456722,42.3180522 C55.118263,41.4133426 56.4039943,40.286887 56.4039943,39.0678261 C56.4036348,35.3896626 55.2878732,31.9733982 53.3772441,29.14496 L53.3772441,29.14496 Z" id="Shape" fill="#2980B9"></path>
                        </g>
                    </g>
                </g>
            </g>
        </g>
    </g>
</svg>