<?xml version="1.0" encoding="UTF-8"?>
<svg width="73px" height="91px" viewBox="0 0 73 91" version="1.1" xmlns="http://www.w3.org/2000/svg" xmlns:xlink="http://www.w3.org/1999/xlink">
    <!-- Generator: Sketch 47.1 (45422) - http://www.bohemiancoding.com/sketch -->
    <title>10</title>
    <desc>Created with Sketch.</desc>
    <defs></defs>
    <g id="Page-1" stroke="none" stroke-width="1" fill="none" fill-rule="evenodd">
        <g id="operating-system" transform="translate(-684.000000, -2835.000000)" fill-rule="nonzero" fill="#FAFAFA">
            <g id="10" transform="translate(684.000000, 2835.000000)">
                <path d="M64.5171268,38.9486017 C64.6084605,41.4041056 63.8016793,42.5973016 63.0720244,44.7072462 L61.7598632,45.3607599 C60.6871994,47.4483448 61.8664192,46.6860816 61.0982011,48.3457827 C59.4217199,49.8367696 56.0180165,53.0098173 54.9281008,53.3004937 C54.1314677,53.2832157 55.4669697,52.3593527 55.6415186,51.9985481 C53.3997831,53.5393361 53.8422443,54.3117629 50.4131704,55.2498548 L50.3137181,55.0252412 C41.8602747,59.009337 30.1167876,51.1153391 30.2710401,40.3460843 C30.181736,41.0290721 30.0142909,40.8583251 29.8275642,41.1327399 C29.3911919,35.5926108 32.3828787,30.0280893 37.4285595,27.7524794 C42.363625,25.307139 48.1491089,26.3092611 51.6816943,29.6113854 C49.7413601,27.0644098 45.875914,24.3639653 41.2980649,24.6139877 C36.8115495,24.6871649 32.6132427,27.5420948 31.2127923,30.6429816 C28.9152417,32.0912817 28.6473295,36.2288465 27.6467178,36.9870443 C26.2980232,46.9066297 30.1807212,51.1905491 36.7496455,56.2326662 C37.7807018,56.929883 37.0398838,57.0365998 37.1778992,57.567135 C34.996038,56.5446859 32.998874,54.9998325 31.354867,53.1084033 C32.2276114,54.3859565 33.1683488,55.6279374 34.3851169,56.6036343 C32.3260489,55.9074339 29.5769038,51.610302 28.7762115,51.4354896 C32.3230044,57.795814 43.1643173,62.5899415 48.84426,60.2106639 C46.2158784,60.3082336 42.8781383,60.2645305 39.9270442,59.1719532 C38.6838908,58.5326684 37.0003058,57.2103958 37.3017071,56.9634225 C45.0508661,59.8610391 53.0537298,59.1567079 59.757625,53.7751296 C61.4645508,52.4437098 63.3277588,50.1802962 63.8666277,50.1498057 C63.0557872,51.3714595 64.005658,50.7372565 63.382559,51.8156049 C65.0793366,49.0704409 62.6427559,50.6976188 65.1381961,47.075344 L66.0596519,48.3457827 C65.7146134,46.0650911 68.8859232,43.2985838 68.5632107,39.6946033 C69.290836,38.5928788 69.3740512,40.8817012 68.6027887,43.4164805 C69.6734229,40.6042374 68.8859232,40.1519612 69.1599244,37.8306156 C69.4552367,38.6111732 69.8479718,39.4394992 70.0478911,40.2637598 C69.3496956,37.545021 70.761309,35.6871314 71.1124364,34.1067057 C70.7653683,33.954253 70.0357133,35.3080325 69.8672533,32.0983962 C69.8926238,30.7039627 70.255929,31.3676398 70.3949593,31.0241132 C70.1229877,30.8665788 69.4055106,29.7973776 68.9701532,27.7473977 C69.2837323,27.264631 69.8144827,28.996493 70.244766,29.0666212 C69.9677204,27.4374107 69.4917702,26.1944134 69.4714739,24.9432854 C68.2130981,22.3109364 69.0259682,25.2949428 68.0070898,23.8131031 C66.6675286,19.6318352 69.117302,22.8424879 69.2837323,20.9439443 C71.311341,23.8862804 72.46722,28.4496962 73,30.3390927 C72.5940723,28.035025 71.939514,25.8021019 71.1388217,23.6423561 C71.7568466,23.9035583 70.1453138,18.9031116 71.9415436,22.214383 C70.0245503,15.1558256 63.7438346,8.55970783 57.9644396,5.46593549 C58.6697389,6.11335105 59.561765,6.92643183 59.2431117,7.05449205 C56.3671143,5.34194067 56.8724942,5.20676599 56.4604777,4.48312411 C54.1213195,3.52877055 53.9650374,4.56138313 52.4174382,4.48515681 C48.0029749,2.13941878 47.1525565,2.38842477 43.0902355,0.920813974 L43.2749326,1.786745 C40.3512386,0.81104807 39.8681847,2.15466405 36.7090527,1.7887777 C36.5172519,1.63937411 37.7218422,1.24401358 38.7143354,1.1007081 C35.8870492,1.47472525 36.0189757,0.541715064 33.2525788,1.20335954 C33.9335224,0.724658238 34.6560736,0.406540386 35.3826841,0 C33.0780299,0.140256433 29.8783051,1.34361598 30.8657241,0.247989635 C27.1058192,1.92903413 20.4272945,4.28798472 16.6795674,7.80760811 L16.5618484,7.01891976 C14.8447744,9.08312857 9.07349793,13.1841047 8.61378486,15.8601568 L8.15407179,15.9668737 C7.26204576,17.4822529 6.68258404,19.1988697 5.97424028,20.7569358 C4.80618345,22.7520327 4.26122557,21.5252971 4.42765591,21.8383332 C2.12909056,26.5054168 0.985389385,30.4264988 0,33.644266 C0.702254845,34.6961892 0.0172519254,39.9781652 0.282119721,44.2051689 C-0.870714822,65.0850831 14.9137821,85.3562031 32.1677371,90.0354829 C34.6966664,90.9430843 38.4565713,90.9105611 41.6552812,91 C37.8821837,89.9186026 37.3950705,90.4277944 33.7173659,89.1441431 C31.0656435,87.8919987 30.485167,86.4640256 28.6057219,84.8307496 L29.3495843,86.1469241 C25.6657909,84.8409132 27.2073011,84.5309261 24.2095254,83.580638 L25.0041288,82.5429436 C23.8096867,82.451472 21.8409375,80.528536 21.3030834,79.4603511 L19.9959963,79.512185 C18.4270859,77.5750201 17.5898601,76.1755048 17.6517641,75.0910583 L17.2295994,75.8451908 C16.7516195,75.0229628 11.4542636,68.5701506 14.2023939,70.0723173 C13.6919398,69.6068285 13.0130258,69.3131031 12.277282,67.9725362 L12.8364473,67.3332514 C11.5161676,65.6288309 10.402911,63.4446926 10.4881558,62.7169853 C11.1934551,63.6703226 11.6825979,63.8492003 12.1676815,64.0128328 C8.8279117,55.7153435 8.64017016,63.5564912 6.11225568,55.5669563 L6.64605055,55.5242696 C6.23707843,54.9032791 5.98641811,54.2335038 5.6576167,53.5738921 L5.89102511,51.2515301 C3.48793338,48.4707939 5.21921484,39.4161231 5.5672978,34.4512487 C5.8057803,32.4327756 7.57359524,30.2831934 8.91620096,26.9119572 L8.09825674,26.7717008 C9.66310785,24.0397494 17.0306948,15.7961267 20.4445464,16.2189287 C22.0976868,14.1394746 20.115745,16.2107979 19.7920177,15.6883935 C23.4240554,11.9248459 24.5657269,13.0296194 27.0165151,12.3517133 C29.6580894,10.781451 24.7483944,12.9655893 26.0006812,11.7530826 C30.5704118,10.5852953 29.2379542,9.09634114 35.197987,8.50380852 C35.8271749,8.86156406 33.7396919,9.05670345 33.2160453,9.52117584 C37.021617,7.65515547 45.2609336,8.08100652 50.6151194,10.5558211 C56.8227681,13.4636012 63.8016793,22.0548159 64.0777101,30.1378552 L64.3912892,30.2222123 C64.2329775,33.435914 64.8824617,37.1527095 63.7549976,40.5656161 L64.5171268,38.9486017" id="Shape-Copy-2"></path>
            </g>
        </g>
    </g>
</svg>