<?xml version="1.0" encoding="UTF-8"?>
<svg width="260px" height="239px" viewBox="0 0 260 239" version="1.1" xmlns="http://www.w3.org/2000/svg" xmlns:xlink="http://www.w3.org/1999/xlink">
    <!-- Generator: Sketch 47.1 (45422) - http://www.bohemiancoding.com/sketch -->
    <title>2</title>
    <desc>Created with Sketch.</desc>
    <defs></defs>
    <g id="Page-1" stroke="none" stroke-width="1" fill="none" fill-rule="evenodd">
        <g id="operating-system" transform="translate(-655.000000, -1710.000000)">
            <g id="2" transform="translate(658.000000, 1710.000000)">
                <circle id="Oval-29-Copy-5" fill="#D1E0EA" cx="136.5" cy="113.5" r="113.5"></circle>
                <circle id="Oval-33-Copy-18" stroke="#3378A7" stroke-width="4.5" cx="202.5" cy="232.5" r="3.5"></circle>
                <circle id="Oval-33-Copy-23" stroke="#3378A7" stroke-width="4.5" cx="250.5" cy="32.5" r="3.5"></circle>
                <circle id="Oval-32-Copy-245" fill="#3378A7" cx="68.5" cy="123.5" r="2.5"></circle>
                <circle id="Oval-32-Copy-245" fill="#3378A7" cx="68.5" cy="115.5" r="2.5"></circle>
                <circle id="Oval-32-Copy-245" fill="#3378A7" cx="61.5" cy="120.5" r="2.5"></circle>
                <circle id="Oval-32-Copy-245" fill="#3378A7" cx="54.5" cy="125.5" r="2.5"></circle>
                <circle id="Oval-32-Copy-245" fill="#3378A7" cx="47.5" cy="131.5" r="2.5"></circle>
                <g id="Group-27" transform="translate(83.766732, 124.663241) rotate(70.000000) translate(-83.766732, -124.663241) translate(74.266732, 116.663241)" fill="#3378A7">
                    <circle id="Oval-32-Copy-245" cx="16.5" cy="2.5" r="2.5"></circle>
                    <circle id="Oval-32-Copy-245" cx="9.5" cy="7.5" r="2.5"></circle>
                    <circle id="Oval-32-Copy-245" cx="2.5" cy="13.5" r="2.5"></circle>
                </g>
                <circle id="Oval-32-Copy-245" fill="#3378A7" cx="70.5" cy="130.5" r="2.5"></circle>
                <circle id="Oval-33-Copy-19" stroke="#3378A7" stroke-width="4.5" cx="20" cy="27" r="5"></circle>
                <path d="M138.734043,115.5 C138.734043,77.1162099 107.677369,46 69.3670213,46 C31.0566733,46 0,77.1162099 0,115.5 C0,153.88379 31.0566733,185 69.3670213,185 L69.3670213,185" id="Oval-32" stroke="#3378A7" stroke-width="4.95" stroke-linecap="round" stroke-linejoin="round"></path>
                <polyline id="Path-13" stroke="#3378A7" stroke-width="4.95" stroke-linecap="round" stroke-linejoin="round" points="111 98.5930878 138.732716 115.814286 158.565957 90"></polyline>
                <circle id="Oval-32-Copy-245" fill="#3378A7" cx="72.5" cy="137.5" r="2.5"></circle>
                <circle id="Oval-32-Copy-245" fill="#3378A7" cx="75.5" cy="144.5" r="2.5"></circle>
                <circle id="Oval-32-Copy-245" fill="#3378A7" cx="79.5" cy="151.5" r="2.5"></circle>
                <circle id="Oval-32-Copy-245" fill="#3378A7" cx="84.5" cy="158.5" r="2.5"></circle>
                <circle id="Oval-32-Copy-245" fill="#3378A7" cx="89.5" cy="164.5" r="2.5"></circle>
                <circle id="Oval-32-Copy-245" fill="#3378A7" cx="95.5" cy="170.5" r="2.5"></circle>
                <circle id="Oval-32-Copy-245" fill="#3378A7" cx="102.5" cy="175.5" r="2.5"></circle>
                <circle id="Oval-32-Copy-245" fill="#3378A7" cx="109.5" cy="179.5" r="2.5"></circle>
                <circle id="Oval-32-Copy-245" fill="#3378A7" cx="116.5" cy="182.5" r="2.5"></circle>
                <circle id="Oval-32-Copy-245" fill="#3378A7" cx="124.5" cy="184.5" r="2.5"></circle>
                <circle id="Oval-32-Copy-245" fill="#3378A7" cx="132.5" cy="185.5" r="2.5"></circle>
                <circle id="Oval-32-Copy-245" fill="#3378A7" cx="140.5" cy="185.5" r="2.5"></circle>
                <circle id="Oval-32-Copy-245" fill="#3378A7" cx="148.5" cy="184.5" r="2.5"></circle>
                <circle id="Oval-32-Copy-245" fill="#3378A7" cx="156.5" cy="182.5" r="2.5"></circle>
                <circle id="Oval-32-Copy-245" fill="#3378A7" cx="164.5" cy="179.5" r="2.5"></circle>
                <circle id="Oval-32-Copy-245" fill="#3378A7" cx="172.5" cy="175.5" r="2.5"></circle>
                <circle id="Oval-32-Copy-245" fill="#3378A7" cx="179.5" cy="170.5" r="2.5"></circle>
                <circle id="Oval-32-Copy-245" fill="#3378A7" cx="185.5" cy="165.5" r="2.5"></circle>
                <circle id="Oval-32-Copy-245" fill="#3378A7" cx="191.5" cy="159.5" r="2.5"></circle>
                <circle id="Oval-32-Copy-245" fill="#3378A7" cx="196.5" cy="152.5" r="2.5"></circle>
                <circle id="Oval-32-Copy-245" fill="#3378A7" cx="200.5" cy="145.5" r="2.5"></circle>
                <circle id="Oval-32-Copy-245" fill="#3378A7" cx="203.5" cy="138.5" r="2.5"></circle>
                <circle id="Oval-32-Copy-245" fill="#3378A7" cx="205.5" cy="130.5" r="2.5"></circle>
                <circle id="Oval-32-Copy-245" fill="#3378A7" cx="206.5" cy="122.5" r="2.5"></circle>
                <circle id="Oval-32-Copy-245" fill="#3378A7" cx="207.5" cy="114.5" r="2.5"></circle>
                <circle id="Oval-32-Copy-245" fill="#3378A7" cx="207.5" cy="106.5" r="2.5"></circle>
                <circle id="Oval-32-Copy-245" fill="#3378A7" cx="206.5" cy="98.5" r="2.5"></circle>
                <circle id="Oval-32-Copy-245" fill="#3378A7" cx="204.5" cy="90.5" r="2.5"></circle>
                <circle id="Oval-32-Copy-245" fill="#3378A7" cx="201.5" cy="83.5" r="2.5"></circle>
                <circle id="Oval-32-Copy-245" fill="#3378A7" cx="197.5" cy="76.5" r="2.5"></circle>
                <circle id="Oval-32-Copy-245" fill="#3378A7" cx="192.5" cy="69.5" r="2.5"></circle>
                <circle id="Oval-32-Copy-245" fill="#3378A7" cx="186.5" cy="63.5" r="2.5"></circle>
                <circle id="Oval-32-Copy-245" fill="#3378A7" cx="179.5" cy="57.5" r="2.5"></circle>
                <circle id="Oval-32-Copy-245" fill="#3378A7" cx="171.5" cy="52.5" r="2.5"></circle>
                <circle id="Oval-32-Copy-245" fill="#3378A7" cx="162.5" cy="48.5" r="2.5"></circle>
                <circle id="Oval-32-Copy-245" fill="#3378A7" cx="153.5" cy="45.5" r="2.5"></circle>
                <circle id="Oval-32-Copy-245" fill="#3378A7" cx="144.5" cy="44.5" r="2.5"></circle>
            </g>
        </g>
    </g>
</svg>