<?xml version="1.0" encoding="UTF-8"?>
<svg width="78px" height="78px" viewBox="0 0 78 78" version="1.1" xmlns="http://www.w3.org/2000/svg" xmlns:xlink="http://www.w3.org/1999/xlink">
    <!-- Generator: Sketch 47.1 (45422) - http://www.bohemiancoding.com/sketch -->
    <title>9</title>
    <desc>Created with Sketch.</desc>
    <defs></defs>
    <g id="Page-1" stroke="none" stroke-width="1" fill="none" fill-rule="evenodd">
        <g id="operating-system" transform="translate(-306.000000, -2838.000000)" fill-rule="nonzero">
            <g id="9" transform="translate(306.000000, 2838.000000)">
                <g id="Fedora-logo">
                    <path d="M78,39.0017201 C78,17.4620536 60.5386415,0 38.9999526,0 C17.4706761,0 0.0168807049,17.4474129 0.00118544276,38.9742454 L0,38.9729722 L0,69.1541149 L0.00118544276,69.1553881 C0.0130872881,74.0431283 3.97675742,78 8.86751492,78 L8.90997748,77.9987552 L8.9124432,78 L39.0156004,78 C60.5473901,77.9918795 78,60.5359892 78,39.0017201" id="path3584" fill="#FFFFFF"></path>
                    <path d="M50.9224291,10.1111111 C40.7514918,10.1111111 32.5115248,18.3603759 32.5115248,28.5424402 L32.5115248,38.3205631 L22.7442376,38.3205631 C12.5733326,38.3205612 4.33333333,46.4984336 4.33333333,56.6797821 C4.33329645,66.8616705 12.5733418,75.1111111 22.7442376,75.1111111 C32.9145709,75.1111157 41.1551418,66.8616705 41.1551418,56.6797821 L41.1551418,46.9016591 L50.9224291,46.9016591 C61.092661,46.9016591 69.3333333,38.724324 69.3333333,28.5424402 C69.3333149,18.3603777 61.0926794,10.1111111 50.9224291,10.1111111 Z M50.9224291,18.7643172 C56.2910649,18.7643191 60.6897163,23.1671954 60.6897163,28.5424402 C60.6897209,33.9162238 56.2910879,38.3205631 50.9224291,38.3205631 L50.8503989,38.3205631 L42.5669326,38.3205631 C41.8077879,38.3205612 41.1551418,37.665831 41.1551418,36.9072061 L41.1551418,28.5424402 C41.1645277,23.1741208 45.5607865,18.7643172 50.9224291,18.7643172 Z M22.7442376,46.9016591 L31.085328,46.9016591 C31.8432142,46.9016591 32.5115248,47.4839253 32.5115248,48.2429061 L32.5115248,56.6797821 C32.5033053,62.0463113 28.1065255,66.457905 22.7442376,66.457905 C17.3762887,66.4579096 12.9769504,62.0535661 12.9769504,56.6797821 C12.9769457,51.3050704 17.3762979,46.9016591 22.7442376,46.9016591 Z" id="path2497" fill="#2473a6"></path>
                    <path d="M31.813558,38.3013242 L31.813558,28.5489105 L31.813558,28.536171 C31.813558,18.3600818 39.9625888,10.1111111 50.0157148,10.1111111 C51.5414242,10.1111111 52.624807,10.2844351 54.037465,10.6589761 C56.0954468,11.2048722 57.7765045,12.9120393 57.7777776,14.8998063 C57.7783435,17.3019998 56.0558376,19.0479783 53.4814742,19.0479783 C52.2545315,19.0479783 51.8116628,18.8103663 50.0150547,18.8103663 C44.7155063,18.8103663 40.4179533,23.1549821 40.408664,28.5201524 L40.408664,36.9269631 L40.408664,36.9282471 C40.408664,37.6864266 41.014968,38.3013242 41.7653269,38.3013242 L41.7691464,38.3013242 L48.0775509,38.3013242 C50.4288295,38.3013242 52.3265826,40.2055019 52.3285631,42.5911087 C52.3285631,44.9787442 50.4281929,46.8792824 48.0775509,46.8792824 L40.408664,46.8792824 L40.408664,56.6733726 L40.408664,56.6863197 C40.408664,66.8609471 32.2590439,75.1111111 22.2064837,75.1111111 C20.6814109,75.1111111 19.5974151,74.9369208 18.1860302,74.5633953 C16.1272939,74.018245 14.4450339,72.3097056 14.4444444,70.3226545 C14.4444444,67.9205804 16.1670918,66.1736771 18.7413609,66.1736771 C19.9670068,66.1736771 20.4117617,66.4120349 22.2064837,66.4120349 C27.5066686,66.4120349 31.8054712,62.0662259 31.8141946,56.7015937 L31.8141946,48.2512569 C31.8141946,47.4940009 31.2065939,46.880564 30.457461,46.880564 L30.4537123,46.880564 L24.145237,46.8792824 C21.7940056,46.8792824 19.8943899,44.9805651 19.8943899,42.5936743 C19.8930696,40.1920178 21.8139045,38.3013242 24.190599,38.3013242 L31.813558,38.3013242" id="path3588" fill="#2980B9"></path>
                </g>
            </g>
        </g>
    </g>
</svg>