<?xml version="1.0" encoding="UTF-8"?>
<svg width="78px" height="77px" viewBox="0 0 78 77" version="1.1" xmlns="http://www.w3.org/2000/svg" xmlns:xlink="http://www.w3.org/1999/xlink">
    <!-- Generator: Sketch 47.1 (45422) - http://www.bohemiancoding.com/sketch -->
    <title>7</title>
    <desc>Created with Sketch.</desc>
    <defs></defs>
    <g id="Page-1" stroke="none" stroke-width="1" fill="none" fill-rule="evenodd">
        <g id="operating-system" transform="translate(-682.000000, -2542.000000)" fill-rule="nonzero" fill="white">
            <g id="7" transform="translate(682.000000, 2542.000000)">
                <g id="freebsd">
                    <path d="M77.1073484,1.34515948 C81.2421357,5.58537389 69.7796409,24.2259846 67.8417273,26.2154304 C65.9041197,28.200793 60.9823515,26.3740458 56.8497069,22.132261 C52.7149196,17.8920466 50.9337287,12.8405378 52.8716424,10.8520343 C54.8083317,8.86290259 72.9734794,-2.89788174 77.1073484,1.34484539 M19.1266603,5.83162042 C12.8142837,2.15676793 3.83211036,-1.93142695 0.974980929,1.00091689 C-1.9201048,3.97032334 2.20978489,13.3942784 5.82910119,19.8830628 C9.05271857,14.1365514 13.6234259,9.30671532 19.1266603,5.83162042" id="Shape"></path>
                    <path d="M70.0302648,24.863522 C70.603026,26.8147126 70.5001763,28.4265656 69.5712114,29.3579259 C67.4017162,31.5381692 61.5410935,29.2173432 56.2580577,24.1666683 C55.8838566,23.8307588 55.5190655,23.4844188 55.164111,23.1280532 C53.2537005,21.2083725 51.7673566,19.1650761 50.8166756,17.283268 C48.966286,13.9486712 48.5033115,11.0037066 49.9018864,9.59848582 C50.6640599,8.83376455 51.8834772,8.62531438 53.3710276,8.89405755 C54.3410118,8.27779644 55.4862326,7.59124399 56.7418433,6.88802764 C51.6358538,4.21271514 45.8307276,2.70175439 39.6727154,2.70175439 C19.2478524,2.70175439 2.68965517,19.332321 2.68965517,39.8516346 C2.68965517,60.3673125 19.248154,77 39.6727154,77 C60.0978801,77 76.6551724,60.3673125 76.6551724,39.8516346 C76.6551724,33.2254643 74.9239195,27.0122555 71.899656,21.6255759 C71.2460628,22.8238614 70.6105663,23.9215575 70.0302648,24.863522" id="Shape"></path>
                </g>
            </g>
        </g>
    </g>
</svg>