<svg width="1088" height="448" viewBox="0 0 1088 448" xmlns="http://www.w3.org/2000/svg"><title>graphic 2</title><g fill="none"><path d="M262 72.884l37.189-5.049.016 35.761-37.171.211L262 72.884zm37.171 34.832l.029 35.793-37.171-5.095-.002-30.938 37.144.24zm4.508-40.542L352.99 60v43.141l-49.31.39V67.174zM353 108.053L352.988 151l-49.309-6.938-.069-36.09 49.39.081zM99.504 232.498c0 5.923-4.813 10.724-10.756 10.724-5.935 0-10.748-4.8-10.748-10.724 0-5.922 4.813-10.723 10.748-10.723 5.94 0 10.756 4.801 10.756 10.723zm61.166 52.14c2.968 5.127 9.542 6.884 14.683 3.925 5.142-2.96 6.904-9.519 3.935-14.647-2.968-5.129-9.541-6.884-14.683-3.924-5.142 2.961-6.904 9.52-3.935 14.646zm18.618-93.556c2.969-5.128 1.21-11.687-3.935-14.644-5.138-2.96-11.715-1.203-14.683 3.923-2.969 5.129-1.207 11.687 3.935 14.646 5.142 2.964 11.717 1.205 14.683-3.925zm-36.386 10.837c16.02 0 29.166 12.247 30.538 27.87l15.56-.243c-.738-11.61-5.787-22.05-13.567-29.75a15.127 15.127 0 0 1-13.02-1.004 15.06 15.06 0 0 1-7.383-10.755 46.358 46.358 0 0 0-12.128-1.609 46.1 46.1 0 0 0-20.488 4.77l7.571 13.56a30.656 30.656 0 0 1 12.917-2.84zm-30.66 30.579c0-10.345 5.152-19.49 13.035-25.024l-7.988-13.317c-9.254 6.162-16.147 15.566-19.054 26.586 3.44 2.766 5.647 7.002 5.647 11.755 0 4.755-2.205 8.99-5.647 11.756 2.907 11.023 9.8 20.426 19.054 26.59l7.988-13.318c-7.883-5.534-13.036-14.68-13.036-25.028zm30.66 30.585a30.617 30.617 0 0 1-12.918-2.843l-7.572 13.56a46.08 46.08 0 0 0 20.488 4.77c4.193 0 8.263-.56 12.128-1.607a15.053 15.053 0 0 1 7.383-10.756c4.122-2.375 8.9-2.59 13.02-1.004 7.78-7.703 12.827-18.142 13.567-29.752l-15.56-.243c-1.37 15.623-14.515 27.875-30.536 27.875z" fill="#2473A7"/><g fill="#2473A7"><path d="M810.959 63.543c4.823 4.866-8.55 26.254-10.81 28.537-2.26 2.278-8.003.182-12.824-4.685-4.824-4.866-6.902-10.662-4.641-12.943 2.26-2.283 23.452-15.777 28.275-10.909m-67.645 5.148c-7.364-4.216-17.843-8.907-21.177-5.543-3.377 3.408 1.441 14.22 5.664 21.666a45.514 45.514 0 0 1 15.513-16.123"/><path d="M804.208 91.354c.673 2.232.552 4.076-.54 5.142-2.552 2.494-9.446-.161-15.66-5.94-.44-.384-.869-.78-1.286-1.188-2.247-2.196-3.996-4.533-5.114-6.686-2.176-3.815-2.72-7.184-1.076-8.792.897-.875 2.33-1.113 4.08-.806a84.849 84.849 0 0 1 3.965-2.295C782.572 67.73 775.744 66 768.5 66c-24.024 0-43.5 19.026-43.5 42.5 0 23.472 19.477 42.5 43.5 42.5 24.025 0 43.5-19.028 43.5-42.5a41.54 41.54 0 0 0-5.594-20.85 81.673 81.673 0 0 1-2.198 3.704"/></g><path d="M536.981 0C507.764 0 484 23.924 484 53.332c0 29.409 23.764 53.332 52.981 53.332 29.208 0 52.975-23.923 52.975-53.332C589.956 23.924 566.189 0 536.98 0z" fill="#2473A7"/><path d="M537.32 5.155c-8.519 0-15.744 13.719-18.354 32.786a116.31 116.31 0 0 0-.954 11.192 113.718 113.718 0 0 0 0 8.919c.12 3.211.362 6.334.718 9.334 3.995.52 8.267.874 12.722 1.042 1.926.072 3.88.116 5.87.116 1.983 0 3.943-.044 5.863-.116 4.46-.168 8.73-.521 12.727-1.042.44-.056.873-.118 1.311-.182 16.639-2.352 28.214-7.559 28.214-13.611 0-26.753-21.545-48.438-48.116-48.438z" fill="#2980B9"/><path d="M557.223 39.98c-.483-.708-1-1.387-1.552-2.039-4.415-5.238-10.991-8.567-18.35-8.567-2.385 0-4.509 3.676-5.87 9.383-.54 2.276-.959 4.873-1.229 7.69a76.436 76.436 0 0 0-.328 7.146c0 2.485.115 4.887.328 7.144a74.94 74.94 0 0 0 7.1.33c2.469 0 4.851-.116 7.096-.33 4.935-.472 9.195-1.427 12.213-2.685 2.98-1.241 4.744-2.787 4.744-4.459 0-5.046-1.531-9.732-4.152-13.612zM973 232.502C973 206.268 951.733 185 925.5 185c-26.222 0-47.48 21.25-47.499 47.469l-.001-.002v36.76h.001c.015 5.954 4.842 10.773 10.8 10.773l.05-.002.004.002h36.664c26.225-.01 47.481-21.27 47.481-47.498" fill="#2473A7"/><path d="M940.624 197c-12.362 0-22.377 10.026-22.377 22.401v11.884h-11.87c-12.362 0-22.377 9.94-22.377 22.314C884 265.974 894.015 276 906.376 276s22.377-10.026 22.377-22.401v-11.884h11.87c12.361 0 22.377-9.939 22.377-22.314S952.984 197 940.624 197zm0 10.517c6.525 0 11.87 5.351 11.87 11.884 0 6.531-5.345 11.884-11.87 11.884h-10.155c-.923 0-1.716-.795-1.716-1.717V219.4c.011-6.524 5.354-11.884 11.87-11.884zm-34.248 34.198h10.138c.921 0 1.733.707 1.733 1.63v10.254c-.01 6.522-5.353 11.884-11.87 11.884-6.525 0-11.872-5.353-11.872-11.884 0-6.532 5.347-11.884 11.871-11.884z" fill="#2980B9"/><path d="M917.244 231.262v-11.868c0-12.368 9.967-22.394 22.262-22.394 1.866 0 3.192.21 4.92.666 2.516.663 4.572 2.738 4.574 5.154 0 2.92-2.106 5.042-5.255 5.042-1.5 0-2.042-.29-4.24-.29-6.481 0-11.737 5.281-11.749 11.802v10.219c0 .922.742 1.669 1.66 1.669h7.72a5.193 5.193 0 0 1 5.2 5.214 5.188 5.188 0 0 1-5.2 5.211h-9.38v11.92c0 12.366-9.967 22.393-22.262 22.393-1.866 0-3.192-.212-4.918-.666-2.518-.662-4.575-2.739-4.576-5.154 0-2.92 2.107-5.042 5.255-5.042 1.5 0 2.043.29 4.239.29 6.482 0 11.74-5.283 11.75-11.803v-10.27c0-.92-.743-1.666-1.659-1.666h-.004l-7.716-.002a5.186 5.186 0 0 1-5.2-5.208c0-2.92 2.348-5.217 5.255-5.217h9.324" fill="#2980B9"/><path d="M1075.915 373.64c.13 3.509-1.02 5.213-2.059 8.227l-1.87.934c-1.528 2.982.152 1.893-.942 4.264-2.388 2.13-7.238 6.663-8.79 7.079-1.135-.025.767-1.345 1.016-1.86-3.194 2.2-2.563 3.304-7.448 4.644l-.142-.32c-12.043 5.691-28.774-5.586-28.554-20.97-.127.975-.366.731-.632 1.123-.622-7.914 3.64-15.864 10.829-19.115 7.03-3.493 15.273-2.061 20.306 2.656-2.765-3.639-8.272-7.496-14.793-7.14-6.392.105-12.373 4.184-14.368 8.614-3.274 2.069-3.655 7.98-5.08 9.063-1.922 14.17 3.61 20.29 12.968 27.493 1.469.996.413 1.149.61 1.907-3.109-1.46-5.954-3.668-8.296-6.37 1.243 1.825 2.584 3.6 4.317 4.993-2.933-.994-6.85-7.133-7.99-7.383 5.052 9.086 20.497 15.935 28.59 12.536-3.745.14-8.5.077-12.705-1.484-1.77-.913-4.17-2.802-3.74-3.155 11.04 4.14 22.441 3.134 31.992-4.554 2.432-1.902 5.086-5.136 5.854-5.18-1.155 1.746.198.84-.69 2.38 2.418-3.921-1.054-1.597 2.502-6.772l1.312 1.815c-.491-3.258 4.027-7.21 3.567-12.358 1.037-1.574 1.155 1.695.056 5.317 1.526-4.018.404-4.664.794-7.98.42 1.115.98 2.298 1.265 3.476-.994-3.884 1.017-6.538 1.517-8.796-.495-.218-1.534 1.716-1.774-2.87.036-1.991.554-1.043.752-1.534-.388-.225-1.41-1.752-2.03-4.68.447-.69 1.203 1.784 1.816 1.884-.395-2.328-1.073-4.103-1.102-5.89-1.793-3.761-.635.502-2.086-1.615-1.909-5.974 1.581-1.387 1.819-4.1 2.888 4.204 4.535 10.723 5.294 13.423-.578-3.292-1.51-6.482-2.652-9.567.88.373-1.415-6.77 1.144-2.04-2.731-10.084-11.679-19.507-19.913-23.927 1.005.925 2.276 2.087 1.822 2.27-4.097-2.447-3.377-2.64-3.964-3.674-3.333-1.363-3.555.112-5.76.003-6.29-3.35-7.5-2.995-13.288-5.092l.263 1.237c-4.165-1.393-4.853.526-9.354.003-.273-.213 1.443-.778 2.857-.983-4.028.535-3.84-.798-7.781.147.97-.684 1.999-1.138 3.034-1.719-3.283.2-7.842 1.92-6.435.354-5.356 2.402-14.871 5.772-20.21 10.8l-.168-1.127c-2.446 2.949-10.668 8.807-11.323 12.63l-.655.153c-1.271 2.165-2.097 4.617-3.106 6.843-1.664 2.85-2.44 1.097-2.203 1.545-3.275 6.667-4.904 12.268-6.308 16.865 1 1.503.025 9.049.402 15.087-1.642 29.829 20.845 58.787 45.426 65.472 3.603 1.297 8.96 1.25 13.517 1.378-5.376-1.545-6.07-.817-11.31-2.651-3.777-1.789-4.604-3.829-7.282-6.162l1.06 1.88c-5.248-1.866-3.052-2.309-7.323-3.666l1.132-1.483c-1.701-.13-4.506-2.877-5.272-4.403l-1.863.074c-2.235-2.768-3.427-4.767-3.34-6.316l-.6 1.077c-.682-1.174-8.229-10.393-4.313-8.247-.728-.665-1.695-1.084-2.743-3l.797-.913c-1.881-2.435-3.467-5.555-3.346-6.594 1.005 1.362 1.702 1.617 2.393 1.85-4.758-11.853-5.026-.651-8.627-12.065l.76-.06c-.582-.888-.94-1.845-1.408-2.787l.333-3.318c-3.424-3.972-.957-16.907-.462-24 .34-2.883 2.859-5.954 4.772-10.77l-1.166-.2c2.23-3.904 12.726-15.68 17.59-15.076 2.355-2.97-.469-.012-.93-.758 5.174-5.377 6.8-3.798 10.292-4.767 3.764-2.243-3.231.877-1.447-.855 6.51-1.668 4.612-3.795 13.103-4.642.896.511-2.077.79-2.824 1.454 5.422-2.666 17.16-2.058 24.788 1.478 8.844 4.154 18.787 16.427 19.18 27.974l.447.12c-.226 4.592.7 9.901-.907 14.777l1.086-2.31M95 370.502C95 344.268 73.733 323 47.5 323 21.278 323 .02 344.25 0 370.469v-.002 36.76h.001C.016 413.182 4.843 418 10.801 418l.05-.002.004.002h36.664C73.744 417.99 95 396.73 95 370.502" fill="#2473A7"/><path d="M62.624 335c-12.362 0-22.377 10.026-22.377 22.401v11.884h-11.87C16.014 369.285 6 379.225 6 391.6 6 403.974 16.015 414 28.376 414s22.377-10.026 22.377-22.401v-11.884h11.87C74.985 379.715 85 369.776 85 357.4S74.984 335 62.624 335zm0 10.517c6.525 0 11.87 5.351 11.87 11.884 0 6.531-5.345 11.884-11.87 11.884H52.469c-.923 0-1.716-.795-1.716-1.717V357.4c.011-6.524 5.354-11.884 11.87-11.884zm-34.248 34.198h10.138c.921 0 1.733.707 1.733 1.63v10.254c-.01 6.522-5.353 11.884-11.87 11.884-6.525 0-11.872-5.353-11.872-11.884 0-6.532 5.347-11.884 11.871-11.884z" fill="#2980B9"/></g></svg>