<?xml version="1.0" encoding="UTF-8"?>
<svg width="1263px" height="334px" viewBox="0 0 1263 334" version="1.1" xmlns="http://www.w3.org/2000/svg" xmlns:xlink="http://www.w3.org/1999/xlink">
    <!-- Generator: Sketch 47.1 (45422) - http://www.bohemiancoding.com/sketch -->
    <title>graphic 1</title>
    <desc>Created with Sketch.</desc>
    <defs>
        <path d="M27,1.14340395e-13 L232,1.14339527e-13 L232,1.42108547e-13 C246.911688,1.26125239e-13 259,12.0883118 259,27 L259,27 L259,27 C259,41.9116882 246.911688,54 232,54 L27,54 L27,54 C12.0883118,54 1.82615513e-15,41.9116882 0,27 L0,27 L0,27 C-1.82615513e-15,12.0883118 12.0883118,1.16425966e-13 27,1.13686838e-13 Z" id="path-1"></path>
    </defs>
    <g id="Page-1" stroke="none" stroke-width="1" fill="none" fill-rule="evenodd">
        <g id="operating-system" transform="translate(-109.000000, -436.000000)">
            <g id="graphic-1" transform="translate(109.000000, 436.000000)">
                <path d="M1111.24406,29.022527 C1108.94463,28.3568014 1106.51398,28 1104,28 C1089.6406,28 1078,39.6405965 1078,54 C1078,54.3414528 1078.00658,54.6813682 1078.01963,55.0196263 C1077.68137,55.0065821 1077.34145,55 1077,55 C1062.6406,55 1051,66.6405965 1051,81 C1051,94.6864595 1061.5751,105.902971 1075,106.924221 L1075,107 L1197,107 L1197,106.924221 C1197.66008,106.974434 1198.32706,107 1199,107 C1213.3594,107 1225,95.3594035 1225,81 C1225,68.5488849 1216.24777,58.1419636 1204.55987,55.5958137 C1204.85013,53.4385434 1205,51.2367741 1205,49 C1205,21.9380473 1183.06195,0 1156,0 C1136.05329,0 1118.89029,11.9185236 1111.24406,29.022527 Z" id="Combined-Shape-Copy-11" fill="#2473A7"></path>
                <path d="M1151.92249,30.6424059 C1147.52426,27.7120795 1142.21577,26 1136.5,26 C1121.31217,26 1109,38.0883118 1109,53 C1109,53.3363743 1109.00627,53.6713119 1109.01869,54.0047065 C1108.84617,54.0015734 1108.67327,54 1108.5,54 C1093.31217,54 1081,66.0883118 1081,81 C1081,95.4175666 1092.50972,107.19577 1107,107.960517 L1107,108 L1234,108 L1234,107.960517 C1234.49661,107.986727 1234.99673,108 1235.5,108 C1250.68783,108 1263,95.9116882 1263,81 C1263,66.0883118 1250.68783,54 1235.5,54 C1234.53024,54 1233.5722,54.049284 1232.62834,54.1454402 C1232.87348,52.2984496 1233,50.4140003 1233,48.5 C1233,25.0278981 1213.9721,6 1190.5,6 C1173.40614,6 1158.66933,16.0917699 1151.92249,30.6424059 Z" id="Combined-Shape-Copy-8" fill="#267AB1"></path>
                <g id="Group-36" transform="translate(0.000000, 69.000000)">
                    <path d="M200.514858,105 L220,105 L220,153 L37,153 L37,152.949604 C16.3903171,151.908534 0,134.868349 0,114 C0,92.4608948 17.4608948,75 39,75 C43.9372117,75 48.6601453,75.9174337 53.0076228,77.5911231 C53.0025465,77.2280214 53,76.8643081 53,76.5 C53,34.2502166 87.2502166,0 129.5,0 C171.749783,0 206,34.2502166 206,76.5 C206,86.5733361 204.053022,96.1919312 200.514851,105.000001 Z" id="Combined-Shape-Copy-4" fill="#2473A7"></path>
                    <path d="M81.0076228,94.5911231 C76.6601453,92.9174337 71.9372117,92 67,92 C45.4608948,92 28,109.460895 28,131 C28,151.868349 44.3903171,168.908534 65,169.949604 L65,170 L248,170 L248,169.949604 C248.662442,169.983067 249.329244,170 250,170 C271.539105,170 289,152.539105 289,131 C289,109.460895 271.539105,92 250,92 C244.288789,92 238.864307,93.2276302 233.976038,95.4334054 C233.991984,94.7908698 234,94.1463711 234,93.5 C234,51.2502166 199.749783,17 157.5,17 C115.250217,17 81,51.2502166 81,93.5 C81,93.8643081 81.0025465,94.2280214 81.0076228,94.5911231 Z" id="Combined-Shape" fill="#267AB1"></path>
                    <g id="Group-19" transform="translate(138.000000, 95.000000)" stroke-linecap="round" stroke-width="10.125" stroke="#2473A7" stroke-linejoin="round">
                        <polyline id="Path-25" points="0 18 20.5 0 41 18"></polyline>
                        <path d="M19.4444444,2.28596459 L19.4444444,45" id="Path-7"></path>
                    </g>
                </g>
                <g id="Group-25" transform="translate(1156.000000, 56.000000)" stroke-linecap="round" stroke-width="8.1" stroke="#2473A7" stroke-linejoin="round">
                    <polyline id="Path-25" points="0 14 16.5 0 33 14"></polyline>
                    <path d="M15.9780273,1.96728516 L15.9780273,35" id="Path-7"></path>
                </g>
                <g id="Group-38" transform="translate(872.000000, 264.000000)">
                    <path d="M48.2305184,17.4281788 C45.2042625,15.2697366 41.5004127,14 37.5,14 C27.4476456,14 19.2678816,22.0175123 19.0064468,32.0067981 C18.838182,32.0022757 18.6693567,32 18.5,32 C8.28273213,32 0,40.2827321 0,50.5 C0,60.2122868 7.48422875,68.1765383 17,68.9400683 L17,69 L103,69 L103,68.9400683 C103.494763,68.9797673 103.995019,69 104.5,69 C114.717268,69 123,60.7172679 123,50.5 C123,40.2827321 114.717268,32 104.5,32 C103.919167,32 103.344587,32.0267674 102.777424,32.0791359 C102.924319,30.906745 103,29.7122106 103,28.5 C103,12.7598846 90.2401154,0 74.5,0 C62.6865809,0 52.551909,7.187571 48.2305184,17.4281788 Z" id="Combined-Shape-Copy-8" fill="#2473A7"></path>
                    <path d="M68.2305184,18.4281788 C65.2042625,16.2697366 61.5004127,15 57.5,15 C47.4476456,15 39.2678816,23.0175123 39.0064468,33.0067981 C38.838182,33.0022757 38.6693567,33 38.5,33 C28.2827321,33 20,41.2827321 20,51.5 C20,61.2122868 27.4842287,69.1765383 37,69.9400683 L37,70 L123,70 L123,69.9400683 C123.494763,69.9797673 123.995019,70 124.5,70 C134.717268,70 143,61.7172679 143,51.5 C143,41.2827321 134.717268,33 124.5,33 C123.919167,33 123.344587,33.0267674 122.777424,33.0791359 C122.924319,31.906745 123,30.7122106 123,29.5 C123,13.7598846 110.240115,1 94.5,1 C82.6865809,1 72.551909,8.187571 68.2305184,18.4281788 Z" id="Combined-Shape-Copy-8" fill="#267AB1"></path>
                    <g id="Group-18" transform="translate(70.000000, 34.000000)" stroke-linecap="round" stroke-width="5.67" stroke="#2473A7" stroke-linejoin="round">
                        <polyline id="Path-25" points="0 10 11.5 0 23 10"></polyline>
                        <path d="M11.5,1 L11.5,24.5" id="Path-7"></path>
                    </g>
                </g>
            </g>
        </g>
    </g>
</svg>