<?xml version="1.0" encoding="UTF-8"?>
<svg width="302px" height="245px" viewBox="0 0 302 245" version="1.1" xmlns="http://www.w3.org/2000/svg" xmlns:xlink="http://www.w3.org/1999/xlink">
    <!-- Generator: Sketch 47.1 (45422) - http://www.bohemiancoding.com/sketch -->
    <title>3</title>
    <desc>Created with Sketch.</desc>
    <defs></defs>
    <g id="Page-1" stroke="none" stroke-width="1" fill="none" fill-rule="evenodd">
        <g id="operating-system" transform="translate(-1070.000000, -1704.000000)">
            <g id="3" transform="translate(1073.000000, 1704.000000)">
                <circle id="Oval-29-Copy-6" fill="#D1E0EA" cx="146.5" cy="113.5" r="113.5"></circle>
                <circle id="Oval-33-Copy-24" stroke="#3378A7" stroke-width="4.5" cx="283.5" cy="62.5" r="3.5"></circle>
                <circle id="Oval-33-Copy-26" stroke="#3378A7" stroke-width="4.5" cx="3.5" cy="83.5" r="3.5"></circle>
                <circle id="Oval-33-Copy-25" stroke="#3378A7" stroke-width="4.5" cx="213" cy="237" r="5"></circle>
                <path d="M62.2989981,166.815141 C43.5040445,167.613858 31.8266629,165.824322 27.2668533,161.446531 C8.26114064,143.19949 21.4798216,117.844931 40.076045,116.599902 C25.1423964,89.6075582 63.0715279,68.1675023 82.185858,87.2327161 C89.0380123,56.5637855 134.475023,53.5476673 156.876074,69.4769893 C171.810109,80.0965373 177.313805,95.815539 173.387164,116.633995 C190.327077,118.591685 198.863531,126.633354 198.996527,140.759004 C199.19602,161.947478 190.879182,166.815141 154.047269,166.815141 C122.100073,166.815141 91.5173163,166.815141 62.2989981,166.815141 Z" id="Path-17-Copy" stroke="#236EA0" stroke-width="5"></path>
                <path d="M116.5,142 C127.269553,142 136,133.269553 136,122.5 C136,111.730447 127.269553,103 116.5,103 C105.730447,103 97,111.730447 97,122.5" id="Oval-13" stroke="#236EA0" stroke-width="5" fill="#D1E0EA" stroke-linecap="round" stroke-linejoin="round"></path>
                <polyline id="Path-22" stroke="#236EA0" stroke-width="5" fill="#D1E0EA" stroke-linecap="round" stroke-linejoin="round" points="116 115 116 124 126 124"></polyline>
                <g id="Group-29" transform="translate(83.000000, 207.000000)" fill="#236EA0">
                    <circle id="Oval-32-Copy-215" cx="10.5" cy="2.5" r="2.5"></circle>
                    <circle id="Oval-32-Copy-234" cx="17.5" cy="2.5" r="2.5"></circle>
                    <circle id="Oval-32-Copy-235" cx="57.5" cy="2.5" r="2.5"></circle>
                    <circle id="Oval-32-Copy-240" cx="25.5" cy="2.5" r="2.5"></circle>
                    <circle id="Oval-32-Copy-241" cx="65.5" cy="2.5" r="2.5"></circle>
                    <circle id="Oval-32-Copy-246" cx="33.5" cy="2.5" r="2.5"></circle>
                    <circle id="Oval-32-Copy-252" cx="41.5" cy="2.5" r="2.5"></circle>
                    <circle id="Oval-32-Copy-257" cx="2.5" cy="2.5" r="2.5"></circle>
                    <circle id="Oval-32-Copy-259" cx="49.5" cy="2.5" r="2.5"></circle>
                </g>
                <g id="Group-29-Copy-3" transform="translate(4.000000, 207.000000)" fill="#236EA0">
                    <circle id="Oval-32-Copy-235" cx="34.5" cy="2.5" r="2.5"></circle>
                    <circle id="Oval-32-Copy-236" cx="73.5" cy="2.5" r="2.5"></circle>
                    <circle id="Oval-32-Copy-240" cx="2.5" cy="2.5" r="2.5"></circle>
                    <circle id="Oval-32-Copy-241" cx="42.5" cy="2.5" r="2.5"></circle>
                    <circle id="Oval-32-Copy-246" cx="10.5" cy="2.5" r="2.5"></circle>
                    <circle id="Oval-32-Copy-247" cx="49.5" cy="2.5" r="2.5"></circle>
                    <circle id="Oval-32-Copy-252" cx="18.5" cy="2.5" r="2.5"></circle>
                    <circle id="Oval-32-Copy-253" cx="57.5" cy="2.5" r="2.5"></circle>
                    <circle id="Oval-32-Copy-259" cx="26.5" cy="2.5" r="2.5"></circle>
                    <circle id="Oval-32-Copy-260" cx="65.5" cy="2.5" r="2.5"></circle>
                </g>
                <g id="Group-29-Copy" transform="translate(136.000000, 23.000000)" fill="#236EA0">
                    <circle id="Oval-32-Copy-215" cx="10.5" cy="2.5" r="2.5"></circle>
                    <circle id="Oval-32-Copy-234" cx="17.5" cy="2.5" r="2.5"></circle>
                    <circle id="Oval-32-Copy-235" cx="57.5" cy="2.5" r="2.5"></circle>
                    <circle id="Oval-32-Copy-236" cx="96.5" cy="2.5" r="2.5"></circle>
                    <circle id="Oval-32-Copy-240" cx="25.5" cy="2.5" r="2.5"></circle>
                    <circle id="Oval-32-Copy-241" cx="65.5" cy="2.5" r="2.5"></circle>
                    <circle id="Oval-32-Copy-246" cx="33.5" cy="2.5" r="2.5"></circle>
                    <circle id="Oval-32-Copy-247" cx="72.5" cy="2.5" r="2.5"></circle>
                    <circle id="Oval-32-Copy-252" cx="41.5" cy="2.5" r="2.5"></circle>
                    <circle id="Oval-32-Copy-253" cx="80.5" cy="2.5" r="2.5"></circle>
                    <circle id="Oval-32-Copy-257" cx="2.5" cy="2.5" r="2.5"></circle>
                    <circle id="Oval-32-Copy-259" cx="49.5" cy="2.5" r="2.5"></circle>
                    <circle id="Oval-32-Copy-260" cx="88.5" cy="2.5" r="2.5"></circle>
                </g>
                <g id="Group-29-Copy-2" transform="translate(231.000000, 121.000000)" fill="#236EA0">
                    <circle id="Oval-32-Copy-235" cx="26.5" cy="2.5" r="2.5"></circle>
                    <circle id="Oval-32-Copy-236" cx="65.5" cy="2.5" r="2.5"></circle>
                    <circle id="Oval-32-Copy-241" cx="34.5" cy="2.5" r="2.5"></circle>
                    <circle id="Oval-32-Copy-246" cx="2.5" cy="2.5" r="2.5"></circle>
                    <circle id="Oval-32-Copy-247" cx="41.5" cy="2.5" r="2.5"></circle>
                    <circle id="Oval-32-Copy-252" cx="10.5" cy="2.5" r="2.5"></circle>
                    <circle id="Oval-32-Copy-253" cx="49.5" cy="2.5" r="2.5"></circle>
                    <circle id="Oval-32-Copy-259" cx="18.5" cy="2.5" r="2.5"></circle>
                    <circle id="Oval-32-Copy-260" cx="57.5" cy="2.5" r="2.5"></circle>
                </g>
                <path d="" id="Path-15" stroke="#979797"></path>
            </g>
        </g>
    </g>
</svg>