<?xml version="1.0" encoding="UTF-8"?>
<svg width="77px" height="81px" viewBox="0 0 77 81" version="1.1" xmlns="http://www.w3.org/2000/svg" xmlns:xlink="http://www.w3.org/1999/xlink">
    <!-- Generator: Sketch 47.1 (45422) - http://www.bohemiancoding.com/sketch -->
    <title>4</title>
    <desc>Created with Sketch.</desc>
    <defs></defs>
    <g id="Page-1" stroke="none" stroke-width="1" fill="none" fill-rule="evenodd">
        <g id="operating-system" transform="translate(-306.000000, -2222.000000)" fill-rule="nonzero" fill="white">
            <g id="4" transform="translate(306.000000, 2222.000000)">
                <g id="ubuntu_white_hex">
                    <g id="Group">
                        <path d="M14.9043934,40.1741959 C14.9043934,44.3129102 11.5682951,47.6673387 7.44963934,47.6673387 C3.33609836,47.6673387 0,44.3129102 0,40.1741959 C0,36.0367673 3.33609836,32.6823387 7.44963934,32.6823387 C11.5670164,32.6823387 14.9043934,36.0367673 14.9043934,40.1741959 Z M57.2980328,76.6049102 C59.3554426,80.1869102 63.9114098,81.4147673 67.4751148,79.3473387 C71.0388197,77.2786244 72.2599672,72.6963387 70.2025574,69.113053 C68.1451475,65.5297673 63.5891803,64.3031959 60.0254754,66.3719102 C56.4617705,68.4406244 55.240623,73.0229102 57.2980328,76.6049102 Z M70.2025574,11.2366244 C72.2599672,7.65333873 71.041377,3.07105302 67.4751148,1.00491016 C63.9139672,-1.06380413 59.3554426,0.164053016 57.2980328,3.74605302 C55.240623,7.32933873 56.4617705,11.9116244 60.0254754,13.979053 C63.5891803,16.0503387 68.1464262,14.8211959 70.2025574,11.2366244 Z M44.9829836,18.8081959 C56.0871148,18.8081959 65.1977705,27.3659102 66.1491148,38.2816244 L76.9335738,38.1119102 C76.4220984,29.999053 72.9223279,22.7051959 67.5300984,17.3257673 C64.6760656,18.434053 61.3642623,18.2836244 58.5063934,16.6237673 C55.6472459,14.9639102 53.860918,12.1533387 53.389082,9.1087673 C50.7089508,8.37719587 47.8894426,7.98505302 44.9829836,7.98505302 C39.8835738,7.98505302 35.062918,9.18462444 30.7831475,11.3176244 L36.0308852,20.792053 C38.749377,19.5217673 41.7862623,18.8081959 44.9829836,18.8081959 Z M23.732459,40.1741959 C23.732459,32.9459102 27.3038361,26.5559102 32.7676721,22.6897673 L27.2309508,13.385053 C20.8170492,17.6909102 16.0398689,24.2609102 14.0246557,31.961053 C16.4094098,33.8934816 17.9387213,36.8531959 17.9387213,40.1741959 C17.9387213,43.4964816 16.4106885,46.4561959 14.0246557,48.3886244 C16.0398689,56.090053 20.8170492,62.660053 27.2309508,66.9671959 L32.7676721,57.6611959 C27.3038361,53.795053 23.732459,47.405053 23.732459,40.1741959 Z M44.9829836,61.544053 C41.7862623,61.544053 38.749377,60.8304816 36.0296066,59.5576244 L30.7818689,69.032053 C35.062918,71.1663387 39.8822951,72.3646244 44.9817049,72.3646244 C47.8881639,72.3646244 50.7089508,71.9737673 53.3878033,71.2421959 C53.8596393,68.1963387 55.6459672,65.3857673 58.5051148,63.7271959 C61.3617049,62.0673387 64.6735082,61.9169102 67.5288197,63.0251959 C72.9210492,57.6431959 76.419541,50.3493387 76.9322951,42.2377673 L66.1478361,42.068053 C65.1977705,52.9837673 56.0871148,61.544053 44.9829836,61.544053 Z" id="Shape"></path>
                    </g>
                </g>
            </g>
        </g>
    </g>
</svg>