<?xml version="1.0" encoding="UTF-8"?>
<svg width="314px" height="270px" viewBox="0 0 314 270" version="1.1" xmlns="http://www.w3.org/2000/svg" xmlns:xlink="http://www.w3.org/1999/xlink">
    <!-- Generator: Sketch 47.1 (45422) - http://www.bohemiancoding.com/sketch -->
    <title>1</title>
    <desc>Created with Sketch.</desc>
    <defs></defs>
    <g id="Page-1" stroke="none" stroke-width="1" fill="none" fill-rule="evenodd">
        <g id="operating-system" transform="translate(-195.000000, -1688.000000)">
            <g id="1" transform="translate(195.000000, 1688.000000)">
                <circle id="Oval-29-Copy-4" fill="#D1E0EA" cx="183.5" cy="113.5" r="113.5"></circle>
                <ellipse id="Oval-32-Copy-284" fill="#2473A7" transform="translate(266.491909, 170.500000) rotate(-270.000000) translate(-266.491909, -170.500000) " cx="266.491909" cy="170.5" rx="2.5" ry="2.49190939"></ellipse>
                <ellipse id="Oval-32-Copy-285" fill="#2473A7" transform="translate(269.491909, 162.500000) rotate(-270.000000) translate(-269.491909, -162.500000) " cx="269.491909" cy="162.5" rx="2.5" ry="2.49190939"></ellipse>
                <ellipse id="Oval-32-Copy-286" fill="#2473A7" transform="translate(271.491909, 154.500000) rotate(-270.000000) translate(-271.491909, -154.500000) " cx="271.491909" cy="154.5" rx="2.5" ry="2.49190939"></ellipse>
                <ellipse id="Oval-32-Copy-287" fill="#2473A7" transform="translate(272.491909, 146.500000) rotate(-270.000000) translate(-272.491909, -146.500000) " cx="272.491909" cy="146.5" rx="2.5" ry="2.49190939"></ellipse>
                <ellipse id="Oval-32-Copy-288" fill="#2473A7" transform="translate(272.500000, 138.508117) rotate(-270.000000) translate(-272.500000, -138.508117) " cx="272.5" cy="138.508117" rx="2.50811688" ry="2.5"></ellipse>
                <ellipse id="Oval-32-Copy-289" fill="#2473A7" transform="translate(272.500000, 131.508117) rotate(-270.000000) translate(-272.500000, -131.508117) " cx="272.5" cy="131.508117" rx="2.50811688" ry="2.5"></ellipse>
                <ellipse id="Oval-32-Copy-290" fill="#2473A7" transform="translate(272.500000, 124.508117) rotate(-270.000000) translate(-272.500000, -124.508117) " cx="272.5" cy="124.508117" rx="2.50811688" ry="2.5"></ellipse>
                <ellipse id="Oval-32-Copy-291" fill="#2473A7" transform="translate(271.500000, 117.508117) rotate(-270.000000) translate(-271.500000, -117.508117) " cx="271.5" cy="117.508117" rx="2.50811688" ry="2.5"></ellipse>
                <ellipse id="Oval-32-Copy-292" fill="#2473A7" transform="translate(270.500000, 110.508117) rotate(-270.000000) translate(-270.500000, -110.508117) " cx="270.5" cy="110.508117" rx="2.50811688" ry="2.5"></ellipse>
                <ellipse id="Oval-32-Copy-293" fill="#2473A7" transform="translate(268.500000, 103.508117) rotate(-270.000000) translate(-268.500000, -103.508117) " cx="268.5" cy="103.508117" rx="2.50811688" ry="2.5"></ellipse>
                <ellipse id="Oval-32-Copy-294" fill="#2473A7" transform="translate(266.500000, 96.508117) rotate(-270.000000) translate(-266.500000, -96.508117) " cx="266.5" cy="96.5081169" rx="2.50811688" ry="2.5"></ellipse>
                <ellipse id="Oval-32-Copy-295" fill="#2473A7" transform="translate(264.500000, 89.508117) rotate(-270.000000) translate(-264.500000, -89.508117) " cx="264.5" cy="89.5081169" rx="2.50811688" ry="2.5"></ellipse>
                <ellipse id="Oval-32-Copy-296" fill="#2473A7" transform="translate(261.500000, 82.508117) rotate(-270.000000) translate(-261.500000, -82.508117) " cx="261.5" cy="82.5081169" rx="2.50811688" ry="2.5"></ellipse>
                <ellipse id="Oval-32-Copy-297" fill="#2473A7" transform="translate(258.500000, 75.508117) rotate(-270.000000) translate(-258.500000, -75.508117) " cx="258.5" cy="75.5081169" rx="2.50811688" ry="2.5"></ellipse>
                <ellipse id="Oval-32-Copy-298" fill="#2473A7" transform="translate(254.500000, 68.508117) rotate(-270.000000) translate(-254.500000, -68.508117) " cx="254.5" cy="68.5081169" rx="2.50811688" ry="2.5"></ellipse>
                <ellipse id="Oval-32-Copy-299" fill="#2473A7" transform="translate(249.500000, 61.508117) rotate(-270.000000) translate(-249.500000, -61.508117) " cx="249.5" cy="61.5081169" rx="2.50811688" ry="2.5"></ellipse>
                <ellipse id="Oval-32-Copy-300" fill="#2473A7" transform="translate(244.500000, 54.508117) rotate(-270.000000) translate(-244.500000, -54.508117) " cx="244.5" cy="54.5081169" rx="2.50811688" ry="2.5"></ellipse>
                <ellipse id="Oval-32-Copy-301" fill="#2473A7" transform="translate(238.500000, 48.508117) rotate(-270.000000) translate(-238.500000, -48.508117) " cx="238.5" cy="48.5081169" rx="2.50811688" ry="2.5"></ellipse>
                <ellipse id="Oval-32-Copy-302" fill="#2473A7" transform="translate(232.500000, 42.508117) rotate(-270.000000) translate(-232.500000, -42.508117) " cx="232.5" cy="42.5081169" rx="2.50811688" ry="2.5"></ellipse>
                <ellipse id="Oval-32-Copy-303" fill="#2473A7" transform="translate(226.500000, 37.508117) rotate(-270.000000) translate(-226.500000, -37.508117) " cx="226.5" cy="37.5081169" rx="2.50811688" ry="2.5"></ellipse>
                <ellipse id="Oval-32-Copy-304" fill="#2473A7" transform="translate(219.500000, 32.508117) rotate(-270.000000) translate(-219.500000, -32.508117) " cx="219.5" cy="32.5081169" rx="2.50811688" ry="2.5"></ellipse>
                <ellipse id="Oval-32-Copy-305" fill="#2473A7" transform="translate(211.500000, 27.508117) rotate(-270.000000) translate(-211.500000, -27.508117) " cx="211.5" cy="27.5081169" rx="2.50811688" ry="2.5"></ellipse>
                <ellipse id="Oval-32-Copy-306" fill="#2473A7" transform="translate(204.500000, 23.508117) rotate(-270.000000) translate(-204.500000, -23.508117) " cx="204.5" cy="23.5081169" rx="2.50811688" ry="2.5"></ellipse>
                <ellipse id="Oval-32-Copy-307" fill="#2473A7" transform="translate(197.500000, 20.508117) rotate(-270.000000) translate(-197.500000, -20.508117) " cx="197.5" cy="20.5081169" rx="2.50811688" ry="2.5"></ellipse>
                <ellipse id="Oval-32-Copy-308" fill="#2473A7" transform="translate(190.500000, 17.508117) rotate(-270.000000) translate(-190.500000, -17.508117) " cx="190.5" cy="17.5081169" rx="2.50811688" ry="2.5"></ellipse>
                <ellipse id="Oval-32-Copy-309" fill="#2473A7" transform="translate(183.500000, 15.508117) rotate(-270.000000) translate(-183.500000, -15.508117) " cx="183.5" cy="15.5081169" rx="2.50811688" ry="2.5"></ellipse>
                <ellipse id="Oval-32-Copy-310" fill="#2473A7" transform="translate(176.500000, 13.508117) rotate(-270.000000) translate(-176.500000, -13.508117) " cx="176.5" cy="13.5081169" rx="2.50811688" ry="2.5"></ellipse>
                <ellipse id="Oval-32-Copy-311" fill="#2473A7" transform="translate(169.500000, 12.508117) rotate(-270.000000) translate(-169.500000, -12.508117) " cx="169.5" cy="12.5081169" rx="2.50811688" ry="2.5"></ellipse>
                <ellipse id="Oval-32-Copy-312" fill="#2473A7" transform="translate(162.500000, 11.508117) rotate(-270.000000) translate(-162.500000, -11.508117) " cx="162.5" cy="11.5081169" rx="2.50811688" ry="2.5"></ellipse>
                <ellipse id="Oval-32-Copy-313" fill="#2473A7" transform="translate(155.500000, 11.508117) rotate(-270.000000) translate(-155.500000, -11.508117) " cx="155.5" cy="11.5081169" rx="2.50811688" ry="2.5"></ellipse>
                <ellipse id="Oval-32-Copy-314" fill="#2473A7" transform="translate(148.500000, 11.508117) rotate(-270.000000) translate(-148.500000, -11.508117) " cx="148.5" cy="11.5081169" rx="2.50811688" ry="2.5"></ellipse>
                <ellipse id="Oval-32-Copy-315" fill="#2473A7" transform="translate(141.500000, 12.508117) rotate(-270.000000) translate(-141.500000, -12.508117) " cx="141.5" cy="12.5081169" rx="2.50811688" ry="2.5"></ellipse>
                <ellipse id="Oval-32-Copy-316" fill="#2473A7" transform="translate(134.500000, 13.508117) rotate(-270.000000) translate(-134.500000, -13.508117) " cx="134.5" cy="13.5081169" rx="2.50811688" ry="2.5"></ellipse>
                <ellipse id="Oval-32-Copy-317" fill="#2473A7" transform="translate(127.500000, 15.508117) rotate(-270.000000) translate(-127.500000, -15.508117) " cx="127.5" cy="15.5081169" rx="2.50811688" ry="2.5"></ellipse>
                <ellipse id="Oval-32-Copy-318" fill="#2473A7" transform="translate(120.500000, 17.508117) rotate(-270.000000) translate(-120.500000, -17.508117) " cx="120.5" cy="17.5081169" rx="2.50811688" ry="2.5"></ellipse>
                <ellipse id="Oval-32-Copy-319" fill="#2473A7" transform="translate(113.500000, 19.508117) rotate(-270.000000) translate(-113.500000, -19.508117) " cx="113.5" cy="19.5081169" rx="2.50811688" ry="2.5"></ellipse>
                <ellipse id="Oval-32-Copy-320" fill="#2473A7" transform="translate(106.500000, 22.508117) rotate(-270.000000) translate(-106.500000, -22.508117) " cx="106.5" cy="22.5081169" rx="2.50811688" ry="2.5"></ellipse>
                <ellipse id="Oval-32-Copy-321" fill="#2473A7" transform="translate(99.500000, 26.508117) rotate(-270.000000) translate(-99.500000, -26.508117) " cx="99.5" cy="26.5081169" rx="2.50811688" ry="2.5"></ellipse>
                <ellipse id="Oval-32-Copy-322" fill="#2473A7" transform="translate(92.500000, 30.508117) rotate(-270.000000) translate(-92.500000, -30.508117) " cx="92.5" cy="30.5081169" rx="2.50811688" ry="2.5"></ellipse>
                <ellipse id="Oval-32-Copy-323" fill="#2473A7" transform="translate(85.500000, 35.508117) rotate(-270.000000) translate(-85.500000, -35.508117) " cx="85.5" cy="35.5081169" rx="2.50811688" ry="2.5"></ellipse>
                <ellipse id="Oval-32-Copy-324" fill="#2473A7" transform="translate(78.500000, 40.508117) rotate(-270.000000) translate(-78.500000, -40.508117) " cx="78.5" cy="40.5081169" rx="2.50811688" ry="2.5"></ellipse>
                <circle id="Oval-33-Copy-19" stroke="#3378A7" stroke-width="4.5" cx="235" cy="262" r="5"></circle>
                <path d="M90.5,103.5 L90.5,106 L93,106 L93,103.5 L90.5,103.5 Z M16.286876,103.5 L16,103.5 L16,106 L18.5,106 L18.5,103.565868 L16.286876,103.5 Z M90.5,103.5 L16.286876,103.5 L16.0743731,103.493675 C8.52412614,103.268962 2.5,97.0737011 2.5,89.5 C2.5,81.7680135 8.7680135,75.5 16.5,75.5 C18.4241249,75.5 20.2895826,75.8869418 22.015728,76.6277359 L25.5403409,78.1403621 L25.5015423,74.3050747 C25.5005143,74.2034569 25.5,74.1017627 25.5,74 C25.5,57.7075999 38.7075999,44.5 55,44.5 C71.2924001,44.5 84.5,57.7075999 84.5,74 C84.5,74.1017627 84.4994857,74.2034569 84.4984577,74.3050747 L84.4596591,78.1403621 L87.984272,76.6277359 C89.7104174,75.8869418 91.5758751,75.5 93.5,75.5 C101.231986,75.5 107.5,81.7680135 107.5,89.5 C107.5,97.2319865 101.231986,103.5 93.5,103.5 C93.3578266,103.5 93.2159419,103.497889 93.0743731,103.493675 L90.5,103.417056 L90.5,103.5 Z" id="Combined-Shape-Copy-3" stroke="#2473A7" stroke-width="5"></path>
                <g id="Group-28" transform="translate(130.000000, 101.000000)" stroke-linecap="round" stroke-width="4.5" stroke="#2473A7">
                    <polyline id="Path-25-Copy" stroke-linejoin="round" points="0 26 29.5 0 59 26"></polyline>
                    <path d="M30,4.0859375 L29.8461538,70.203125" id="Path-7-Copy"></path>
                </g>
                <path d="M272.5,215.5 L272.5,218 L275,218 L275,215.5 L272.5,215.5 Z M218.298716,215.5 L218,215.5 L218,218 L220.5,218 L220.5,215.586593 L218.298716,215.5 Z M272.5,215.5 L218.298716,215.5 L218.098268,215.492115 C212.747859,215.281642 208.5,210.873564 208.5,205.5 C208.5,200.123618 212.75215,195.71419 218.105853,195.50759 L220.41835,195.41835 L220.50759,193.105853 C220.71419,187.75215 225.123618,183.5 230.5,183.5 C232.577329,183.5 234.553404,184.132056 236.217899,185.29467 L238.696187,187.0257 L239.93128,184.266549 C242.569182,178.373576 248.430639,174.5 255,174.5 C264.112698,174.5 271.5,181.887302 271.5,191 C271.5,191.615089 271.466453,192.225549 271.399917,192.829709 L271.051917,195.98957 L274.204756,195.582835 C274.631345,195.527803 275.063609,195.5 275.5,195.5 C281.022847,195.5 285.5,199.977153 285.5,205.5 C285.5,211.022847 281.022847,215.5 275.5,215.5 C275.365694,215.5 275.231769,215.497366 275.098268,215.492115 L272.5,215.389905 L272.5,215.5 Z" id="Combined-Shape-Copy-13" stroke="#3378A7" stroke-width="5"></path>
                <circle id="Oval-33-Copy-20" stroke="#3378A7" stroke-width="4.5" cx="307.5" cy="168.5" r="3.5"></circle>
                <circle id="Oval-33-Copy-21" stroke="#3378A7" stroke-width="4.5" cx="15.5" cy="142.5" r="3.5"></circle>
                <circle id="Oval-33-Copy-22" stroke="#3378A7" stroke-width="4.5" cx="22.5" cy="21.5" r="3.5"></circle>
                <polygon id="Rectangle-30" fill="#FAFAFA" points="276 209 276.082809 212.97908 266.823181 212.97908"></polygon>
                <g id="Group-61-Copy" transform="translate(127.235097, 170.964407) rotate(-199.000000) translate(-127.235097, -170.964407) translate(49.735097, 83.464407)" fill="#2473A7">
                    <ellipse id="Oval-32-Copy-282" transform="translate(139.491909, 172.500000) rotate(-270.000000) translate(-139.491909, -172.500000) " cx="139.491909" cy="172.5" rx="2.5" ry="2.49190939"></ellipse>
                    <ellipse id="Oval-32-Copy-283" transform="translate(143.491909, 164.500000) rotate(-270.000000) translate(-143.491909, -164.500000) " cx="143.491909" cy="164.5" rx="2.5" ry="2.49190939"></ellipse>
                    <ellipse id="Oval-32-Copy-284" transform="translate(146.491909, 157.500000) rotate(-270.000000) translate(-146.491909, -157.500000) " cx="146.491909" cy="157.5" rx="2.5" ry="2.49190939"></ellipse>
                    <ellipse id="Oval-32-Copy-285" transform="translate(148.491909, 150.500000) rotate(-270.000000) translate(-148.491909, -150.500000) " cx="148.491909" cy="150.5" rx="2.5" ry="2.49190939"></ellipse>
                    <ellipse id="Oval-32-Copy-286" transform="translate(150.491909, 143.500000) rotate(-270.000000) translate(-150.491909, -143.500000) " cx="150.491909" cy="143.5" rx="2.5" ry="2.49190939"></ellipse>
                    <ellipse id="Oval-32-Copy-287" transform="translate(151.491909, 136.500000) rotate(-270.000000) translate(-151.491909, -136.500000) " cx="151.491909" cy="136.5" rx="2.5" ry="2.49190939"></ellipse>
                    <ellipse id="Oval-32-Copy-288" transform="translate(152.500000, 129.508117) rotate(-270.000000) translate(-152.500000, -129.508117) " cx="152.5" cy="129.508117" rx="2.50811688" ry="2.5"></ellipse>
                    <ellipse id="Oval-32-Copy-289" transform="translate(152.500000, 122.508117) rotate(-270.000000) translate(-152.500000, -122.508117) " cx="152.5" cy="122.508117" rx="2.50811688" ry="2.5"></ellipse>
                    <ellipse id="Oval-32-Copy-290" transform="translate(152.500000, 115.508117) rotate(-270.000000) translate(-152.500000, -115.508117) " cx="152.5" cy="115.508117" rx="2.50811688" ry="2.5"></ellipse>
                    <ellipse id="Oval-32-Copy-291" transform="translate(151.500000, 108.508117) rotate(-270.000000) translate(-151.500000, -108.508117) " cx="151.5" cy="108.508117" rx="2.50811688" ry="2.5"></ellipse>
                    <ellipse id="Oval-32-Copy-292" transform="translate(150.500000, 101.508117) rotate(-270.000000) translate(-150.500000, -101.508117) " cx="150.5" cy="101.508117" rx="2.50811688" ry="2.5"></ellipse>
                    <ellipse id="Oval-32-Copy-293" transform="translate(148.500000, 94.508117) rotate(-270.000000) translate(-148.500000, -94.508117) " cx="148.5" cy="94.5081169" rx="2.50811688" ry="2.5"></ellipse>
                    <ellipse id="Oval-32-Copy-294" transform="translate(146.500000, 87.508117) rotate(-270.000000) translate(-146.500000, -87.508117) " cx="146.5" cy="87.5081169" rx="2.50811688" ry="2.5"></ellipse>
                    <ellipse id="Oval-32-Copy-295" transform="translate(144.500000, 80.508117) rotate(-270.000000) translate(-144.500000, -80.508117) " cx="144.5" cy="80.5081169" rx="2.50811688" ry="2.5"></ellipse>
                    <ellipse id="Oval-32-Copy-296" transform="translate(141.500000, 73.508117) rotate(-270.000000) translate(-141.500000, -73.508117) " cx="141.5" cy="73.5081169" rx="2.50811688" ry="2.5"></ellipse>
                    <ellipse id="Oval-32-Copy-297" transform="translate(138.500000, 66.508117) rotate(-270.000000) translate(-138.500000, -66.508117) " cx="138.5" cy="66.5081169" rx="2.50811688" ry="2.5"></ellipse>
                    <ellipse id="Oval-32-Copy-298" transform="translate(134.500000, 59.508117) rotate(-270.000000) translate(-134.500000, -59.508117) " cx="134.5" cy="59.5081169" rx="2.50811688" ry="2.5"></ellipse>
                    <ellipse id="Oval-32-Copy-299" transform="translate(129.500000, 52.508117) rotate(-270.000000) translate(-129.500000, -52.508117) " cx="129.5" cy="52.5081169" rx="2.50811688" ry="2.5"></ellipse>
                    <ellipse id="Oval-32-Copy-300" transform="translate(124.500000, 45.508117) rotate(-270.000000) translate(-124.500000, -45.508117) " cx="124.5" cy="45.5081169" rx="2.50811688" ry="2.5"></ellipse>
                    <ellipse id="Oval-32-Copy-301" transform="translate(118.500000, 39.508117) rotate(-270.000000) translate(-118.500000, -39.508117) " cx="118.5" cy="39.5081169" rx="2.50811688" ry="2.5"></ellipse>
                    <ellipse id="Oval-32-Copy-302" transform="translate(112.500000, 33.508117) rotate(-270.000000) translate(-112.500000, -33.508117) " cx="112.5" cy="33.5081169" rx="2.50811688" ry="2.5"></ellipse>
                    <ellipse id="Oval-32-Copy-303" transform="translate(106.500000, 28.508117) rotate(-270.000000) translate(-106.500000, -28.508117) " cx="106.5" cy="28.5081169" rx="2.50811688" ry="2.5"></ellipse>
                    <ellipse id="Oval-32-Copy-304" transform="translate(99.500000, 23.508117) rotate(-270.000000) translate(-99.500000, -23.508117) " cx="99.5" cy="23.5081169" rx="2.50811688" ry="2.5"></ellipse>
                    <ellipse id="Oval-32-Copy-305" transform="translate(91.500000, 18.508117) rotate(-270.000000) translate(-91.500000, -18.508117) " cx="91.5" cy="18.5081169" rx="2.50811688" ry="2.5"></ellipse>
                    <ellipse id="Oval-32-Copy-306" transform="translate(84.500000, 14.508117) rotate(-270.000000) translate(-84.500000, -14.508117) " cx="84.5" cy="14.5081169" rx="2.50811688" ry="2.5"></ellipse>
                    <ellipse id="Oval-32-Copy-307" transform="translate(77.500000, 11.508117) rotate(-270.000000) translate(-77.500000, -11.508117) " cx="77.5" cy="11.5081169" rx="2.50811688" ry="2.5"></ellipse>
                    <ellipse id="Oval-32-Copy-308" transform="translate(70.500000, 8.508117) rotate(-270.000000) translate(-70.500000, -8.508117) " cx="70.5" cy="8.50811688" rx="2.50811688" ry="2.5"></ellipse>
                    <ellipse id="Oval-32-Copy-309" transform="translate(62.536539, 6.402011) rotate(-270.000000) translate(-62.536539, -6.402011) " cx="62.5365389" cy="6.40201059" rx="2.50811688" ry="2.5"></ellipse>
                    <ellipse id="Oval-32-Copy-325" transform="translate(54.847228, 4.825022) rotate(-270.000000) translate(-54.847228, -4.825022) " cx="54.8472275" cy="4.8250217" rx="2.50811688" ry="2.5"></ellipse>
                    <ellipse id="Oval-32-Copy-326" transform="translate(46.006149, 4.268421) rotate(-270.000000) translate(-46.006149, -4.268421) " cx="46.0061487" cy="4.26842092" rx="2.50811688" ry="2.5"></ellipse>
                    <ellipse id="Oval-32-Copy-327" transform="translate(37.916585, 3.324212) rotate(-270.000000) translate(-37.916585, -3.324212) " cx="37.9165849" cy="3.32421194" rx="2.50811688" ry="2.5"></ellipse>
                    <ellipse id="Oval-32-Copy-328" transform="translate(29.297848, 3.602550) rotate(-270.000000) translate(-29.297848, -3.602550) " cx="29.2978479" cy="3.60254979" rx="2.50811688" ry="2.5"></ellipse>
                    <ellipse id="Oval-32-Copy-329" transform="translate(20.842769, 3.858871) rotate(-270.000000) translate(-20.842769, -3.858871) " cx="20.8427691" cy="3.85887057" rx="2.50811688" ry="2.5"></ellipse>
                    <ellipse id="Oval-32-Copy-330" transform="translate(11.976958, 4.831310) rotate(-270.000000) translate(-11.976958, -4.831310) " cx="11.9769576" cy="4.83131033" rx="2.50811688" ry="2.5"></ellipse>
                    <ellipse id="Oval-32-Copy-331" transform="translate(3.410494, 7.427674) rotate(-270.000000) translate(-3.410494, -7.427674) " cx="3.41049353" cy="7.42767411" rx="2.50811688" ry="2.5"></ellipse>
                </g>
            </g>
        </g>
    </g>
</svg>