<?xml version="1.0" encoding="UTF-8"?>
<svg width="114px" height="72px" viewBox="0 0 114 72" version="1.1" xmlns="http://www.w3.org/2000/svg" xmlns:xlink="http://www.w3.org/1999/xlink">
    <!-- Generator: Sketch 47.1 (45422) - http://www.bohemiancoding.com/sketch -->
    <title>11</title>
    <desc>Created with Sketch.</desc>
    <defs></defs>
    <g id="Page-1" stroke="none" stroke-width="1" fill="none" fill-rule="evenodd">
        <g id="operating-system" transform="translate(-1040.000000, -2849.000000)">
            <g id="11" transform="translate(1040.000000, 2849.000000)">
                <g id="Group-43">
                    <path d="M23.0051089,34.0910357 C21.1379269,33.385876 19.1140265,33 17,33 C7.61115925,33 0,40.6111593 0,50 C0,59.053146 7.07662053,66.4534586 16,66.9710764 L16,67 L96,67 L96,66.9710764 C96.330883,66.9902699 96.6643052,67 97,67 C106.388841,67 114,59.3888407 114,50 C114,40.6111593 106.388841,33 97,33 C94.4987546,33 92.1236752,33.5401812 89.9850582,34.5102474 C89.994996,34.1747137 90,33.8379412 90,33.5 C90,14.9984609 75.0015391,0 56.5,0 C37.9984609,0 23,14.9984609 23,33.5 C23,33.6974154 23.0017076,33.894432 23.0051089,34.0910357 Z" id="Combined-Shape" fill="#2980B9"></path>
                    <g id="Group-42" transform="translate(48.000000, 41.000000)" stroke-width="4.5" stroke="#FAFAFA">
                        <polyline id="Path-25" stroke-linecap="round" stroke-linejoin="round" points="0 8 9 0 18 8"></polyline>
                        <path d="M8.66666667,0.998097215 L8.66666667,30.1960146" id="Path-7"></path>
                    </g>
                </g>
            </g>
        </g>
    </g>
</svg>