<?xml version="1.0" encoding="UTF-8"?>
<svg width="72px" height="70px" viewBox="0 0 72 70" version="1.1" xmlns="http://www.w3.org/2000/svg" xmlns:xlink="http://www.w3.org/1999/xlink">
    <!-- Generator: Sketch 47.1 (45422) - http://www.bohemiancoding.com/sketch -->
    <title>3</title>
    <desc>Created with Sketch.</desc>
    <defs></defs>
    <g id="Page-1" stroke="none" stroke-width="1" fill="none" fill-rule="evenodd">
        <g id="features-page-icons" transform="translate(-485.000000, -169.000000)" stroke="#3378A7" stroke-width="3.6">
            <g id="3" transform="translate(487.000000, 171.000000)">
                <ellipse id="Oval-26" cx="34.4533333" cy="6.32876712" rx="6.34666667" ry="6.32876712"></ellipse>
                <ellipse id="Oval-26-Copy" cx="17.2266667" cy="59.6712329" rx="6.34666667" ry="6.32876712"></ellipse>
                <ellipse id="Oval-26-Copy-4" cx="6.34666667" cy="26.2191781" rx="6.34666667" ry="6.32876712"></ellipse>
                <ellipse id="Oval-26-Copy-5" cx="61.6533333" cy="26.2191781" rx="6.34666667" ry="6.32876712"></ellipse>
                <ellipse id="Oval-26-Copy-2" cx="51.68" cy="58.7671233" rx="6.34666667" ry="6.32876712"></ellipse>
                <ellipse id="Oval-26-Copy-3" cx="34" cy="35.7123288" rx="6.8" ry="6.78082192"></ellipse>
                <path d="M39.9886652,10.2835505 L56.4913848,22.1558369 M59.84,32.1004631 L53.3963802,51.922069 M45.1612937,57.8630137 L24.2486009,57.8630137 M15.8223802,52.580255 L9.06666667,31.9923103 M12.0691146,22.3864244 L29.4237972,9.94520548" id="Polygon-2"></path>
                <path d="M34.499375,28.8882438 L34.499375,12.7864405" id="Path-56"></path>
                <path d="M41.0476953,33.9407507 L55.3066667,28.9315068" id="Path-58"></path>
                <path d="M21.4308464,53.847275 L30.8266667,40.6849315" id="Path-57"></path>
                <path d="M38.9866667,41.5890411 L48.0533333,53.3424658" id="Path-59"></path>
                <path d="M12.7274219,28.586506 L27.6391667,33.8343589" id="Path-60"></path>
            </g>
        </g>
    </g>
</svg>