<?xml version="1.0" encoding="UTF-8"?>
<svg width="948px" height="527px" viewBox="0 0 948 527" version="1.1" xmlns="http://www.w3.org/2000/svg" xmlns:xlink="http://www.w3.org/1999/xlink">
    <!-- Generator: Sketch 47.1 (45422) - http://www.bohemiancoding.com/sketch -->
    <title>graphic 1</title>
    <desc>Created with Sketch.</desc>
    <defs></defs>
    <g id="Page-1" stroke="none" stroke-width="1" fill="none" fill-rule="evenodd">
        <g id="features-page-icons" transform="translate(-415.000000, -592.000000)">
            <g id="graphic-1" transform="translate(420.000000, 597.000000)">
                <path d="M368.5,67.5 L567.5,67.5 C581.859403,67.5 593.5,79.1405965 593.5,93.5 C593.5,107.859403 581.859403,119.5 567.5,119.5 L368.5,119.5 C354.140597,119.5 342.5,107.859403 342.5,93.5 C342.5,79.1405965 354.140597,67.5 368.5,67.5 Z" id="Rectangle-16" stroke="#236EA0" stroke-width="5"></path>
                <path d="M368.5,-2.5 L567.5,-2.5 C581.859403,-2.5 593.5,9.1405965 593.5,23.5 C593.5,37.8594035 581.859403,49.5 567.5,49.5 L368.5,49.5 C354.140597,49.5 342.5,37.8594035 342.5,23.5 C342.5,9.1405965 354.140597,-2.5 368.5,-2.5 Z" id="Rectangle-16-Copy" stroke="#336E9C" stroke-width="5"></path>
                <g id="Group" transform="translate(500.000000, 88.000000)" fill="#236EA0">
                    <ellipse id="Oval-6" cx="56.1299811" cy="5.80840336" rx="6.09344262" ry="5.80840336"></ellipse>
                    <ellipse id="Oval-6-Copy-2" cx="31.1117119" cy="5.80840336" rx="6.09344262" ry="5.80840336"></ellipse>
                    <ellipse id="Oval-6-Copy-4" cx="6.09344262" cy="5.80840336" rx="6.09344262" ry="5.80840336"></ellipse>
                </g>
                <g id="Group-Copy-7" transform="translate(500.000000, 20.000000)" fill="#236EA0">
                    <ellipse id="Oval-6" cx="56.1299811" cy="5.80840336" rx="6.09344262" ry="5.80840336"></ellipse>
                    <ellipse id="Oval-6-Copy-2" cx="31.1117119" cy="5.80840336" rx="6.09344262" ry="5.80840336"></ellipse>
                    <ellipse id="Oval-6-Copy-4" cx="6.09344262" cy="5.80840336" rx="6.09344262" ry="5.80840336"></ellipse>
                </g>
                <rect id="Rectangle-16" stroke="#236EA0" stroke-width="5" x="342.5" y="136.5" width="251" height="52" rx="26"></rect>
                <g id="Group-4" transform="translate(500.000000, 157.000000)" fill="#236EA0">
                    <ellipse id="Oval-6" cx="56.0492164" cy="6.2605042" rx="6.07191617" ry="6.22328932"></ellipse>
                    <ellipse id="Oval-6-Copy-2" cx="31.7615517" cy="6.2605042" rx="6.07191617" ry="6.22328932"></ellipse>
                    <ellipse id="Oval-6-Copy-4" cx="6.12457235" cy="6.2605042" rx="6.07191617" ry="6.22328932"></ellipse>
                </g>
                <rect id="Rectangle-16" stroke="#236EA0" stroke-width="5" x="342.5" y="204.5" width="251" height="52" rx="26"></rect>
                <g id="Group-5" transform="translate(500.000000, 224.000000)" fill="#236EA0">
                    <ellipse id="Oval-6" cx="56.9798274" cy="6.2605042" rx="6.1046235" ry="6.22328932"></ellipse>
                    <ellipse id="Oval-6-Copy-2" cx="32.5613334" cy="6.2605042" rx="6.1046235" ry="6.22328932"></ellipse>
                    <ellipse id="Oval-6-Copy-4" cx="6.78625634" cy="6.2605042" rx="6.1046235" ry="6.22328932"></ellipse>
                </g>
                <g id="Group-19" transform="translate(0.000000, 176.000000)">
                    <path d="M21,-2.25 L200,-2.25 C212.84062,-2.25 223.25,8.15937957 223.25,21 C223.25,33.8406204 212.84062,44.25 200,44.25 L21,44.25 C8.15937957,44.25 -2.25,33.8406204 -2.25,21 C-2.25,8.15937957 8.15937957,-2.25 21,-2.25 Z" id="Rectangle-16" stroke="#236EA0" stroke-width="4.5"></path>
                    <g id="Group" transform="translate(140.000000, 16.000000)" fill="#236EA0">
                        <ellipse id="Oval-6" cx="50.7842686" cy="5.32436975" rx="5.51311475" ry="5.32436975"></ellipse>
                        <ellipse id="Oval-6-Copy-2" cx="28.1486917" cy="5.32436975" rx="5.51311475" ry="5.32436975"></ellipse>
                        <ellipse id="Oval-6-Copy-4" cx="5.51311475" cy="5.32436975" rx="5.51311475" ry="5.32436975"></ellipse>
                    </g>
                    <rect id="Rectangle-16" stroke="#236EA0" stroke-width="4.5" x="-2.25" y="59.75" width="225.5" height="46.5" rx="23.25"></rect>
                    <g id="Group-4" transform="translate(140.000000, 79.000000)" fill="#236EA0">
                        <ellipse id="Oval-6" cx="50.7111958" cy="5.77892696" rx="5.49363844" ry="5.74457475"></ellipse>
                        <ellipse id="Oval-6-Copy-2" cx="28.7366421" cy="5.77892696" rx="5.49363844" ry="5.74457475"></ellipse>
                        <ellipse id="Oval-6-Copy-4" cx="5.54127975" cy="5.77892696" rx="5.49363844" ry="5.74457475"></ellipse>
                    </g>
                    <rect id="Rectangle-16" stroke="#236EA0" stroke-width="4.5" x="-2.25" y="121.75" width="225.5" height="46.5" rx="23.25"></rect>
                    <g id="Group-5" transform="translate(140.000000, 139.000000)" fill="#236EA0">
                        <ellipse id="Oval-6" cx="51.6379686" cy="5.77892696" rx="5.53231505" ry="5.74457475"></ellipse>
                        <ellipse id="Oval-6-Copy-2" cx="29.5087084" cy="5.77892696" rx="5.53231505" ry="5.74457475"></ellipse>
                        <ellipse id="Oval-6-Copy-4" cx="6.15004481" cy="5.77892696" rx="5.53231505" ry="5.74457475"></ellipse>
                    </g>
                </g>
                <path d="M379,348.75 L558,348.75 C570.84062,348.75 581.25,359.15938 581.25,372 C581.25,384.84062 570.84062,395.25 558,395.25 L379,395.25 C366.15938,395.25 355.75,384.84062 355.75,372 C355.75,359.15938 366.15938,348.75 379,348.75 Z" id="Rectangle-16" stroke="#236EA0" stroke-width="4.5"></path>
                <g id="Group" transform="translate(498.000000, 367.000000)" fill="#236EA0">
                    <ellipse id="Oval-6" cx="50.7842686" cy="5.32436975" rx="5.51311475" ry="5.32436975"></ellipse>
                    <ellipse id="Oval-6-Copy-2" cx="28.1486917" cy="5.32436975" rx="5.51311475" ry="5.32436975"></ellipse>
                    <ellipse id="Oval-6-Copy-4" cx="5.51311475" cy="5.32436975" rx="5.51311475" ry="5.32436975"></ellipse>
                </g>
                <rect id="Rectangle-16" stroke="#236EA0" stroke-width="4.5" x="355.75" y="410.75" width="225.5" height="46.5" rx="23.25"></rect>
                <g id="Group-4" transform="translate(498.000000, 430.000000)" fill="#236EA0">
                    <ellipse id="Oval-6" cx="50.7111958" cy="5.77892696" rx="5.49363844" ry="5.74457475"></ellipse>
                    <ellipse id="Oval-6-Copy-2" cx="28.7366421" cy="5.77892696" rx="5.49363844" ry="5.74457475"></ellipse>
                    <ellipse id="Oval-6-Copy-4" cx="5.54127975" cy="5.77892696" rx="5.49363844" ry="5.74457475"></ellipse>
                </g>
                <rect id="Rectangle-16" stroke="#236EA0" stroke-width="4.5" x="355.75" y="472.75" width="225.5" height="46.5" rx="23.25"></rect>
                <g id="Group-5" transform="translate(498.000000, 490.000000)" fill="#236EA0">
                    <ellipse id="Oval-6" cx="51.6379686" cy="5.77892696" rx="5.53231505" ry="5.74457475"></ellipse>
                    <ellipse id="Oval-6-Copy-2" cx="29.5087084" cy="5.77892696" rx="5.53231505" ry="5.74457475"></ellipse>
                    <ellipse id="Oval-6-Copy-4" cx="6.15004481" cy="5.77892696" rx="5.53231505" ry="5.74457475"></ellipse>
                </g>
                <g id="Group-29" transform="translate(717.000000, 176.000000)">
                    <path d="M21,-2.25 L200,-2.25 C212.84062,-2.25 223.25,8.15937957 223.25,21 C223.25,33.8406204 212.84062,44.25 200,44.25 L21,44.25 C8.15937957,44.25 -2.25,33.8406204 -2.25,21 C-2.25,8.15937957 8.15937957,-2.25 21,-2.25 Z" id="Rectangle-16" stroke="#236EA0" stroke-width="4.5"></path>
                    <g id="Group" transform="translate(140.000000, 16.000000)" fill="#236EA0">
                        <ellipse id="Oval-6" cx="50.7842686" cy="5.32436975" rx="5.51311475" ry="5.32436975"></ellipse>
                        <ellipse id="Oval-6-Copy-2" cx="28.1486917" cy="5.32436975" rx="5.51311475" ry="5.32436975"></ellipse>
                        <ellipse id="Oval-6-Copy-4" cx="5.51311475" cy="5.32436975" rx="5.51311475" ry="5.32436975"></ellipse>
                    </g>
                    <rect id="Rectangle-16" stroke="#236EA0" stroke-width="4.5" x="-2.25" y="59.75" width="225.5" height="46.5" rx="23.25"></rect>
                    <g id="Group-4" transform="translate(140.000000, 79.000000)" fill="#236EA0">
                        <ellipse id="Oval-6" cx="50.7111958" cy="5.77892696" rx="5.49363844" ry="5.74457475"></ellipse>
                        <ellipse id="Oval-6-Copy-2" cx="28.7366421" cy="5.77892696" rx="5.49363844" ry="5.74457475"></ellipse>
                        <ellipse id="Oval-6-Copy-4" cx="5.54127975" cy="5.77892696" rx="5.49363844" ry="5.74457475"></ellipse>
                    </g>
                    <rect id="Rectangle-16" stroke="#236EA0" stroke-width="4.5" x="-2.25" y="121.75" width="225.5" height="46.5" rx="23.25"></rect>
                    <g id="Group-5" transform="translate(140.000000, 139.000000)" fill="#236EA0">
                        <ellipse id="Oval-6" cx="51.6379686" cy="5.77892696" rx="5.53231505" ry="5.74457475"></ellipse>
                        <ellipse id="Oval-6-Copy-2" cx="29.5087084" cy="5.77892696" rx="5.53231505" ry="5.74457475"></ellipse>
                        <ellipse id="Oval-6-Copy-4" cx="6.15004481" cy="5.77892696" rx="5.53231505" ry="5.74457475"></ellipse>
                    </g>
                </g>
                <path d="M464,269 L464,284.171875" id="Path-23" stroke="#236EA0" stroke-width="5" stroke-linecap="round" stroke-linejoin="round"></path>
                <path d="M464,296 L464,311.171875" id="Path-23-Copy" stroke="#236EA0" stroke-width="5" stroke-linecap="round" stroke-linejoin="round"></path>
                <path d="M464,323 L464,338.171875" id="Path-23-Copy-2" stroke="#236EA0" stroke-width="5" stroke-linecap="round" stroke-linejoin="round"></path>
                <path d="M464,328.5 L464,332.171875" id="Path-23-Copy-4" stroke="#236EA0" stroke-width="5" stroke-linecap="round" stroke-linejoin="round"></path>
                <path d="M829,94 L829,109.171875" id="Path-23" stroke="#236EA0" stroke-width="5" stroke-linecap="round" stroke-linejoin="round"></path>
                <path d="M829,121 L829,136.171875" id="Path-23-Copy" stroke="#236EA0" stroke-width="5" stroke-linecap="round" stroke-linejoin="round"></path>
                <path d="M829,148 L829,163.171875" id="Path-23-Copy-2" stroke="#236EA0" stroke-width="5" stroke-linecap="round" stroke-linejoin="round"></path>
                <path d="M242,85 L242,100.171875" id="Path-23" stroke="#236EA0" stroke-width="5" stroke-linecap="round" stroke-linejoin="round" transform="translate(242.000000, 93.000000) rotate(-270.000000) translate(-242.000000, -93.000000) "></path>
                <path d="M215,85 L215,100.171875" id="Path-23-Copy" stroke="#236EA0" stroke-width="5" stroke-linecap="round" stroke-linejoin="round" transform="translate(215.000000, 93.000000) rotate(-270.000000) translate(-215.000000, -93.000000) "></path>
                <path d="M188,85 L188,100.171875" id="Path-23-Copy-2" stroke="#236EA0" stroke-width="5" stroke-linecap="round" stroke-linejoin="round" transform="translate(188.000000, 93.000000) rotate(-270.000000) translate(-188.000000, -93.000000) "></path>
                <path d="M161,85 L161,100.171875" id="Path-23-Copy-3" stroke="#236EA0" stroke-width="5" stroke-linecap="round" stroke-linejoin="round" transform="translate(161.000000, 93.000000) rotate(-270.000000) translate(-161.000000, -93.000000) "></path>
                <path d="M134,85 L134,100.171875" id="Path-23-Copy-4" stroke="#236EA0" stroke-width="5" stroke-linecap="round" stroke-linejoin="round" transform="translate(134.000000, 93.000000) rotate(-270.000000) translate(-134.000000, -93.000000) "></path>
                <path d="M725,86 L725,101.171875" id="Path-23" stroke="#236EA0" stroke-width="5" stroke-linecap="round" stroke-linejoin="round" transform="translate(725.000000, 94.000000) rotate(-270.000000) translate(-725.000000, -94.000000) "></path>
                <path d="M698,86 L698,101.171875" id="Path-23-Copy" stroke="#236EA0" stroke-width="5" stroke-linecap="round" stroke-linejoin="round" transform="translate(698.000000, 94.000000) rotate(-270.000000) translate(-698.000000, -94.000000) "></path>
                <path d="M671,86 L671,101.171875" id="Path-23-Copy-2" stroke="#236EA0" stroke-width="5" stroke-linecap="round" stroke-linejoin="round" transform="translate(671.000000, 94.000000) rotate(-270.000000) translate(-671.000000, -94.000000) "></path>
                <path d="M644,86 L644,101.171875" id="Path-23-Copy-3" stroke="#236EA0" stroke-width="5" stroke-linecap="round" stroke-linejoin="round" transform="translate(644.000000, 94.000000) rotate(-270.000000) translate(-644.000000, -94.000000) "></path>
                <path d="M617,86 L617,101.171875" id="Path-23-Copy-4" stroke="#236EA0" stroke-width="5" stroke-linecap="round" stroke-linejoin="round" transform="translate(617.000000, 94.000000) rotate(-270.000000) translate(-617.000000, -94.000000) "></path>
                <path d="M323,85 L323,100.171875" id="Path-23-Copy-2" stroke="#236EA0" stroke-width="5" stroke-linecap="round" stroke-linejoin="round" transform="translate(323.000000, 93.000000) rotate(-270.000000) translate(-323.000000, -93.000000) "></path>
                <path d="M296,85 L296,100.171875" id="Path-23-Copy-3" stroke="#236EA0" stroke-width="5" stroke-linecap="round" stroke-linejoin="round" transform="translate(296.000000, 93.000000) rotate(-270.000000) translate(-296.000000, -93.000000) "></path>
                <path d="M269,85 L269,100.171875" id="Path-23-Copy-4" stroke="#236EA0" stroke-width="5" stroke-linecap="round" stroke-linejoin="round" transform="translate(269.000000, 93.000000) rotate(-270.000000) translate(-269.000000, -93.000000) "></path>
                <path d="M806,86 L806,101.171875" id="Path-23-Copy-2" stroke="#236EA0" stroke-width="5" stroke-linecap="round" stroke-linejoin="round" transform="translate(806.000000, 94.000000) rotate(-270.000000) translate(-806.000000, -94.000000) "></path>
                <path d="M779,86 L779,101.171875" id="Path-23-Copy-3" stroke="#236EA0" stroke-width="5" stroke-linecap="round" stroke-linejoin="round" transform="translate(779.000000, 94.000000) rotate(-270.000000) translate(-779.000000, -94.000000) "></path>
                <path d="M752,86 L752,101.171875" id="Path-23-Copy-4" stroke="#236EA0" stroke-width="5" stroke-linecap="round" stroke-linejoin="round" transform="translate(752.000000, 94.000000) rotate(-270.000000) translate(-752.000000, -94.000000) "></path>
                <path d="M112,93 L112,108.171875" id="Path-23" stroke="#236EA0" stroke-width="5" stroke-linecap="round" stroke-linejoin="round"></path>
                <path d="M112,120 L112,135.171875" id="Path-23-Copy" stroke="#236EA0" stroke-width="5" stroke-linecap="round" stroke-linejoin="round"></path>
                <path d="M112,147 L112,162.171875" id="Path-23-Copy-2" stroke="#236EA0" stroke-width="5" stroke-linecap="round" stroke-linejoin="round"></path>
            </g>
        </g>
    </g>
</svg>