<?xml version="1.0" encoding="UTF-8"?>
<svg width="1369px" height="337px" viewBox="0 0 1369 337" version="1.1" xmlns="http://www.w3.org/2000/svg" xmlns:xlink="http://www.w3.org/1999/xlink">
    <!-- Generator: Sketch 47.1 (45422) - http://www.bohemiancoding.com/sketch -->
    <title>graphic 2</title>
    <desc>Created with Sketch.</desc>
    <defs>
        <path d="M0,45.5 L166,45.5 L166,177.142313 C139.633723,197.141533 111.967056,207.093873 83,206.999333 C56.8786051,206.91408 31.8146545,198.812711 7.8081481,182.695227 L7.80814882,182.695226 C2.92779536,179.418655 1.11617386e-14,173.926546 0,168.048301 L0,45.5 Z" id="path-1"></path>
        <ellipse id="path-2" cx="57.0115583" cy="57.2028424" rx="57.0115583" ry="57.2028424"></ellipse>
    </defs>
    <g id="Page-1" stroke="none" stroke-width="1" fill="none" fill-rule="evenodd" opacity="0.926630435">
        <g id="features-page-icons" transform="translate(0.000000, -1375.000000)">
            <g id="graphic-2" transform="translate(3.000000, 1374.000000)">
                <circle id="Oval-Copy-27" stroke="#277BB3" stroke-width="10.0749998" cx="837" cy="310" r="13.0374999"></circle>
                <circle id="Oval-Copy-25" stroke="#277BB3" stroke-width="10.0749998" cx="1256" cy="86" r="13.0374999"></circle>
                <circle id="Oval-Copy-31" stroke="#3776A8" stroke-width="10.0749998" cx="1347" cy="289" r="13.0374999"></circle>
                <circle id="Oval-Copy-28" stroke="#3785B9" stroke-width="10.0749998" cx="1025" cy="136" r="13.0374999"></circle>
                <circle id="Oval-Copy-34" stroke="#277BB3" stroke-width="10.0749998" cx="635" cy="307" r="13.0374999"></circle>
                <circle id="Oval-Copy-33" stroke="#277BB3" stroke-width="10.0749998" cx="431" cy="199" r="13.0374999"></circle>
                <circle id="Oval-Copy-36" stroke="#277BB3" stroke-width="10.0749998" cx="16" cy="303" r="13.0374999"></circle>
                <circle id="Oval-Copy-37" stroke="#277BB3" stroke-width="10.0749998" cx="8" cy="36" r="13.0374999"></circle>
                <circle id="Oval-Copy-35" stroke="#277BB3" stroke-width="10.0749998" cx="666" cy="26" r="13.0374999"></circle>
                <circle id="Oval-Copy-32" stroke="#3776A8" stroke-width="10.0749998" cx="1035" cy="289" r="13.0374999"></circle>
                <g id="Group-Copy-2" transform="translate(1248.000000, 219.000000)" fill="#2575AB">
                    <rect id="Rectangle-20" x="9.9" y="1.80645161" width="7.2" height="26.1935484" rx="3.6"></rect>
                    <rect id="Rectangle-20-Copy" transform="translate(9.000000, 7.677419) rotate(61.000000) translate(-9.000000, -7.677419) " x="5.4" y="0" width="7.2" height="15.3548387" rx="3.6"></rect>
                </g>
                <g id="Group-Copy-17" transform="translate(1181.000000, 283.000000)" fill="#2575AB">
                    <rect id="Rectangle-20" x="9" y="1" width="7.2" height="26.1935484" rx="3.6"></rect>
                    <rect id="Rectangle-20-Copy" transform="translate(8.460137, 6.870718) rotate(61.000000) translate(-8.460137, -6.870718) " x="4.8601369" y="-0.806701647" width="7.2" height="15.3548387" rx="3.6"></rect>
                </g>
                <g id="Group-Copy-11" transform="translate(1163.000000, 5.000000)" fill="#2575AB">
                    <rect id="Rectangle-20" x="9.9" y="1.80645161" width="7.2" height="26.1935484" rx="3.6"></rect>
                    <rect id="Rectangle-20-Copy" transform="translate(9.000000, 7.677419) rotate(61.000000) translate(-9.000000, -7.677419) " x="5.4" y="0" width="7.2" height="15.3548387" rx="3.6"></rect>
                </g>
                <g id="Group-Copy-13" transform="translate(560.000000, 55.000000)" fill="#2575AB">
                    <rect id="Rectangle-20" x="9.9" y="1.80645161" width="7.2" height="26.1935484" rx="3.6"></rect>
                    <rect id="Rectangle-20-Copy" transform="translate(9.000000, 7.677419) rotate(61.000000) translate(-9.000000, -7.677419) " x="5.4" y="0" width="7.2" height="15.3548387" rx="3.6"></rect>
                </g>
                <g id="Group-Copy-15" transform="translate(741.000000, 234.000000)" fill="#2575AB">
                    <rect id="Rectangle-20" x="9.9" y="1.80645161" width="7.2" height="26.1935484" rx="3.6"></rect>
                    <rect id="Rectangle-20-Copy" transform="translate(9.000000, 7.677419) rotate(61.000000) translate(-9.000000, -7.677419) " x="5.4" y="0" width="7.2" height="15.3548387" rx="3.6"></rect>
                </g>
                <g id="Group-Copy" transform="translate(1108.000000, 171.000000)" fill="#2575AB">
                    <rect id="Rectangle-20" x="16" y="2" width="14" height="49" rx="7"></rect>
                    <rect id="Rectangle-20-Copy" transform="translate(15.638343, 12.909673) rotate(61.000000) translate(-15.638343, -12.909673) " x="8.63834324" y="-1.09032737" width="14" height="28" rx="7"></rect>
                </g>
                <g id="Group-Copy-8" transform="translate(933.000000, 188.000000)" fill="#2575AB">
                    <g id="Group-7">
                        <rect id="Rectangle-20" x="16" y="2" width="14" height="49" rx="7"></rect>
                        <rect id="Rectangle-20-Copy" transform="translate(16.000000, 13.000000) rotate(61.000000) translate(-16.000000, -13.000000) " x="9" y="-1" width="14" height="28" rx="7"></rect>
                    </g>
                </g>
                <g id="Group-Copy-12" transform="translate(471.000000, 247.000000)" fill="#3372A3">
                    <rect id="Rectangle-20" x="16" y="2" width="14" height="49" rx="7"></rect>
                    <rect id="Rectangle-20-Copy" transform="translate(16.000000, 13.000000) rotate(61.000000) translate(-16.000000, -13.000000) " x="9" y="-1" width="14" height="28" rx="7"></rect>
                </g>
                <g id="Group-Copy-14" transform="translate(453.000000, 8.000000)" fill="#2575AB">
                    <rect id="Rectangle-20" x="15" y="2" width="14" height="49" rx="7"></rect>
                    <rect id="Rectangle-20-Copy" transform="translate(15.638343, 12.909673) rotate(61.000000) translate(-15.638343, -12.909673) " x="8.63834324" y="-1.09032737" width="14" height="28" rx="7"></rect>
                </g>
                <g id="Group-Copy-4" transform="translate(287.000000, 19.000000)" fill="#2575AB">
                    <rect id="Rectangle-20" x="31.8431373" y="3.28915663" width="23.0588235" height="87.7108434" rx="11.5294118"></rect>
                    <rect id="Rectangle-20-Copy" transform="translate(28.000000, 23.024096) rotate(61.000000) translate(-28.000000, -23.024096) " x="16.4705882" y="-2.19277108" width="23.0588235" height="50.4337349" rx="11.5294118"></rect>
                </g>
                <g id="Group-Copy-6" transform="translate(1285.000000, 116.000000)" fill="#2575AB">
                    <rect id="Rectangle-20" x="26.1568627" y="2.71084337" width="18.9411765" height="72.2891566" rx="9.47058824"></rect>
                    <rect id="Rectangle-20-Copy" transform="translate(23.000000, 18.975904) rotate(61.000000) translate(-23.000000, -18.975904) " x="13.5294118" y="-1.80722892" width="18.9411765" height="41.5662651" rx="9.47058824"></rect>
                </g>
                <g id="Group-Copy-9" transform="translate(903.000000, 3.000000)" fill="#2575AB">
                    <rect id="Rectangle-20" x="26.1568627" y="2.71084337" width="18.9411765" height="72.2891566" rx="9.47058824"></rect>
                    <rect id="Rectangle-20-Copy" transform="translate(23.000000, 18.975904) rotate(61.000000) translate(-23.000000, -18.975904) " x="13.5294118" y="-1.80722892" width="18.9411765" height="41.5662651" rx="9.47058824"></rect>
                </g>
                <g id="Group-Copy-5" transform="translate(16.000000, 128.000000)" fill="#2170A6">
                    <rect id="Rectangle-20" x="18.7297297" y="1.80327869" width="13.3783784" height="52.295082" rx="6.68918919"></rect>
                    <rect id="Rectangle-20-Copy" transform="translate(16.500000, 13.975410) rotate(61.000000) translate(-16.500000, -13.975410) " x="9.81081081" y="-0.901639344" width="13.3783784" height="29.7540984" rx="6.68918919"></rect>
                </g>
                <circle id="Oval-Copy-21" stroke="#3372A3" stroke-width="18.675" cx="1144.5" cy="94.5" r="29.8375"></circle>
                <circle id="Oval-Copy-29" stroke="#3785B9" stroke-width="18.675" cx="833.5" cy="69.5" r="29.8375"></circle>
                <g id="Group-6" transform="translate(139.000000, 73.000000)">
                    <g id="Group-5">
                        <g id="Rectangle-19-Copy">
                            <use fill="#2980B9" fill-rule="evenodd" xlink:href="#path-1"></use>
                            <path stroke="#326B97" stroke-width="5.58657" d="M2.793285,48.293285 L2.793285,168.048301 C2.793285,172.995824 5.25751262,177.618349 9.36514278,180.37613 C32.9255446,196.194109 57.454835,204.122661 83.0091164,204.206063 C110.937234,204.297212 137.647253,194.833135 163.206715,175.748585 L163.206715,48.293285 L2.793285,48.293285 Z"></path>
                        </g>
                        <ellipse id="Oval-10-Copy" stroke="#226999" stroke-width="5.8" fill="#2980B9" cx="83.3408744" cy="46.1071429" rx="79.7058379" ry="43.1071429"></ellipse>
                        <path d="M83.3408744,92.1142857 C37.9315735,92.1142857 0.00988769531,71.9973598 0.00988769531,46.1071429 C0.00988769531,20.2169259 37.9315735,0.1 83.3408744,0.1 C128.750175,0.1 165.946712,20.2169259 165.946712,46.1071429 C165.946712,71.9973598 128.750175,92.1142857 83.3408744,92.1142857 Z M83.3408744,86.3142857 C125.972211,86.3142857 160.146712,67.8317611 160.146712,46.1071429 C160.146712,24.3825246 125.972211,5.9 83.3408744,5.9 C40.7095378,5.9 6.26171875,24.5439364 6.26171875,46.2685547 C6.26171875,67.993173 40.7095378,86.3142857 83.3408744,86.3142857 Z" id="Oval-10-Copy-2" fill="#226999" fill-rule="nonzero"></path>
                        <path d="M3.6350365,100.793637 C22.7965135,117.68894 49.8573407,125.968743 84.8175182,125.633047 C119.777696,125.297351 146.838523,116.395859 166,98.9285714" id="Path-19-Copy" stroke="#326B97" stroke-width="5.58657"></path>
                        <path d="M3.6350365,137.785714 C27.3270917,156.565587 55.4628428,165.443914 88.0422898,164.420696 C120.621737,163.397478 146.60764,154.51915 166,137.785714" id="Path-20-Copy" stroke="#326B97" stroke-width="5.58657"></path>
                    </g>
                    <g id="Group-4" transform="translate(124.000000, 94.000000)">
                        <g id="Oval-11">
                            <use fill="#2980B9" fill-rule="evenodd" xlink:href="#path-2"></use>
                            <ellipse stroke="#326B97" stroke-width="5.58657" cx="57.0115583" cy="57.2028424" rx="59.8048433" ry="59.9961274"></ellipse>
                        </g>
                        <path d="M28.5636802,32.72326 C40.95492,32.4728104 50.1347257,29.6687931 56.1030971,24.311208 C56.8613611,24.311208 65.6275857,32.72326 85.4904314,32.72326 C85.2468992,32.3608755 93.8565595,75.6594825 56.1030971,91.5245478 C56.1030971,91.5245478 37.1367171,83.3965423 31.2595159,66.5504477 C29.1574882,60.5253081 28.2588763,49.2495789 28.5636802,32.72326 Z" id="Path-21" stroke="#3C6D96" stroke-width="5.58657" stroke-linecap="round" stroke-linejoin="round"></path>
                    </g>
                </g>
                <circle id="Oval-Copy-16" stroke="#277BB3" stroke-width="6.075" cx="102" cy="85" r="8.0375"></circle>
                <circle id="Oval-Copy-20" stroke="#277BB3" stroke-width="6.075" cx="1043" cy="26" r="8.0375"></circle>
                <circle id="Oval-Copy-30" stroke="#2575AB" stroke-width="6.075" cx="741" cy="91" r="8.0375"></circle>
                <g id="Group-Copy-3" transform="translate(306.000000, 310.000000)" fill="#2575AB">
                    <rect id="Rectangle-20" x="9.9" y="1.80645161" width="7.2" height="26.1935484" rx="3.6"></rect>
                    <rect id="Rectangle-20-Copy" transform="translate(9.000000, 7.677419) rotate(61.000000) translate(-9.000000, -7.677419) " x="5.4" y="0" width="7.2" height="15.3548387" rx="3.6"></rect>
                </g>
                <g id="Group-Copy" transform="translate(143.000000, 0.000000)" fill="#2575AB">
                    <rect id="Rectangle-20" x="12" y="2" width="10.7142857" height="38.2666667" rx="5.35714286"></rect>
                    <rect id="Rectangle-20-Copy" transform="translate(12.159703, 9.986048) rotate(61.000000) translate(-12.159703, -9.986048) " x="6.80256034" y="-0.947285435" width="10.7142857" height="21.8666667" rx="5.35714286"></rect>
                </g>
                <circle id="Oval-Copy-22" stroke="#277BB3" stroke-width="6.075" cx="383" cy="27" r="8.0375"></circle>
            </g>
        </g>
    </g>
</svg>