<?xml version="1.0" encoding="UTF-8"?>
<svg width="25px" height="25px" viewBox="0 0 25 25" version="1.1" xmlns="http://www.w3.org/2000/svg" xmlns:xlink="http://www.w3.org/1999/xlink">
    <title>Combined Shape</title>
    <desc>Created with Sketch.</desc>
    <defs></defs>
    <g id="Page-1" stroke="none" stroke-width="1" fill="none" fill-rule="evenodd" stroke-linecap="round" stroke-linejoin="round">
        <g id="ticket_messaging" transform="translate(-211.000000, -673.000000)" stroke="#2980B9" stroke-width="1.35">
            <path d="M221.44,692.609232 C221.44,691.107071 221.44,687.805578 221.44,682.704752 C221.44,681.34051 221.839479,680.570532 222.475156,680.065107 C222.91882,679.712352 223.477285,679.366281 224.406112,679.434017 C226.055371,679.554293 226.88,680.644538 226.88,682.704752 L226.88,690.983296 L226.88,695.007452 C226.705107,697.791852 224.337007,700 221.44,700 C218.542993,700 216.174893,697.791852 216.009256,695.007452 L216,682.704752 C216,677.5348 219.104178,673 224.406112,673 C229.708046,673 232,677.5348 232,682.704752 L232,692.297775" id="Combined-Shape" transform="translate(224.000000, 686.500000) rotate(-323.000000) translate(-224.000000, -686.500000) "></path>
        </g>
    </g>
</svg>