<?xml version="1.0" encoding="UTF-8"?>
<svg width="1257px" height="336px" viewBox="0 0 1257 336" version="1.1" xmlns="http://www.w3.org/2000/svg" xmlns:xlink="http://www.w3.org/1999/xlink">
    <!-- Generator: Sketch 47.1 (45422) - http://www.bohemiancoding.com/sketch -->
    <title>graphic 1</title>
    <desc>Created with Sketch.</desc>
    <defs></defs>
    <g id="Page-1" stroke="none" stroke-width="1" fill="none" fill-rule="evenodd">
        <g id="bug-bounty" transform="translate(-62.000000, -165.000000)">
            <g id="graphic-1" transform="translate(56.000000, 154.000000)">
                <g id="Group" transform="translate(1221.500000, 258.500000) rotate(-330.000000) translate(-1221.500000, -258.500000) translate(1181.000000, 220.000000)">
                    <ellipse id="Oval-44" fill="#236EA0" cx="39.9130435" cy="49.9925373" rx="21.1304348" ry="20.9271086"></ellipse>
                    <ellipse id="Oval-44-Copy" fill="#236EA0" cx="39.9130435" cy="22.0897258" rx="10.5652174" ry="10.4635543"></ellipse>
                    <path d="M0,31.390663 L79.6460965,31.390663" id="Path-47" stroke="#236EA0" stroke-width="4.68" stroke-linecap="round" stroke-linejoin="round"></path>
                    <polyline id="Path-67" stroke="#236EA0" stroke-width="4.68" stroke-linecap="round" stroke-linejoin="round" points="17.6086957 0 17.6086957 18.6018743 31.0645593 29.1965637"></polyline>
                    <polyline id="Path-67" stroke="#236EA0" stroke-width="4.68" stroke-linecap="round" stroke-linejoin="round" transform="translate(56.032280, 14.598282) scale(-1, 1) translate(-56.032280, -14.598282) " points="49.3043478 0 49.3043478 18.6018743 62.7602114 29.1965637"></polyline>
                    <polyline id="Path-80" stroke="#236EA0" stroke-width="4.68" stroke-linecap="round" stroke-linejoin="round" points="0 65.130403 0 48.2213628 26.7959409 33.7158973"></polyline>
                    <polyline id="Path-80-Copy" stroke="#236EA0" stroke-width="4.68" stroke-linecap="round" stroke-linejoin="round" points="11.7391304 76.9536619 11.7391304 54.5000505 20.0658579 49.9925373"></polyline>
                    <polyline id="Path-80-Copy" stroke="#236EA0" stroke-width="4.68" stroke-linecap="round" stroke-linejoin="round" transform="translate(65.206842, 63.473100) scale(-1, 1) translate(-65.206842, -63.473100) " points="61.0434783 76.9536619 61.0434783 54.5000505 69.3702057 49.9925373"></polyline>
                    <polyline id="Path-80" stroke="#236EA0" stroke-width="4.68" stroke-linecap="round" stroke-linejoin="round" transform="translate(67.397970, 49.423150) scale(-1, 1) translate(-67.397970, -49.423150) " points="54 65.130403 54 48.2213628 80.7959409 33.7158973"></polyline>
                </g>
                <g id="Group-Copy-3" transform="translate(351.500000, 94.500000) rotate(-330.000000) translate(-351.500000, -94.500000) translate(311.000000, 56.000000)">
                    <ellipse id="Oval-44" fill="#236EA0" cx="39.9130435" cy="49.9925373" rx="21.1304348" ry="20.9271086"></ellipse>
                    <ellipse id="Oval-44-Copy" fill="#236EA0" cx="39.9130435" cy="22.0897258" rx="10.5652174" ry="10.4635543"></ellipse>
                    <path d="M0,31.390663 L79.6460965,31.390663" id="Path-47" stroke="#236EA0" stroke-width="4.68" stroke-linecap="round" stroke-linejoin="round"></path>
                    <polyline id="Path-67" stroke="#236EA0" stroke-width="4.68" stroke-linecap="round" stroke-linejoin="round" points="17.6086957 0 17.6086957 18.6018743 31.0645593 29.1965637"></polyline>
                    <polyline id="Path-67" stroke="#236EA0" stroke-width="4.68" stroke-linecap="round" stroke-linejoin="round" transform="translate(56.032280, 14.598282) scale(-1, 1) translate(-56.032280, -14.598282) " points="49.3043478 0 49.3043478 18.6018743 62.7602114 29.1965637"></polyline>
                    <polyline id="Path-80" stroke="#236EA0" stroke-width="4.68" stroke-linecap="round" stroke-linejoin="round" points="0 65.130403 0 48.2213628 26.7959409 33.7158973"></polyline>
                    <polyline id="Path-80-Copy" stroke="#236EA0" stroke-width="4.68" stroke-linecap="round" stroke-linejoin="round" points="11.7391304 76.9536619 11.7391304 54.5000505 20.0658579 49.9925373"></polyline>
                    <polyline id="Path-80-Copy" stroke="#236EA0" stroke-width="4.68" stroke-linecap="round" stroke-linejoin="round" transform="translate(65.206842, 63.473100) scale(-1, 1) translate(-65.206842, -63.473100) " points="61.0434783 76.9536619 61.0434783 54.5000505 69.3702057 49.9925373"></polyline>
                    <polyline id="Path-80" stroke="#236EA0" stroke-width="4.68" stroke-linecap="round" stroke-linejoin="round" transform="translate(67.397970, 49.423150) scale(-1, 1) translate(-67.397970, -49.423150) " points="54 65.130403 54 48.2213628 80.7959409 33.7158973"></polyline>
                </g>
                <g id="Group-Copy" transform="translate(954.500000, 297.000000) rotate(-330.000000) translate(-954.500000, -297.000000) translate(914.000000, 258.000000)">
                    <ellipse id="Oval-44" fill="#236EA0" cx="39.9130435" cy="50.0597015" rx="21.1304348" ry="20.9552239"></ellipse>
                    <ellipse id="Oval-44-Copy" fill="#236EA0" cx="39.9130435" cy="22.119403" rx="10.5652174" ry="10.4776119"></ellipse>
                    <path d="M0,31.4328358 L79.6460965,31.4328358" id="Path-47" stroke="#236EA0" stroke-width="4.68" stroke-linecap="round" stroke-linejoin="round"></path>
                    <polyline id="Path-67" stroke="#236EA0" stroke-width="4.68" stroke-linecap="round" stroke-linejoin="round" points="17.6086957 0 17.6086957 18.6268657 31.0645593 29.2357888"></polyline>
                    <polyline id="Path-67" stroke="#236EA0" stroke-width="4.68" stroke-linecap="round" stroke-linejoin="round" transform="translate(56.032280, 14.617894) scale(-1, 1) translate(-56.032280, -14.617894) " points="49.3043478 0 49.3043478 18.6268657 62.7602114 29.2357888"></polyline>
                    <polyline id="Path-80" stroke="#236EA0" stroke-width="4.68" stroke-linecap="round" stroke-linejoin="round" points="0 65.2179046 0 48.2861474 26.7959409 33.761194"></polyline>
                    <polyline id="Path-80-Copy" stroke="#236EA0" stroke-width="4.68" stroke-linecap="round" stroke-linejoin="round" points="11.7391304 77.0570479 11.7391304 54.5732705 20.0658579 50.0597015"></polyline>
                    <polyline id="Path-80-Copy" stroke="#236EA0" stroke-width="4.68" stroke-linecap="round" stroke-linejoin="round" transform="translate(65.206842, 63.558375) scale(-1, 1) translate(-65.206842, -63.558375) " points="61.0434783 77.0570479 61.0434783 54.5732705 69.3702057 50.0597015"></polyline>
                    <polyline id="Path-80" stroke="#236EA0" stroke-width="4.68" stroke-linecap="round" stroke-linejoin="round" transform="translate(67.397970, 49.489549) scale(-1, 1) translate(-67.397970, -49.489549) " points="54 65.2179046 54 48.2861474 80.7959409 33.761194"></polyline>
                </g>
                <g id="Group-Copy-4" transform="translate(218.500000, 288.000000) rotate(-330.000000) translate(-218.500000, -288.000000) translate(178.000000, 249.000000)">
                    <ellipse id="Oval-44" fill="#236EA0" cx="39.9130435" cy="50.0597015" rx="21.1304348" ry="20.9552239"></ellipse>
                    <ellipse id="Oval-44-Copy" fill="#236EA0" cx="39.9130435" cy="22.119403" rx="10.5652174" ry="10.4776119"></ellipse>
                    <path d="M0,31.4328358 L79.6460965,31.4328358" id="Path-47" stroke="#236EA0" stroke-width="4.68" stroke-linecap="round" stroke-linejoin="round"></path>
                    <polyline id="Path-67" stroke="#236EA0" stroke-width="4.68" stroke-linecap="round" stroke-linejoin="round" points="17.6086957 0 17.6086957 18.6268657 31.0645593 29.2357888"></polyline>
                    <polyline id="Path-67" stroke="#236EA0" stroke-width="4.68" stroke-linecap="round" stroke-linejoin="round" transform="translate(56.032280, 14.617894) scale(-1, 1) translate(-56.032280, -14.617894) " points="49.3043478 0 49.3043478 18.6268657 62.7602114 29.2357888"></polyline>
                    <polyline id="Path-80" stroke="#236EA0" stroke-width="4.68" stroke-linecap="round" stroke-linejoin="round" points="0 65.2179046 0 48.2861474 26.7959409 33.761194"></polyline>
                    <polyline id="Path-80-Copy" stroke="#236EA0" stroke-width="4.68" stroke-linecap="round" stroke-linejoin="round" points="11.7391304 77.0570479 11.7391304 54.5732705 20.0658579 50.0597015"></polyline>
                    <polyline id="Path-80-Copy" stroke="#236EA0" stroke-width="4.68" stroke-linecap="round" stroke-linejoin="round" transform="translate(65.206842, 63.558375) scale(-1, 1) translate(-65.206842, -63.558375) " points="61.0434783 77.0570479 61.0434783 54.5732705 69.3702057 50.0597015"></polyline>
                    <polyline id="Path-80" stroke="#236EA0" stroke-width="4.68" stroke-linecap="round" stroke-linejoin="round" transform="translate(67.397970, 49.489549) scale(-1, 1) translate(-67.397970, -49.489549) " points="54 65.2179046 54 48.2861474 80.7959409 33.761194"></polyline>
                </g>
                <g id="Group-Copy-2" transform="translate(1064.000000, 83.000000) rotate(-330.000000) translate(-1064.000000, -83.000000) translate(1002.000000, 24.000000)">
                    <ellipse id="Oval-44" fill="#236EA0" cx="61.1014493" cy="77.0152672" rx="32.3478261" ry="31.9770992"></ellipse>
                    <ellipse id="Oval-44-Copy" fill="#236EA0" cx="61.1014493" cy="34.2290076" rx="16.173913" ry="16.2137405"></ellipse>
                    <path d="M0,48.6412214 L122.202899,48.6412214" id="Path-47" stroke="#236EA0" stroke-width="5.4" stroke-linecap="round" stroke-linejoin="round"></path>
                    <polyline id="Path-67" stroke="#236EA0" stroke-width="5.4" stroke-linecap="round" stroke-linejoin="round" points="26.9565217 0 26.9565217 28.6949639 47.6231884 45.0381679"></polyline>
                    <polyline id="Path-67" stroke="#236EA0" stroke-width="5.4" stroke-linecap="round" stroke-linejoin="round" transform="translate(85.811594, 22.519084) scale(-1, 1) translate(-85.811594, -22.519084) " points="75.4782609 0 75.4782609 28.6949639 96.1449275 45.0381679"></polyline>
                    <polyline id="Path-80" stroke="#236EA0" stroke-width="5.4" stroke-linecap="round" stroke-linejoin="round" points="0 100.885496 0 74.7040762 41.3333333 52.2442748"></polyline>
                    <polyline id="Path-80-Copy" stroke="#236EA0" stroke-width="5.4" stroke-linecap="round" stroke-linejoin="round" points="17.9710145 118 17.9710145 83.4922422 30.5507246 76.5648855"></polyline>
                    <polyline id="Path-80-Copy" stroke="#236EA0" stroke-width="5.4" stroke-linecap="round" stroke-linejoin="round" transform="translate(99.739130, 97.282443) scale(-1, 1) translate(-99.739130, -97.282443) " points="93.4492754 118 93.4492754 83.4922422 106.028986 76.5648855"></polyline>
                    <polyline id="Path-80" stroke="#236EA0" stroke-width="5.4" stroke-linecap="round" stroke-linejoin="round" transform="translate(103.333333, 76.564885) scale(-1, 1) translate(-103.333333, -76.564885) " points="82.6666667 100.885496 82.6666667 74.7040762 124 52.2442748"></polyline>
                </g>
                <g id="Group-Copy-5" transform="translate(84.000000, 109.000000) rotate(-330.000000) translate(-84.000000, -109.000000) translate(22.000000, 50.000000)">
                    <ellipse id="Oval-44" fill="#236EA0" cx="61.1014493" cy="77.0152672" rx="32.3478261" ry="31.9770992"></ellipse>
                    <ellipse id="Oval-44-Copy" fill="#236EA0" cx="61.1014493" cy="34.2290076" rx="16.173913" ry="16.2137405"></ellipse>
                    <path d="M0,48.6412214 L122.202899,48.6412214" id="Path-47" stroke="#236EA0" stroke-width="5.4" stroke-linecap="round" stroke-linejoin="round"></path>
                    <polyline id="Path-67" stroke="#236EA0" stroke-width="5.4" stroke-linecap="round" stroke-linejoin="round" points="26.9565217 0 26.9565217 28.6949639 47.6231884 45.0381679"></polyline>
                    <polyline id="Path-67" stroke="#236EA0" stroke-width="5.4" stroke-linecap="round" stroke-linejoin="round" transform="translate(85.811594, 22.519084) scale(-1, 1) translate(-85.811594, -22.519084) " points="75.4782609 0 75.4782609 28.6949639 96.1449275 45.0381679"></polyline>
                    <polyline id="Path-80" stroke="#236EA0" stroke-width="5.4" stroke-linecap="round" stroke-linejoin="round" points="0 100.885496 0 74.7040762 41.3333333 52.2442748"></polyline>
                    <polyline id="Path-80-Copy" stroke="#236EA0" stroke-width="5.4" stroke-linecap="round" stroke-linejoin="round" points="17.9710145 118 17.9710145 83.4922422 30.5507246 76.5648855"></polyline>
                    <polyline id="Path-80-Copy" stroke="#236EA0" stroke-width="5.4" stroke-linecap="round" stroke-linejoin="round" transform="translate(99.739130, 97.282443) scale(-1, 1) translate(-99.739130, -97.282443) " points="93.4492754 118 93.4492754 83.4922422 106.028986 76.5648855"></polyline>
                    <polyline id="Path-80" stroke="#236EA0" stroke-width="5.4" stroke-linecap="round" stroke-linejoin="round" transform="translate(103.333333, 76.564885) scale(-1, 1) translate(-103.333333, -76.564885) " points="82.6666667 100.885496 82.6666667 74.7040762 124 52.2442748"></polyline>
                </g>
            </g>
        </g>
    </g>
</svg>