<?xml version="1.0" encoding="UTF-8"?>
<svg width="114px" height="73px" viewBox="0 0 114 73" version="1.1" xmlns="http://www.w3.org/2000/svg" xmlns:xlink="http://www.w3.org/1999/xlink">
    <!-- Generator: Sketch 47.1 (45422) - http://www.bohemiancoding.com/sketch -->
    <title>1</title>
    <desc>Created with Sketch.</desc>
    <defs></defs>
    <g id="Page-1" stroke="none" stroke-width="1" fill="none" fill-rule="evenodd">
        <g id="bug-bounty" transform="translate(-255.000000, -1372.000000)" stroke="#2980B9" stroke-width="4">
            <g id="1" transform="translate(257.000000, 1372.000000)">
                <rect id="Rectangle-34" x="63" y="2" width="33" height="49" rx="16.5"></rect>
                <path d="M53,9 C61.8333333,15 70.6666667,18 79.5,18 C88.3333333,18 97.1666667,15 106,9" id="Path-33" stroke-linecap="round"></path>
                <path d="M49,29.0461538 L62.3194444,27" id="Path-34" stroke-linecap="round"></path>
                <path d="M96,29.0461538 L109.319444,27" id="Path-34" stroke-linecap="round" transform="translate(103.000000, 28.500000) scale(-1, 1) translate(-103.000000, -28.500000) "></path>
                <path d="M53.5387205,48.5707692 L62.7418631,40" id="Path-34" stroke-linecap="round"></path>
                <path d="M96.6285073,48.5707692 L105.741863,40" id="Path-34" stroke-linecap="round" transform="translate(101.000000, 44.500000) scale(-1, 1) translate(-101.000000, -44.500000) "></path>
                <path d="M80,32 L80,51" id="Path-35" stroke-linecap="round"></path>
                <rect id="Rectangle-34" x="10" y="41" width="20" height="30" rx="10"></rect>
                <path d="M3,45 C8.83333333,49 14.6666667,51 20.5,51 C26.3333333,51 32.1666667,49 38,45" id="Path-33" stroke-linecap="round"></path>
                <path d="M0,57.3641026 L8.5625,56" id="Path-34" stroke-linecap="round"></path>
                <path d="M31,57.3641026 L39.5625,56" id="Path-34" stroke-linecap="round" transform="translate(35.500000, 57.000000) scale(-1, 1) translate(-35.500000, -57.000000) "></path>
                <path d="M3.32323232,70.7138462 L8.84511785,65" id="Path-34" stroke-linecap="round"></path>
                <path d="M31.3771044,70.7138462 L36.8451178,65" id="Path-34" stroke-linecap="round" transform="translate(34.000000, 68.000000) scale(-1, 1) translate(-34.000000, -68.000000) "></path>
                <path d="M20.8747277,60.1833333 L20.8747277,70.4923077" id="Path-35" stroke-linecap="round"></path>
            </g>
        </g>
    </g>
</svg>