<?xml version="1.0" encoding="UTF-8"?>
<svg width="35px" height="38px" viewBox="0 0 35 38" version="1.1" xmlns="http://www.w3.org/2000/svg" xmlns:xlink="http://www.w3.org/1999/xlink">
    <!-- Generator: Sketch 47.1 (45422) - http://www.bohemiancoding.com/sketch -->
    <title>5</title>
    <desc>Created with Sketch.</desc>
    <defs></defs>
    <g id="Page-1" stroke="none" stroke-width="1" fill="none" fill-rule="evenodd">
        <g id="bug-bounty" transform="translate(-704.000000, -1006.000000)" stroke="#3378A7" stroke-width="1.5">
            <g id="5" transform="translate(705.000000, 1007.000000)">
                <circle id="Oval-45" cx="5" cy="18" r="5"></circle>
                <circle id="Oval-45-Copy" cx="30" cy="13" r="3"></circle>
                <circle id="Oval-45-Copy" cx="30" cy="23" r="3"></circle>
                <circle id="Oval-45-Copy" cx="30" cy="3" r="3"></circle>
                <circle id="Oval-45-Copy" cx="30" cy="33" r="3"></circle>
                <path d="M5.00943772,13 C4.81464576,6.2608152 7.63519197,2.92787629 13.4710764,3.00118325 L27,3.00118325" id="Path-81"></path>
                <path d="M5.00939798,33 C4.81542637,26.2608152 7.62409393,22.9278763 13.4354006,23.0011832 L27,23.0011832" id="Path-81" transform="translate(16.000000, 28.000000) scale(-1, 1) rotate(-180.000000) translate(-16.000000, -28.000000) "></path>
                <path d="M27.0333252,13.098999 L14.4597168,13.098999 C11.5016683,13.172404 10.0161947,14.7609253 10.0032959,17.864563" id="Path-82"></path>
                <path d="M27.0333252,18.098999 L14.4597168,18.098999 C11.5016683,18.172404 10.0161947,19.7609253 10.0032959,22.864563" id="Path-82" transform="translate(18.518311, 20.481781) scale(1, -1) translate(-18.518311, -20.481781) "></path>
            </g>
        </g>
    </g>
</svg>