<?xml version="1.0" encoding="UTF-8"?>
<svg width="44px" height="42px" viewBox="0 0 44 42" version="1.1" xmlns="http://www.w3.org/2000/svg" xmlns:xlink="http://www.w3.org/1999/xlink">
    <!-- Generator: Sketch 47.1 (45422) - http://www.bohemiancoding.com/sketch -->
    <title>4</title>
    <desc>Created with Sketch.</desc>
    <defs></defs>
    <g id="Page-1" stroke="none" stroke-width="1" fill="none" fill-rule="evenodd">
        <g id="bug-bounty" transform="translate(-388.000000, -1004.000000)" stroke-width="1.5">
            <g id="4" transform="translate(389.000000, 1005.000000)">
                <path d="M9.69468214,24.7406225 C5.67507634,24.8650661 3.16028881,24.4437662 2.15031956,23.4767228 C-2.25984582,19.2539986 0.807472411,13.3864548 5.12261818,13.0983307 C1.65735165,6.85177137 10.4585866,1.89012069 14.893956,6.3021862 C16.4839587,-0.795207618 27.0273534,-1.4931967 32.2253874,2.19316175 C35.6907434,4.65073404 36.9678443,8.28842025 36.05669,13.1062204 C39.9874986,13.5592684 41.9683332,15.4202689 41.999194,18.689222 C42.041629,23.1841795 40.4234278,24.5052368 33.5698019,24.6941413" id="Path-17-Copy-2" stroke="#236EA0" stroke-linecap="round" stroke-linejoin="round"></path>
                <g id="Group-19" transform="translate(9.545455, 12.380952)" stroke="#3378A7">
                    <path d="M0.0240712055,2.78212454 C4.66899646,2.73254534 8.64931254,1.8051705 11.9650194,0 C11.9650194,0 16.1634794,2.78212454 23.8636364,2.78212454 C23.8636364,2.78212454 23.8636364,4.97199282 23.8636364,7.99281704 C23.8636364,12.0445755 23.4658683,15.3326517 20.6732203,19.9716797 C18.811455,23.0643651 15.9016662,25.6134878 11.9438538,27.6190476 C8.6616403,26.0519157 5.77534856,23.502793 3.28497855,19.9716797 C0.939789213,16.6464191 0.171987398,13.1020754 0.0240712055,7.99281704 C-0.00802373516,6.88420722 -0.00802373516,5.14730972 0.0240712055,2.78212454 Z" id="Path-40" stroke-linecap="round" stroke-linejoin="round"></path>
                    <g id="Group-17" transform="translate(9.068182, 7.619048)">
                        <ellipse id="Oval-17-Copy-8" cx="3.00812808" cy="3.01177652" rx="3.00812808" ry="3.01177652"></ellipse>
                        <path d="M3.49587026e-12,9.20634921 C3.49587026e-12,10.8697074 1.34678482,12.2181257 3.00812808,12.2181257 L3.00812808,12.2181257 C4.66947134,12.2181257 6.01625616,10.8697074 6.01625616,9.20634921" id="Oval-17-Copy-9" stroke-linecap="round" stroke-linejoin="round"></path>
                    </g>
                </g>
            </g>
        </g>
    </g>
</svg>