<?xml version="1.0" encoding="UTF-8"?>
<svg width="66px" height="71px" viewBox="0 0 66 71" version="1.1" xmlns="http://www.w3.org/2000/svg" xmlns:xlink="http://www.w3.org/1999/xlink">
    <!-- Generator: Sketch 47.1 (45422) - http://www.bohemiancoding.com/sketch -->
    <title>3</title>
    <desc>Created with Sketch.</desc>
    <defs></defs>
    <g id="Page-1" stroke="none" stroke-width="1" fill="none" fill-rule="evenodd">
        <g id="bug-bounty" transform="translate(-939.000000, -1373.000000)" stroke="#2980B9" stroke-width="4">
            <g id="3" transform="translate(939.000000, 1375.000000)">
                <path d="M24,18 C25.662469,18 28.662469,18 33,18 C33,13.6512395 33,10.6512395 33,9 C33,4.02943725 28.9705627,0 24,0 C19.0294373,0 15,4.02943725 15,9 C15,13.9705627 19.0294373,18 24,18 Z" id="Oval-43"></path>
                <path d="M42,18 C43.662469,18 46.662469,18 51,18 C51,13.6512395 51,10.6512395 51,9 C51,4.02943725 46.9705627,0 42,0 C37.0294373,0 33,4.02943725 33,9 C33,13.9705627 37.0294373,18 42,18 Z" id="Oval-43" transform="translate(42.000000, 9.000000) scale(-1, 1) translate(-42.000000, -9.000000) "></path>
                <path d="M59,42.4865438 L7,43.1856928 L7,66 C7,66.5522847 7.44771525,67 8,67 L58,67 C58.5522847,67 59,66.5522847 59,66 L59,42.4865438 Z" id="Rectangle-35"></path>
                <rect id="Rectangle-35" x="2" y="18" width="62" height="23" rx="3"></rect>
                <path d="M33.1923828,17.7226562 L33.1923828,66.6544303" id="Path-36"></path>
            </g>
        </g>
    </g>
</svg>