<?xml version="1.0" encoding="UTF-8"?>
<svg width="38px" height="39px" viewBox="0 0 38 39" version="1.1" xmlns="http://www.w3.org/2000/svg" xmlns:xlink="http://www.w3.org/1999/xlink">
    <!-- Generator: Sketch 47.1 (45422) - http://www.bohemiancoding.com/sketch -->
    <title>6</title>
    <desc>Created with Sketch.</desc>
    <defs>
        <rect id="path-1" x="7" y="7" width="27" height="28" rx="1.9"></rect>
    </defs>
    <g id="Page-1" stroke="none" stroke-width="1" fill="none" fill-rule="evenodd">
        <g id="bug-bounty" transform="translate(-1023.000000, -1007.000000)">
            <g id="6" transform="translate(1025.000000, 1009.000000)">
                <path d="M6.58876329,28.75 L1.9,28.75 C0.436445413,28.75 -0.75,27.5635546 -0.75,26.1 L-0.75,1.9 C-0.75,0.436445413 0.436445413,-0.75 1.9,-0.75 L25.1,-0.75 C26.5635546,-0.75 27.75,0.436445413 27.75,1.9 L27.75,6.6039402 L6.58876329,28.75 Z" id="Rectangle-31" stroke="#3378A7" stroke-width="1.5" stroke-linecap="round" stroke-linejoin="round"></path>
                <g id="Rectangle-31" stroke-linecap="round" stroke-linejoin="round">
                    <use fill="#FAFAFA" fill-rule="evenodd" xlink:href="#path-1"></use>
                    <rect stroke="#3378A7" stroke-width="1.5" x="6.25" y="6.25" width="28.5" height="29.5" rx="1.9"></rect>
                </g>
                <g id="Group-15" transform="translate(14.000000, 15.000000)" stroke-width="1.5" stroke="#3378A7">
                    <g id="Group-5">
                        <ellipse id="Oval-46" cx="1.4" cy="1.5" rx="1.4" ry="1.5"></ellipse>
                        <ellipse id="Oval-46-Copy" cx="7" cy="1.5" rx="1.4" ry="1.5"></ellipse>
                        <ellipse id="Oval-46-Copy-2" cx="12.6" cy="1.5" rx="1.4" ry="1.5"></ellipse>
                    </g>
                    <path d="M0,8 L14,8" id="Path-83" stroke-linecap="round" stroke-linejoin="round"></path>
                    <path d="M0,12 L14,12" id="Path-83" stroke-linecap="round" stroke-linejoin="round"></path>
                </g>
            </g>
        </g>
    </g>
</svg>