<?xml version="1.0" encoding="UTF-8"?>
<svg width="77px" height="74px" viewBox="0 0 77 74" version="1.1" xmlns="http://www.w3.org/2000/svg" xmlns:xlink="http://www.w3.org/1999/xlink">
    <!-- Generator: Sketch 47.1 (45422) - http://www.bohemiancoding.com/sketch -->
    <title>2</title>
    <desc>Created with Sketch.</desc>
    <defs></defs>
    <g id="Page-1" stroke="none" stroke-width="1" fill="none" fill-rule="evenodd">
        <g id="bug-bounty" transform="translate(-599.000000, -1371.000000)" stroke-width="4" stroke="#2980B9">
            <g id="2" transform="translate(603.000000, 1373.000000)">
                <g id="Group-3">
                    <path d="M19.2524414,17.6743164 L19.2524414,0 L51,0 L51,70 L-2,70 L-2,20.6743164 L16.2524414,20.6743164 C17.9092957,20.6743164 19.2524414,19.3311707 19.2524414,17.6743164 Z" id="Rectangle-36" stroke-linecap="round" stroke-linejoin="round"></path>
                    <path d="M17.7910128,0 L51,0 L51,70 L-2,70 L-2,20.2805761 L17.7910128,0 Z" id="Rectangle-36" stroke-linecap="round" stroke-linejoin="round"></path>
                    <g id="Group-4" transform="translate(14.000000, 0.000000)">
                        <g id="Group-24" transform="translate(38.234019, 38.949747) rotate(-135.000000) translate(-38.234019, -38.949747) translate(11.234019, 11.949747)">
                            <g id="Group-2" transform="translate(0.585786, 0.585786)">
                                <g id="Group-23" transform="translate(26.683554, 26.671722) rotate(-225.000000) translate(-26.683554, -26.671722) translate(8.683554, 8.171722)" fill="#FAFAFA" stroke-linecap="round" stroke-linejoin="round">
                                    <path d="M5.87973263e-13,27.9204422 L26.4134931,1.74677015 L26.4134931,1.74677015 C27.4295656,0.739923047 29.0681103,0.742950918 30.0804548,1.75354633 L35.215575,6.87979437 L35.215575,6.87979437 C36.2304167,7.89288272 36.2334378,9.53634936 35.2223274,10.5531618 L8.92379891,37 L4.79616347e-13,37 L5.87973263e-13,27.9204422 Z" id="Path-15"></path>
                                </g>
                                <path d="M21.3431458,40.2600498 L34.3431458,40.2546689" id="Path-16"></path>
                                <path d="M21.3431458,8.17882274 L33.3431458,8.33589589" id="Path-16-Copy"></path>
                            </g>
                        </g>
                    </g>
                    <path d="M14,29 L36,29" id="Path-37" stroke-linecap="round" stroke-linejoin="round"></path>
                    <path d="M14,38.3333333 L36,38.3333333" id="Path-37" stroke-linecap="round" stroke-linejoin="round"></path>
                    <path d="M14,47.6666667 L27,47.6666667" id="Path-37" stroke-linecap="round" stroke-linejoin="round"></path>
                    <path d="M14,57 L27,57" id="Path-37" stroke-linecap="round" stroke-linejoin="round"></path>
                </g>
            </g>
        </g>
    </g>
</svg>