<svg width="1261" height="402" viewBox="0 0 1261 402" xmlns="http://www.w3.org/2000/svg" xmlns:xlink="http://www.w3.org/1999/xlink"><title>8</title><defs><circle id="a" cx="1068.5" cy="425.5" r="40.5"/><circle id="b" cx="756.5" cy="417.5" r="47.5"/></defs><g fill="none" fill-rule="evenodd"><circle fill-opacity=".048" fill="#000" cx="728" cy="397" r="82"/><circle fill="#2779B0" cx="1105.5" cy="396.5" r="68.5"/><path d="M703 412.652h433.578c-62.039-13.08-110.547-45.365-145.525-96.856-34.553-50.865-53.867-101.185-57.943-150.96a2 2 0 0 0-1.993-1.836h-30.172a2 2 0 0 0-1.998 1.913c-2.117 48.696-21.808 98.99-59.072 150.883-37.753 52.573-83.378 84.858-136.875 96.856z" fill="#236EA0"/><circle fill="#2779B0" cx="1204" cy="437" r="67"/><circle fill-opacity=".048" fill="#000" cx="558" cy="440" r="55"/><circle fill="#2779B0" cx="629.5" cy="405.5" r="68.5"/><circle fill="#216795" cx="630.5" cy="438.5" r="58.5"/><circle stroke="#236EA0" stroke-width="24.2" cx="19" cy="277" r="31.1"/><circle stroke="#236EA0" stroke-width="9.2" cx="1137" cy="285" r="11.6"/><circle stroke="#236EA0" stroke-width="4.2" cx="1020.5" cy="153.5" r="5.4"/><circle stroke="#236EA0" stroke-width="9.2" cx="728" cy="231" r="12.6"/><circle fill="#216795" cx="1170" cy="446" r="61"/><use fill="#216795" xlink:href="#a"/><circle stroke="#216795" stroke-width="24.2" cx="1068.5" cy="425.5" r="52.6"/><use fill="#216795" xlink:href="#b"/><circle stroke="#216795" stroke-width="24.2" cx="756.5" cy="417.5" r="59.6"/><path d="M944.65 153.601h-56.744a1 1 0 0 1-.985-.825l-2.716-15.33a1 1 0 0 0-.985-.826h-23.608a1 1 0 0 1-.993-1.125c1.55-12.327 3.76-21.356 6.63-27.087 2.957-5.903 8.45-11.297 16.476-16.181C889.448 30.68 901.417-.063 917.632 0c16.272.063 28.302 30.805 36.091 92.227 8.437 7.645 13.69 13.599 15.756 17.86 4.33 8.925 5.965 17.48 4.905 25.662a1 1 0 0 1-.992.871h-24.04a1 1 0 0 0-.984.825l-2.733 15.332a1 1 0 0 1-.984.824zM916.5 79c6.904 0 12.5-5.596 12.5-12.5S923.404 54 916.5 54 904 59.596 904 66.5 909.596 79 916.5 79z" fill="#236EA0"/></g></svg>