<?xml version="1.0" encoding="UTF-8"?>
<svg width="74px" height="85px" viewBox="0 0 74 85" version="1.1" xmlns="http://www.w3.org/2000/svg" xmlns:xlink="http://www.w3.org/1999/xlink">
    <!-- Generator: Sketch 47.1 (45422) - http://www.bohemiancoding.com/sketch -->
    <title>5</title>
    <desc>Created with Sketch.</desc>
    <defs></defs>
    <g id="Page-1" stroke="none" stroke-width="1" fill="none" fill-rule="evenodd">
        <g id="main-page-icons" transform="translate(-285.000000, -511.000000)" stroke="#3378A7" stroke-width="4">
            <g id="5" transform="translate(287.000000, 513.000000)">
                <g id="Group-17" transform="translate(26.000000, 21.000000)">
                    <ellipse id="Oval-17-Copy-8" cx="8.82384236" cy="8.83281356" rx="8.82384236" ry="8.83281356"></ellipse>
                    <path d="M3.49587026e-12,27 C3.49587026e-12,31.8782282 3.95056879,35.8328136 8.82384236,35.8328136 L8.82384236,35.8328136 C13.6971159,35.8328136 17.6476847,31.8782282 17.6476847,27" id="Oval-17-Copy-9" stroke-linecap="round" stroke-linejoin="round"></path>
                </g>
                <path d="M0.0706088694,8.15929973 C13.695723,8.01389591 25.3713168,5.29412933 35.0973903,0 C35.0973903,0 47.412873,8.15929973 70,8.15929973 C70,8.15929973 70,14.5816548 70,23.4410031 C70,35.3238325 68.8332137,44.9669663 60.6414463,58.5721159 C55.180268,67.6422157 46.6448874,75.118177 35.0353044,81 C25.4074782,76.4039803 16.9410224,68.9280189 9.63593708,58.5721159 C2.75671502,48.8199292 0.504496367,38.4252245 0.0706088694,23.4410031 C-0.0235362898,20.1897181 -0.0235362898,15.095817 0.0706088694,8.15929973 Z" id="Path-40" stroke-linecap="round" stroke-linejoin="round"></path>
            </g>
        </g>
    </g>
</svg>