<?xml version="1.0" encoding="UTF-8"?>
<svg width="72px" height="72px" viewBox="0 0 72 72" version="1.1" xmlns="http://www.w3.org/2000/svg" xmlns:xlink="http://www.w3.org/1999/xlink">
    <!-- Generator: Sketch 47.1 (45422) - http://www.bohemiancoding.com/sketch -->
    <title>3</title>
    <desc>Created with Sketch.</desc>
    <defs></defs>
    <g id="Page-1" stroke="none" stroke-width="1" fill="none" fill-rule="evenodd">
        <g id="pricing-page-icons" transform="translate(-1100.000000, -188.000000)" stroke="#3378A7">
            <g id="3" transform="translate(1102.000000, 190.000000)">
                <g id="Group-19-Copy" transform="translate(17.504950, 18.000000)" stroke-width="2.7">
                    <ellipse id="Oval" cx="16.8316832" cy="16.6666667" rx="16.8316832" ry="16.6666667"></ellipse>
                    <path d="M17.4328147,0.595238095 C23.143703,5.24797787 25.9480865,10.5397132 25.8459652,16.4704441 C25.7265656,23.404623 23.2330617,27.4345986 17.4328147,32.7380952" id="Path-62"></path>
                    <path d="M7.81471004,0.595238095 C13.3704642,4.56979455 16.1754393,9.85825974 16.2296354,16.4606337 C16.2873508,23.4917412 13.6198401,27.431469 7.81471004,32.7380952" id="Path-62-Copy" transform="translate(12.022631, 16.666667) scale(-1, 1) translate(-12.022631, -16.666667) "></path>
                    <path d="M2.40452617,8.33333333 C7.32464802,11.2674479 12.3136341,12.6598136 17.3714844,12.5104306 C22.4293348,12.3610475 27.0383961,10.9686818 31.1986683,8.33333333" id="Path-63"></path>
                    <path d="M3.60678925,21.4285714 C7.65515296,23.9505533 12.20826,25.1368528 17.2661103,24.9874697 C22.3239606,24.8380867 26.5874496,23.6517873 30.0565771,21.4285714" id="Path-63-Copy" transform="translate(16.831683, 23.214286) rotate(-180.000000) translate(-16.831683, -23.214286) "></path>
                    <path d="M16.7733333,3.63797881e-12 L16.7733333,32.7380952" id="Path-61"></path>
                </g>
                <path d="M28.9984522,5.75455 C16.8267913,7.82840701 7.2242284,17.3407733 5.13577815,29.3951146 M5.20783324,39.6706264 C7.43741159,51.5377286 16.9651281,60.8648229 29.0054679,62.9133112 M39.4912358,62.8244176 C51.128731,60.638548 60.3289254,51.6347427 62.6942663,40.1674412 M62.8909796,29.5521522 C60.8861235,17.5850837 51.4814115,8.09334949 39.4888767,5.84180609" id="Oval-33" stroke-width="3.6"></path>
                <ellipse id="Oval-10-Copy-7" stroke-width="3.6" cx="34.3366337" cy="5.33333333" rx="5.38613861" ry="5.33333333"></ellipse>
                <ellipse id="Oval-10-Copy-8" stroke-width="3.6" cx="34.3366337" cy="62.6666667" rx="5.38613861" ry="5.33333333"></ellipse>
                <ellipse id="Oval-10-Copy-9" stroke-width="3.6" cx="62.6138614" cy="34.6666667" rx="5.38613861" ry="5.33333333"></ellipse>
                <ellipse id="Oval-10-Copy-10" stroke-width="3.6" cx="5.38613861" cy="34.6666667" rx="5.38613861" ry="5.33333333"></ellipse>
            </g>
        </g>
    </g>
</svg>