<?xml version="1.0" encoding="UTF-8"?>
<svg width="98px" height="75px" viewBox="0 0 98 75" version="1.1" xmlns="http://www.w3.org/2000/svg" xmlns:xlink="http://www.w3.org/1999/xlink">
    <!-- Generator: Sketch 47.1 (45422) - http://www.bohemiancoding.com/sketch -->
    <title>8</title>
    <desc>Created with Sketch.</desc>
    <defs></defs>
    <g id="Page-1" stroke="none" stroke-width="1" fill="none" fill-rule="evenodd">
        <g id="main-page-icons" transform="translate(-1056.000000, -522.000000)">
            <g id="8" transform="translate(1060.000000, 526.000000)">
                <g id="Group-51">
                    <g id="Group">
                        <g id="Group-18">
                            <path d="M6,-2 L60,-2 C64.418278,-2 68,1.581722 68,6 C68,10.418278 64.418278,14 60,14 L6,14 C1.581722,14 -2,10.418278 -2,6 C-2,1.581722 1.581722,-2 6,-2 Z" id="Rectangle-16" stroke="#236EA0" stroke-width="4"></path>
                            <path d="M40.9901797,38 L6,38 C1.581722,38 -2,34.418278 -2,30 C-2,25.581722 1.581722,22 6,22 L48.2821045,22 C48.5588968,22 48.8218882,22.0349692 49.1249196,22.1555998 C49.7868088,22.4190843 50.3169007,23.014074 50.4103202,23.828648 C50.4726514,24.3721466 50.3387055,24.7842053 50.1162276,25.1564246 C50.0225481,25.3131562 49.9224812,25.4421476 49.8066756,25.5714746 C49.6818231,25.7109048 49.5444133,25.8440647 49.3376883,26.0335319 C49.2415071,26.1216837 48.8536085,26.4715847 48.8003945,26.5198733 C47.5684109,27.6378241 46.5507339,28.6804142 45.3777019,30.1299581 C44.5510586,31.1514611 43.24731,33.4317911 41.540628,36.885947 L40.9901797,38 Z" id="Rectangle-16" stroke="#236EA0" stroke-width="4" stroke-linecap="round"></path>
                            <path d="M45.0148938,62 L6,62 C1.581722,62 -2,58.418278 -2,54 C-2,49.581722 1.581722,46 6,46 L39.8093861,46 L40.0383116,47.7389625 C40.4082386,50.5489998 40.7951884,52.6095678 41.1828281,53.8828415 C41.5666355,55.1435274 42.3334032,56.8833555 43.4802121,59.071621 L45.0148938,62 Z" id="Rectangle-16" stroke="#236EA0" stroke-width="4" stroke-linecap="round"></path>
                            <g id="Group-15" transform="translate(47.000000, 3.000000)" fill="#236EA0">
                                <ellipse id="Oval-25" cx="11.0833333" cy="3" rx="2.91666667" ry="3"></ellipse>
                                <ellipse id="Oval-25-Copy" cx="2.91666667" cy="3" rx="2.91666667" ry="3"></ellipse>
                            </g>
                        </g>
                    </g>
                </g>
                <g id="Group-53" transform="translate(40.000000, 20.000000)" stroke="#236EA0" stroke-width="4" stroke-linecap="round">
                    <path d="M39.0244922,48.5074771 C46.7824013,44.008479 52,35.6135572 52,26 C52,11.6405965 40.3594035,0 26,0 C11.6405965,0 0,11.6405965 0,26 C0,35.8082117 5.4310287,44.3479386 13.4498543,48.7759491" id="Oval-27"></path>
                    <path d="M38.958252,48.4605713 L30.9937934,33.4886018 C33.4092468,31.8746434 35,29.1230919 35,26 C35,21.0294373 30.9705627,17 26,17 C21.0294373,17 17,21.0294373 17,26 C17,29.111714 18.5791836,31.85459 20.9798401,33.470917 L13.4500732,48.7412109" id="Oval-28" stroke-linejoin="round"></path>
                </g>
                <polygon id="Path-2" fill="#236EA0" fill-rule="nonzero" points="44.6472168 23.9971466 56 24.0599365 56 20.0599365 44.6472168 20.0026855"></polygon>
            </g>
        </g>
    </g>
</svg>