<?xml version="1.0" encoding="UTF-8"?>
<svg width="158px" height="158px" viewBox="0 0 158 158" version="1.1" xmlns="http://www.w3.org/2000/svg" xmlns:xlink="http://www.w3.org/1999/xlink">
    <!-- Generator: Sketch 47.1 (45422) - http://www.bohemiancoding.com/sketch -->
    <title>4</title>
    <desc>Created with Sketch.</desc>
    <defs></defs>
    <g id="Page-1" stroke="none" stroke-width="1" fill="none" fill-rule="evenodd">
        <g id="pricing-page-icons" transform="translate(-1061.000000, -623.000000)">
            <g id="4" transform="translate(1061.000000, 623.000000)">
                <path d="M27.0811193,138.246933 C25.2239799,139.785355 21.3219222,142.753382 15.3749461,147.151016 C14.703655,147.661621 14.3095309,148.456585 14.3095309,149.3 C14.3095309,150.791169 15.5183621,152 17.0095309,152 L66.8054949,153 C72.3374023,153 74.8463497,153 79,153 C119.869071,153 153,119.869071 153,79 C153,38.1309285 119.869071,5 79,5 C38.1309285,5 5,38.1309285 5,79 C5,99.1595897 13.0613438,117.436352 26.1363393,130.782594 C29.1658936,134.157837 29.8668285,135.939301 27.0811193,138.246933 Z M0,79 C0,35.3695048 35.3695048,0 79,0 C122.630495,0 158,35.3695048 158,79 C158,122.630495 122.630495,158 79,158 C74.7504645,158 73.2612305,158 66.8054949,158 L17.0095309,157 C12.7569383,157 9.3095309,153.552593 9.3095309,149.3 C9.3095309,146.894705 10.4335145,144.627586 12.3479373,143.171416 C18.5101442,138.5254 21.8299154,136.00352 22.307251,135.605774 C23.0232544,135.009155 22.696106,134.47644 22.1168394,133.820807 C8.02624948,119.204654 0,99.7294519 0,79 Z" id="Combined-Shape-Copy-2" fill="#236EA0" fill-rule="nonzero" transform="translate(79.000000, 79.000000) scale(-1, 1) translate(-79.000000, -79.000000) "></path>
                <path d="M79,44 L79,92.9931641" id="Path-6" stroke="#236EA0" stroke-width="6" stroke-linecap="round" stroke-linejoin="round"></path>
                <circle id="Oval-24" fill="#236EA0" cx="79" cy="106" r="4"></circle>
            </g>
        </g>
    </g>
</svg>