<?xml version="1.0" encoding="UTF-8"?>
<svg width="105px" height="80px" viewBox="0 0 105 80" version="1.1" xmlns="http://www.w3.org/2000/svg" xmlns:xlink="http://www.w3.org/1999/xlink">
    <!-- Generator: Sketch 47.1 (45422) - http://www.bohemiancoding.com/sketch -->
    <title>1</title>
    <desc>Created with Sketch.</desc>
    <defs></defs>
    <g id="Page-1" stroke="none" stroke-width="1" fill="none" fill-rule="evenodd">
        <g id="pricing-page-icons" transform="translate(-667.000000, -401.000000)">
            <g id="1" transform="translate(667.000000, 401.000000)">
                <g id="Group-8-Copy" transform="translate(31.000000, 29.000000)">
                    <path d="M22.8,34 C32.2992977,34 40,26.3888407 40,17 C40,7.61115925 32.2992977,0 22.8,0 C13.3007023,0 5.6,7.61115925 5.6,17" id="Oval-13" stroke="#2980B9" stroke-width="4" stroke-linecap="round" stroke-linejoin="round"></path>
                    <polyline id="Path-22" stroke="#2980B9" stroke-width="4" stroke-linecap="round" stroke-linejoin="round" points="22.4 9.48837209 22.4 17.6752641 30.9757812 17.6752641"></polyline>
                    <path d="M5.89745043,23.5618311 L0.0832932262,15.6603238 L0.0832932262,15.6603238 C-0.0476358112,15.4823897 -0.00953069181,15.2320067 0.168403392,15.1010777 C0.237107053,15.0505235 0.320172419,15.0232558 0.405471386,15.0232558 L12.0337858,15.0232558 L12.0337858,15.0232558 C12.2546997,15.0232558 12.4337858,15.2023419 12.4337858,15.4232558 C12.4337858,15.5085548 12.4065181,15.5916201 12.355964,15.6603238 L6.54180675,23.5618311 L6.54180675,23.5618311 C6.41087771,23.7397651 6.16049468,23.7778703 5.9825606,23.6469412 C5.95006009,23.6230264 5.92136524,23.5943316 5.89745043,23.5618311 Z" id="Triangle" fill="#2980B9"></path>
                </g>
                <circle id="Oval" fill="#2980B9" cx="89" cy="31" r="4"></circle>
                <path d="M18.4,16.6835271 C9.3425301,16.6835271 2,24.0260572 2,33.0835271 L2,61.6 C2,70.6574699 9.3425301,78 18.4,78 L86.6,78 C95.6574699,78 103,70.6574699 103,61.6 L103,33.0835271 C103,24.0260572 95.6574699,16.6835271 86.6,16.6835271 L78.3215082,16.6835271 L77.7714559,15.5680572 C75.3021434,10.5604543 73.3400397,7.08270495 71.9267059,5.18256132 C69.8908727,2.44550408 67.0601129,2 52.5000555,2 C40.1172262,2 37.5054374,2.56769328 35.2179802,5.24034421 C34.3330167,6.34361962 32.0826069,9.88390251 28.5733524,15.7148294 L27.9903565,16.6835271 L18.4,16.6835271 Z" id="Rectangle-22" stroke="#2980B9" stroke-width="4"></path>
            </g>
        </g>
    </g>
</svg>